<svg width="152" height="152" viewBox="0 0 152 152" fill="none" xmlns="http://www.w3.org/2000/svg">
<circle cx="76" cy="76" r="76" fill="white"/>
<path d="M30.968 105.947V67.4995H33.3392V103.576H70.2731V105.947H30.968Z" fill="black" stroke="black" stroke-width="0.0149137"/>
<path d="M70.3253 61.7428H31.2364L70.3253 37.068V61.7428Z" fill="black" stroke="black" stroke-width="0.0149137"/>
<path d="M44.5917 48.6933V53.3091L39.2153 56.7169V48.6933H44.5917Z" fill="black" stroke="black" stroke-width="0.0149137"/>
<path d="M38.9617 97.7446V67.4995H70.3253V97.7446H38.9617Z" fill="black" stroke="black" stroke-width="0.0149137"/>
<path d="M69.4006 73.7633H64.0168V79.1621H69.4006V73.7633Z" fill="white" stroke="#738087" stroke-width="0.0149137"/>
<path d="M69.4006 80.027H64.0168V85.4407H69.4006V80.027Z" fill="white" stroke="#F4F4F4" stroke-opacity="0.137255" stroke-width="0.0149137"/>
<path d="M88.6469 34.0181V105.947" stroke="black" stroke-width="0.939566"/>
<path d="M103.083 42.0119V105.947" stroke="black" stroke-width="0.939566"/>
<path d="M72.4579 105.477H120.629" stroke="black" stroke-width="0.939566"/>
<path d="M72.4579 97.2748H114.798" stroke="black" stroke-width="0.939566"/>
<path fill-rule="evenodd" clip-rule="evenodd" d="M73.5765 39.0132L126.446 66.2318L126.876 65.3965L73.5765 37.9564V39.0132Z" fill="black"/>
<path fill-rule="evenodd" clip-rule="evenodd" d="M73.5765 45.0682L126.446 72.2868L126.876 71.4515L73.5765 44.0114V45.0682Z" fill="black"/>
</svg>
