<svg width="87" height="93" viewBox="0 0 87 93" fill="none" xmlns="http://www.w3.org/2000/svg">
<g clip-path="url(#clip0_6_85)">
<path d="M70.0856 27.6217C70.5606 27.6217 70.9456 27.2366 70.9456 26.7617V23.5031C70.9456 23.0281 70.5606 22.6431 70.0856 22.6431C69.6107 22.6431 69.2256 23.0281 69.2256 23.5031V26.7617C69.2256 27.2366 69.6107 27.6217 70.0856 27.6217Z" fill="#27374D"/>
<path d="M62.5905 77.4C65.1822 77.4 67.2911 75.2915 67.2911 72.6998V51.5584C67.2911 49.6713 68.8263 48.136 70.7134 48.136H74.3323C76.1166 48.136 77.5682 46.6844 77.5682 44.9001V9.45998C77.5682 8.98504 77.1832 8.59998 76.7082 8.59998H48.4731C47.9982 8.59998 47.6131 8.98504 47.6131 9.45998V44.9001C47.6131 46.6844 49.0643 48.136 50.8486 48.136H54.4679C56.355 48.136 57.8903 49.6713 57.8903 51.5584V72.6998C57.8903 75.2915 59.9987 77.4 62.5905 77.4ZM54.344 10.32V22.8878C54.344 23.3627 54.7291 23.7478 55.204 23.7478C55.679 23.7478 56.064 23.3627 56.064 22.8878V10.32H61.7846V20.9587C61.7846 21.4336 62.1697 21.8187 62.6446 21.8187C63.1196 21.8187 63.5046 21.4336 63.5046 20.9587V10.32H69.2256V19.2626C69.2256 19.7376 69.6107 20.1226 70.0856 20.1226C70.5606 20.1226 70.9456 19.7376 70.9456 19.2626V10.32H75.8482V36.681H49.3331V10.32H54.344ZM54.4679 46.416H50.8486C50.013 46.416 49.3331 45.7362 49.3331 44.9001V38.401H75.8482V44.9001C75.8482 45.7362 75.1684 46.416 74.3323 46.416H70.7134C67.8781 46.416 65.5711 48.7231 65.5711 51.5584V72.6998C65.5711 74.3429 64.234 75.68 62.5905 75.68C60.9473 75.68 59.6103 74.3429 59.6103 72.6998V51.5584C59.6103 48.7231 57.3032 46.416 54.4679 46.416Z" fill="#27374D"/>
<path d="M41.7455 48.2083C42.9595 48.2083 44.0782 47.5998 44.7374 46.5811C45.3963 45.5628 45.4933 44.2942 44.9961 43.1877L30.4261 10.7622C29.8298 9.43394 28.5545 8.60543 27.0978 8.59998C27.0927 8.59998 27.0885 8.59998 27.0835 8.59998C25.6327 8.59998 24.3574 9.4184 23.7514 10.7416L9.09448 43.1642C8.58721 44.2715 8.67749 45.5451 9.33593 46.5701C9.99437 47.596 11.1156 48.2083 12.3346 48.2083H22.6323V54.4962H21.5767C21.1017 54.4962 20.7167 54.8812 20.7167 55.3562V71.0323C20.7167 74.5432 23.5734 77.4 27.0844 77.4C30.5957 77.4 33.4525 74.5432 33.4525 71.0323V55.3562C33.4525 54.8812 33.0674 54.4962 32.5925 54.4962H31.4585L31.4522 48.2083H41.7455ZM12.3346 46.4883C11.6942 46.4883 11.129 46.1796 10.783 45.6409C10.4378 45.1029 10.3925 44.4613 10.6599 43.8764L25.3169 11.4542C25.6423 10.7433 26.3025 10.32 27.0835 10.32C27.086 10.32 27.089 10.32 27.0915 10.32C27.8759 10.3229 28.536 10.7517 28.8573 11.4668L43.4273 43.8923C43.6881 44.4726 43.6394 45.1122 43.2933 45.6463C42.9473 46.1813 42.3829 46.4883 41.7455 46.4883H31.4504L31.4444 40.4792C31.4444 38.0508 29.4678 36.075 27.0382 36.075C24.6089 36.075 22.6323 38.0508 22.6323 40.4792V46.4883H12.3346ZM31.7325 71.0323C31.7325 73.5951 29.6471 75.68 27.0844 75.68C24.5216 75.68 22.4367 73.5951 22.4367 71.0323V56.2162H31.7325V71.0323ZM24.3523 54.4962V40.4792C24.3523 38.999 25.5571 37.795 27.0382 37.795C28.5192 37.795 29.7244 38.999 29.7244 40.48L29.7385 54.4962H24.3523Z" fill="#27374D"/>
</g>
<defs>
<clipPath id="clip0_6_85">
<rect width="86" height="92.88" fill="white" transform="translate(0.168213)"/>
</clipPath>
</defs>
</svg>
