<svg width="78" height="58" viewBox="0 0 78 58" fill="none" xmlns="http://www.w3.org/2000/svg">
<path d="M37.5858 0.658936H36.3302H0.690063V57.9331H36.3302H37.5866H77.8682V0.658936H37.5858ZM1.94652 56.5869V2.00514H36.3302V5.63096H5.31858V52.9611H36.3302V56.5869H1.94652ZM36.3302 25.7734L17.8032 51.6149H15.3238L36.3302 22.3162V25.7734ZM36.3302 26.5096V51.6158H18.3312L36.3302 26.5096ZM36.3302 21.5809L14.7966 51.6149H6.57504V43.7569L32.9426 6.97717H36.3302V21.5809ZM6.57504 43.0216V6.97717H32.4155L6.57504 43.0216ZM76.6117 56.5869H37.5858V52.9611V51.6149V6.97717V5.63096V2.00514H76.6117V56.5869Z" fill="#27374D"/>
<path d="M42.228 52.9611H73.2396V5.63098H42.228H40.9716V6.97719V51.6149V52.9611H42.228ZM71.9832 25.9181L53.5603 51.6149H51.0809L71.9832 22.46V25.9181ZM54.0874 51.6149L71.9832 26.6543V51.6149H54.0874ZM68.1725 6.97719L42.228 43.1654V6.97719H68.1725ZM42.228 43.9007L68.7006 6.97719H71.984V21.7247L50.5528 51.6149H42.228V43.9007Z" fill="#27374D"/>
</svg>
