<?xml version="1.0" standalone="no"?>
<!DOCTYPE svg PUBLIC "-//W3C//DTD SVG 20010904//EN"
 "http://www.w3.org/TR/2001/REC-SVG-20010904/DTD/svg10.dtd">
<svg version="1.0" xmlns="http://www.w3.org/2000/svg"
 width="400.000000pt" height="400.000000pt" viewBox="0 0 400.000000 400.000000"
 preserveAspectRatio="xMidYMid meet">
<metadata>
Created by potrace 1.14, written by Peter Selinger 2001-2017
</metadata>
<g transform="translate(0.000000,400.000000) scale(0.100000,-0.100000)"
fill="#000000" stroke="none">
<path d="M1839 3806 c-2 -3 -26 -7 -54 -10 -60 -7 -154 -24 -164 -30 -4 -3
-19 -7 -33 -10 -57 -10 -219 -71 -303 -114 -87 -45 -208 -122 -270 -172 -72
-58 -236 -233 -302 -322 -40 -53 -83 -107 -95 -121 -36 -37 -51 -59 -79 -112
-74 -139 -159 -390 -184 -545 -3 -19 -7 -46 -10 -60 -2 -14 -7 -56 -10 -95 -4
-38 -9 -78 -11 -87 -4 -12 2 -17 22 -20 l28 -3 2 -99 c1 -94 3 -101 28 -122
20 -18 23 -25 12 -31 -7 -4 -21 -23 -31 -42 -68 -133 35 -411 379 -1026 31
-55 60 -107 65 -115 6 -8 29 -46 52 -85 115 -191 235 -339 317 -389 75 -47
163 -44 227 6 29 23 65 87 65 117 0 11 5 31 11 45 11 23 14 24 38 12 53 -28
170 -1 214 49 58 64 68 143 34 250 -20 63 -148 331 -215 450 -21 39 -57 104
-79 145 -197 371 -377 665 -442 723 -49 43 -92 60 -152 60 -95 1 -178 -64
-195 -152 -7 -34 -17 -35 -76 -5 -27 14 -88 20 -118 13 -17 -5 -27 63 -22 144
4 42 6 47 23 42 23 -8 26 0 33 85 7 76 9 92 37 223 26 128 75 266 144 411 30
64 55 120 55 125 0 5 12 16 26 26 14 9 33 24 42 33 10 9 42 35 72 57 30 22 64
48 74 57 11 10 26 18 33 18 7 0 13 5 13 10 0 6 4 10 10 10 5 0 33 15 62 33
121 77 309 154 476 196 144 37 226 46 402 46 157 0 234 -7 350 -31 66 -14 175
-44 220 -61 8 -3 20 -7 25 -9 6 -1 28 -10 50 -20 22 -10 42 -18 45 -19 36 -8
270 -140 341 -193 61 -45 113 -86 128 -100 8 -7 24 -20 37 -29 13 -8 24 -21
24 -27 0 -6 9 -30 20 -51 87 -170 156 -356 184 -500 24 -122 26 -135 32 -210
6 -76 7 -80 32 -80 14 0 17 -14 20 -92 l3 -92 -54 0 c-30 1 -67 -6 -83 -14
-53 -27 -74 -30 -74 -12 0 26 -31 88 -57 113 -41 38 -85 56 -143 55 -94 0
-154 -43 -238 -169 -44 -66 -182 -292 -182 -299 0 -2 -24 -45 -53 -97 -30 -51
-78 -138 -108 -193 -29 -55 -70 -131 -91 -170 -21 -38 -72 -140 -114 -225 -41
-85 -79 -162 -83 -170 -19 -35 -41 -131 -40 -171 3 -72 46 -137 117 -177 35
-20 121 -23 154 -6 27 14 29 13 38 -11 6 -15 10 -35 10 -46 0 -44 47 -112 94
-136 106 -55 220 -3 348 157 34 43 168 238 168 244 0 2 25 45 55 95 30 51 55
93 55 95 0 2 23 43 51 92 56 97 198 374 241 469 81 180 115 306 113 419 -2 69
-5 82 -24 98 -21 16 -21 19 -7 34 17 16 18 31 19 147 0 67 1 68 28 74 23 4 28
10 24 27 -5 26 -17 125 -17 146 0 13 -8 58 -34 199 -3 13 -25 84 -49 158 -50
153 -129 321 -176 373 -65 74 -75 86 -111 137 -60 84 -76 102 -193 218 -127
126 -248 212 -410 290 -97 47 -232 96 -297 109 -13 2 -45 9 -73 15 -27 6 -63
13 -80 17 -33 7 -380 15 -386 10z m146 -146 c3 -6 -1 -7 -9 -4 -18 7 -21 14
-7 14 6 0 13 -4 16 -10z m-260 -10 c-3 -5 -12 -10 -18 -10 -7 0 -6 4 3 10 19
12 23 12 15 0z m310 0 c-3 -5 -12 -10 -18 -10 -7 0 -6 4 3 10 19 12 23 12 15
0z m96 -7 c13 -16 12 -17 -3 -4 -10 7 -18 15 -18 17 0 8 8 3 21 -13z m158 -17
c-3 -3 -11 5 -18 17 -13 21 -12 21 5 5 10 -10 16 -20 13 -22z m-288 -3 c13
-16 12 -17 -3 -4 -10 7 -18 15 -18 17 0 8 8 3 21 -13z m327 -8 c-3 -3 -9 2
-12 12 -6 14 -5 15 5 6 7 -7 10 -15 7 -18z m40 -10 c-3 -3 -9 2 -12 12 -6 14
-5 15 5 6 7 -7 10 -15 7 -18z m-718 11 c0 -2 -8 -10 -17 -17 -16 -13 -17 -12
-4 4 13 16 21 21 21 13z m774 -22 c3 -8 2 -12 -4 -9 -6 3 -10 10 -10 16 0 14
7 11 14 -7z m143 -50 c-3 -3 -12 -4 -19 -1 -8 3 -5 6 6 6 11 1 17 -2 13 -5z
m-1323 -82 c3 -5 -1 -9 -9 -9 -8 0 -12 4 -9 9 3 4 7 8 9 8 2 0 6 -4 9 -8z
m-56 -107 c-3 -3 -9 2 -12 12 -6 14 -5 15 5 6 7 -7 10 -15 7 -18z"/>
</g>
</svg>
