<svg width="63" height="108" viewBox="0 0 63 108" fill="none" xmlns="http://www.w3.org/2000/svg">
<path d="M3.56133 46.7521C1.36841 38.2841 4.08913 24.7756 11.2102 19.4432C18.8367 13.7323 25.1783 12.5841 34.5156 13.7545C54.4967 16.2589 58.7061 42.0457 50.895 57.2721C43.681 71.3346 30.8742 81.7263 30.8823 98.6271C30.0136 77.1659 8.76506 66.8466 3.56133 46.7521Z" fill="#FFE457" stroke="white" stroke-linecap="round" stroke-linejoin="round"/>
<path d="M42.4533 39.1057C42.2412 33.8652 35.8879 26.6082 30.1753 26.8394C22.5263 27.1491 15.1085 30.5688 15.474 39.5979C16.1884 57.246 43.1669 56.7336 42.4533 39.1057Z" fill="#202020" stroke="white" stroke-linecap="round"/>
<path d="M61.804 25.4591C57.3953 12.2771 47.9112 2.52145 33.8478 1.08996" stroke="white" stroke-linecap="round"/>
<path d="M0.99842 71.0868C10.6877 79.5497 19.6188 92.9941 21.2765 107.07" stroke="white" stroke-linecap="round"/>
</svg>
