<svg width="41" height="40" viewBox="0 0 41 40" fill="none" xmlns="http://www.w3.org/2000/svg">
<path d="M0.868456 20.4374C0.953598 18.5222 1.33908 9.8218 8.60421 4.60943C14.5108 0.371977 21.1051 1.20842 23.3609 1.63413C24.4893 1.84652 33.6453 3.73836 37.7611 12.5828C38.2327 13.5961 41.862 21.751 37.4037 29.6009C32.7499 37.7951 23.2533 38.6671 20.5044 38.7644C19.5099 38.7991 8.07183 39.0283 3.0101 30.6722C0.591507 26.678 0.771151 22.6109 0.868456 20.4374Z" fill="#FFE457"/>
<path d="M0.797713 20.4342C0.822039 19.8036 0.86601 19.172 0.93431 18.5442C0.997933 17.9155 1.08869 17.2895 1.19722 16.6655C1.30575 16.0424 1.44049 15.423 1.59206 14.8073C1.74737 14.1926 1.92888 13.5835 2.13098 12.981C2.53891 11.7768 3.05163 10.6026 3.67757 9.48268C4.31192 8.36929 5.05575 7.30736 5.9212 6.34366C6.79133 5.38558 7.76905 4.51919 8.8338 3.77069C9.37085 3.40299 9.92568 3.05961 10.5002 2.75086C11.0784 2.44865 11.6687 2.16983 12.276 1.93031C14.7086 0.973168 17.3405 0.587692 19.9256 0.692482C20.5731 0.716808 21.2177 0.776682 21.8577 0.861824C22.1777 0.903927 22.4977 0.95446 22.8158 1.01153C23.1339 1.06861 23.4492 1.13223 23.7692 1.20989C25.0304 1.52238 26.243 1.9537 27.4144 2.47765C29.7544 3.52462 31.9232 4.94303 33.7692 6.70481C34.6907 7.58617 35.5375 8.54706 36.271 9.59028L36.5424 9.98417C36.5873 10.0506 36.634 10.1152 36.6771 10.1816L36.8034 10.3846C36.9727 10.655 37.1458 10.9226 37.2974 11.2033L37.5322 11.6197C37.609 11.76 37.6763 11.9041 37.7502 12.0454L37.9673 12.472C38.0375 12.6161 38.1039 12.762 38.1685 12.9089C38.4258 13.4946 38.6503 14.0916 38.8496 14.6979C39.0526 15.3023 39.2304 15.916 39.381 16.5373C39.5307 17.1586 39.6589 17.7854 39.759 18.4179C39.8563 19.0513 39.9284 19.6894 39.9705 20.3303C40.0472 21.6131 40.0126 22.9099 39.8227 24.1926C39.7366 24.8354 39.5981 25.4697 39.4419 26.1013C39.266 26.7272 39.076 27.3513 38.8309 27.9547C38.3584 29.1701 37.7325 30.3247 36.9924 31.4025C36.2458 32.4776 35.3644 33.46 34.3913 34.3366C33.4192 35.2171 32.3386 35.9702 31.2037 36.6186C31.0633 36.7028 30.9174 36.7758 30.7733 36.8535C30.6283 36.9283 30.486 37.0097 30.3392 37.0799C30.0454 37.2231 29.7535 37.3681 29.4541 37.4972C29.1575 37.6338 28.8543 37.7526 28.553 37.8761C28.4015 37.936 28.248 37.9903 28.0965 38.0483L27.8672 38.1334L27.6361 38.212C26.4058 38.6387 25.1418 38.9512 23.8628 39.172C23.2237 39.2833 22.58 39.3647 21.9335 39.4264C21.6098 39.4555 21.286 39.4807 20.9614 39.4976C20.7976 39.5069 20.6376 39.5125 20.4711 39.5191C20.3027 39.5238 20.139 39.5238 19.9752 39.5228C18.67 39.5088 17.3817 39.3984 16.1027 39.1916C14.8246 38.9904 13.5596 38.6929 12.3246 38.2943C11.0924 37.8864 9.88825 37.3812 8.75333 36.7403C7.61936 36.1003 6.55649 35.3312 5.60308 34.448C4.64781 33.5657 3.82165 32.5505 3.13958 31.4568C2.45657 30.3621 1.92701 29.1832 1.54154 27.9669C1.15044 26.7506 0.934313 25.4894 0.820167 24.2282C0.717248 22.9641 0.734089 21.6963 0.80239 20.437L0.797713 20.4342ZM0.938056 20.4407C0.91373 21.0704 0.891274 21.6991 0.901566 22.327C0.914664 22.9548 0.951156 23.5816 1.02039 24.2048C1.0653 24.5154 1.09805 24.8269 1.15793 25.1338C1.18599 25.2873 1.20939 25.4426 1.24307 25.5951L1.34599 26.0526C1.3778 26.2061 1.42084 26.3558 1.462 26.5064C1.50411 26.657 1.54247 26.8077 1.58832 26.9574L1.73614 27.4009L1.81006 27.6226L1.89426 27.8406L2.06455 28.2747C2.12069 28.4198 2.19273 28.5582 2.25541 28.6995C2.32184 28.8398 2.38266 28.9821 2.45283 29.1205L2.67177 29.5313C2.96555 30.0767 3.30425 30.596 3.66634 31.0947C4.39332 32.0911 5.25222 32.9809 6.20937 33.7416C7.16277 34.5079 8.2088 35.1469 9.30161 35.6877C9.43634 35.7579 9.57856 35.8159 9.7161 35.8814C9.8555 35.944 9.99117 36.0114 10.1324 36.0704L10.5554 36.2453L10.7668 36.3323L10.982 36.4119L11.4105 36.5728L11.8446 36.7197C12.1319 36.8217 12.4285 36.9012 12.7195 36.9929C13.308 37.1613 13.9002 37.3138 14.5009 37.4382C14.7993 37.5065 15.1025 37.558 15.4028 37.616C15.706 37.6656 16.0072 37.718 16.3113 37.7582C17.5248 37.9257 18.7561 38.0249 19.9715 38.0221C20.5656 38.0193 21.1803 37.9818 21.7875 37.9248C22.3966 37.8677 23.0029 37.7835 23.6064 37.6853C24.2099 37.587 24.8096 37.4626 25.4028 37.3175C25.996 37.1716 26.5864 37.0125 27.1646 36.8198C29.4812 36.0648 31.6743 34.9205 33.51 33.3393C34.4278 32.5496 35.2549 31.657 35.9744 30.6812C36.6911 29.7016 37.2927 28.6359 37.7849 27.5234C38.7691 25.2948 39.2323 22.8322 39.1977 20.3603C39.1743 19.1243 39.048 17.8846 38.7953 16.6664C38.6718 16.0573 38.5221 15.452 38.3453 14.855C38.1657 14.2591 37.9598 13.6696 37.725 13.0951C37.2403 11.9537 36.6368 10.8524 35.9202 9.83448C35.2091 8.8109 34.3726 7.87716 33.4557 7.03509C31.6219 5.34442 29.4297 4.07289 27.1141 3.19247C25.9557 2.75366 24.76 2.40655 23.5577 2.18107C22.3555 1.96774 21.1195 1.86482 19.8948 1.86201C17.4425 1.85079 14.9968 2.23907 12.7176 3.09143C12.1487 3.30569 11.5902 3.54708 11.0437 3.81654C10.4964 4.08319 9.96871 4.38727 9.4485 4.70632C8.42025 5.36313 7.44252 6.10882 6.56116 6.96398C5.67887 7.81821 4.88733 8.77348 4.19684 9.80361C3.85814 10.3229 3.53629 10.8552 3.24624 11.4063C3.16952 11.542 3.1059 11.6842 3.03573 11.8236C2.96649 11.963 2.89632 12.1024 2.83363 12.2456L2.63996 12.6722L2.46032 13.1054C1.52001 15.4248 1.02881 17.9295 0.935247 20.4417L0.938056 20.4407Z" fill="#252222"/>
<path d="M18.8457 12.2207C18.8457 16.6443 15.1163 20.2306 10.5149 20.2306C5.91348 20.2306 2.18408 16.6443 2.18408 12.2207H18.8448H18.8457Z" fill="#252222"/>
<path d="M18.8895 12.1776C18.9111 12.3067 18.9373 12.4629 18.9485 12.6248C18.956 12.7651 18.9588 12.8989 18.9625 13.0374L18.9522 13.45C18.9419 13.5875 18.927 13.7241 18.9139 13.8626C18.8503 14.4128 18.7193 14.9592 18.5256 15.4859C18.1392 16.5404 17.5058 17.5116 16.6983 18.3115C15.8909 19.1096 14.915 19.7486 13.8475 20.1444C13.3132 20.34 12.7584 20.4756 12.1979 20.5495C11.6375 20.6225 11.0724 20.6328 10.5157 20.5954L10.0993 20.5561C9.96087 20.5392 9.82333 20.5177 9.68673 20.4981C9.55013 20.4775 9.41353 20.4494 9.27786 20.426C9.1422 20.4017 9.0084 20.3652 8.87367 20.3353C8.33849 20.2024 7.81641 20.0312 7.31024 19.8226C6.29976 19.4034 5.35665 18.8308 4.52675 18.1076C3.69592 17.3881 2.97549 16.5132 2.46183 15.5074C1.94349 14.5045 1.65438 13.3686 1.63099 12.2225C1.62444 11.9231 1.86303 11.6751 2.16243 11.6686H2.18582L4.32372 11.6171C5.03761 11.6059 5.75523 11.5909 6.47192 11.5862C7.9053 11.5778 9.33587 11.6115 10.7468 11.6648C12.1577 11.7182 13.5509 11.7939 14.9141 11.8791C16.2773 11.9642 17.6143 12.0606 18.8886 12.1794L18.8895 12.1776ZM18.8035 12.2636C17.3018 12.3825 15.8619 12.4788 14.4481 12.564C13.0344 12.65 11.6506 12.7249 10.2855 12.7782C8.91952 12.8316 7.57315 12.8652 6.22959 12.8568C5.55781 12.8521 4.88697 12.8372 4.21238 12.826L2.18489 12.7745L2.73971 12.2197C2.71538 13.2142 2.8735 14.2154 3.21875 15.1716C3.5668 16.124 4.11508 17.025 4.84206 17.7707C5.56904 18.5155 6.46818 19.1021 7.45058 19.4614C8.43206 19.8244 9.49212 19.9451 10.5157 19.8656C11.0284 19.8272 11.5337 19.7383 12.0239 19.6148C12.5151 19.4913 12.9932 19.3323 13.4545 19.1386C13.9176 18.9468 14.3639 18.7195 14.7915 18.4603C15.2172 18.1974 15.6223 17.8998 15.9957 17.5649C16.7451 16.8978 17.3813 16.095 17.8566 15.1903C18.0933 14.7374 18.2917 14.2603 18.447 13.7634L18.5527 13.3864L18.6463 13.0037C18.6706 12.8755 18.6959 12.7427 18.7221 12.6164C18.7408 12.5116 18.7745 12.4002 18.8025 12.2618L18.8035 12.2636Z" fill="#252222"/>
<path d="M21.5745 12.2207C21.5745 16.6443 25.3039 20.2306 29.9053 20.2306C34.5067 20.2306 38.2361 16.6443 38.2361 12.2207H21.5754H21.5745Z" fill="#252222"/>
<path d="M21.6185 12.2636C21.6466 12.402 21.6802 12.5134 21.699 12.6182C21.7252 12.7445 21.7504 12.8773 21.7747 13.0055L21.8683 13.3882L21.974 13.7652C22.1293 14.262 22.3277 14.7392 22.5644 15.1921C23.0406 16.0968 23.6759 16.8996 24.4254 17.5667C24.7996 17.9016 25.2047 18.1982 25.6295 18.4621C26.0571 18.7212 26.5034 18.9486 26.9665 19.1404C27.4278 19.3341 27.9068 19.4931 28.3971 19.6166C28.8874 19.7401 29.3926 19.8281 29.9053 19.8674C30.9298 19.9469 31.989 19.8262 32.9704 19.4632C33.9528 19.1039 34.852 18.5163 35.579 17.7725C36.3059 17.0259 36.8542 16.1258 37.2023 15.1734C37.5466 14.2181 37.7056 13.216 37.6813 12.2214L38.2361 12.7763L36.2086 12.8277C35.535 12.839 34.8632 12.8539 34.1914 12.8586C32.8488 12.867 31.5015 12.8333 30.1355 12.78C28.7704 12.7267 27.3857 12.6509 25.9729 12.5658C24.5592 12.4806 23.1192 12.3842 21.6176 12.2654L21.6185 12.2636ZM21.5324 12.1775C22.8077 12.0587 24.1437 11.9623 25.5069 11.8771C26.8702 11.7911 28.2633 11.7162 29.6742 11.6629C31.0851 11.6096 32.5157 11.5759 33.9491 11.5843C34.6658 11.589 35.3834 11.6039 36.0973 11.6152L38.2352 11.6666H38.2605C38.5599 11.6741 38.7975 11.9211 38.79 12.2214C38.7666 13.3667 38.4775 14.5034 37.9592 15.5064C37.4455 16.5132 36.7242 17.387 35.8943 18.1065C35.0653 18.8298 34.1213 19.4033 33.1108 19.8215C32.6055 20.0302 32.0835 20.2023 31.5473 20.3343C31.4126 20.3642 31.2788 20.4007 31.1432 20.425C31.0075 20.4493 30.8709 20.4774 30.7343 20.4971C30.5968 20.5167 30.4592 20.5382 30.3217 20.5551L29.9053 20.5944C29.3486 20.6309 28.7835 20.6215 28.2231 20.5485C27.6626 20.4755 27.1078 20.3389 26.5736 20.1434C25.506 19.7476 24.5302 19.1086 23.7227 18.3105C22.9153 17.5115 22.2818 16.5394 21.8954 15.4849C21.7018 14.9582 21.5708 14.4118 21.5071 13.8616C21.494 13.7231 21.4791 13.5865 21.4688 13.449L21.4585 13.0364C21.4622 12.8979 21.4641 12.7641 21.4725 12.6238C21.4838 12.461 21.5109 12.3047 21.5315 12.1765L21.5324 12.1775Z" fill="#252222"/>
<path d="M18.1882 13.0924C18.3192 13.0831 18.424 13.0896 18.5222 13.098C18.6195 13.1065 18.7056 13.1224 18.787 13.1411C18.8684 13.1589 18.9423 13.1832 19.0134 13.2103C19.0855 13.2365 19.15 13.273 19.208 13.3319C19.3212 13.448 19.4335 13.6491 19.5972 13.7099C19.7582 13.7745 19.9406 13.7361 20.0987 13.6388C20.1783 13.5921 20.2522 13.534 20.3242 13.4957C20.3598 13.4723 20.3953 13.4526 20.4309 13.4367C20.4487 13.4283 20.4664 13.4208 20.4833 13.4133L20.5347 13.3862L20.6367 13.3329C20.6704 13.3142 20.7022 13.2936 20.7359 13.2767C20.8033 13.2449 20.8678 13.2084 20.9408 13.1888C21.084 13.1429 21.2393 13.1139 21.4133 13.0896C21.5883 13.0662 21.7754 13.0475 22.0177 13.0513H22.0205C22.057 13.0513 22.086 13.0821 22.086 13.1186C22.086 13.1205 22.086 13.1214 22.086 13.1233C22.0654 13.3731 21.9653 13.5733 21.839 13.7455C21.7744 13.8306 21.7033 13.9111 21.6219 13.9785C21.5433 14.0505 21.4545 14.1085 21.3618 14.159C21.1728 14.2554 20.9576 14.2919 20.7434 14.2975C20.6377 14.3069 20.5291 14.3013 20.4234 14.2854C20.3701 14.276 20.3167 14.2573 20.2643 14.2395C20.212 14.2217 20.1614 14.2049 20.1109 14.1796C19.9097 14.087 19.732 14.0215 19.5392 14.0215C19.3493 14.0168 19.1154 14.1151 18.8955 14.0954C18.787 14.0879 18.6888 14.0468 18.6017 13.9897C18.5138 13.9326 18.4333 13.8653 18.3641 13.7848C18.2939 13.7053 18.235 13.6145 18.1919 13.5116C18.1489 13.4087 18.119 13.2955 18.1199 13.1626C18.1199 13.1252 18.1498 13.0943 18.1863 13.0915H18.1882V13.0924Z" fill="#252222"/>
<path d="M2.12381 12.7868C1.96756 12.7382 1.85341 12.6736 1.75049 12.6053C1.64851 12.5361 1.56711 12.4594 1.49507 12.3798C1.4249 12.2994 1.36782 12.2133 1.32104 12.1235C1.27332 12.0346 1.24431 11.9382 1.24993 11.8287C1.25928 11.6107 1.38653 11.3488 1.35285 11.1467C1.32478 10.9427 1.19099 10.778 1.00293 10.6349C0.911236 10.5619 0.815802 10.4908 0.73908 10.4122C0.660488 10.3346 0.605287 10.2475 0.547278 10.1624C0.429389 9.99211 0.309629 9.82277 0.26004 9.62722C0.208581 9.43167 0.19829 9.2221 0.219809 8.99942C0.2432 8.7758 0.293719 8.54282 0.431256 8.27711C0.454646 8.2322 0.507977 8.21349 0.553823 8.23126C0.832639 8.34073 1.02351 8.48389 1.18818 8.6364C1.35004 8.78984 1.4801 8.95544 1.57085 9.13602C1.66161 9.31659 1.68312 9.52243 1.70651 9.72826C1.71868 9.83118 1.73459 9.93224 1.72616 10.0426C1.72055 10.1521 1.69529 10.2691 1.67377 10.3841C1.62605 10.6162 1.63353 10.8276 1.74675 10.9998C1.85434 11.1738 2.12194 11.288 2.27257 11.4461C2.34929 11.5247 2.39046 11.6164 2.41292 11.7146C2.43724 11.8128 2.45034 11.9148 2.45034 12.0224C2.4494 12.13 2.43724 12.2414 2.40637 12.3602C2.37455 12.479 2.33058 12.6034 2.2445 12.7429C2.2183 12.785 2.16778 12.8027 2.12193 12.7887L2.12381 12.7868Z" fill="#252222"/>
<path d="M38.1736 12.7402C38.0885 12.6008 38.0436 12.4773 38.0118 12.3575C37.9809 12.2387 37.9696 12.1273 37.9678 12.0197C37.9678 11.9121 37.9809 11.8102 38.0052 11.7119C38.0277 11.6128 38.0688 11.5211 38.1455 11.4434C38.2962 11.2853 38.5638 11.1711 38.6714 10.9971C38.7846 10.825 38.7921 10.6135 38.7443 10.3815C38.7238 10.2664 38.6985 10.1494 38.6919 10.04C38.6835 9.92956 38.6994 9.82851 38.7116 9.7256C38.735 9.51976 38.7565 9.31391 38.8473 9.13334C38.9371 8.95276 39.0671 8.78716 39.2299 8.63372C39.3946 8.48121 39.5855 8.33806 39.8643 8.22859C39.9111 8.20988 39.9644 8.23047 39.9869 8.27444C40.1244 8.54016 40.1749 8.77406 40.1983 8.99674C40.2198 9.21942 40.2086 9.429 40.1581 9.62454C40.1085 9.82009 39.9887 9.98943 39.8708 10.1597C39.8128 10.2449 39.7576 10.3319 39.679 10.4095C39.6023 10.4881 39.5069 10.5592 39.4152 10.6322C39.2271 10.7763 39.0933 10.94 39.0653 11.144C39.0316 11.3461 39.1588 11.6081 39.1682 11.8261C39.1738 11.9355 39.1457 12.0319 39.0971 12.1208C39.0503 12.2106 38.9932 12.2967 38.923 12.3772C38.851 12.4576 38.7696 12.5343 38.6676 12.6026C38.5656 12.6719 38.4506 12.7355 38.2943 12.7842C38.2466 12.7991 38.197 12.7785 38.1717 12.7383L38.1736 12.7402Z" fill="#252222"/>
<path d="M30.9521 21.6045C31.1449 27.2304 26.958 32.1115 21.419 32.7777C15.8015 33.4542 10.519 29.5891 9.46362 23.9772C11.9646 24.518 15.6481 25.0195 20.0596 24.5769C24.8107 24.1007 28.5438 22.716 30.9521 21.6035V21.6045Z" fill="white"/>
<path d="M30.9825 21.5537C31.0087 21.7118 31.0508 21.9083 31.0676 22.1104C31.0798 22.2872 31.0864 22.4547 31.0938 22.6278C31.0967 22.7999 31.0938 22.9721 31.0938 23.1452C31.0882 23.3173 31.0733 23.4895 31.063 23.6626C31.0059 24.3531 30.8777 25.0417 30.6756 25.7107C30.2761 27.0514 29.5968 28.3192 28.6958 29.4092C28.2449 29.9537 27.7424 30.459 27.1923 30.9062C26.6431 31.3544 26.0499 31.7529 25.4183 32.0767C24.7877 32.4023 24.1225 32.6614 23.4376 32.8392C23.0952 32.929 22.7499 33.0029 22.4019 33.0581C22.0538 33.1115 21.7039 33.147 21.354 33.1676C20.6541 33.2078 19.9543 33.177 19.2657 33.0918C18.578 33.0011 17.8997 32.8588 17.241 32.6596C15.9208 32.2685 14.6708 31.6612 13.5434 30.8678C12.415 30.0763 11.4073 29.0911 10.6055 27.9403C9.80088 26.7922 9.22266 25.4693 8.93075 24.0799C8.86993 23.7917 9.05518 23.5082 9.34336 23.4474C9.41353 23.4324 9.4837 23.4324 9.55107 23.4446L9.57726 23.4502C11.3493 23.7898 13.1448 23.9947 14.9421 24.0593C15.3912 24.0771 15.8413 24.0892 16.2904 24.0911C16.5149 24.0911 16.7395 24.0958 16.965 24.093L17.6396 24.0827L18.3132 24.0621C18.5377 24.0546 18.7623 24.0387 18.9869 24.0284C19.2114 24.0209 19.436 24.0013 19.6605 23.9872L19.9973 23.9638L20.3332 23.932C20.5568 23.9096 20.7823 23.8974 21.0059 23.8703L21.6777 23.7954C22.124 23.7365 22.5712 23.6757 23.0166 23.6027L23.3515 23.5512L23.6856 23.4932C23.9082 23.4549 24.1309 23.4165 24.3527 23.3707C24.5744 23.3248 24.7971 23.2855 25.017 23.235C25.2378 23.1873 25.4604 23.1442 25.6813 23.0918C25.9021 23.0395 26.1229 22.9899 26.3427 22.9356L27.0024 22.7672L27.661 22.5904C27.879 22.5267 28.0989 22.4659 28.3169 22.3995C28.7548 22.2713 29.1898 22.1347 29.624 21.9915C29.842 21.9223 30.0581 21.8484 30.2752 21.7735L30.438 21.7193C30.5007 21.6968 30.5652 21.6744 30.6279 21.6547C30.7551 21.6145 30.8758 21.5845 30.9834 21.5527L30.9825 21.5537ZM30.9189 21.6575C30.8178 21.7202 30.7299 21.7848 30.6476 21.839C30.6064 21.8662 30.5662 21.8914 30.524 21.9167L30.3715 21.999C30.1685 22.1085 29.9636 22.2152 29.7568 22.319C29.3452 22.5295 28.9251 22.7213 28.5031 22.9122C28.2916 23.0058 28.0774 23.0928 27.8641 23.1835L27.2185 23.4418C27.0024 23.526 26.7834 23.6018 26.5654 23.6822C26.3465 23.7599 26.1266 23.8319 25.9067 23.9068C25.6869 23.9816 25.4642 24.0481 25.2424 24.1182C25.0207 24.1884 24.7952 24.2455 24.5716 24.31C24.348 24.3746 24.1225 24.4307 23.897 24.4878L23.5583 24.5739L23.2178 24.6525C22.3093 24.8574 21.3905 25.023 20.4651 25.1465L20.118 25.1923L19.77 25.2297C19.5379 25.2531 19.3059 25.2821 19.0729 25.299C18.84 25.3158 18.607 25.3364 18.374 25.3495L17.6742 25.3851L16.9734 25.3991C16.7395 25.4019 16.5065 25.3991 16.2726 25.3991C15.8057 25.3897 15.3388 25.3748 14.8729 25.3448C13.941 25.2812 13.0119 25.1839 12.0894 25.0445C11.1678 24.9032 10.2519 24.7245 9.34523 24.5093L9.99174 23.8796C10.2013 25.1474 10.6252 26.3862 11.2614 27.5267C11.8986 28.6654 12.7584 29.6974 13.7988 30.5207C14.8383 31.3431 16.0565 31.9503 17.343 32.2787C18.6313 32.6062 19.9805 32.6352 21.267 32.4135C21.5888 32.3583 21.9069 32.29 22.2213 32.2048C22.5347 32.1216 22.8454 32.028 23.1485 31.9176C23.7557 31.6968 24.3433 31.4329 24.9056 31.1233C25.467 30.8117 26.0068 30.4627 26.513 30.066C27.0173 29.6674 27.4908 29.2286 27.9221 28.7496C28.7866 27.7915 29.4892 26.6809 29.9917 25.473C30.2415 24.8686 30.4455 24.2408 30.5942 23.5943L30.6943 23.1068C30.7215 22.9431 30.7523 22.7784 30.7776 22.6137L30.8412 22.1179C30.8543 21.9822 30.8936 21.84 30.9161 21.6613L30.9189 21.6575Z" fill="#252222"/>
<path d="M13.8173 24.6246C13.9596 24.8838 14.026 25.1429 14.0718 25.4021C14.0934 25.5312 14.1074 25.6613 14.113 25.7904C14.1233 25.9195 14.1167 26.0496 14.0924 26.1787C14.0438 26.4378 13.9231 26.697 13.9006 26.9562C13.8754 27.2153 13.9128 27.4745 13.9848 27.7337C14.0194 27.8628 14.0559 27.9929 14.0812 28.122C14.1074 28.2511 14.1195 28.3811 14.1336 28.5102C14.1626 28.7694 14.1916 29.0286 14.1794 29.2878C14.1654 29.5469 14.1317 29.8061 14.0756 30.0653C14.0176 30.3244 13.9446 30.5836 13.8173 30.8428C13.807 30.8633 13.7818 30.8718 13.7612 30.8615C13.7528 30.8568 13.7462 30.8502 13.7425 30.8428C13.6152 30.5836 13.5413 30.3244 13.4843 30.0653C13.4281 29.8061 13.3935 29.5469 13.3804 29.2878C13.3692 29.0286 13.3982 28.7694 13.4263 28.5102C13.4403 28.3811 13.4524 28.2511 13.4786 28.122C13.5039 27.9929 13.5404 27.8628 13.575 27.7337C13.6471 27.4745 13.6845 27.2153 13.6592 26.9562C13.6377 26.697 13.5161 26.4378 13.4674 26.1787C13.4431 26.0496 13.4365 25.9195 13.4468 25.7904C13.4525 25.6613 13.4665 25.5312 13.488 25.4021C13.5329 25.1429 13.5993 24.8838 13.7425 24.6246C13.7537 24.604 13.7799 24.5965 13.8005 24.6078C13.808 24.6115 13.8136 24.618 13.8173 24.6246Z" fill="#252222"/>
<path d="M17.5086 24.6252C17.6508 24.9555 17.7172 25.2857 17.7631 25.617C17.7846 25.7826 17.7986 25.9472 17.8042 26.1128C17.8136 26.2784 17.807 26.4431 17.7836 26.6087C17.735 26.939 17.6143 27.2693 17.5918 27.6005C17.5666 27.9308 17.604 28.261 17.676 28.5922C17.7107 28.7578 17.7472 28.9225 17.7724 29.0881C17.7986 29.2537 17.8108 29.4184 17.8248 29.584C17.8538 29.9143 17.8828 30.2446 17.8707 30.5758C17.8576 30.9061 17.8229 31.2363 17.7668 31.5675C17.7088 31.8978 17.6358 32.2281 17.5086 32.5593C17.5011 32.5799 17.4777 32.5902 17.4571 32.5827C17.4459 32.578 17.4384 32.5696 17.4337 32.5593C17.3065 32.229 17.2326 31.8987 17.1755 31.5675C17.1193 31.2373 17.0847 30.907 17.0716 30.5758C17.0595 30.2455 17.0894 29.9152 17.1175 29.584C17.1315 29.4184 17.1437 29.2537 17.1699 29.0881C17.1951 28.9225 17.2316 28.7578 17.2662 28.5922C17.3383 28.262 17.3757 27.9317 17.3504 27.6005C17.3289 27.2702 17.2073 26.9399 17.1586 26.6087C17.1343 26.4431 17.1287 26.2784 17.1381 26.1128C17.1437 25.9472 17.1577 25.7826 17.1792 25.617C17.2241 25.2867 17.2906 24.9564 17.4337 24.6252C17.4431 24.6046 17.4665 24.5952 17.4871 24.6037C17.4973 24.6083 17.5039 24.6158 17.5086 24.6252Z" fill="#252222"/>
<path d="M21.4273 24.6252C21.5695 24.9648 21.6359 25.3045 21.6818 25.6441C21.7033 25.8144 21.7173 25.9837 21.7229 26.154C21.7323 26.3243 21.7267 26.4936 21.7023 26.6639C21.6537 27.0036 21.533 27.3432 21.5105 27.6828C21.4853 28.0224 21.5227 28.3621 21.5947 28.7017C21.6294 28.872 21.6659 29.0413 21.6911 29.2116C21.7173 29.3819 21.7295 29.5513 21.7435 29.7215C21.7725 30.0612 21.8015 30.4008 21.7894 30.7404C21.7763 31.0801 21.7416 31.4197 21.6855 31.7593C21.6275 32.099 21.5545 32.4386 21.4273 32.7782C21.4198 32.7988 21.3964 32.8091 21.3758 32.8016C21.3646 32.7979 21.3562 32.7885 21.3524 32.7782C21.2252 32.4386 21.1513 32.099 21.0942 31.7593C21.0381 31.4197 21.0034 31.0801 20.9903 30.7404C20.9782 30.4008 21.0081 30.0612 21.0362 29.7215C21.0502 29.5513 21.0624 29.3819 21.0886 29.2116C21.1138 29.0413 21.1503 28.872 21.1849 28.7017C21.257 28.3621 21.2944 28.0224 21.2691 27.6828C21.2476 27.3432 21.126 27.0036 21.0773 26.6639C21.053 26.4936 21.0474 26.3243 21.0568 26.154C21.0624 25.9837 21.0764 25.8144 21.0979 25.6441C21.1428 25.3045 21.2093 24.9648 21.3524 24.6252C21.3608 24.6046 21.3852 24.5952 21.4058 24.6037C21.416 24.6083 21.4235 24.6158 21.4273 24.6252Z" fill="#252222"/>
<path d="M25.116 23.6897C25.2582 24.0209 25.3246 24.3521 25.3705 24.6842C25.392 24.8498 25.406 25.0154 25.4116 25.181C25.421 25.3466 25.4154 25.5123 25.3911 25.6779C25.3424 26.0091 25.2217 26.3403 25.1993 26.6724C25.174 27.0036 25.2114 27.3348 25.2835 27.667C25.3181 27.8326 25.3546 27.9982 25.3798 28.1638C25.406 28.3294 25.4182 28.495 25.4322 28.6606C25.4612 28.9918 25.4902 29.323 25.4781 29.6552C25.465 29.9864 25.4304 30.3176 25.3742 30.6498C25.3162 30.981 25.2432 31.3122 25.116 31.6443C25.1085 31.6649 25.0851 31.6752 25.0645 31.6677C25.0533 31.663 25.0458 31.6546 25.0411 31.6443C24.9139 31.3131 24.84 30.9819 24.7829 30.6498C24.7268 30.3185 24.6922 29.9873 24.6791 29.6552C24.6669 29.324 24.6968 28.9928 24.7249 28.6606C24.7389 28.495 24.7511 28.3294 24.7773 28.1638C24.8026 27.9982 24.839 27.8326 24.8737 27.667C24.9457 27.3358 24.9831 27.0046 24.9579 26.6724C24.9364 26.3412 24.8147 26.01 24.7661 25.6779C24.7417 25.5123 24.7361 25.3466 24.7455 25.181C24.7511 25.0154 24.7651 24.8498 24.7866 24.6842C24.8316 24.353 24.898 24.0218 25.0411 23.6897C25.0505 23.6691 25.0739 23.6597 25.0945 23.6681C25.1048 23.6728 25.1122 23.6803 25.116 23.6897Z" fill="#252222"/>
<path d="M28.5146 22.7301C28.6568 22.9892 28.7232 23.2484 28.7691 23.5076C28.7906 23.6367 28.8046 23.7667 28.8103 23.8959C28.8206 24.025 28.814 24.155 28.7897 24.2841C28.741 24.5433 28.6203 24.8025 28.5979 25.0616C28.5726 25.3208 28.61 25.58 28.6821 25.8392C28.7167 25.9683 28.7532 26.0983 28.7785 26.2274C28.8047 26.3566 28.8168 26.4866 28.8308 26.6157C28.8599 26.8749 28.8889 27.1341 28.8767 27.3932C28.8627 27.6524 28.829 27.9116 28.7728 28.1707C28.7148 28.4299 28.6419 28.6891 28.5146 28.9482C28.5043 28.9688 28.479 28.9772 28.4585 28.9669C28.45 28.9623 28.4435 28.9557 28.4398 28.9482C28.3125 28.6891 28.2386 28.4299 28.1815 28.1707C28.1254 27.9116 28.0908 27.6524 28.0777 27.3932C28.0664 27.1341 28.0954 26.8749 28.1235 26.6157C28.1376 26.4866 28.1497 26.3566 28.1759 26.2274C28.2012 26.0983 28.2377 25.9683 28.2723 25.8392C28.3443 25.58 28.3817 25.3208 28.3565 25.0616C28.335 24.8025 28.2133 24.5433 28.1647 24.2841C28.1404 24.155 28.1338 24.025 28.1441 23.8959C28.1497 23.7667 28.1637 23.6367 28.1853 23.5076C28.2302 23.2484 28.2966 22.9892 28.4398 22.7301C28.451 22.7095 28.4772 22.702 28.4978 22.7132C28.5053 22.717 28.5109 22.7235 28.5146 22.7301Z" fill="#252222"/>
</svg>
