<svg width="98" height="83" viewBox="0 0 98 83" fill="none" xmlns="http://www.w3.org/2000/svg">
<g filter="url(#filter0_f_1241_14234)">
<rect x="4.62891" y="6.91797" width="90.623" height="73.4277" rx="6" fill="url(#paint0_linear_1241_14234)"/>
</g>
<path d="M0.628906 10.8633C0.628906 5.34043 5.10606 0.863281 10.6289 0.863281H85.252C88.5657 0.863281 91.252 3.54957 91.252 6.86328V68.291C91.252 71.6047 88.5657 74.291 85.252 74.291H0.628906V10.8633Z" fill="#FF5C2A"/>
<path d="M11.2842 74.2911V81.1239C8.91886 79.7047 0.634766 74.291 0.634766 74.291C3.0548 74.2906 7.96751 74.291 11.2842 74.2911Z" fill="#D3492B"/>
<path d="M44.1987 56.432C41.1587 56.432 38.7907 55.808 37.0947 54.56C35.3987 53.312 34.5507 51.584 34.5507 49.376C34.5507 48.32 34.7747 47.312 35.2227 46.352C35.6707 45.392 36.3907 44.432 37.3827 43.472L37.5267 44.192H33.7347V41.264H40.3587L38.8227 41.84L45.5907 36.32L45.8307 36.848H33.7347V33.92H49.1907L47.5107 34.592C48.5027 33.76 49.2707 33.04 49.8147 32.432C50.3907 31.824 50.7747 31.232 50.9667 30.656C51.1907 30.08 51.3027 29.44 51.3027 28.736C51.3027 27.552 50.8227 26.656 49.8627 26.048C48.9027 25.44 47.5107 25.136 45.6867 25.136C43.9907 25.136 42.4067 25.408 40.9347 25.952C39.4627 26.496 38.0387 27.392 36.6627 28.64L35.2227 25.664C36.7587 24.352 38.5027 23.376 40.4547 22.736C42.4387 22.064 44.5347 21.728 46.7427 21.728C49.4627 21.728 51.5747 22.288 53.0787 23.408C54.6147 24.496 55.3827 26.048 55.3827 28.064C55.3827 29.216 55.1107 30.32 54.5667 31.376C54.0547 32.4 53.1747 33.488 51.9267 34.64L51.8307 33.92H55.9107V36.848H48.8067L50.1507 36.368L43.4787 41.888L43.3827 41.264H55.9107V44.192H40.0707L41.7027 43.568C40.6147 44.432 39.8147 45.312 39.3027 46.208C38.7907 47.072 38.5347 48.016 38.5347 49.04C38.5347 50.288 39.0947 51.264 40.2147 51.968C41.3347 52.672 42.9507 53.024 45.0627 53.024C46.8867 53.024 48.5987 52.704 50.1987 52.064C51.8307 51.424 53.3027 50.464 54.6147 49.184L56.0067 52.16C55.1747 52.992 54.1347 53.744 52.8867 54.416C51.6707 55.056 50.3267 55.552 48.8547 55.904C47.3827 56.256 45.8307 56.432 44.1987 56.432Z" fill="#252222"/>
<path d="M42.3667 55.432C39.3267 55.432 36.9587 54.808 35.2627 53.56C33.5667 52.312 32.7187 50.584 32.7187 48.376C32.7187 47.32 32.9427 46.312 33.3907 45.352C33.8387 44.392 34.5587 43.432 35.5507 42.472L35.6947 43.192H31.9027V40.264H38.5267L36.9907 40.84L43.7587 35.32L43.9987 35.848H31.9027V32.92H47.3587L45.6787 33.592C46.6707 32.76 47.4387 32.04 47.9827 31.432C48.5587 30.824 48.9427 30.232 49.1347 29.656C49.3587 29.08 49.4707 28.44 49.4707 27.736C49.4707 26.552 48.9907 25.656 48.0307 25.048C47.0707 24.44 45.6787 24.136 43.8547 24.136C42.1587 24.136 40.5747 24.408 39.1027 24.952C37.6307 25.496 36.2067 26.392 34.8307 27.64L33.3907 24.664C34.9267 23.352 36.6707 22.376 38.6227 21.736C40.6067 21.064 42.7027 20.728 44.9107 20.728C47.6307 20.728 49.7427 21.288 51.2467 22.408C52.7827 23.496 53.5507 25.048 53.5507 27.064C53.5507 28.216 53.2787 29.32 52.7347 30.376C52.2227 31.4 51.3427 32.488 50.0947 33.64L49.9987 32.92H54.0787V35.848H46.9747L48.3187 35.368L41.6467 40.888L41.5507 40.264H54.0787V43.192H38.2387L39.8707 42.568C38.7827 43.432 37.9827 44.312 37.4707 45.208C36.9587 46.072 36.7027 47.016 36.7027 48.04C36.7027 49.288 37.2627 50.264 38.3827 50.968C39.5027 51.672 41.1187 52.024 43.2307 52.024C45.0547 52.024 46.7667 51.704 48.3667 51.064C49.9987 50.424 51.4707 49.464 52.7827 48.184L54.1747 51.16C53.3427 51.992 52.3027 52.744 51.0547 53.416C49.8387 54.056 48.4947 54.552 47.0227 54.904C45.5507 55.256 43.9987 55.432 42.3667 55.432Z" fill="white"/>
<path d="M42.466 55.4319C39.426 55.4319 37.058 54.8079 35.362 53.5599C33.666 52.3119 32.818 50.5839 32.818 48.3759C32.818 47.3199 33.042 46.3119 33.49 45.3519C33.938 44.3919 34.658 43.4319 35.65 42.4719L35.794 43.1919H32.002V40.2639H38.626L37.09 40.8399L43.858 35.3199L50.2012 32.9199H54.178V35.8479H47.074L48.418 35.3679L41.746 40.8879L41.65 40.2639H54.178V43.1919H38.338L39.97 42.5679C38.882 43.4319 38.082 44.3119 37.57 45.2079C37.058 46.0719 36.802 47.0159 36.802 48.0399C36.802 49.2879 37.362 50.2639 38.482 50.9679C39.602 51.6719 41.218 52.0239 43.33 52.0239C45.154 52.0239 46.866 51.7039 48.466 51.0639C50.098 50.4239 51.57 49.4639 52.882 48.1839L54.274 51.1599C53.442 51.9919 52.402 52.7439 51.154 53.4159C49.938 54.0559 48.594 54.5519 47.122 54.9039C45.65 55.2559 44.098 55.4319 42.466 55.4319Z" fill="#FFBDAE"/>
<defs>
<filter id="filter0_f_1241_14234" x="2.62891" y="4.91797" width="94.623" height="77.4277" filterUnits="userSpaceOnUse" color-interpolation-filters="sRGB">
<feFlood flood-opacity="0" result="BackgroundImageFix"/>
<feBlend mode="normal" in="SourceGraphic" in2="BackgroundImageFix" result="shape"/>
<feGaussianBlur stdDeviation="1" result="effect1_foregroundBlur_1241_14234"/>
</filter>
<linearGradient id="paint0_linear_1241_14234" x1="72.7637" y1="10.6121" x2="73.9809" y2="80.3244" gradientUnits="userSpaceOnUse">
<stop stop-opacity="0"/>
<stop offset="1" stop-opacity="0.15"/>
</linearGradient>
</defs>
</svg>
