<svg width="41" height="40" viewBox="0 0 41 40" fill="none" xmlns="http://www.w3.org/2000/svg">
<path d="M0.925704 15.8826C3.10493 6.9683 10.6884 3.14527 11.7043 2.65415C13.5562 1.75954 18.919 -0.474578 25.423 1.30694C33.0238 3.3889 36.5714 9.41812 37.3042 10.7384C38.0929 12.1588 41.0859 17.746 39.3862 24.3347C37.205 32.7916 28.6673 37.567 21.5036 38.4202C19.7067 38.634 10.9128 39.6827 4.846 33.1537C-1.47115 26.356 0.605032 17.198 0.926667 15.8836L0.925704 15.8826Z" fill="#FFE457"/>
<path d="M0.855969 15.8661C1.46939 13.3884 2.53252 11.0224 3.99818 8.91342C4.73197 7.86088 5.55532 6.86516 6.46341 5.94744C7.37439 5.0326 8.35952 4.18711 9.42072 3.43694C9.95228 3.06331 10.5002 2.71086 11.0722 2.38826C11.65 2.06277 12.2365 1.78736 12.8393 1.52928C12.9895 1.46476 13.1417 1.40602 13.2938 1.34535L13.5221 1.2558L13.7532 1.17298L14.2154 1.00831L14.6834 0.860012C15.3084 0.66549 15.9449 0.507561 16.5872 0.372744C17.8728 0.112739 19.1873 -0.0172658 20.5017 -0.0028211C21.8162 0.00969765 23.1288 0.164736 24.4105 0.446889C24.7283 0.52778 25.046 0.610597 25.3629 0.694376C25.4418 0.715562 25.5218 0.73482 25.5998 0.758894L25.8338 0.83401L26.3018 0.984234L26.763 1.15179L26.9932 1.23557L27.2205 1.32802L27.674 1.51387L28.1199 1.71706C28.7112 1.99536 29.2909 2.29581 29.8484 2.63382C30.407 2.96798 30.951 3.32717 31.4691 3.71717C31.9891 4.10526 32.4909 4.51645 32.9733 4.94786C33.4538 5.3812 33.9132 5.83573 34.3513 6.30952C34.7895 6.7833 35.2084 7.2725 35.6042 7.77999C36.0028 8.28459 36.3746 8.81038 36.727 9.34869C38.1233 11.5115 39.1431 13.9045 39.7248 16.4141C39.8682 17.0419 39.9809 17.6775 40.0589 18.3179C40.1408 18.9583 40.1908 19.6035 40.2053 20.2506C40.2197 20.8977 40.1908 21.5468 40.135 22.1939C40.109 22.5175 40.0637 22.8391 40.0204 23.1617C39.9655 23.4824 39.9164 23.804 39.8432 24.1218C39.7825 24.4425 39.693 24.7554 39.6131 25.0722C39.5755 25.2311 39.5245 25.3862 39.4753 25.5422L39.329 26.0102L39.1605 26.4705C39.1027 26.6236 39.0516 26.7796 38.9842 26.9289C38.8542 27.2293 38.7348 27.5346 38.5865 27.8264L38.3727 28.2693L38.1387 28.7017C37.9875 28.9935 37.8104 29.2689 37.6418 29.5511C37.559 29.6926 37.4608 29.8245 37.3712 29.9623C37.2788 30.0971 37.1892 30.2357 37.0929 30.3686L36.8002 30.7635L36.6529 30.9609L36.4978 31.1515C35.6793 32.1781 34.749 33.1131 33.7389 33.948C32.7297 34.7849 31.6473 35.5302 30.509 36.1754C29.3718 36.8225 28.1854 37.3839 26.9585 37.8414C26.347 38.0754 25.7221 38.2728 25.0942 38.4596C24.7774 38.5434 24.4634 38.6378 24.1428 38.71C23.9829 38.7475 23.824 38.788 23.6642 38.8236L23.1817 38.9238C20.6077 39.4332 17.9566 39.5352 15.344 39.1838C14.6921 39.0913 14.043 38.9719 13.3998 38.8246C12.7574 38.6715 12.1219 38.4885 11.4959 38.2718C11.339 38.2189 11.1849 38.1572 11.0299 38.1014L10.7978 38.0147C10.7207 37.9848 10.6447 37.9511 10.5676 37.9203L10.1093 37.7287L9.65858 37.5197L9.43324 37.4148L9.21272 37.3002L8.77263 37.069L8.34218 36.8196L8.12744 36.6945L7.91751 36.5606L7.49957 36.291C7.36283 36.1966 7.22994 36.0984 7.09416 36.003C6.82067 35.8153 6.56645 35.6024 6.30548 35.3983C6.17355 35.2981 6.05414 35.1826 5.92895 35.0747C5.80569 34.9649 5.67954 34.8571 5.5582 34.7454L5.20286 34.3997C5.08442 34.2851 4.96597 34.1695 4.85619 34.0463C3.94906 33.0881 3.16423 32.0211 2.51326 30.8848C2.42659 30.7461 2.35629 30.5978 2.27925 30.4534C2.20414 30.308 2.12614 30.1645 2.05392 30.0181L1.84784 29.5732L1.7448 29.3508C1.71206 29.2757 1.68221 29.1996 1.65139 29.1245L1.46746 28.6719C1.40776 28.5207 1.35672 28.3656 1.30087 28.2135C1.18627 27.9092 1.09671 27.5972 0.999453 27.2881C0.822265 26.665 0.665299 26.0362 0.556482 25.4006C0.492925 25.0848 0.451517 24.7651 0.402405 24.4473L0.346552 23.9677C0.326329 23.8078 0.310922 23.648 0.298403 23.4881C0.182845 22.2093 0.183808 20.9256 0.275292 19.6516C0.324404 19.0151 0.390849 18.3795 0.48811 17.7488C0.584408 17.118 0.699966 16.4902 0.854043 15.87L0.855969 15.8661ZM0.996564 15.9008C0.850191 16.5162 0.738485 17.1411 0.65278 17.768C0.572853 18.3959 0.514111 19.0276 0.489073 19.6603C0.46211 20.293 0.464999 20.9256 0.499666 21.5564C0.512185 21.8723 0.541074 22.1862 0.568038 22.5011C0.603668 22.815 0.637372 23.128 0.687447 23.439C0.727893 23.751 0.792412 24.0602 0.849228 24.3693C0.918563 24.6755 0.978268 24.9846 1.06301 25.287C1.21612 25.8956 1.4145 26.4907 1.63021 27.0752C1.74673 27.3651 1.85362 27.6578 1.98747 27.939C2.05199 28.0806 2.11266 28.2241 2.18103 28.3637L2.39096 28.7797C2.42659 28.8491 2.46029 28.9184 2.49593 28.9868L2.61052 29.189L2.83875 29.5934C2.91867 29.7263 3.00245 29.8563 3.08431 29.9873C3.16809 30.1173 3.24416 30.2511 3.33564 30.3763C4.72041 32.4207 6.55007 34.1348 8.65034 35.3617L8.84582 35.4792L9.04708 35.588L9.44865 35.8056L9.85888 36.005L10.064 36.1051L10.273 36.1976L10.6909 36.3815L11.1165 36.549C11.1878 36.577 11.2581 36.6059 11.3293 36.6319L11.5451 36.707C11.6895 36.7561 11.832 36.81 11.9774 36.8562C12.5581 37.044 13.1484 37.2 13.7445 37.3377C14.3425 37.4677 14.9453 37.5717 15.5539 37.6507C17.9864 37.9646 20.4806 37.8693 22.9025 37.4379L23.3551 37.3512C23.5053 37.3204 23.6555 37.2848 23.8057 37.252C24.1071 37.1894 24.4037 37.1056 24.7032 37.0315C25.2964 36.8659 25.8887 36.6906 26.4684 36.4787C27.6326 36.0704 28.7641 35.5658 29.8494 34.9784C32.018 33.8017 33.9998 32.2696 35.6109 30.4072L35.764 30.2338L35.9094 30.0547L36.1993 29.6955C36.2946 29.5751 36.3823 29.449 36.4747 29.3257C36.5643 29.2005 36.6615 29.0811 36.7443 28.9511C36.9138 28.695 37.0958 28.4446 37.2509 28.1788L37.4916 27.784L37.7141 27.3786C37.8691 27.1109 37.9943 26.8297 38.132 26.5523C38.2033 26.4146 38.2572 26.2702 38.3198 26.1286L38.5008 25.702L38.6616 25.2668C38.7156 25.1213 38.7714 24.9769 38.8147 24.8286C38.9053 24.533 39.0064 24.2393 39.0796 23.9378C39.1643 23.6393 39.2259 23.335 39.2934 23.0317C39.3492 22.7264 39.4089 22.4212 39.4484 22.112C39.5351 21.4957 39.588 20.8736 39.5986 20.2496C39.6092 19.6256 39.5871 18.9997 39.5302 18.3757C39.4696 17.7526 39.3762 17.1315 39.2519 16.5162C39.1277 15.9008 38.9717 15.2912 38.783 14.6913C38.5962 14.0914 38.3795 13.5001 38.1349 12.9194C37.8913 12.3387 37.6187 11.7715 37.3202 11.2178C37.0246 10.6603 36.6991 10.1258 36.3447 9.6058C35.6388 8.56578 34.8251 7.59991 33.9315 6.72071C33.4837 6.28256 33.0157 5.86559 32.5313 5.47077C32.046 5.07691 31.5385 4.71193 31.0185 4.37007C30.4994 4.02629 29.9592 3.71525 29.4093 3.42828C28.8604 3.13746 28.2942 2.88516 27.7202 2.65597C27.1463 2.42389 26.5599 2.23033 25.9695 2.05122L25.5227 1.93085L25.2993 1.87114C25.2242 1.85285 25.1481 1.8384 25.073 1.82203C24.7716 1.75847 24.4702 1.69395 24.1697 1.62654C22.9583 1.40794 21.7315 1.29143 20.5037 1.29143C19.2759 1.29143 18.0471 1.40602 16.8357 1.6304L16.3831 1.72092C16.2319 1.75077 16.0807 1.7787 15.9314 1.81722C15.6319 1.89136 15.3305 1.95492 15.0349 2.04448L14.5881 2.16677L14.1461 2.30544L13.9246 2.37478L13.706 2.45085C13.5606 2.50285 13.4132 2.551 13.2688 2.60397L12.8355 2.76768C12.691 2.82353 12.5494 2.8842 12.406 2.94198C12.2625 3.00072 12.1228 3.06523 11.9794 3.12494C11.8388 3.18657 11.7011 3.25013 11.5624 3.31657C11.0077 3.58332 10.4627 3.88473 9.9311 4.20829C8.86508 4.85253 7.84914 5.59017 6.90156 6.41063C6.42585 6.8199 5.97421 7.25613 5.53606 7.7068L5.21249 8.05059L4.90049 8.404C4.79456 8.52052 4.69441 8.64186 4.59522 8.76416C4.49604 8.88645 4.39396 9.00683 4.29766 9.13105C3.91151 9.62891 3.54365 10.1422 3.20949 10.6786C3.12186 10.8095 3.04386 10.9472 2.96297 11.083C2.88304 11.2188 2.80119 11.3546 2.72511 11.4932L2.50267 11.9121L2.39192 12.1221L2.28888 12.3359L2.08377 12.7644C2.01829 12.9079 1.95955 13.0552 1.89695 13.2006C1.83725 13.347 1.76984 13.4905 1.71591 13.6397L1.54932 14.0846L1.46746 14.3071L1.39524 14.5334L1.25175 14.986C1.16027 15.2893 1.0842 15.5965 0.999453 15.9018L0.996564 15.9008Z" fill="#272727"/>
<path d="M5.81527 15.6446C5.8403 15.4809 5.87593 15.3191 5.9183 15.1573C5.96838 15.0003 6.02905 14.8463 6.09068 14.6912C6.16194 14.542 6.23898 14.3946 6.3189 14.2482C6.4075 14.1086 6.50091 13.969 6.59721 13.8322C6.70025 13.7003 6.81002 13.5742 6.91884 13.4461C7.03825 13.3286 7.15574 13.2092 7.28092 13.0965C7.40996 12.9896 7.54093 12.8837 7.67863 12.7874C7.82115 12.6988 7.9656 12.6121 8.11679 12.539C8.27183 12.4715 8.42687 12.407 8.58576 12.355C8.74851 12.3098 8.9074 12.2607 9.06918 12.2221C9.23385 12.1904 9.39274 12.1509 9.55259 12.1181C9.63349 12.1037 9.71245 12.0873 9.79238 12.0719C9.87134 12.0546 9.94934 12.0334 10.0283 12.0209C10.6562 11.888 11.2783 11.7512 11.934 11.653C12.0978 11.6357 12.2634 11.6106 12.43 11.601C12.5966 11.5962 12.7651 11.5875 12.9327 11.5943C13.0993 11.6078 13.2678 11.6193 13.4344 11.6453C13.599 11.6771 13.7656 11.7079 13.9303 11.7455C14.5871 11.9024 15.2323 12.1576 15.7927 12.5476C16.3512 12.9376 16.8337 13.4326 17.2035 13.9931C17.5723 14.5535 17.8362 15.1794 17.9257 15.8323C17.9305 15.8641 17.9074 15.894 17.8756 15.8978C17.8554 15.9007 17.8362 15.8921 17.8236 15.8786C17.3932 15.3942 16.9781 14.957 16.5323 14.5689C16.0883 14.1808 15.6223 13.8428 15.136 13.5462C14.6516 13.2496 14.1556 12.9665 13.6173 12.7556C13.4825 12.7046 13.3448 12.6622 13.2081 12.6112C13.0694 12.5698 12.9298 12.5303 12.7901 12.4821C12.6495 12.4427 12.5061 12.4051 12.3626 12.3618C12.2181 12.3261 12.0718 12.2963 11.9225 12.2626C11.3293 12.1451 10.6985 12.1672 10.1217 12.3656C9.97727 12.4138 9.83956 12.4821 9.70282 12.5476C9.568 12.6179 9.43993 12.7046 9.31378 12.7864C9.18955 12.8731 9.07014 12.9684 8.95073 13.0561C8.83421 13.1504 8.72154 13.2467 8.60406 13.3334C8.49139 13.4268 8.37872 13.5193 8.26027 13.6021C8.14761 13.6926 8.03301 13.7802 7.91456 13.8631C7.80382 13.9555 7.68923 14.0451 7.57463 14.1346C7.46485 14.2299 7.35604 14.3262 7.24048 14.4187C7.13551 14.5198 7.02381 14.618 6.9121 14.7172C6.80714 14.8222 6.69736 14.9252 6.58565 15.0292C6.48069 15.138 6.37187 15.2469 6.25727 15.3547C6.15135 15.4683 6.03964 15.581 5.91542 15.6927L5.91253 15.6956C5.88845 15.7178 5.85186 15.7158 5.82971 15.6918C5.81719 15.6783 5.81238 15.66 5.81527 15.6436V15.6446Z" fill="#272727"/>
<path d="M22.593 15.6451C22.7018 14.9951 22.9849 14.3778 23.3711 13.828C23.7582 13.2781 24.256 12.7985 24.8261 12.4268C25.3981 12.0551 26.052 11.8201 26.7126 11.6834C26.8792 11.6555 27.0439 11.6179 27.2114 11.5987C27.2952 11.59 27.379 11.5813 27.4628 11.5755C27.5466 11.5698 27.6294 11.5601 27.7141 11.563C27.8826 11.5659 28.0502 11.5669 28.2168 11.5852C28.3834 11.6054 28.5481 11.6227 28.7108 11.6516C29.3637 11.7691 29.981 11.9261 30.605 12.0782C30.7591 12.1216 30.918 12.1553 31.0768 12.1909C31.2328 12.2342 31.3946 12.2689 31.5564 12.3103C31.7143 12.3585 31.8761 12.4047 32.035 12.4586C32.19 12.5193 32.348 12.5819 32.4982 12.6579C32.5714 12.6984 32.6446 12.7398 32.7168 12.7841C32.789 12.8274 32.8612 12.8708 32.9287 12.9208C33.0615 13.0229 33.1935 13.1288 33.3158 13.2425C33.4361 13.36 33.5536 13.4794 33.6663 13.6036C33.7713 13.7355 33.8801 13.8617 33.9764 13.9994C34.0688 14.139 34.1593 14.2796 34.2422 14.424C34.3173 14.5733 34.3924 14.7216 34.4569 14.8738C34.5137 15.0307 34.5705 15.1867 34.6148 15.3447C34.6524 15.5074 34.6832 15.6701 34.7025 15.8348C34.7063 15.8666 34.6832 15.8964 34.6514 15.9003C34.6331 15.9022 34.6158 15.8964 34.6042 15.8849L34.6014 15.882C34.481 15.7664 34.3722 15.6499 34.2701 15.5334C34.1593 15.4217 34.0525 15.31 33.9513 15.1973C33.8435 15.0895 33.7356 14.9835 33.6345 14.8757C33.5276 14.7717 33.4169 14.6725 33.3148 14.5675C33.205 14.4693 33.0962 14.372 32.9893 14.2738C32.8805 14.1775 32.7649 14.0889 32.6581 13.9917C32.5444 13.9011 32.4289 13.8154 32.32 13.7191C32.2074 13.6286 32.0928 13.54 31.9849 13.4399C31.8723 13.3465 31.7577 13.254 31.6469 13.1519C31.5323 13.0566 31.412 12.9661 31.2926 12.8708C31.1703 12.7822 31.0412 12.7003 30.9102 12.6204C30.7774 12.5472 30.6377 12.4846 30.4971 12.4249C29.927 12.2082 29.2973 12.1668 28.7002 12.267C28.5509 12.2891 28.4036 12.3267 28.2582 12.3527C28.185 12.3642 28.1137 12.3893 28.0415 12.4066C27.9693 12.4239 27.898 12.4432 27.8268 12.4596C27.6843 12.4942 27.5456 12.5424 27.405 12.5751C27.2654 12.6136 27.1286 12.6637 26.9919 12.7061C26.4478 12.9006 25.9432 13.1683 25.4492 13.4485C24.9542 13.7297 24.4775 14.0523 24.022 14.4269C23.5646 14.8006 23.1361 15.2262 22.6912 15.6971C22.6691 15.7212 22.6325 15.7221 22.6084 15.7C22.5939 15.6865 22.5882 15.6663 22.5911 15.648L22.593 15.6451Z" fill="#272727"/>
<path d="M20.9199 21.5623C20.3576 21.4486 19.9078 21.491 19.5198 21.6258C19.3272 21.6942 19.1529 21.7847 18.9959 21.8955C18.9179 21.9513 18.8438 22.01 18.7677 22.0707L18.654 22.1641L18.5972 22.2123C18.5818 22.2267 18.5645 22.2412 18.5472 22.2556C18.4143 22.376 18.2766 22.5561 18.1889 22.7756C18.0994 22.9933 18.0647 23.2475 18.1051 23.4892C18.1456 23.7299 18.2592 23.9591 18.4229 24.1209C18.5048 24.2008 18.5992 24.2625 18.6974 24.2981C18.7946 24.3347 18.8958 24.3414 18.9892 24.3318C19.1548 24.3164 19.3021 24.4377 19.3185 24.6043C19.3291 24.7122 19.2809 24.8123 19.2001 24.874L19.0421 24.9934C18.89 25.108 18.7879 25.2746 18.706 25.4517C18.6261 25.6299 18.5597 25.8206 18.5279 26.0161C18.4971 26.2115 18.5038 26.4099 18.5375 26.5813C18.5732 26.7537 18.629 26.8972 18.6993 27.0108C18.7138 27.0359 18.7417 27.0763 18.7677 27.111C18.7937 27.1476 18.8216 27.1813 18.8505 27.2159C18.9083 27.2843 18.9718 27.3479 19.0412 27.4095C19.1818 27.5279 19.3455 27.6339 19.5342 27.7099C19.9127 27.865 20.3787 27.9122 20.9199 27.7773C20.9565 27.7677 20.9931 27.7899 21.0018 27.8265C21.0066 27.8448 21.0028 27.8621 20.9941 27.8775C20.6927 28.3888 20.0484 28.7143 19.3792 28.6999C18.708 28.6922 18.0156 28.3599 17.588 27.7658C17.3588 27.4403 17.2519 27.0618 17.2365 26.7084C17.2192 26.3521 17.2808 26.0141 17.3916 25.7002C17.5033 25.3872 17.666 25.0887 17.9068 24.8441C18.1437 24.6005 18.4634 24.4098 18.8129 24.3462L18.8649 25.0068C18.6935 24.95 18.5404 24.8557 18.4123 24.7488C18.2833 24.6409 18.1783 24.5177 18.0917 24.3905C17.9164 24.1353 17.8085 23.8619 17.7209 23.5826C17.6352 23.3033 17.5678 23.0135 17.5399 22.6986C17.5264 22.5416 17.5274 22.3789 17.5505 22.2113C17.5726 22.0447 17.6169 21.8723 17.6968 21.7086C17.9973 21.0625 18.6887 20.6879 19.357 20.6484C19.6931 20.6272 20.0282 20.6937 20.3181 20.8343C20.606 20.9768 20.8516 21.1915 20.9951 21.4612C21.0133 21.4949 20.9999 21.5363 20.9662 21.5546C20.9517 21.5623 20.9353 21.5642 20.9199 21.5613V21.5623Z" fill="#272727"/>
<path d="M13.1905 22.6914C13.5093 22.6885 13.827 22.7116 14.1419 22.7598C13.8078 21.9711 13.7519 21.0688 13.9859 20.2445C14.0822 19.9065 14.2835 19.5348 14.6321 19.4905C14.8632 19.4606 15.0924 19.5954 15.2349 19.7803C15.3774 19.9652 15.4497 20.1935 15.5113 20.4178C15.8801 21.7573 15.986 23.1691 15.8262 24.549C14.5541 25.2318 13.0971 25.5669 11.6536 25.5081C11.2655 25.4927 10.8678 25.4456 10.525 25.2626C10.1822 25.0796 9.90385 24.7349 9.89711 24.3468C9.88652 23.742 10.4893 23.3193 11.0517 23.0997C11.7316 22.8349 12.4606 22.6962 13.1905 22.6905V22.6914Z" fill="#FF5C2A"/>
<path d="M13.1917 22.6516C13.3516 22.6487 13.5124 22.6545 13.6722 22.6593C13.8321 22.667 13.9929 22.6757 14.1537 22.6892L14.0786 22.7855C13.9043 22.4359 13.7618 22.0623 13.677 21.6674C13.5913 21.2726 13.5663 20.8566 13.6212 20.4454C13.6337 20.3414 13.6549 20.2413 13.677 20.1373C13.703 20.0285 13.7396 19.9216 13.7868 19.8137C13.835 19.7068 13.8976 19.5999 13.9804 19.4969C14.0632 19.3948 14.1739 19.2966 14.3155 19.2282C14.4551 19.1608 14.6198 19.13 14.7768 19.1473C14.9337 19.1627 15.0714 19.2224 15.187 19.2966C15.3035 19.3717 15.3979 19.4661 15.4769 19.573C15.552 19.677 15.6059 19.7858 15.6463 19.8936C15.7272 20.1093 15.7571 20.3087 15.7889 20.5003C15.8216 20.6939 15.8476 20.8884 15.8688 21.0829C15.916 21.471 15.9429 21.8591 15.9699 22.2452C16.0209 23.0175 16.0441 23.7899 16.0142 24.5708C16.0123 24.6257 15.9824 24.6739 15.9391 24.7018L15.9141 24.7172C15.5289 24.9599 15.1234 25.1785 14.6978 25.3576C14.2722 25.5357 13.8263 25.6648 13.3718 25.7553C12.9173 25.8477 12.4541 25.8997 11.988 25.9123C11.754 25.9171 11.5248 25.92 11.2783 25.8949C11.0337 25.8728 10.7756 25.8208 10.5204 25.7168C10.4568 25.6917 10.3942 25.66 10.3326 25.6272C10.2691 25.5916 10.2074 25.5531 10.1487 25.5107C10.0322 25.425 9.92431 25.3268 9.83186 25.2112C9.6489 24.9849 9.51215 24.6816 9.51697 24.3542C9.52082 24.1953 9.55549 24.0383 9.61519 23.8958C9.67586 23.7542 9.76253 23.6329 9.85401 23.5279C9.94838 23.4239 10.0524 23.3401 10.1583 23.265C10.2662 23.1938 10.3769 23.1331 10.4877 23.0811C10.7101 22.9781 10.946 22.9116 11.1675 22.8625C11.3919 22.8115 11.6182 22.7739 11.8426 22.7441C12.2923 22.6834 12.7391 22.6555 13.1859 22.6526L13.1917 22.6516ZM13.1917 22.7287C12.7507 22.7344 12.3106 22.8105 11.8955 22.9511C11.6875 23.0204 11.4872 23.1081 11.2927 23.2044C11.0953 23.3007 10.92 23.4085 10.7602 23.5318C10.6032 23.655 10.4684 23.7966 10.3808 23.9382C10.3374 24.0085 10.3085 24.0797 10.2893 24.1452C10.2739 24.2116 10.271 24.2752 10.2739 24.3388C10.2941 24.5766 10.5281 24.8414 10.8334 24.9503C11.1454 25.0764 11.5623 25.0995 11.988 25.114C12.4098 25.1226 12.8344 25.1043 13.2553 25.0485C14.094 24.9262 14.9357 24.7259 15.7349 24.3792L15.6357 24.5256C15.7812 23.786 15.8187 23.0195 15.7253 22.2674C15.681 21.8918 15.5953 21.5211 15.4884 21.159C15.4326 20.9789 15.3738 20.7998 15.3093 20.6236C15.2457 20.4454 15.1793 20.2721 15.1032 20.1382C15.0657 20.0708 15.0233 20.013 14.979 19.9668C14.9386 19.9235 14.8885 19.8879 14.8413 19.8638C14.7941 19.8387 14.7479 19.8291 14.7142 19.8282C14.6805 19.8253 14.6506 19.8368 14.6188 19.8513C14.5553 19.8782 14.4667 19.9765 14.3993 20.1074C14.3637 20.1719 14.3328 20.2451 14.3049 20.3202C14.276 20.4002 14.2491 20.4849 14.225 20.5697C14.1277 20.9077 14.0594 21.264 14.0497 21.6318C14.0401 21.9977 14.0854 22.3752 14.2076 22.7315L14.2105 22.7412C14.2221 22.7758 14.2038 22.8144 14.1691 22.8259C14.1566 22.8298 14.1441 22.8307 14.1325 22.8278C13.9785 22.7932 13.8225 22.7672 13.6655 22.7518C13.5085 22.7344 13.3496 22.7296 13.1917 22.7296V22.7287Z" fill="#272727"/>
<path d="M5.70292 20.4619C6.00723 20.5563 6.30382 20.6738 6.58887 20.8153C6.5099 19.9631 6.73042 19.0858 7.20229 18.3713C7.39584 18.0785 7.70111 17.7858 8.04682 17.8484C8.27601 17.8907 8.4532 18.0882 8.53313 18.3068C8.61305 18.5254 8.61209 18.7651 8.60342 18.9982C8.54853 20.3868 8.22208 21.7639 7.65103 23.0302C6.2316 23.295 4.74187 23.1727 3.38407 22.6796C3.0191 22.5468 2.65413 22.3821 2.38257 22.1038C2.11197 21.8255 1.95019 21.4124 2.06189 21.0407C2.23523 20.4619 2.93724 20.2414 3.54007 20.2029C4.26808 20.1566 5.00476 20.2462 5.70196 20.4619H5.70292Z" fill="#FF5C2A"/>
<path d="M5.71201 20.4278C5.86609 20.4731 6.01728 20.5251 6.16847 20.579C6.31869 20.6339 6.46892 20.6917 6.61818 20.7543L6.52381 20.8198C6.46603 20.4346 6.44966 20.0359 6.49299 19.6363C6.5344 19.2366 6.64033 18.837 6.81366 18.4624C6.857 18.368 6.90611 18.2785 6.95811 18.186C7.01493 18.0907 7.07945 17.9992 7.15552 17.9106C7.23256 17.823 7.32115 17.7392 7.42997 17.6651C7.53783 17.5919 7.67072 17.5293 7.82479 17.5052C7.97695 17.4811 8.1445 17.4956 8.29184 17.5562C8.43918 17.615 8.55859 17.7113 8.65199 17.8153C8.7454 17.9212 8.8157 18.0387 8.86674 18.1668C8.91489 18.291 8.93993 18.4133 8.95437 18.5308C8.9823 18.7677 8.96689 18.9718 8.95437 19.1663C8.94378 19.3638 8.9197 19.5602 8.89563 19.7567C8.84652 20.1486 8.77237 20.5367 8.67703 20.919C8.58362 21.3013 8.46807 21.6788 8.32843 22.0457C8.18784 22.4125 8.02028 22.7679 7.83539 23.1126L7.82191 23.1377C7.79398 23.1897 7.74198 23.2215 7.68805 23.2282C6.779 23.3274 5.87572 23.2966 4.98496 23.1849C4.5391 23.129 4.09324 23.0539 3.65027 22.9509C3.42879 22.8979 3.20923 22.844 2.98581 22.765C2.76337 22.688 2.53899 22.5811 2.33195 22.428C2.22987 22.3519 2.13069 22.2604 2.04498 22.1545C1.9612 22.0485 1.88705 21.933 1.83313 21.8059C1.72238 21.5555 1.68194 21.2464 1.77342 20.9546C1.81964 20.813 1.89283 20.6801 1.98528 20.5675C2.07869 20.4548 2.19039 20.3681 2.30499 20.2959C2.42054 20.2256 2.53995 20.1765 2.66033 20.1361C2.7807 20.0995 2.90107 20.0735 3.02145 20.0552C3.26026 20.0205 3.50197 20.0244 3.72731 20.0407C3.95554 20.0571 4.18184 20.085 4.40429 20.1216C4.85015 20.1938 5.28541 20.2988 5.71201 20.4278ZM5.69179 20.4924C5.27001 20.3604 4.82896 20.295 4.38984 20.2969C4.17028 20.2969 3.95168 20.3161 3.73598 20.345C3.51738 20.373 3.31515 20.4182 3.12063 20.4837C2.92804 20.5501 2.75085 20.6397 2.61314 20.7485C2.54477 20.8034 2.48892 20.8631 2.44366 20.9247C2.40129 20.9883 2.3724 21.0547 2.34928 21.125C2.31462 21.2608 2.32617 21.4188 2.3878 21.5757C2.41862 21.6528 2.45714 21.7308 2.50721 21.802C2.5544 21.8742 2.6141 21.9397 2.68248 22.0062C2.95211 22.2662 3.35175 22.454 3.75427 22.6206C4.15873 22.7823 4.58051 22.9104 5.01385 22.9778C5.44719 23.0462 5.88728 23.0674 6.32447 23.0404C6.76166 23.0135 7.19404 22.9374 7.61294 22.8286L7.4656 22.9441C7.59464 22.5907 7.70442 22.2315 7.80265 21.8714C7.90183 21.5112 7.98754 21.1491 8.05591 20.7832C8.12332 20.4173 8.17147 20.0494 8.20325 19.6806C8.21865 19.4957 8.22828 19.3108 8.23599 19.1259C8.24465 18.9381 8.25043 18.758 8.23406 18.6146C8.2071 18.3228 8.0405 18.1639 7.92205 18.1831C7.85079 18.1841 7.73138 18.2496 7.62353 18.3526C7.56768 18.4027 7.51471 18.4634 7.46464 18.526C7.41264 18.5934 7.35967 18.6666 7.3096 18.7397C7.11026 19.0325 6.94078 19.356 6.82329 19.7056C6.70774 20.0542 6.64129 20.4288 6.65285 20.8053V20.814C6.65381 20.8487 6.62685 20.8785 6.59122 20.8795C6.5787 20.8795 6.56714 20.8766 6.55751 20.8708C6.42077 20.7919 6.28017 20.7196 6.13476 20.657C5.99032 20.5925 5.84105 20.5386 5.69083 20.4904L5.69179 20.4924Z" fill="#272727"/>
</svg>
