<svg width="470" height="159" viewBox="0 0 470 159" fill="none" xmlns="http://www.w3.org/2000/svg">
<g opacity="0.1">
<path d="M415.33 158.132C407.681 158.132 400.97 156.473 395.197 153.153C389.425 149.69 385.312 144.711 382.858 138.216H383.941L381.126 155.751H343.676L367.921 3.13477H406.454L396.28 66.1296H394.115C396.857 62.0887 400.032 58.625 403.64 55.7387C407.392 52.708 411.433 50.4711 415.763 49.0279C420.236 47.5847 424.927 46.8631 429.834 46.8631C437.771 46.8631 444.698 48.7393 450.615 52.4915C456.532 56.2438 461.078 61.5836 464.253 68.5108C467.573 75.4381 469.232 83.6642 469.232 93.1892C469.232 105.601 466.996 116.713 462.522 126.527C458.048 136.34 451.77 144.061 443.688 149.69C435.606 155.318 426.154 158.132 415.33 158.132ZM407.104 129.774C412.01 129.774 416.196 128.331 419.659 125.444C423.123 122.414 425.793 118.301 427.669 113.105C429.545 107.91 430.483 101.993 430.483 95.354C430.483 88.8597 428.968 83.8807 425.937 80.4171C423.051 76.9534 419.01 75.2216 413.814 75.2216C408.908 75.2216 404.722 76.7369 401.259 79.7676C397.795 82.654 395.053 86.6949 393.033 91.8903C391.156 97.0858 390.218 103.003 390.218 109.641C390.218 116.136 391.734 121.115 394.764 124.578C397.795 128.042 401.908 129.774 407.104 129.774Z" fill="#FF5C2A"/>
<path d="M251.763 158.132C244.259 158.132 237.764 156.545 232.28 153.37C226.94 150.195 223.116 145.216 220.807 138.433C218.642 131.65 218.354 122.918 219.941 112.239L229.899 49.2441H268.432L258.69 111.59C258.113 115.197 258.041 118.3 258.474 120.898C259.051 123.496 260.206 125.444 261.938 126.743C263.669 128.042 266.123 128.691 269.298 128.691C273.05 128.691 276.369 127.825 279.256 126.093C282.286 124.217 284.74 121.547 286.616 118.084C288.636 114.62 290.007 110.507 290.729 105.745L299.605 49.2441H338.137L321.252 155.751H283.585L286.399 137.134H288.131C284.523 143.917 279.544 149.112 273.194 152.72C266.844 156.328 259.701 158.132 251.763 158.132Z" fill="#FF5C2A"/>
<path d="M181.482 158.133C167.339 158.133 157.165 154.309 150.959 146.66C144.898 139.011 142.95 127.899 145.114 113.323L162.649 3.13574H201.182L183.647 112.673C183.214 115.992 183.286 118.734 183.864 120.899C184.585 123.064 185.884 124.724 187.76 125.878C189.781 126.888 192.306 127.394 195.337 127.394C196.78 127.394 198.223 127.321 199.666 127.177C201.254 127.033 202.769 126.888 204.212 126.744L199.234 155.969C196.78 156.69 194.038 157.195 191.007 157.484C188.121 157.917 184.946 158.133 181.482 158.133Z" fill="#FF5C2A"/>
<path d="M74.6465 158.133C60.5033 158.133 47.8755 155.535 36.763 150.34C25.6505 145 16.8471 137.134 10.3528 126.744C3.85848 116.208 0.611328 103.292 0.611328 87.9941C0.611328 75.7271 2.48746 64.326 6.23973 53.7908C9.992 43.2556 15.4761 34.0192 22.692 26.0817C30.0522 18.1442 39.0721 11.9385 49.7516 7.46468C60.5755 2.99083 72.9868 0.753906 86.9856 0.753906C97.3765 0.753906 107.19 2.34141 116.427 5.51641C125.663 8.54708 132.951 12.5158 138.291 17.4226L123.354 48.5953C117.581 44.4101 111.52 41.1629 105.17 38.8539C98.964 36.5448 92.6141 35.3902 86.1198 35.3902C76.4504 35.3902 68.3686 37.6993 61.8743 42.3175C55.5243 46.7913 50.6897 52.9249 47.3704 60.718C44.1954 68.3669 42.6079 76.9538 42.6079 86.4788C42.6079 94.8492 43.9067 101.849 46.5044 107.477C49.1022 112.961 53.0709 117.002 58.4107 119.6C63.8948 122.198 70.8942 123.496 79.409 123.496C85.0374 123.496 90.8822 122.558 96.9436 120.682C103.149 118.662 109.499 115.559 115.994 111.374L125.952 142.763C121.911 145.938 117.004 148.68 111.231 150.989C105.458 153.298 99.397 155.03 93.047 156.184C86.697 157.483 80.5635 158.133 74.6465 158.133Z" fill="#FF5C2A"/>
</g>
</svg>
