<svg width="42" height="36" viewBox="0 0 42 36" fill="none" xmlns="http://www.w3.org/2000/svg">
<path d="M1.15133 20.3808C-0.0242707 13.0275 3.69264 5.71047 9.8734 2.37602C15.8774 -0.863069 21.855 0.925729 22.7838 1.21991C30.4741 3.6564 33.2889 10.7707 33.8682 12.3823C34.3583 13.7464 36.4338 19.5172 33.6576 25.4501C30.6512 31.8767 23.0525 36.1422 15.3026 34.8216C7.92365 33.5638 2.29857 27.5656 1.15032 20.3803L1.15133 20.3808Z" fill="#FFE457"/>
<path d="M1.09144 20.3906C1.00837 19.8329 0.937187 19.272 0.905441 18.7087C0.896658 18.5679 0.885281 18.427 0.8783 18.2866L0.867087 17.8634L0.861084 17.652L0.865793 17.0165C0.89076 15.8862 1.02387 14.7586 1.24446 13.6454C1.27101 13.506 1.30657 13.3684 1.33673 13.2297C1.36947 13.0912 1.39501 12.9512 1.43338 12.8145C1.5063 12.5396 1.57462 12.2635 1.6606 11.9927C1.81626 11.4445 2.0149 10.9101 2.22155 10.377C2.65282 9.3202 3.17693 8.29421 3.80169 7.32756C3.96422 7.09034 4.11822 6.84693 4.29207 6.61683L4.54758 6.26802L4.95002 5.75872L5.09066 5.59399L5.37316 5.26589C5.46983 5.1584 5.56997 5.05423 5.66787 4.9481C5.76678 4.84255 5.86446 4.73563 5.96907 4.63533L6.27844 4.33057C6.38182 4.2289 6.49155 4.13487 6.5984 4.03652C6.81008 3.83867 7.03505 3.65507 7.25778 3.46952C7.36832 3.37528 7.48665 3.29083 7.6013 3.20227C7.71718 3.11508 7.83117 3.02415 7.94994 2.94128C8.18972 2.77749 8.42205 2.60209 8.67151 2.45184C10.626 1.18694 12.8857 0.397528 15.186 0.119505C17.4909 -0.153839 19.8247 0.0481854 22.0373 0.659394C22.3142 0.736858 22.5898 0.821527 22.8619 0.915652C23.1301 1.01685 23.4006 1.11141 23.6667 1.21744C24.1963 1.43614 24.7195 1.66854 25.2221 1.9407C25.3481 2.00843 25.475 2.07336 25.5998 2.14312L25.9701 2.35865L26.1548 2.46653L26.3355 2.58148L26.6961 2.8116C27.1688 3.13031 27.6316 3.46279 28.071 3.82473C28.9575 4.53967 29.7652 5.34613 30.5045 6.208C31.2391 7.07455 31.9029 7.99975 32.4896 8.97337C32.7832 9.45967 33.0572 9.95819 33.3103 10.4676C33.5671 10.975 33.8025 11.4944 34.0149 12.0234C34.434 13.0788 34.7934 14.1685 35.0411 15.2862C35.2936 16.4026 35.45 17.5446 35.4941 18.6968C35.5417 19.849 35.463 21.0103 35.2574 22.1534C34.8513 24.4427 33.8779 26.6336 32.4974 28.509C32.4144 28.629 32.3239 28.7433 32.2341 28.8574L31.9645 29.2015L31.6818 29.5348C31.588 29.6466 31.4938 29.7569 31.3933 29.8629L31.097 30.1845C30.9986 30.2916 30.8922 30.3916 30.7902 30.4954C30.686 30.5973 30.5868 30.7046 30.4787 30.8016L30.1576 31.0977C30.0522 31.1982 29.9396 31.2913 29.8291 31.3855L29.4957 31.6679L29.152 31.9378C29.0378 32.0279 28.9236 32.118 28.8042 32.2019L28.4501 32.4585C28.3332 32.5451 28.2093 32.6217 28.0885 32.7034C27.9663 32.7829 27.848 32.8674 27.7231 32.9434L27.3502 33.1719C26.3549 33.779 25.2914 34.271 24.1942 34.6683C23.097 35.0655 21.9588 35.3505 20.8039 35.5189C18.4943 35.8651 16.1148 35.7268 13.8633 35.1288C12.7378 34.8263 11.6498 34.3993 10.6172 33.8728C10.4868 33.8106 10.3614 33.7358 10.2345 33.6675C10.1076 33.5966 9.97946 33.5303 9.85513 33.4562L9.48408 33.2315L9.29942 33.1176L9.119 32.9975L8.75838 32.758L8.40684 32.5049C8.16976 32.3398 7.94721 32.1562 7.72007 31.9807C6.82278 31.2576 6.00891 30.4409 5.26958 29.5697C4.90579 29.1291 4.55453 28.6782 4.2351 28.2066C3.90487 27.7423 3.61376 27.2527 3.32625 26.7639C2.76988 25.7734 2.29946 24.7389 1.92207 23.6738C1.74336 23.1372 1.56703 22.6 1.43689 22.051C1.29226 21.505 1.18771 20.9498 1.0931 20.3936L1.09144 20.3906ZM1.21304 20.3709C1.31232 20.9225 1.41896 21.4728 1.57042 22.0126C1.71295 22.554 1.89432 23.0848 2.09011 23.609C2.49709 24.6515 3.00684 25.6522 3.60927 26.5899C4.21761 27.5244 4.91469 28.397 5.68634 29.1903C6.46232 29.9807 7.30625 30.6988 8.20988 31.3238C9.1141 31.9478 10.0712 32.4882 11.0686 32.9298C11.3199 33.0348 11.5672 33.1502 11.8236 33.2427L12.2046 33.3888L12.5909 33.5198C12.8459 33.6136 13.1095 33.6828 13.3678 33.7636C13.4973 33.804 13.6306 33.833 13.7612 33.868C13.8928 33.9001 14.0235 33.9384 14.156 33.9677C15.2127 34.2123 16.2902 34.3617 17.3719 34.4051C18.4537 34.4493 19.5379 34.3804 20.6072 34.2141C21.142 34.1348 21.6715 34.0202 22.1975 33.893C22.3289 33.8595 22.4583 33.8215 22.5891 33.7856C22.7195 33.7481 22.8508 33.7172 22.9794 33.6734C23.2365 33.5884 23.4967 33.5145 23.75 33.4186L24.1317 33.2815L24.5086 33.1296C24.7617 33.0329 25.0059 32.9164 25.2535 32.8059C25.3779 32.753 25.4973 32.6879 25.6194 32.6297C25.7411 32.5699 25.8632 32.5117 25.9834 32.4497L26.3414 32.2569L26.5203 32.1601C26.5794 32.1268 26.637 32.0914 26.6958 32.0574C28.5709 30.972 30.2449 29.5266 31.5637 27.8053C32.8845 26.0852 33.8241 24.0818 34.2865 21.9544C34.4068 21.4235 34.4889 20.8836 34.5497 20.341C34.6124 19.7987 34.6472 19.2513 34.6519 18.7028C34.6639 17.6059 34.5694 16.5032 34.3789 15.4141C34.1885 14.325 33.901 13.2522 33.5248 12.2038C33.3383 11.6822 33.1287 11.1669 32.8957 10.6622C32.6603 10.1583 32.4038 9.66433 32.128 9.18081C31.0253 7.24912 29.5764 5.50019 27.8227 4.13151C27.389 3.7842 26.9254 3.47665 26.4581 3.17776L26.1001 2.96654L25.9213 2.86131L25.3712 2.5681C25.2481 2.50469 25.1209 2.44835 24.9963 2.38876C24.4975 2.14882 23.9809 1.94957 23.4611 1.76395C23.1999 1.67536 22.935 1.59543 22.6723 1.51405C22.4088 1.43887 22.1413 1.37416 21.8729 1.31564C20.7965 1.08324 19.6966 0.954487 18.5993 0.92558C17.5017 0.892491 16.4051 0.965676 15.3279 1.13414C13.175 1.47403 11.0987 2.22339 9.25323 3.37313C7.40313 4.51221 5.76971 6.0155 4.4466 7.77378C3.78718 8.65446 3.20658 9.59877 2.71545 10.5927C2.23196 11.5896 1.83311 12.6341 1.54931 13.7127L1.44925 14.1186C1.43284 14.1862 1.41485 14.2542 1.40024 14.3221L1.35763 14.5273L1.27503 14.9378L1.20786 15.3517C1.15888 15.6268 1.1313 15.9055 1.09832 16.183C1.08014 16.3218 1.07493 16.4613 1.06295 16.601C1.05356 16.7408 1.03899 16.8804 1.03378 17.0199L1.01918 17.439L1.01357 17.6485L1.01575 17.8585L1.01931 18.2786C1.0237 18.4189 1.03205 18.5581 1.03881 18.6977C1.0645 19.2575 1.13617 19.8141 1.21498 20.3687L1.21304 20.3709Z" fill="#272727"/>
<path d="M5.32457 14.8788C5.4386 14.1664 5.71876 12.4189 7.23282 11.4282C8.67296 10.4851 10.7538 10.5383 12.2043 11.6748C14.152 13.2008 13.7914 15.7614 13.7271 16.1609C13.672 16.5068 13.3228 18.8137 11.3424 19.7422C9.20448 20.7454 6.48802 19.5214 5.57633 17.6644C5.04984 16.5933 5.22289 15.5118 5.32457 14.8788Z" fill="white"/>
<path d="M5.29642 14.8748C5.38664 14.2901 5.50936 13.7058 5.72434 13.1439C5.83063 12.8633 5.9634 12.589 6.12524 12.3307C6.2014 12.1981 6.29719 12.0781 6.38728 11.9528C6.48956 11.8378 6.58303 11.7124 6.69874 11.6091C6.91767 11.3879 7.1727 11.2021 7.44146 11.0414C7.71333 10.8859 8.00471 10.7642 8.30523 10.6758C8.60771 10.5945 8.91663 10.5337 9.22987 10.5227C9.38631 10.5088 9.54226 10.518 9.69829 10.5213C9.77616 10.5255 9.85375 10.5349 9.9317 10.5425C10.0089 10.5503 10.0868 10.5579 10.163 10.5745L10.3923 10.6182C10.4685 10.6348 10.543 10.6578 10.6176 10.6783C10.7682 10.7145 10.9131 10.7737 11.0587 10.8258C11.3437 10.9479 11.6222 11.0838 11.8737 11.2612C12.3856 11.6015 12.8169 12.0492 13.1412 12.5603C13.465 13.0725 13.681 13.6457 13.7985 14.2357C13.9154 14.8267 13.9529 15.4327 13.9021 16.0399C13.8473 16.6448 13.7096 17.246 13.4713 17.816C13.4404 17.8867 13.4074 17.9563 13.375 18.0274L13.3253 18.1322L13.2688 18.2338C13.231 18.3013 13.1937 18.3703 13.1541 18.4375L13.0256 18.6338C13.0038 18.6662 12.9832 18.7 12.9604 18.7318L12.8879 18.825L12.742 19.0108L12.5806 19.1838C12.5265 19.2412 12.4738 19.3009 12.4125 19.3509C12.2926 19.4546 12.1781 19.5652 12.0442 19.6522L11.8493 19.7901C11.7813 19.8309 11.7107 19.869 11.6412 19.9077C11.3661 20.0701 11.0648 20.1834 10.7574 20.2686C10.1406 20.4378 9.48975 20.4484 8.8702 20.337C8.25022 20.2241 7.65724 19.9921 7.12684 19.6619C6.86244 19.4966 6.61457 19.3046 6.38989 19.0883C6.16327 18.8743 5.96393 18.6324 5.79096 18.3747C5.61935 18.1157 5.47822 17.8373 5.37549 17.5467C5.27356 17.2559 5.20931 16.9564 5.17953 16.6552C5.15155 16.3543 5.15271 16.0539 5.17506 15.7563C5.19922 15.459 5.24299 15.1648 5.2926 14.8733L5.29642 14.8748ZM5.35346 14.8839C5.30723 15.1753 5.27082 15.4683 5.26353 15.7618C5.25782 16.0549 5.27866 16.3484 5.33877 16.6328C5.45026 17.204 5.72786 17.722 6.09942 18.1443C6.28336 18.3581 6.49229 18.548 6.71165 18.7231L6.88003 18.8491L7.0546 18.9665C7.17202 19.0434 7.2913 19.1147 7.41389 19.1825C7.90281 19.4516 8.43423 19.6426 8.9797 19.7325C9.52403 19.8244 10.082 19.8137 10.6116 19.6872C10.8749 19.6218 11.1361 19.5331 11.3734 19.4007C11.4337 19.3688 11.4955 19.3391 11.5548 19.3066L11.7251 19.1942C11.8432 19.1243 11.9448 19.0317 12.0519 18.9469C12.1072 18.9062 12.1537 18.855 12.2029 18.8075L12.3496 18.6615L12.4834 18.503L12.5512 18.4238C12.5727 18.3966 12.592 18.3675 12.6125 18.3397L12.7357 18.1704C12.7742 18.1121 12.8095 18.0512 12.8471 17.9923L12.9027 17.9029L12.953 17.8099C12.9863 17.7479 13.0214 17.6863 13.0537 17.6237C13.1793 17.3702 13.2876 17.1061 13.3794 16.8345C13.4703 16.5633 13.5411 16.2838 13.5911 15.9999C13.6866 15.4342 13.7026 14.8433 13.6071 14.2712C13.5149 13.6989 13.3124 13.1407 12.9868 12.6623C12.662 12.1837 12.2137 11.7986 11.7095 11.5329C11.4615 11.393 11.1926 11.2954 10.9249 11.2111C10.7873 11.1789 10.6537 11.1329 10.5144 11.1132C10.4453 11.1006 10.3764 11.0854 10.3074 11.0762C10.2372 11.069 10.1676 11.0608 10.0986 11.0516C10.0292 11.0408 9.95953 11.0386 9.88966 11.0356C9.8198 11.0326 9.75064 11.026 9.68064 11.0256C9.54135 11.0306 9.40119 11.023 9.26257 11.0397C8.98429 11.0538 8.70989 11.1069 8.44012 11.1707C8.3068 11.2098 8.17131 11.241 8.04269 11.2942C7.90901 11.3351 7.78437 11.3966 7.65618 11.4513C7.40813 11.5756 7.16009 11.7093 6.94139 11.8878C6.82557 11.969 6.72616 12.0695 6.6188 12.1629C6.52205 12.267 6.41801 12.3663 6.33166 12.4803C6.2378 12.5888 6.15838 12.7094 6.07514 12.8286C5.99997 12.9523 5.92503 13.0769 5.8604 13.208C5.59303 13.728 5.44123 14.3058 5.35375 14.8881L5.35346 14.8839Z" fill="#272727"/>
<path d="M19.7577 10.9198C19.8717 10.2074 20.1519 8.45989 21.6659 7.46924C23.1061 6.52614 25.1869 6.57936 26.6374 7.71582C28.5851 9.24182 28.2246 11.8025 28.1602 12.202C28.1051 12.5478 27.7559 14.8547 25.7755 15.7832C23.6376 16.7864 20.9211 15.5624 20.0094 13.7054C19.4829 12.6343 19.656 11.5529 19.7577 10.9198Z" fill="white"/>
<path d="M19.7293 10.9158C19.8195 10.3311 19.9422 9.74677 20.1572 9.18489C20.2635 8.90428 20.3963 8.63004 20.5581 8.3717C20.6343 8.23914 20.7301 8.11911 20.8201 7.99382C20.9224 7.87882 21.0159 7.75345 21.1316 7.65011C21.3505 7.42896 21.6056 7.24308 21.8743 7.08242C22.1462 6.92687 22.4376 6.80518 22.7381 6.71679C23.0406 6.63553 23.3495 6.57467 23.6627 6.56376C23.8192 6.54983 23.9751 6.55905 24.1312 6.56229C24.209 6.5665 24.2866 6.5759 24.3646 6.5835C24.4417 6.59132 24.5197 6.59892 24.5958 6.61554L24.8252 6.65919C24.9013 6.67581 24.9758 6.69883 25.0505 6.71927C25.2011 6.75554 25.346 6.81467 25.4916 6.8668C25.7765 6.98895 26.055 7.12481 26.3065 7.30216C26.8184 7.64251 27.2498 8.0902 27.5741 8.60133C27.8978 9.11347 28.1139 9.68669 28.2314 10.2767C28.3483 10.8677 28.3858 11.4737 28.335 12.0809C28.2801 12.6858 28.1425 13.287 27.9041 13.857C27.8732 13.9277 27.8403 13.9973 27.8078 14.0684L27.7581 14.1733L27.7016 14.2748C27.6639 14.3423 27.6266 14.4114 27.587 14.4785L27.4584 14.6748C27.4366 14.7072 27.4161 14.741 27.3933 14.7728L27.3208 14.866L27.1749 15.0518L27.0135 15.2248C26.9593 15.2823 26.9066 15.3419 26.8454 15.3919C26.7255 15.4956 26.6109 15.6063 26.4771 15.6933L26.2822 15.8311C26.2141 15.8719 26.1436 15.91 26.0741 15.9487C25.799 16.1111 25.4976 16.2245 25.1903 16.3096C24.5735 16.4788 23.9226 16.4894 23.3031 16.378C22.6831 16.2651 22.0901 16.0331 21.5597 15.7029C21.2953 15.5376 21.0474 15.3456 20.8228 15.1294C20.5961 14.9153 20.3968 14.6734 20.2238 14.4157C20.0522 14.1567 19.9111 13.8784 19.8084 13.5877C19.7064 13.2969 19.6422 12.9974 19.6124 12.6962C19.5844 12.3953 19.5856 12.0949 19.6079 11.7973C19.6321 11.5 19.6758 11.2058 19.7255 10.9143L19.7293 10.9158ZM19.7863 10.9249C19.7401 11.2163 19.7037 11.5093 19.6964 11.8028C19.6907 12.0959 19.7115 12.3894 19.7716 12.6738C19.8831 13.245 20.1607 13.763 20.5323 14.1853C20.7162 14.3991 20.9251 14.589 21.1445 14.7641L21.3129 14.8901L21.4875 15.0076C21.6049 15.0845 21.7242 15.1557 21.8468 15.2236C22.3357 15.4926 22.8671 15.6836 23.4126 15.7735C23.9569 15.8654 24.5148 15.8547 25.0444 15.7282C25.3078 15.6628 25.569 15.5741 25.8063 15.4417C25.8666 15.4098 25.9283 15.3801 25.9876 15.3476L26.158 15.2353C26.276 15.1654 26.3776 15.0727 26.4848 14.9879C26.5401 14.9472 26.5866 14.8961 26.6358 14.8485L26.7824 14.7026L26.9162 14.544L26.984 14.4649C27.0056 14.4376 27.0248 14.4085 27.0453 14.3807L27.1685 14.2114C27.2071 14.1531 27.2424 14.0922 27.2799 14.0333L27.3355 13.9439L27.3859 13.8509C27.4192 13.7889 27.4543 13.7273 27.4865 13.6647C27.6122 13.4112 27.7205 13.1471 27.8122 12.8756C27.9032 12.6043 27.974 12.3249 28.024 12.0409C28.1194 11.4752 28.1355 10.8843 28.0399 10.3122C27.9478 9.73992 27.7452 9.18175 27.4197 8.70335C27.0949 8.22474 26.6466 7.83967 26.1424 7.57392C25.8943 7.43398 25.6255 7.33639 25.3577 7.25213C25.2202 7.21996 25.0865 7.17394 24.9473 7.15417C24.8782 7.14158 24.8093 7.1264 24.7402 7.1172C24.6701 7.11002 24.6005 7.10183 24.5315 7.09263C24.462 7.08185 24.3924 7.07963 24.3225 7.07663C24.2527 7.07363 24.1835 7.06703 24.1135 7.06663C23.9742 7.07159 23.834 7.064 23.6954 7.08072C23.4172 7.09482 23.1428 7.14792 22.873 7.21168C22.7397 7.25081 22.6042 7.28201 22.4755 7.33519C22.3419 7.37612 22.2172 7.43758 22.0891 7.49234C21.841 7.61663 21.593 7.7503 21.3743 7.92877C21.2584 8.00997 21.159 8.11056 21.0517 8.20393C20.9549 8.30804 20.8509 8.40732 20.7645 8.52136C20.6699 8.63 20.5912 8.75044 20.508 8.8696C20.4328 8.99335 20.3579 9.1179 20.2933 9.249C20.0259 9.76899 19.8741 10.3468 19.7866 10.9291L19.7863 10.9249Z" fill="#272727"/>
<path d="M7.25308 13.9927C7.33617 13.4721 7.54147 12.1943 8.64776 11.4698C9.70061 10.7804 11.2225 10.819 12.2824 11.65C13.7067 12.7655 13.4429 14.6382 13.3959 14.9298C13.3554 15.183 13.1002 16.8691 11.6524 17.5484C10.089 18.2815 8.10298 17.3865 7.43577 16.0293C7.05123 15.2457 7.17806 14.4557 7.2515 13.9931L7.25308 13.9927Z" fill="#272727"/>
<path d="M19.6981 10.8542C19.7812 10.3336 19.9865 9.05586 21.0936 8.33112C22.1464 7.64171 23.6683 7.68032 24.7282 8.51136C26.1525 9.62688 25.8887 11.4995 25.8417 11.7911C25.8012 12.0443 25.546 13.7305 24.0982 14.4097C22.5351 15.1436 20.5488 14.2479 19.8816 12.8906C19.497 12.107 19.6239 11.317 19.6973 10.8545L19.6981 10.8542Z" fill="#272727"/>
<path d="M22.7272 18.957C22.7157 19.1826 22.6569 19.3939 22.5832 19.5974C22.5066 19.8 22.4095 19.9929 22.2942 20.1754C22.2657 20.2207 22.2354 20.2656 22.2049 20.3098C22.1744 20.354 22.1451 20.3995 22.1106 20.4414C22.0433 20.5255 21.9758 20.6088 21.9032 20.6892C21.8282 20.7669 21.753 20.8438 21.6718 20.9146C21.5897 20.9849 21.4989 21.0456 21.4075 21.1039C21.3175 21.1644 21.2177 21.2105 21.1174 21.2551C21.0169 21.2988 20.9196 21.3451 20.8147 21.379C20.712 21.4148 20.6116 21.4526 20.5136 21.4931C20.4132 21.5283 20.3142 21.5649 20.2194 21.6079C20.1714 21.6287 20.1259 21.6523 20.0781 21.6739C20.0299 21.694 19.983 21.7154 19.9362 21.7376C19.8422 21.7804 19.7505 21.8312 19.658 21.8795C19.5635 21.9233 19.4703 21.9719 19.3779 22.0237C19.3313 22.0493 19.285 22.0765 19.2388 22.1036L19.0946 22.1747C18.9988 22.2232 18.9016 22.2728 18.8027 22.3195C18.7037 22.3655 18.6008 22.4005 18.4981 22.4364C18.4466 22.4539 18.3944 22.4716 18.3423 22.4868C18.2895 22.4995 18.2365 22.5115 18.1831 22.5219C18.0763 22.5427 17.969 22.5678 17.8608 22.5805C17.4282 22.6471 16.9812 22.6615 16.5485 22.585C16.4402 22.5661 16.3328 22.5444 16.2278 22.5127C16.1224 22.4828 16.0172 22.4536 15.915 22.4135C15.7091 22.3404 15.5104 22.25 15.321 22.1434C14.9432 21.9316 14.5924 21.6656 14.3263 21.3141C14.3091 21.2915 14.3137 21.2587 14.3363 21.2415C14.3474 21.2324 14.3619 21.2293 14.3743 21.231L14.3751 21.2308C14.5902 21.263 14.7919 21.2989 14.9897 21.3333C15.0901 21.3484 15.1859 21.3681 15.2843 21.382L15.4291 21.4063C15.4777 21.4125 15.5259 21.4206 15.5731 21.4281C15.6686 21.4437 15.7634 21.4569 15.8583 21.4701C15.9516 21.4871 16.0471 21.4933 16.1397 21.508C16.2324 21.5226 16.3268 21.5283 16.4186 21.5397C16.5109 21.5528 16.6032 21.5599 16.6953 21.5695C17.0623 21.6053 17.4272 21.6646 17.8017 21.6752C17.8956 21.6819 17.9882 21.6744 18.0823 21.6758C18.1292 21.6758 18.1771 21.6763 18.2244 21.6778C18.2714 21.6751 18.319 21.6748 18.3667 21.6745C18.4141 21.6735 18.4624 21.6756 18.5109 21.6751C18.5596 21.6754 18.6089 21.6814 18.6573 21.6775C18.7539 21.6723 18.8524 21.6709 18.9513 21.6676L19.1003 21.6609C19.1492 21.656 19.1981 21.6477 19.247 21.6394C19.3439 21.623 19.4416 21.6031 19.5371 21.5786C19.5847 21.5655 19.6307 21.5469 19.6762 21.5293C19.7227 21.5123 19.7677 21.4931 19.8125 21.4732C19.8576 21.454 19.9032 21.4338 19.9465 21.4117C19.9897 21.3888 20.0315 21.3611 20.0726 21.3337C20.1547 21.2787 20.2337 21.2187 20.3093 21.1554C20.3815 21.0861 20.45 21.0128 20.5167 20.9391C20.5851 20.8683 20.6455 20.787 20.7072 20.7104C20.7686 20.633 20.8328 20.5625 20.8939 20.487C20.9545 20.4124 21.0216 20.3463 21.0884 20.2793C21.1531 20.2105 21.2236 20.1476 21.2942 20.0848C21.4317 19.955 21.5734 19.8284 21.7158 19.6981C21.8584 19.5686 22.003 19.4369 22.1556 19.3064C22.308 19.1751 22.4615 19.0418 22.6394 18.9103L22.6402 18.9101C22.6635 18.8926 22.6963 18.8973 22.7138 18.9206C22.7216 18.9304 22.7251 18.9431 22.7239 18.9545L22.7272 18.957Z" fill="#272727"/>
<path d="M7.09067 17.0404C7.12418 16.83 7.20735 16.3128 7.65458 16.0197C8.0802 15.741 8.69557 15.7563 9.12461 16.093C9.70024 16.5445 9.5942 17.3016 9.57534 17.4193C9.55912 17.5217 9.45556 18.2039 8.87031 18.4787C8.23831 18.7756 7.43498 18.4138 7.16504 17.8647C7.00907 17.5478 7.06045 17.2285 7.09089 17.0412L7.09067 17.0404Z" fill="white"/>
<path d="M9.20581 14.0403C9.22324 13.9298 9.26712 13.6578 9.50272 13.5037C9.72673 13.357 10.0504 13.3654 10.2762 13.5421C10.5791 13.7795 10.5229 14.1777 10.5128 14.2401C10.5044 14.2935 10.4496 14.653 10.1422 14.7969C9.80908 14.9531 9.38696 14.7629 9.24538 14.4735C9.16381 14.3067 9.19031 14.1391 9.20661 14.0401L9.20581 14.0403Z" fill="white"/>
<path d="M26.6127 11.6854C26.4766 11.5216 26.1412 11.1192 25.607 11.0952C25.0987 11.0727 24.5773 11.3998 24.38 11.9083C24.1153 12.5903 24.5928 13.1873 24.669 13.2789C24.7353 13.3588 25.1724 13.8927 25.8159 13.8304C26.511 13.7633 27.0173 13.0423 26.9693 12.4323C26.9418 12.0802 26.7347 11.8318 26.6129 11.6862L26.6127 11.6854Z" fill="white"/>
<path d="M23.2618 10.1837C23.1904 10.0976 23.0139 9.88603 22.7326 9.87368C22.4651 9.86181 22.1911 10.0341 22.087 10.3013C21.9476 10.6601 22.1991 10.9739 22.2396 11.0224C22.2741 11.0641 22.5046 11.3452 22.8425 11.3122C23.2086 11.2766 23.4746 10.8976 23.4488 10.5765C23.4338 10.3914 23.3256 10.2608 23.261 10.1839L23.2618 10.1837Z" fill="white"/>
<path d="M28.789 23.2081C28.5093 22.8351 28.5906 22.2224 28.9535 21.9389C29.1275 21.8029 29.1584 21.5515 29.0224 21.3774C28.8863 21.2033 28.635 21.1725 28.4609 21.3085C28.4178 21.3422 28.3199 21.3757 28.0915 21.2539C27.8767 21.1394 27.6659 20.9422 27.547 20.7921L27.5471 20.7921L27.5427 20.7867C27.2676 20.4515 27.1554 20.004 27.2571 19.5887C27.4529 18.8031 28.1518 18.0748 28.8837 17.5629C29.4571 17.1647 30.0785 16.8479 30.7343 16.5624C30.818 16.5264 30.9378 16.4868 31.0985 16.4342L31.1019 16.4331C31.254 16.3833 31.4329 16.3248 31.6068 16.2562C31.7807 16.1876 31.9661 16.1028 32.1277 15.9949C32.2858 15.8894 32.4553 15.7393 32.549 15.5266L32.5498 15.5247C32.6888 15.2048 32.6635 14.8622 32.5854 14.5604C32.5067 14.2563 32.363 13.9495 32.2091 13.6684C32.058 13.3926 31.8864 13.123 31.7372 12.8886L31.726 12.871C31.5683 12.6232 31.4456 12.4286 31.3741 12.2817L31.3736 12.2807C30.9166 11.3485 30.7357 10.2741 30.8536 9.24219C30.9166 8.69442 31.0719 8.20553 31.3873 7.87109C31.7022 7.53719 32.1795 7.44304 32.4781 7.61951L32.4813 7.62139C32.705 7.75075 32.8348 7.98342 32.9078 8.35511C32.9614 8.62808 32.9749 8.91341 32.9895 9.22139C32.9957 9.35249 33.0021 9.4877 33.0119 9.62781C33.0435 10.0988 33.1417 10.7264 33.3523 11.3056C33.5583 11.872 33.8998 12.4685 34.4683 12.7662L34.4693 12.7668C34.7252 12.8999 34.9972 12.9723 35.2404 13.0266C35.3296 13.0465 35.4119 13.0635 35.49 13.0797C35.6409 13.1108 35.7759 13.1387 35.9139 13.178L35.9156 13.1784C36.3515 13.3005 36.7736 13.4514 37.1893 13.6314L37.1896 13.6315C38.0016 13.9821 38.7641 14.4587 39.4024 15.0648L39.4029 15.0653C40.242 15.859 40.8574 16.907 41.0709 18.011C41.1395 18.391 41.1671 18.7779 41.1539 19.1573C41.0633 20.4097 40.4322 21.6065 39.57 22.5944C38.7028 23.5879 37.6301 24.3855 36.5231 25.2046C35.4362 26.0048 34.3494 26.8069 33.2628 27.6088C32.1764 28.4105 31.0903 29.212 30.0042 30.0117C29.7707 30.182 29.5547 30.3359 29.3344 30.4457C29.1174 30.5539 28.9218 30.6058 28.7336 30.5934L28.732 30.5933C28.5153 30.5798 28.292 30.4461 28.1369 30.2269C27.982 30.008 27.9295 29.7522 27.9903 29.5398L27.9914 29.5355C28.0909 29.1727 28.4215 28.8896 28.8717 28.5543L28.8724 28.5537C29.4088 28.1523 29.9435 27.7527 30.4782 27.3531L30.4873 27.3463C31.025 26.9444 31.5628 26.5425 32.1025 26.1386C32.2794 26.0063 32.3155 25.7558 32.1833 25.5789C32.0511 25.402 31.8005 25.3657 31.6236 25.4978C31.2495 25.7771 30.629 25.686 30.352 25.3167C30.0719 24.9432 30.1545 24.3172 30.5218 24.0341C30.6957 23.9001 30.729 23.651 30.5965 23.4759C30.4641 23.3008 30.2152 23.2653 30.039 23.3962C29.6746 23.6671 29.0678 23.5799 28.789 23.2081Z" fill="#FFE457" stroke="#272727" stroke-width="0.8" stroke-linejoin="round"/>
</svg>
