<svg width="40.000000" height="40.000000" viewBox="0 0 40 40" fill="none" xmlns="http://www.w3.org/2000/svg" xmlns:xlink="http://www.w3.org/1999/xlink">
	<desc>
			Created with Pixso.
	</desc>
	<defs>
		<clipPath id="clip32_23977">
			<rect id="Icon / Facebook" rx="0.000000" width="23.000000" height="23.000000" transform="translate(8.500000 8.500000)" fill="white" fill-opacity="0"/>
		</clipPath>
	</defs>
	<rect id="Link" rx="19.500000" width="39.000000" height="39.000000" transform="translate(0.500000 0.500000)" fill="#F0F0F0" fill-opacity="1.000000"/>
	<rect id="Icon / Facebook" rx="0.000000" width="23.000000" height="23.000000" transform="translate(8.500000 8.500000)" fill="#FFFFFF" fill-opacity="0"/>
	<g clip-path="url(#clip32_23977)">
		<path id="Vector" d="M24.5 14L21.5 14C20.94 14 20.5 14.44 20.5 15L20.5 18L24.5 18C24.61 17.99 24.72 18.05 24.78 18.14C24.85 18.23 24.87 18.35 24.83 18.46L24.1 20.66C24.03 20.86 23.84 20.99 23.62 21L20.5 21L20.5 28.5C20.5 28.77 20.27 29 20 29L17.5 29C17.22 29 17 28.77 17 28.5L17 21L15.5 21C15.22 21 15 20.77 15 20.5L15 18.5C15 18.22 15.22 18 15.5 18L17 18L17 15C17 12.79 18.78 11 21 11L24.5 11C24.77 11 25 11.22 25 11.5L25 13.5C25 13.77 24.77 14 24.5 14Z" fill="#333333" fill-opacity="1.000000" fill-rule="nonzero"/>
	</g>
</svg>
