<svg width="40.000000" height="40.000000" viewBox="0 0 40 40" fill="none" xmlns="http://www.w3.org/2000/svg" xmlns:xlink="http://www.w3.org/1999/xlink">
	<desc>
			Created with Pixso.
	</desc>
	<defs>
		<clipPath id="clip32_23981">
			<rect id="Icon / Instagram" rx="0.000000" width="23.000000" height="23.000000" transform="translate(8.500000 8.500000)" fill="white" fill-opacity="0"/>
		</clipPath>
	</defs>
	<rect id="Link" rx="19.500000" width="39.000000" height="39.000000" transform="translate(0.500000 0.500000)" fill="#F0F0F0" fill-opacity="1.000000"/>
	<rect id="Icon / Instagram" rx="0.000000" width="23.000000" height="23.000000" transform="translate(8.500000 8.500000)" fill="#FFFFFF" fill-opacity="0"/>
	<g clip-path="url(#clip32_23981)">
		<path id="Vector" d="M24 11L16 11C13.23 11 11 13.23 11 16L11 24C11 26.76 13.23 29 16 29L24 29C26.76 29 29 26.76 29 24L29 16C29 13.23 26.76 11 24 11ZM27.25 24C27.24 25.79 25.79 27.24 24 27.25L16 27.25C14.2 27.24 12.75 25.79 12.75 24L12.75 16C12.75 14.2 14.2 12.75 16 12.75L24 12.75C25.79 12.75 27.24 14.2 27.25 16L27.25 24ZM24.75 16.25C25.3 16.25 25.75 15.8 25.75 15.25C25.75 14.69 25.3 14.25 24.75 14.25C24.19 14.25 23.75 14.69 23.75 15.25C23.75 15.8 24.19 16.25 24.75 16.25ZM20 15.5C17.51 15.5 15.5 17.51 15.5 20C15.5 22.48 17.51 24.5 20 24.5C22.48 24.5 24.5 22.48 24.5 20C24.5 18.8 24.03 17.66 23.18 16.81C22.33 15.97 21.19 15.49 20 15.5ZM17.25 20C17.25 21.51 18.48 22.75 20 22.75C21.51 22.75 22.75 21.51 22.75 20C22.75 18.48 21.51 17.25 20 17.25C18.48 17.25 17.25 18.48 17.25 20Z" fill="#333333" fill-opacity="1.000000" fill-rule="evenodd"/>
	</g>
</svg>
