<svg width="154" height="48" viewBox="0 0 154 48" fill="none" xmlns="http://www.w3.org/2000/svg">
<path d="M2.11009 47.4731V42.32H0.0507812V41.5946H5.01783V42.32H2.95852V47.4731H2.11009Z" fill="#333333"/>
<path d="M15.4324 47.4731L16.3302 45.7053L13.8096 41.5946H14.724L16.7339 44.9132L18.4143 41.5946H19.2956L16.322 47.4731H15.4324Z" fill="#333333"/>
<path d="M28.722 47.4731V41.5946H31.1273C31.7533 41.5946 32.2366 41.753 32.5771 42.0699C32.9175 42.3812 33.0878 42.8203 33.0878 43.3873C33.0878 43.9599 32.9175 44.4046 32.5771 44.7214C32.2366 45.0327 31.7533 45.1884 31.1273 45.1884H29.5787V47.4731H28.722ZM29.5787 44.4963H31.0038C31.8385 44.4963 32.2558 44.1266 32.2558 43.3873C32.2558 42.6535 31.8385 42.2867 31.0038 42.2867H29.5787V44.4963Z" fill="#333333"/>
<path d="M45.261 47.5481C44.7064 47.5481 44.2259 47.4258 43.8195 47.1812C43.4131 46.9311 43.0974 46.5809 42.8722 46.1306C42.6526 45.6748 42.5427 45.1411 42.5427 44.5296C42.5427 43.9126 42.6526 43.379 42.8722 42.9287C43.0974 42.4784 43.4131 42.131 43.8195 41.8864C44.2259 41.6418 44.7064 41.5195 45.261 41.5195C45.8102 41.5195 46.2879 41.6418 46.6943 41.8864C47.1062 42.131 47.4219 42.4784 47.6416 42.9287C47.8667 43.379 47.9793 43.9098 47.9793 44.5213C47.9793 45.1383 47.8667 45.6748 47.6416 46.1306C47.4219 46.5809 47.1062 46.9311 46.6943 47.1812C46.2879 47.4258 45.8102 47.5481 45.261 47.5481ZM45.261 46.7977C45.8376 46.7977 46.2852 46.6003 46.6037 46.2056C46.9277 45.8054 47.0897 45.2467 47.0897 44.5296C47.0897 43.8126 46.9304 43.2567 46.6119 42.862C46.2934 42.4673 45.8431 42.27 45.261 42.27C44.6844 42.27 44.2341 42.4673 43.9101 42.862C43.5916 43.2567 43.4324 43.8126 43.4324 44.5296C43.4324 45.2467 43.5916 45.8054 43.9101 46.2056C44.2341 46.6003 44.6844 46.7977 45.261 46.7977Z" fill="#333333"/>
<path d="M57.9413 47.4731V41.5946H62.8507V47.4731H62.0023V42.32H58.798V47.4731H57.9413Z" fill="#333333"/>
<path d="M73.0216 47.4731V41.5946H76.7777V42.295H73.8453V44.1377H76.6048V44.8382H73.8453V46.7726H76.7777V47.4731H73.0216Z" fill="#333333"/>
<path d="M86.686 47.4731V41.5946H89.0913C89.7173 41.5946 90.2006 41.753 90.541 42.0699C90.8815 42.3812 91.0518 42.8203 91.0518 43.3873C91.0518 43.9599 90.8815 44.4046 90.541 44.7214C90.2006 45.0327 89.7173 45.1884 89.0913 45.1884H87.5427V47.4731H86.686ZM87.5427 44.4963H88.9677C89.8024 44.4963 90.2198 44.1266 90.2198 43.3873C90.2198 42.6535 89.8024 42.2867 88.9677 42.2867H87.5427V44.4963Z" fill="#333333"/>
<path d="M99.5806 47.4731L102.167 41.5946H102.876L105.47 47.4731H104.597L103.988 46.0389H101.047L100.446 47.4731H99.5806ZM102.513 42.5535L101.352 45.3385H103.699L102.53 42.5535H102.513Z" fill="#333333"/>
<path d="M115.77 47.4731V42.32H113.71V41.5946H118.677V42.32H116.618V47.4731H115.77Z" fill="#333333"/>
<path d="M130.393 47.5481C129.838 47.5481 129.358 47.4258 128.952 47.1812C128.545 46.9311 128.229 46.5809 128.004 46.1306C127.785 45.6748 127.675 45.1411 127.675 44.5296C127.675 43.9126 127.785 43.379 128.004 42.9287C128.229 42.4784 128.545 42.131 128.952 41.8864C129.358 41.6418 129.838 41.5195 130.393 41.5195C130.942 41.5195 131.42 41.6418 131.826 41.8864C132.238 42.131 132.554 42.4784 132.774 42.9287C132.999 43.379 133.111 43.9098 133.111 44.5213C133.111 45.1383 132.999 45.6748 132.774 46.1306C132.554 46.5809 132.238 46.9311 131.826 47.1812C131.42 47.4258 130.942 47.5481 130.393 47.5481ZM130.393 46.7977C130.97 46.7977 131.417 46.6003 131.736 46.2056C132.06 45.8054 132.222 45.2467 132.222 44.5296C132.222 43.8126 132.062 43.2567 131.744 42.862C131.425 42.4673 130.975 42.27 130.393 42.27C129.816 42.27 129.366 42.4673 129.042 42.862C128.724 43.2567 128.564 43.8126 128.564 44.5296C128.564 45.2467 128.724 45.8054 129.042 46.2056C129.366 46.6003 129.816 46.7977 130.393 46.7977Z" fill="#333333"/>
<path d="M143.073 47.4731V41.5946H145.479C146.105 41.5946 146.588 41.753 146.928 42.0699C147.269 42.3812 147.439 42.8203 147.439 43.3873C147.439 43.9599 147.269 44.4046 146.928 44.7214C146.588 45.0327 146.105 45.1884 145.479 45.1884H143.93V47.4731H143.073ZM143.93 44.4963H145.355C146.19 44.4963 146.607 44.1266 146.607 43.3873C146.607 42.6535 146.19 42.2867 145.355 42.2867H143.93V44.4963Z" fill="#333333"/>
<path d="M130.348 22.3749C130.481 21.8068 130.238 21.2174 129.738 20.8996L124.63 17.6527C124.058 17.2889 123.29 17.5896 123.133 18.239L120.854 27.6537C120.712 28.243 121.169 28.808 121.789 28.8079C125.757 28.7918 129.439 26.1297 130.348 22.3749Z" fill="#333333"/>
<path d="M117.011 31.5136C116.906 31.9486 116.508 32.2558 116.051 32.2558L115.644 32.2558C112.395 32.2159 109.734 28.7333 110.483 25.6291L111.724 20.5456C111.856 20.0058 112.264 19.5708 112.802 19.3948L118.879 17.4085C119.612 17.1689 120.33 17.8094 120.152 18.5448L118.533 25.2363C118.445 25.6011 118.229 25.9243 117.923 26.1499L115.433 27.9843C115.352 28.0444 115.303 28.1382 115.302 28.2381L115.3 28.4787C115.299 28.6572 115.446 28.8028 115.629 28.8028H117.251C117.464 28.8028 117.62 28.9964 117.571 29.1982L117.011 31.5136Z" fill="#333333"/>
<path d="M128.221 1.00005L127.92 1.00006C127.463 1.00007 127.065 1.30718 126.96 1.74205L124.387 12.3624C124.286 12.7774 124.403 13.2141 124.698 13.5282L130.34 19.5321C130.518 19.7218 130.841 19.6396 130.902 19.3889L133.808 7.42909C134.563 4.27903 131.747 0.985761 128.221 1.00005Z" fill="#333333"/>
<path d="M113.984 11.0592L112.548 16.9688C112.484 17.2334 112.762 17.4516 113.01 17.3299C114.548 16.5773 118.574 14.5786 121.049 13.096C121.341 12.9213 121.544 12.639 121.623 12.3138L123.311 5.35009C123.426 4.87631 123.058 4.42195 122.56 4.42248C118.582 4.37356 114.9 7.27504 113.984 11.0592Z" fill="#333333"/>
<path d="M107.407 27.559L112.018 8.60719C112.166 8.00139 111.696 7.41992 111.059 7.41992H100.685C97.6353 7.41992 94.9859 9.46915 94.2849 12.3701L91.4576 24.0694C91.3957 24.3252 91.3139 24.5761 91.2129 24.8197L89.9278 27.9172C89.7524 28.34 90.0707 28.8017 90.5374 28.8016L93.0361 28.8008C95.3213 28.8 97.3066 27.265 97.8336 25.0916L100.544 13.9107C100.826 12.7491 101.889 11.9298 103.11 11.9324L103.707 11.9337C104.131 11.9347 104.443 12.3213 104.346 12.7244L100.744 27.613C100.597 28.219 101.068 28.7998 101.705 28.7991L105.809 28.7941C106.57 28.7932 107.231 28.2823 107.407 27.559Z" fill="#333333"/>
<path d="M142.659 28.8115C142.021 28.8127 141.55 28.2315 141.697 27.6252L143.18 21.499C143.229 21.2972 143.073 21.1037 142.861 21.1036L140.261 21.1023C139.956 21.1022 139.691 21.307 139.621 21.5971L138.177 27.5631C138.001 28.288 137.339 28.8 136.577 28.8H132.436C131.799 28.8 131.329 28.2191 131.476 27.6135L136.071 8.6644C136.247 7.93962 136.909 7.42789 137.671 7.42803L142.223 7.42891C142.647 7.42899 142.961 7.81633 142.863 8.22005L141.238 14.9167C141.189 15.1185 141.345 15.3121 141.557 15.3123L144.155 15.3145C144.461 15.3147 144.726 15.1095 144.796 14.819L146.278 8.66641C146.453 7.94065 147.116 7.42778 147.878 7.42777L152.014 7.42773C152.651 7.42773 153.121 8.0083 152.974 8.6138L148.389 27.5665C148.214 28.2904 147.553 28.8022 146.792 28.8036L142.659 28.8115Z" fill="#333333"/>
<path d="M0.0261724 6.24508C-0.11799 6.84978 0.351626 7.42808 0.986842 7.42808L5.51758 7.42808L0.61517 27.614C0.468078 28.2197 0.93795 28.8008 1.5748 28.8009L5.71076 28.8013C6.47245 28.8014 7.13446 28.2901 7.31047 27.5657L12.2034 7.42807L15.6585 7.42807C16.421 7.42806 17.0834 6.91559 17.2586 6.1902L18.2254 2.18564C18.3716 1.58025 17.9017 0.999997 17.2654 1L2.58155 1.00008C1.81733 1.00008 1.15388 1.51483 0.980444 2.24234L0.0261724 6.24508Z" fill="#333333"/>
<path fill-rule="evenodd" clip-rule="evenodd" d="M57.8365 7.42773C57.0746 7.42773 56.4125 7.93944 56.2368 8.6641L53.9653 18.0324H53.966L51.7392 27.2189C51.5434 28.0264 52.1699 28.8008 53.0189 28.8009L63.2327 28.8014C66.2793 28.8016 68.9271 26.7563 69.6311 23.859L70.1451 21.7437C70.5879 19.9215 69.3553 18.1658 67.5501 17.8406C69.8227 17.2747 71.6498 15.5159 72.2063 13.2029C72.916 10.2532 70.6263 7.42776 67.5263 7.42776L57.8365 7.42773ZM62.1183 11.7801C62.1884 11.4903 62.4531 11.2855 62.7577 11.2853L64.5142 11.2841C65.1507 11.2836 65.621 11.8638 65.4751 12.4693L65.2938 13.2216C65.2895 13.2653 65.2822 13.3093 65.2715 13.3535L64.8092 15.2718C64.6341 15.9981 63.9707 16.511 63.2074 16.5103L61.3991 16.5086C61.187 16.5084 61.0306 16.3149 61.0794 16.1132L61.2741 15.3094C61.2736 15.2831 61.2765 15.2561 61.283 15.229L62.1183 11.7801ZM63.0682 22.4082C63.0714 22.3961 63.0745 22.3839 63.0775 22.3716L63.579 20.2992C63.7255 19.6939 63.256 19.1134 62.6197 19.1131L60.8651 19.1121C60.5602 19.1119 60.2951 19.3166 60.2248 19.6067L60.0213 20.4462C60.0204 20.4497 60.0195 20.4531 60.0187 20.4566L59.1436 24.0661C59.0946 24.2682 59.2516 24.462 59.4641 24.4616L61.2743 24.4586C62.0354 24.4573 62.6962 23.9456 62.8714 23.2216L63.0682 22.4082Z" fill="#333333"/>
<path fill-rule="evenodd" clip-rule="evenodd" d="M13.8046 35.3894C16.0913 35.39 18.0786 33.8543 18.6055 31.6793L19.303 28.7999L24.2876 28.7992C27.3349 28.7987 29.9827 26.752 30.6854 23.8537L33.2298 13.3599C33.9641 10.3319 31.6144 7.42728 28.4307 7.42728H24.4803L24.4812 7.42383L19.0941 7.42765C18.3325 7.42819 17.671 7.94001 17.4955 8.66448L11.407 33.8073C11.2116 34.6146 11.8378 35.3888 12.6865 35.389L13.8046 35.3894ZM22.4906 15.6412L20.354 24.4611H22.5587C23.3193 24.4611 23.9806 23.951 24.1576 23.2279L26.4959 13.6721C26.6937 12.8639 26.0669 12.0875 25.2168 12.0875H23.3626L22.4906 15.6412Z" fill="#333333"/>
<path fill-rule="evenodd" clip-rule="evenodd" d="M42.4358 7.42773C39.3868 7.42773 36.7377 9.47629 36.0362 12.3766L33.4978 22.8704C32.7655 25.8979 35.1149 28.8006 38.2975 28.8006H45.3722C47.3983 28.8006 49.1569 27.4352 49.6154 25.5062C49.7424 24.9722 49.3276 24.4618 48.7668 24.4618L41.0437 24.4622C40.4073 24.4622 39.9374 23.8819 40.0836 23.2765L40.5525 21.3347C40.5875 21.1897 40.72 21.0872 40.8725 21.0872H46.7913C49.0776 21.0872 51.0642 19.5513 51.5907 17.3765L52.5635 13.3588C53.2965 10.3312 50.947 7.42773 47.764 7.42773H42.4358ZM43.2832 12.0882C42.9785 12.0882 42.7137 12.2929 42.6434 12.5828L41.5732 16.9957C41.5243 17.1976 41.6809 17.3912 41.8932 17.3912H43.703C44.4651 17.3912 45.1273 16.8793 45.3028 16.1545L46.0003 13.2745C46.147 12.669 45.6771 12.0882 45.0405 12.0882H43.2832Z" fill="#333333"/>
<path fill-rule="evenodd" clip-rule="evenodd" d="M81.3499 7.42773C78.3009 7.42773 75.6518 9.47629 74.9503 12.3766L72.4119 22.8704C71.6796 25.8979 74.029 28.8006 77.2116 28.8006H84.2863C86.3124 28.8006 88.071 27.4352 88.5295 25.5062C88.6564 24.9722 88.2417 24.4618 87.6808 24.4618L79.9578 24.4622C79.3214 24.4622 78.8515 23.8819 78.9977 23.2765L79.4666 21.3347C79.5016 21.1897 79.6341 21.0872 79.7866 21.0872H85.7053C87.9917 21.0872 89.9783 19.5513 90.5048 17.3765L91.4775 13.3588C92.2106 10.3312 89.8611 7.42773 86.678 7.42773H81.3499ZM82.1973 12.0882C81.8926 12.0882 81.6277 12.2929 81.5574 12.5828L80.4873 16.9957C80.4383 17.1976 80.595 17.3912 80.8072 17.3912H82.6171C83.3791 17.3912 84.0413 16.8793 84.2169 16.1545L84.9144 13.2745C85.0611 12.669 84.5912 12.0882 83.9545 12.0882H82.1973Z" fill="#333333"/>
</svg>
