<svg width="41" height="42" viewBox="0 0 41 42" fill="none" xmlns="http://www.w3.org/2000/svg">
<path d="M0.641436 16.6134C2.35799 8.97146 10.2697 1.18916 20.1244 1.2781C30.7537 1.37495 36.5764 10.5665 36.9677 11.2078C37.7158 12.4352 39.9966 16.2883 39.8583 21.6405C39.5974 31.7481 30.9623 37.3949 30.4306 37.7299C29.7833 38.138 20.5582 43.7354 11.0732 38.9869C1.77988 34.3343 0.556455 23.9174 0.388456 22.1436C0.271845 20.9112 0.105815 18.9921 0.639458 16.6124L0.641436 16.6134Z" fill="#FFE457"/>
<path d="M0.569658 16.5972L0.686274 16.1249L0.744576 15.8887L0.813747 15.6555L0.952102 15.189L1.10923 14.7285C1.20706 14.4192 1.33356 14.1198 1.44819 13.8164C1.50551 13.6642 1.57567 13.5179 1.63892 13.3687C1.70612 13.2215 1.76344 13.0693 1.83558 12.923C2.38306 11.746 3.03825 10.6175 3.78041 9.54722C5.28153 7.42055 7.1305 5.50339 9.30954 4.00425C11.4807 2.50609 13.969 1.39631 16.6047 0.919983C19.2333 0.431798 21.9767 0.531611 24.5559 1.23622C24.717 1.28168 24.8801 1.31626 25.0382 1.3716L25.5135 1.52676L25.7507 1.60482C25.8298 1.6325 25.9068 1.66313 25.9849 1.69278L26.4514 1.87066C26.6085 1.92699 26.7597 1.99715 26.9119 2.06237L27.3694 2.26101C27.6688 2.4043 27.9693 2.5476 28.2618 2.70176C29.4328 3.32435 30.5406 4.05365 31.5704 4.87092C32.0833 5.28202 32.5804 5.7119 33.0606 6.15759C33.5379 6.60724 34.0014 7.06874 34.4422 7.55198C34.8829 8.03523 35.3098 8.52934 35.714 9.04124C36.1212 9.55117 36.5076 10.0779 36.8712 10.6224C37.5877 11.7243 38.1836 12.8855 38.6837 14.0941C39.1728 15.3046 39.5523 16.5607 39.8102 17.8444C39.8675 18.1665 39.9239 18.4887 39.9743 18.8128C40.0108 19.138 40.0573 19.4631 40.0859 19.7892C40.1067 20.1163 40.1413 20.4424 40.1522 20.7705C40.1571 21.0986 40.1719 21.4267 40.167 21.7548C40.1482 23.0682 40 24.3855 39.7015 25.6721C39.1155 28.2504 37.9603 30.6993 36.4018 32.8427C36.0174 33.3833 35.6014 33.9001 35.1675 34.4012C34.7347 34.9032 34.2771 35.3835 33.8048 35.8479C33.3314 36.3124 32.8383 36.7571 32.3254 37.181C32.0694 37.3935 31.8076 37.5991 31.5397 37.8007C31.269 38.0023 31.0041 38.196 30.6958 38.3887C30.1127 38.7474 29.5267 39.0567 28.9259 39.3463C28.326 39.6348 27.7153 39.8987 27.0937 40.1368C26.4721 40.375 25.8416 40.5894 25.2013 40.7742C24.883 40.8721 24.5589 40.9511 24.2367 41.0371C23.9116 41.1102 23.5875 41.1942 23.2594 41.2545C22.6052 41.3929 21.9421 41.4877 21.277 41.5658C20.6099 41.6271 19.9399 41.6775 19.2669 41.6755C19.0989 41.6755 18.9309 41.6795 18.7629 41.6755L18.2589 41.6548C17.9229 41.6478 17.587 41.6073 17.2519 41.5816C17.0839 41.5708 16.9169 41.5441 16.7499 41.5233L16.2489 41.4571C15.9168 41.4008 15.5848 41.3405 15.2547 41.2733C13.9364 40.9867 12.6488 40.5608 11.4283 39.9926C10.2078 39.4283 9.04569 38.7355 7.98038 37.9153L7.58311 37.605C7.45069 37.5012 7.32815 37.3866 7.20067 37.2779L6.82119 36.9468L6.45851 36.599C6.33992 36.4804 6.21442 36.3697 6.10176 36.2452L5.75885 35.8786L5.58788 35.6957L5.42482 35.505L5.10068 35.1226C4.24982 34.0919 3.53632 32.9613 2.91967 31.7932C2.83962 31.6489 2.77045 31.4987 2.69732 31.3505C2.62616 31.2013 2.55007 31.055 2.48287 30.9038C2.34946 30.6024 2.21012 30.304 2.08955 29.9976C1.83657 29.3899 1.61816 28.7702 1.41755 28.1467C1.21595 27.5231 1.04698 26.8906 0.896767 26.2562C0.74458 25.6217 0.618085 24.9814 0.512345 24.339C0.408581 23.6967 0.324573 23.0514 0.269232 22.4021C0.218833 21.7548 0.175349 21.1085 0.168431 20.4582C0.164478 19.809 0.185232 19.1587 0.255396 18.5124C0.320619 17.8661 0.423399 17.2248 0.568668 16.5923L0.569658 16.5972ZM0.713935 16.6299C0.576571 17.2574 0.478743 17.8938 0.423402 18.5332C0.370037 19.1726 0.35719 19.8159 0.385849 20.4573C0.415495 21.0976 0.478745 21.739 0.561756 22.3754C0.643779 23.0108 0.763351 23.6423 0.903679 24.2669C1.4729 26.7651 2.44334 29.1655 3.77449 31.31C4.44253 32.3802 5.19951 33.3882 6.04741 34.3033C6.47532 34.7569 6.9121 35.2016 7.38349 35.6068L7.73234 35.9151L8.09601 36.2057C8.21855 36.3005 8.33515 36.4023 8.46165 36.4932L8.83817 36.766C10.8502 38.2098 13.1646 39.2296 15.5799 39.7267C16.7885 39.9767 18.0247 40.0884 19.262 40.0864C19.8806 40.0924 20.5002 40.0499 21.1189 39.9975C21.7355 39.9273 22.3542 39.8562 22.9659 39.7356C23.2732 39.6852 23.5766 39.6111 23.882 39.5479C24.1844 39.4718 24.4897 39.4036 24.7892 39.3166C25.392 39.1535 25.9889 38.9618 26.5769 38.7474C27.1649 38.5339 27.7469 38.2997 28.3152 38.0398C28.8824 37.7809 29.4467 37.4983 29.9695 37.1909C30.2126 37.0466 30.4744 36.8658 30.7245 36.6869C30.9765 36.5051 31.2265 36.3183 31.4716 36.1227C31.9627 35.7343 32.438 35.3232 32.8996 34.8973C33.8235 34.0444 34.6724 33.1125 35.4521 32.1263C35.6518 31.8822 35.8306 31.6242 36.0204 31.3742L36.2882 30.9868L36.4226 30.7931L36.5501 30.5945L36.806 30.1982L37.0481 29.794C37.2142 29.5262 37.3575 29.2466 37.5106 28.9718C38.1016 27.8611 38.57 26.6851 38.9159 25.4715C39.6076 23.0454 39.7529 20.4454 39.3161 17.9343L39.2262 17.4649C39.1956 17.3088 39.1689 17.1516 39.1293 16.9965C39.0542 16.6872 38.9841 16.3759 38.8902 16.0705C38.7232 15.4548 38.5028 14.855 38.2696 14.2611C38.0304 13.6691 37.7587 13.091 37.4602 12.5267C37.3851 12.3854 37.311 12.2451 37.231 12.1067C37.1539 11.9674 37.0728 11.829 36.9898 11.6927C36.9088 11.5563 36.8228 11.4179 36.7398 11.2845C36.6558 11.1531 36.5669 11.0207 36.4759 10.8892C35.7466 9.84467 34.9066 8.87127 34.0044 7.97198C33.5508 7.52332 33.0764 7.09641 32.5922 6.68432C32.106 6.27322 31.599 5.88979 31.0812 5.52315C29.002 4.07145 26.6846 2.98637 24.2506 2.43197C21.8225 1.86473 19.2907 1.80049 16.8339 2.21061C15.6055 2.41418 14.394 2.73833 13.22 3.17611C12.0469 3.6139 10.9036 4.15051 9.81848 4.79582L9.61393 4.91539L9.41331 5.04189L9.0121 5.29487C8.74626 5.46682 8.48932 5.65162 8.22645 5.8295C7.97445 6.02122 7.71554 6.20503 7.4675 6.40366L7.09691 6.70409L6.91211 6.85528L6.73324 7.01241C5.77169 7.84549 4.87735 8.76553 4.08084 9.76858C3.28828 10.7736 2.59256 11.8597 2.01544 13.008C1.44128 14.1573 1.00447 15.3758 0.712946 16.6269L0.713935 16.6299Z" fill="#252222"/>
<path d="M9.6354 14.5249C9.81427 14.1306 10.254 13.1641 11.2867 12.8311C12.27 12.5139 13.4658 12.8746 14.1239 13.763C15.0084 14.9548 14.3937 16.3798 14.2929 16.6002C14.206 16.7919 13.6377 18.0707 12.3451 18.294C10.9488 18.5352 9.57116 17.3957 9.33794 16.1763C9.20354 15.4726 9.4753 14.8748 9.63441 14.5249H9.6354Z" fill="#252222"/>
<path d="M11.9647 18.3754C10.6662 18.3754 9.49807 17.2795 9.28857 16.1855C9.1512 15.4671 9.42495 14.8643 9.58899 14.5045C9.77676 14.0915 10.2165 13.124 11.271 12.784C12.2938 12.454 13.5103 12.8532 14.1635 13.7337C15.0193 14.886 14.5133 16.2349 14.3384 16.6213C14.1319 17.0759 13.532 18.1402 12.3541 18.3438C12.2246 18.3665 12.0941 18.3764 11.9667 18.3774L11.9647 18.3754ZM12.0171 12.7662C11.774 12.7662 11.5318 12.8018 11.3006 12.8769C10.2877 13.203 9.86076 14.1428 9.67892 14.5441C9.51982 14.8939 9.25497 15.4779 9.3864 16.1658C9.588 17.2202 10.7136 18.2756 11.9637 18.2756C12.0872 18.2756 12.2117 18.2657 12.3372 18.244C13.4688 18.0483 14.0489 17.0186 14.2455 16.5848C14.4185 16.2053 14.9076 14.8998 14.0844 13.791C13.6042 13.1438 12.8067 12.7662 12.0181 12.7662H12.0171Z" fill="#252222"/>
<path d="M25.8764 14.5249C26.0552 14.1306 26.495 13.1641 27.5277 12.8311C28.511 12.5139 29.7067 12.8746 30.3649 13.763C31.2494 14.9548 30.6347 16.3798 30.5339 16.6002C30.4469 16.7919 29.8787 18.0707 28.5861 18.294C27.1897 18.5352 25.8121 17.3957 25.5789 16.1763C25.4445 15.4726 25.7163 14.8748 25.8754 14.5249H25.8764Z" fill="#252222"/>
<path d="M28.2079 18.3754C26.9093 18.3754 25.7412 17.2795 25.5317 16.1855C25.3944 15.4671 25.6681 14.8643 25.8322 14.5045C26.0199 14.0915 26.4597 13.124 27.5141 12.784C28.5369 12.454 29.7535 12.8532 30.4067 13.7337C31.2625 14.886 30.7565 16.2349 30.5816 16.6213C30.375 17.0759 29.7752 18.1402 28.5962 18.3438C28.4668 18.3665 28.3363 18.3774 28.2089 18.3774L28.2079 18.3754ZM28.2602 12.7662C28.0171 12.7662 27.775 12.8018 27.5438 12.8769C26.5308 13.203 26.1039 14.1428 25.9221 14.5441C25.763 14.8939 25.4981 15.4779 25.6296 16.1658C25.8312 17.2202 26.9568 18.2756 28.2069 18.2756C28.3304 18.2756 28.4549 18.2657 28.5804 18.244C29.7119 18.0483 30.292 17.0186 30.4897 16.5848C30.6626 16.2053 31.1518 14.8998 30.3286 13.791C29.8483 13.1438 29.0508 12.7662 28.2622 12.7662H28.2602Z" fill="#252222"/>
<path d="M31.4132 21.1504C31.6168 27.0926 27.1945 32.2482 21.3441 32.9518C15.4108 33.6663 9.83127 29.5839 8.71655 23.6565C11.3581 24.2277 15.2487 24.7574 19.9082 24.29C24.9265 23.787 28.8695 22.3244 31.4132 21.1494V21.1504Z" fill="#252222"/>
<path d="M31.4466 21.0957C31.4743 21.2627 31.5187 21.4702 31.5365 21.6837C31.5494 21.8705 31.5563 22.0474 31.5642 22.2302C31.5672 22.412 31.5642 22.5939 31.5642 22.7767C31.5583 22.9585 31.5424 23.1404 31.5316 23.3232C31.4713 24.0525 31.3359 24.7798 31.1224 25.4864C30.7005 26.9025 29.983 28.2416 29.0314 29.3929C28.555 29.968 28.0243 30.5017 27.4433 30.974C26.8632 31.4474 26.2366 31.8684 25.5696 32.2103C24.9035 32.5542 24.2009 32.828 23.4775 33.0157C23.1158 33.1106 22.7512 33.1887 22.3835 33.247C22.0159 33.3033 21.6463 33.3408 21.2767 33.3626C20.5375 33.4051 19.7983 33.3725 19.071 33.2825C18.3446 33.1867 17.6282 33.0365 16.9325 32.826C15.5381 32.4129 14.2178 31.7715 13.027 30.9335C11.8352 30.0975 10.7709 29.0569 9.92396 27.8414C9.07409 26.6288 8.46336 25.2315 8.15503 23.7639C8.0908 23.4596 8.28647 23.1601 8.59084 23.0959C8.66496 23.0801 8.73907 23.0801 8.81023 23.0929L8.8379 23.0989C10.7096 23.4576 12.606 23.674 14.5044 23.7422C14.9787 23.761 15.4541 23.7738 15.9284 23.7758C16.1656 23.7758 16.4028 23.7807 16.6409 23.7778L17.3535 23.7669L18.065 23.7452C18.3022 23.7373 18.5393 23.7204 18.7765 23.7096C19.0137 23.7017 19.2509 23.6809 19.488 23.6661L19.8438 23.6414L20.1986 23.6078C20.4348 23.5841 20.6729 23.5712 20.9091 23.5426L21.6187 23.4635C22.09 23.4012 22.5624 23.337 23.0328 23.2599L23.3866 23.2056L23.7394 23.1443C23.9746 23.1038 24.2098 23.0633 24.444 23.0149C24.6782 22.9664 24.9134 22.9249 25.1456 22.8716C25.3789 22.8212 25.6141 22.7757 25.8473 22.7204C26.0805 22.665 26.3137 22.6126 26.546 22.5553L27.2427 22.3774L27.9384 22.1907C28.1686 22.1235 28.4009 22.0592 28.6311 21.9891C29.0936 21.8537 29.5531 21.7094 30.0117 21.5582C30.2419 21.4851 30.4702 21.407 30.6995 21.3279L30.8714 21.2706C30.9376 21.2469 31.0058 21.2232 31.0721 21.2024C31.2064 21.1599 31.3339 21.1283 31.4476 21.0947L31.4466 21.0957ZM31.3794 21.2054C31.2727 21.2716 31.1798 21.3398 31.0928 21.3971C31.0493 21.4258 31.0068 21.4525 30.9624 21.4791L30.8013 21.5661C30.5868 21.6817 30.3704 21.7944 30.152 21.9041C29.7172 22.1264 29.2735 22.329 28.8278 22.5306C28.6044 22.6294 28.3781 22.7213 28.1528 22.8172L27.4709 23.09C27.2427 23.1789 27.0114 23.2589 26.7812 23.3439C26.5499 23.426 26.3177 23.502 26.0854 23.5811C25.8532 23.6602 25.618 23.7303 25.3838 23.8044C25.1496 23.8786 24.9114 23.9388 24.6752 24.007C24.4391 24.0752 24.2009 24.1345 23.9627 24.1948L23.605 24.2857L23.2453 24.3687C22.2857 24.5852 21.3153 24.7601 20.3379 24.8905L19.9713 24.9389L19.6037 24.9785C19.3586 25.0032 19.1135 25.0338 18.8674 25.0516C18.6214 25.0694 18.3753 25.0911 18.1292 25.105L17.39 25.1425L16.6498 25.1573C16.4028 25.1603 16.1567 25.1573 15.9097 25.1573C15.4165 25.1474 14.9234 25.1316 14.4313 25.1C13.447 25.0328 12.4657 24.93 11.4913 24.7828C10.5179 24.6336 9.5504 24.4448 8.59281 24.2175L9.27568 23.5525C9.49704 24.8915 9.94472 26.1999 10.6167 27.4046C11.2897 28.6072 12.1979 29.6973 13.2968 30.5669C14.3947 31.4355 15.6814 32.0769 17.0402 32.4238C18.401 32.7697 19.826 32.8003 21.1848 32.5661C21.5248 32.5078 21.8608 32.4356 22.1928 32.3457C22.5239 32.2578 22.852 32.1589 23.1721 32.0423C23.8135 31.8091 24.4341 31.5304 25.028 31.2033C25.621 30.8742 26.1912 30.5056 26.7258 30.0866C27.2585 29.6656 27.7585 29.2022 28.2141 28.6962C29.1272 27.6842 29.8694 26.5112 30.4 25.2354C30.6639 24.597 30.8793 23.9339 31.0365 23.251L31.1422 22.7362C31.1709 22.5632 31.2035 22.3893 31.2302 22.2154L31.2974 21.6916C31.3112 21.5483 31.3527 21.3981 31.3764 21.2094L31.3794 21.2054Z" fill="#252222"/>
<path d="M19.113 29.5767C17.6702 30.0708 16.4616 30.7389 15.4773 31.4217C17.4439 32.3437 19.6812 32.7193 21.9581 32.3724C24.3318 32.0117 26.4308 30.9148 28.0644 29.3494C25.8448 28.7575 22.6153 28.375 19.113 29.5757V29.5767Z" fill="#FF5C2A"/>
</svg>
