<svg width="397" height="159" viewBox="0 0 397 159" fill="none" xmlns="http://www.w3.org/2000/svg">
<g opacity="0.1">
<path d="M279.139 155.878L295.581 52.1664H332.048L329.308 70.0841H327.833C331.486 63.4791 336.405 58.4903 342.588 55.1176C348.772 51.6043 355.939 49.8477 364.089 49.8477C371.538 49.8477 377.861 51.3935 383.061 54.4852C388.401 57.5768 392.125 62.4252 394.233 69.0301C396.482 75.635 396.833 84.1371 395.287 94.5364L385.591 155.878H348.069L357.555 95.1688C358.117 91.515 358.117 88.4936 357.555 86.1046C357.133 83.575 356.009 81.6779 354.182 80.4131C352.496 79.1483 350.036 78.5159 346.804 78.5159C343.01 78.5159 339.567 79.4294 336.475 81.2563C333.524 82.9426 331.135 85.4722 329.308 88.8449C327.481 92.0771 326.146 96.012 325.303 100.649L316.66 155.878H279.139Z" fill="#FF5C2A"/>
<path d="M238.191 34.2487L243.672 0.310547H283.09L277.61 34.2487H238.191ZM219.852 155.878L236.294 52.1664H273.815L257.373 155.878H219.852Z" fill="#FF5C2A"/>
<path d="M149.749 158.197C138.366 158.197 128.67 156.229 120.66 152.295C112.79 148.219 106.747 142.528 102.531 135.22C98.4557 127.912 96.418 119.41 96.418 109.714C96.418 99.736 98.1043 91.0231 101.477 83.575C104.99 76.1269 109.628 69.8733 115.39 64.8142C121.292 59.7551 127.897 56.031 135.204 53.642C142.512 51.1124 150.03 49.8477 157.76 49.8477C169.002 49.8477 178.558 51.8854 186.428 55.9607C194.438 59.8956 200.551 65.5168 204.767 72.8244C208.983 79.9915 211.091 88.4233 211.091 98.1199C211.091 108.238 209.334 117.021 205.821 124.469C202.448 131.918 197.811 138.171 191.909 143.23C186.147 148.289 179.612 152.084 172.305 154.613C164.997 157.002 157.479 158.197 149.749 158.197ZM150.382 130.583C155.16 130.583 159.235 129.177 162.608 126.367C166.121 123.415 168.791 119.41 170.618 114.351C172.445 109.292 173.359 103.53 173.359 97.066C173.359 90.7421 171.883 85.8938 168.932 82.521C166.121 79.1483 162.116 77.4619 156.916 77.4619C152.279 77.4619 148.204 78.8672 144.69 81.6779C141.318 84.4885 138.718 88.4233 136.891 93.4824C135.064 98.5415 134.15 104.374 134.15 110.979C134.15 117.302 135.556 122.151 138.366 125.523C141.318 128.896 145.323 130.583 150.382 130.583Z" fill="#FF5C2A"/>
<path d="M0.791016 158.198L1.845 127.211L19.7627 126.157C23.2759 126.016 26.2271 125.384 28.6161 124.259C31.0051 122.995 32.9023 121.168 34.3076 118.779C35.8534 116.39 36.9074 113.298 37.4695 109.504L53.7008 7.26758H92.2765L75.6236 112.033C74.0778 121.449 71.4077 129.389 67.6133 135.853C63.9596 142.318 58.4789 147.306 51.1713 150.82C44.0042 154.333 34.4481 156.441 22.503 157.144L0.791016 158.198Z" fill="#FF5C2A"/>
</g>
</svg>
