<svg width="162" height="214" viewBox="0 0 162 214" fill="none" xmlns="http://www.w3.org/2000/svg">
<path d="M137.333 146.341C138.227 142.505 136.601 138.525 133.264 136.378L99.1699 114.451C95.3498 111.994 90.2216 114.025 89.1727 118.411L73.9655 181.99C73.0136 185.97 76.0664 189.785 80.2015 189.785C106.693 189.676 131.266 171.698 137.333 146.341Z" fill="#FF4C00"/>
<path d="M48.3074 208.058C47.6046 210.995 44.9526 213.07 41.9004 213.07L39.1807 213.07C17.4965 212.8 -0.263778 189.282 4.73152 168.319L13.0194 133.989C13.8994 130.343 16.6191 127.405 20.2132 126.217L60.7768 112.803C65.6709 111.185 70.4598 115.51 69.2726 120.476L58.47 165.666C57.8811 168.129 56.4399 170.312 54.3958 171.835L37.7763 184.223C37.2314 184.63 36.9085 185.263 36.9026 185.938L36.8885 187.562C36.878 188.768 37.8636 189.751 39.0832 189.751H49.9129C51.3293 189.751 52.3748 191.058 52.0487 192.422L48.3074 208.058Z" fill="#FF4C00"/>
<path d="M123.149 2.00031L121.137 2.00037C118.085 2.00047 115.433 4.07445 114.73 7.01125L97.5552 78.7325C96.8841 81.5351 97.6622 84.4845 99.6323 86.6057L137.289 127.151C138.48 128.433 140.635 127.877 141.041 126.184L160.44 45.417C165.482 24.144 146.681 1.90384 123.149 2.00031Z" fill="#FF4C00"/>
<path d="M28.1026 69.9249L18.5183 109.834C18.0892 111.62 19.9415 113.094 21.6019 112.272C31.8624 107.19 58.7367 93.6923 75.2593 83.6797C77.2058 82.5002 78.5616 80.5937 79.0882 78.3971L90.3606 31.37C91.1276 28.1704 88.6715 25.1021 85.3464 25.1057C58.7928 24.7753 34.2182 44.3696 28.1026 69.9249Z" fill="#FF4C00"/>
<path d="M129.993 134.799C133.154 136.832 134.691 140.598 133.847 144.227C127.837 169.337 103.482 187.176 77.2013 187.285C73.3823 187.285 70.5768 183.765 71.4517 180.107L86.659 116.527C87.6264 112.482 92.3641 110.598 95.8995 112.872L129.993 134.799Z" stroke="white"/>
<path d="M44.8211 205.942C44.173 208.651 41.7248 210.57 38.9004 210.57L36.1839 210.57C25.5256 210.436 15.8 204.587 9.34846 196.151C2.89599 187.713 -0.238721 176.744 2.2179 166.434L10.5054 132.106C11.3444 128.631 13.9382 125.826 17.3702 124.691L57.9338 111.278C62.467 109.779 66.8797 113.786 65.7863 118.36L54.9837 163.55C54.4222 165.898 53.0479 167.98 51.097 169.435L34.4775 181.822C33.8083 182.321 33.4099 183.101 33.4027 183.934L33.3885 185.558C33.3755 187.047 34.5911 188.251 36.0832 188.251H46.9129C48.0133 188.251 48.8117 189.263 48.5624 190.305L44.8211 205.942Z" stroke="white"/>
<path d="M120.151 0.500309L120.149 0.500317L118.137 0.500374C115.313 0.500461 112.865 2.41924 112.216 5.12769L95.0415 76.8489C94.4095 79.488 95.1418 82.2662 96.9987 84.2655L134.656 124.811C135.579 125.804 137.243 125.367 137.555 124.068L156.953 43.3017L120.151 0.500309ZM120.151 0.500309C143.398 0.405008 161.911 22.3797 156.954 43.3002L120.151 0.500309Z" stroke="white"/>
<path d="M25.5888 68.0417L25.5889 68.0413C31.6511 42.7089 56.0246 23.2782 82.3402 23.6056V23.6057L82.347 23.6057C85.3558 23.6024 87.5643 26.3755 86.8744 29.2535L75.6019 76.2805C75.1055 78.3514 73.8289 80.1439 72.0002 81.2521C55.4986 91.2519 28.6432 104.74 18.38 109.824C17.0953 110.46 15.6756 109.32 16.0045 107.95L25.5888 68.0417Z" stroke="white"/>
</svg>
