<svg width="246" height="56" viewBox="0 0 246 56" fill="none" xmlns="http://www.w3.org/2000/svg">
<path d="M209.583 34.8039C209.798 33.8788 209.407 32.9191 208.603 32.4015L200.391 27.1143C199.47 26.5219 198.235 27.0117 197.983 28.0691L194.319 43.3997C194.09 44.3593 194.826 45.2793 195.822 45.2792C202.203 45.253 208.122 40.9181 209.583 34.8039Z" fill="#FF4C00"/>
<path d="M188.138 49.6863C187.969 50.3946 187.33 50.8948 186.595 50.8948L185.94 50.8949C180.717 50.8298 176.439 45.1589 177.642 40.1041L179.638 31.8263C179.85 30.9474 180.505 30.2389 181.371 29.9523L191.142 26.718C192.321 26.3278 193.474 27.3707 193.188 28.5682L190.586 39.4645C190.444 40.0585 190.097 40.5848 189.605 40.9522L185.602 43.9392C185.47 44.0371 185.393 44.1899 185.391 44.3526L185.388 44.7443C185.385 45.035 185.623 45.2721 185.916 45.2721H188.525C188.866 45.2721 189.118 45.5873 189.04 45.916L188.138 49.6863Z" fill="#FF4C00"/>
<path d="M206.167 7.54021e-05L205.682 9.02473e-05C204.947 0.000112764 204.309 0.500203 204.139 1.20834L200.002 18.5021C199.841 19.1779 200.028 19.8891 200.503 20.4006L209.573 30.177C209.86 30.4861 210.379 30.3522 210.477 29.944L215.15 10.4689C216.364 5.33948 211.835 -0.0231856 206.167 7.54021e-05Z" fill="#FF4C00"/>
<path d="M183.273 16.3783L180.964 26.0013C180.861 26.4322 181.307 26.7876 181.707 26.5893C184.179 25.3638 190.652 22.1093 194.632 19.695C195.101 19.4106 195.427 18.9509 195.554 18.4212L198.269 7.08179C198.454 6.3103 197.862 5.57043 197.061 5.57131C190.665 5.49164 184.746 10.2163 183.273 16.3783Z" fill="#FF4C00"/>
<path d="M172.69 43.2489L180.104 12.3884C180.341 11.4019 179.586 10.4551 178.561 10.4551H161.882C156.979 10.4551 152.719 13.792 151.592 18.5158L147.046 37.5666C146.947 37.9832 146.815 38.3916 146.653 38.7883L144.586 43.8323C144.304 44.5206 144.816 45.2726 145.567 45.2723L149.584 45.271C153.258 45.2697 156.45 42.7702 157.298 39.2311L161.656 21.0244C162.109 19.133 163.817 17.7988 165.781 17.8031L166.742 17.8052C167.423 17.8067 167.925 18.4364 167.768 19.0928L161.977 43.3369C161.742 44.3236 162.498 45.2695 163.523 45.2682L170.122 45.2601C171.345 45.2586 172.407 44.4267 172.69 43.2489Z" fill="white"/>
<path d="M229.371 45.2855C228.346 45.2874 227.588 44.341 227.824 43.3538L230.21 33.3781C230.288 33.0495 230.037 32.7343 229.695 32.7342L225.516 32.7321C225.026 32.7319 224.6 33.0654 224.487 33.5378L222.165 43.2527C221.882 44.4331 220.818 45.2668 219.592 45.2668H212.934C211.911 45.2668 211.155 44.3209 211.391 43.3347L218.779 12.4786C219.061 11.2984 220.126 10.4651 221.351 10.4653L228.67 10.4668C229.353 10.4669 229.856 11.0976 229.699 11.755L227.086 22.6596C227.007 22.9882 227.259 23.3035 227.6 23.3038L231.777 23.3074C232.268 23.3078 232.695 22.9736 232.807 22.5006L235.19 12.4819C235.471 11.3001 236.537 10.4649 237.763 10.4649L244.413 10.4648C245.436 10.4648 246.192 11.4102 245.956 12.3962L238.584 43.2582C238.302 44.437 237.24 45.2704 236.017 45.2727L229.371 45.2855Z" fill="#FF4C00"/>
<path d="M0.0420811 8.54093C-0.18971 9.5256 0.56536 10.4673 1.58669 10.4673L8.8714 10.4673L0.989097 43.3374C0.752595 44.3236 1.50808 45.2699 2.53202 45.2701L9.182 45.2708C10.4067 45.2709 11.4711 44.4383 11.7541 43.2587L19.6211 10.4673L25.1764 10.4673C26.4024 10.4673 27.4675 9.63276 27.749 8.45156L29.3036 1.93065C29.5386 0.944862 28.7832 -5.56209e-06 27.76 0L4.15073 0.000128345C2.92198 0.000135024 1.85527 0.83834 1.5764 2.02299L0.0420811 8.54093Z" fill="white"/>
<path fill-rule="evenodd" clip-rule="evenodd" d="M92.9943 10.4648C91.7693 10.4648 90.7048 11.2981 90.4223 12.4781L86.77 27.7332H86.7711L83.1907 42.6922C82.876 44.007 83.8834 45.2681 85.2483 45.2682L101.671 45.2691C106.569 45.2693 110.826 41.9389 111.958 37.221L112.785 33.7765C113.497 30.8093 111.515 27.9503 108.612 27.4208C112.266 26.4993 115.204 23.6353 116.099 19.8689C117.24 15.0658 113.558 10.4649 108.574 10.4649L92.9943 10.4648ZM99.8787 17.552C99.9916 17.0802 100.417 16.7468 100.907 16.7464L103.731 16.7444C104.754 16.7437 105.511 17.6884 105.276 18.6744L104.984 19.8994C104.978 19.9705 104.966 20.0422 104.949 20.1142L104.205 23.2379C103.924 24.4205 102.857 25.2558 101.63 25.2546L98.7224 25.2518C98.3814 25.2515 98.1299 24.9364 98.2085 24.6079L98.5214 23.2992C98.5206 23.2562 98.5252 23.2123 98.5358 23.1682L99.8787 17.552ZM101.406 34.8585C101.411 34.8388 101.416 34.819 101.421 34.799L102.227 31.4243C102.463 30.4387 101.708 29.4934 100.685 29.4929L97.8638 29.4913C97.3736 29.491 96.9474 29.8244 96.8344 30.2966L96.5071 31.6638C96.5057 31.6694 96.5043 31.675 96.5029 31.6806L95.096 37.5583C95.0172 37.8873 95.2697 38.2028 95.6113 38.2023L98.5217 38.1974C99.7455 38.1953 100.808 37.362 101.09 36.183L101.406 34.8585Z" fill="white"/>
<path fill-rule="evenodd" clip-rule="evenodd" d="M22.194 55.9991C25.8706 56.0003 29.0659 53.4995 29.913 49.9577L31.0345 45.269L39.0489 45.2679C43.9485 45.2672 48.2058 41.9344 49.3357 37.2148L53.4267 20.1271C54.6072 15.1963 50.8294 10.4666 45.7105 10.4666H39.3589L39.3602 10.4609L30.6987 10.4672C29.4741 10.468 28.4104 11.3015 28.1284 12.4812L18.3391 53.423C18.0248 54.7375 19.0317 55.9982 20.3962 55.9986L22.194 55.9991ZM36.1597 23.8418L32.7244 38.2039H36.2691C37.4921 38.2039 38.5554 37.3733 38.8399 36.1959L42.5996 20.6354C42.9176 19.3195 41.9098 18.0551 40.543 18.0551H37.5617L36.1597 23.8418Z" fill="white"/>
<path fill-rule="evenodd" clip-rule="evenodd" d="M68.2317 10.4668C63.3295 10.4668 59.0701 13.8026 57.9422 18.5253L53.8609 35.6132C52.6834 40.543 56.4609 45.2697 61.5781 45.2697H72.953C76.2106 45.2697 79.0382 43.0464 79.7755 39.9052C79.9795 39.0357 79.3127 38.2046 78.4109 38.2046L65.9934 38.2051C64.9702 38.2052 64.2147 37.2603 64.4498 36.2744L65.2037 33.1125C65.26 32.8763 65.473 32.7094 65.7182 32.7094H75.2346C78.9107 32.7094 82.1049 30.2084 82.9514 26.6671L84.5154 20.1248C85.694 15.1947 81.9164 10.4668 76.7986 10.4668H68.2317ZM69.5943 18.0558C69.1043 18.0558 68.6785 18.3891 68.5655 18.8611L66.8448 26.047C66.7661 26.3757 67.018 26.691 67.3592 26.691H70.2692C71.4945 26.691 72.5591 25.8575 72.8414 24.6771L73.9629 19.9876C74.1987 19.0015 73.4432 18.0558 72.4196 18.0558H69.5943Z" fill="white"/>
<path fill-rule="evenodd" clip-rule="evenodd" d="M130.798 10.4668C125.896 10.4668 121.637 13.8026 120.509 18.5253L116.427 35.6132C115.25 40.543 119.027 45.2697 124.144 45.2697H135.519C138.777 45.2697 141.605 43.0464 142.342 39.9052C142.546 39.0357 141.879 38.2046 140.977 38.2046L128.56 38.2051C127.537 38.2052 126.781 37.2603 127.016 36.2744L127.77 33.1125C127.826 32.8763 128.039 32.7094 128.285 32.7094H137.801C141.477 32.7094 144.671 30.2084 145.518 26.6671L147.082 20.1248C148.26 15.1947 144.483 10.4668 139.365 10.4668H130.798ZM132.161 18.0558C131.671 18.0558 131.245 18.3891 131.132 18.8611L129.411 26.047C129.333 26.3757 129.584 26.691 129.926 26.691H132.836C134.061 26.691 135.126 25.8575 135.408 24.6771L136.529 19.9876C136.765 19.0015 136.01 18.0558 134.986 18.0558H132.161Z" fill="white"/>
</svg>
