<svg width="479" height="122" viewBox="0 0 479 122" fill="none" xmlns="http://www.w3.org/2000/svg">
<path d="M359.067 7.07026C359.916 3.45454 363.142 0.898438 366.856 0.898438H470.817C475.974 0.898438 479.784 5.70604 478.606 10.7266L470.56 45.0017C469.711 48.6175 466.486 51.1736 462.772 51.1736H351.239C349.949 51.1736 348.997 49.9717 349.292 48.7165L359.067 7.07026Z" fill="#FF5C2A"/>
<path d="M376.29 35.6924V13.1324H381.25V22.4444H384.45L383.618 22.9884L389.698 13.1324H395.138L388.13 23.9804L386.146 22.6044C387.106 22.775 387.959 23.0737 388.706 23.5004C389.452 23.9057 390.124 24.4497 390.722 25.1324C391.319 25.7937 391.852 26.6044 392.322 27.5644L396.258 35.6924H390.882L387.938 29.2924C387.468 28.2897 386.903 27.5857 386.242 27.1804C385.602 26.7537 384.78 26.5404 383.778 26.5404H381.25V35.6924H376.29ZM399.22 36.1724L397.78 32.3644C398.441 32.1724 398.996 31.9057 399.444 31.5644C399.892 31.223 400.254 30.775 400.532 30.2204C400.809 29.6657 401.012 28.9937 401.14 28.2044C401.268 27.3937 401.332 26.4337 401.332 25.3244V19.9804H414.676V35.6924H409.844V23.7244H405.748V25.4844C405.748 27.0844 405.609 28.5137 405.332 29.7724C405.076 31.0097 404.681 32.0657 404.148 32.9404C403.636 33.815 402.964 34.5297 402.132 35.0844C401.321 35.6177 400.35 35.9804 399.22 36.1724ZM421.127 41.4524L424.583 33.8684V35.8524L417.671 19.9804H422.759L427.207 31.2444H426.183L430.759 19.9804H435.559L426.055 41.4524H421.127ZM446.217 36.0444C444.489 36.0444 442.985 35.703 441.705 35.0204C440.425 34.3164 439.433 33.2817 438.729 31.9164C438.047 30.5297 437.705 28.823 437.705 26.7964V24.5244C437.705 23.2444 437.823 22.0924 438.057 21.0684C438.292 20.0444 438.655 19.1377 439.145 18.3484C439.636 17.559 440.233 16.8657 440.937 16.2684C441.663 15.6497 442.495 15.1377 443.433 14.7324C444.372 14.327 445.428 13.9964 446.601 13.7404L452.041 12.4924L453.417 16.2684L446.953 17.6764C445.417 18.0177 444.244 18.6577 443.433 19.5964C442.623 20.535 442.217 21.7404 442.217 23.2124V25.1964H441.609C441.801 24.3004 442.143 23.479 442.633 22.7324C443.145 21.9857 443.817 21.399 444.649 20.9724C445.503 20.5244 446.505 20.3004 447.657 20.3004C448.639 20.3004 449.535 20.4817 450.345 20.8444C451.156 21.1857 451.86 21.687 452.457 22.3484C453.076 23.0097 453.545 23.8097 453.865 24.7484C454.207 25.687 454.377 26.7537 454.377 27.9484C454.377 29.591 454.036 31.0204 453.353 32.2364C452.671 33.4524 451.721 34.391 450.505 35.0524C449.289 35.7137 447.86 36.0444 446.217 36.0444ZM446.057 32.4284C447.167 32.4284 448.02 32.0657 448.617 31.3404C449.215 30.615 449.513 29.559 449.513 28.1724C449.513 26.7857 449.204 25.7297 448.585 25.0044C447.988 24.2577 447.135 23.8844 446.025 23.8844C444.937 23.8844 444.084 24.2577 443.465 25.0044C442.868 25.7297 442.569 26.743 442.569 28.0444C442.569 29.4737 442.868 30.5617 443.465 31.3084C444.063 32.055 444.927 32.4284 446.057 32.4284Z" fill="white"/>
<path d="M292.219 89.4777C292.52 88.1892 291.974 86.8524 290.853 86.1315L279.402 78.7673C278.119 77.9421 276.397 78.6243 276.045 80.0971L270.937 101.45C270.617 102.787 271.643 104.068 273.032 104.068C281.929 104.032 290.182 97.9939 292.219 89.4777Z" fill="#FF4C00"/>
<path d="M262.32 110.205C262.084 111.192 261.193 111.888 260.168 111.888L259.255 111.889C251.972 111.798 246.007 103.899 247.685 96.8586L250.469 85.3288C250.764 84.1045 251.678 83.1177 252.885 82.7185L266.508 78.2136C268.152 77.6701 269.76 79.1227 269.361 80.7907L265.733 95.9677C265.536 96.7951 265.052 97.528 264.365 98.0397L258.783 102.2C258.6 102.337 258.492 102.549 258.49 102.776L258.485 103.322C258.482 103.727 258.813 104.057 259.222 104.057H262.859C263.335 104.057 263.686 104.496 263.577 104.954L262.32 110.205Z" fill="#FF4C00"/>
<path d="M287.456 41.0001L286.78 41.0001C285.755 41.0002 284.864 41.6967 284.628 42.683L278.86 66.7708C278.635 67.7121 278.896 68.7026 279.558 69.4151L292.205 83.0323C292.604 83.4627 293.328 83.2763 293.465 82.7077L299.98 55.5817C301.673 48.4371 295.359 40.9677 287.456 41.0001Z" fill="#FF4C00"/>
<path d="M255.534 63.8128L252.315 77.2163C252.171 77.8164 252.793 78.3114 253.351 78.0352C256.797 76.3283 265.823 71.7952 271.372 68.4324C272.026 68.0363 272.481 67.396 272.658 66.6582L276.444 50.8641C276.701 49.7895 275.876 48.759 274.76 48.7602C265.842 48.6492 257.588 55.23 255.534 63.8128Z" fill="#FF4C00"/>
<path d="M240.784 101.239L251.122 58.2544C251.452 56.8803 250.398 55.5615 248.97 55.5615H225.714C218.878 55.5615 212.938 60.2094 211.366 66.7889L205.028 93.3239C204.889 93.9042 204.706 94.4731 204.48 95.0257L201.599 102.051C201.205 103.01 201.919 104.057 202.965 104.057L208.567 104.055C213.69 104.053 218.141 100.572 219.322 95.6424L225.399 70.2831C226.031 67.6486 228.413 65.7903 231.15 65.7963L232.49 65.7992C233.44 65.8013 234.14 66.6784 233.921 67.5926L225.847 101.361C225.518 102.736 226.574 104.053 228.002 104.051L237.203 104.04C238.908 104.038 240.389 102.879 240.784 101.239Z" fill="white"/>
<path d="M319.814 104.077C318.385 104.08 317.329 102.762 317.658 101.387L320.984 87.492C321.093 87.0343 320.742 86.5954 320.267 86.5951L314.44 86.5923C313.756 86.5919 313.162 87.0565 313.004 87.7144L309.766 101.246C309.373 102.89 307.888 104.051 306.18 104.051H296.897C295.469 104.051 294.416 102.734 294.745 101.36L305.045 58.382C305.439 56.7382 306.924 55.5775 308.632 55.5778L318.837 55.5798C319.789 55.58 320.491 56.4585 320.271 57.3742L316.628 72.5627C316.518 73.0204 316.869 73.4595 317.345 73.4599L323.169 73.4649C323.854 73.4655 324.449 73.0001 324.606 72.3412L327.928 58.3866C328.32 56.7405 329.806 55.5772 331.516 55.5772L340.788 55.5771C342.215 55.5771 343.268 56.8939 342.94 58.2672L332.66 101.254C332.268 102.895 330.787 104.056 329.081 104.06L319.814 104.077Z" fill="#FF4C00"/>
<path d="M0.0586741 52.8963C-0.264514 54.2678 0.788287 55.5794 2.21233 55.5794L12.3695 55.5794L1.37911 101.363C1.04935 102.736 2.10273 104.055 3.53042 104.055L12.8025 104.056C14.5101 104.056 15.9942 102.896 16.3888 101.253L27.3579 55.5794L35.1037 55.5794C36.8131 55.5794 38.2981 54.4171 38.6907 52.7718L40.8583 43.6891C41.1859 42.3161 40.1326 41 38.706 41L5.7874 41.0002C4.07414 41.0002 2.58681 42.1677 2.19799 43.8177L0.0586741 52.8963Z" fill="white"/>
<path fill-rule="evenodd" clip-rule="evenodd" d="M129.66 55.5771C127.952 55.5771 126.468 56.7377 126.074 58.3813L120.982 79.6295H120.983L115.991 100.465C115.552 102.297 116.957 104.053 118.86 104.053L141.758 104.054C148.588 104.055 154.524 99.416 156.102 92.8446L157.254 88.0469C158.247 83.9141 155.484 79.932 151.437 79.1944C156.532 77.9108 160.627 73.9218 161.875 68.6757C163.466 61.9856 158.333 55.5772 151.383 55.5772L129.66 55.5771ZM139.259 65.4486C139.417 64.7913 140.01 64.327 140.693 64.3265L144.631 64.3237C146.058 64.3226 147.112 65.6385 146.785 67.0119L146.378 68.7181C146.369 68.8172 146.352 68.9171 146.328 69.0173L145.292 73.3682C144.9 75.0154 143.412 76.1788 141.701 76.1771L137.647 76.1733C137.172 76.1728 136.821 75.7339 136.931 75.2764L137.367 73.4535C137.366 73.3937 137.372 73.3326 137.387 73.2711L139.259 65.4486ZM141.389 89.5541C141.396 89.5266 141.403 89.4989 141.41 89.4712L142.534 84.7707C142.863 83.3978 141.81 82.0813 140.383 82.0805L136.45 82.0782C135.766 82.0779 135.172 82.5422 135.015 83.2L134.558 85.1042C134.556 85.112 134.554 85.1198 134.552 85.1277L132.591 93.3144C132.481 93.7727 132.833 94.2122 133.309 94.2114L137.367 94.2046C139.074 94.2017 140.555 93.041 140.948 91.3989L141.389 89.5541Z" fill="white"/>
<path fill-rule="evenodd" clip-rule="evenodd" d="M30.9456 119C36.0719 119.002 40.5271 115.519 41.7083 110.586L43.272 104.055L54.4466 104.053C61.2781 104.052 67.214 99.4102 68.7895 92.8366L74.4936 69.0359C76.1396 62.1679 70.8721 55.5801 63.7348 55.5801H54.8787L54.8806 55.5723L42.8037 55.5809C41.0963 55.5822 39.6132 56.743 39.2199 58.3862L25.5706 115.412C25.1324 117.243 26.5363 118.999 28.4389 119L30.9456 119ZM50.418 74.2099L45.6282 94.2142H50.5706C52.2759 94.2142 53.7584 93.0574 54.1551 91.4173L59.3973 69.7439C59.8406 67.9109 58.4355 66.1498 56.5297 66.1498H52.373L50.418 74.2099Z" fill="white"/>
<path fill-rule="evenodd" clip-rule="evenodd" d="M95.1354 55.5791C88.3002 55.5791 82.3614 60.2254 80.7886 66.8035L75.098 90.6045C73.4563 97.4709 78.7233 104.055 85.8582 104.055H101.718C106.26 104.055 110.203 100.958 111.231 96.5826C111.516 95.3715 110.586 94.2139 109.328 94.2139L92.0146 94.2146C90.5879 94.2147 89.5345 92.8986 89.8622 91.5255L90.9134 87.1214C90.9919 86.7923 91.2889 86.5599 91.6308 86.5599H104.9C110.025 86.5599 114.479 83.0763 115.659 78.1438L117.84 69.0313C119.483 62.1643 114.216 55.5791 107.08 55.5791H95.1354ZM97.0353 66.1495C96.3521 66.1495 95.7584 66.6137 95.6008 67.2712L93.2017 77.2801C93.0919 77.7379 93.4431 78.1771 93.9189 78.1771H97.9763C99.6847 78.1771 101.169 77.0161 101.563 75.3721L103.127 68.8402C103.455 67.4667 102.402 66.1495 100.975 66.1495H97.0353Z" fill="white"/>
<path fill-rule="evenodd" clip-rule="evenodd" d="M182.371 55.5791C175.536 55.5791 169.597 60.2254 168.024 66.8035L162.334 90.6045C160.692 97.4709 165.959 104.055 173.094 104.055H188.954C193.496 104.055 197.439 100.958 198.467 96.5826C198.751 95.3715 197.822 94.2139 196.564 94.2139L179.25 94.2146C177.824 94.2147 176.77 92.8986 177.098 91.5255L178.149 87.1214C178.228 86.7923 178.525 86.5599 178.867 86.5599H192.135C197.261 86.5599 201.715 83.0763 202.895 78.1438L205.076 69.0313C206.719 62.1643 201.452 55.5791 194.316 55.5791H182.371ZM184.271 66.1495C183.588 66.1495 182.994 66.6137 182.837 67.2712L180.438 77.2801C180.328 77.7379 180.679 78.1771 181.155 78.1771H185.212C186.921 78.1771 188.405 77.0161 188.799 75.3721L190.362 68.8402C190.691 67.4667 189.638 66.1495 188.21 66.1495H184.271Z" fill="white"/>
</svg>
