<svg width="18" height="14" viewBox="0 0 18 14" fill="none" xmlns="http://www.w3.org/2000/svg">
<path d="M17.5026 2.95703V10.8445C17.5026 11.4822 17.259 12.0958 16.8215 12.5597C16.3841 13.0237 15.7858 13.303 15.1493 13.3404L15.0026 13.3445H3.33594C2.69826 13.3446 2.08468 13.1009 1.62072 12.6635C1.15677 12.226 0.877515 11.6278 0.840104 10.9912L0.835938 10.8445V2.95703L8.70677 8.20453L8.80344 8.25953C8.91736 8.31519 9.04248 8.34413 9.16927 8.34413C9.29606 8.34413 9.42118 8.31519 9.5351 8.25953L9.63177 8.20453L17.5026 2.95703Z" fill="white"/>
<path d="M15.0029 0.0107422C15.9029 0.0107422 16.692 0.485742 17.132 1.19991L9.16953 6.50824L1.20703 1.19991C1.41602 0.860595 1.70311 0.576159 2.04434 0.370317C2.38558 0.164474 2.77108 0.0431899 3.1687 0.0165755L3.3362 0.0107422H15.0029Z" fill="white"/>
</svg>
