<svg width="189" height="42" viewBox="0 0 189 42" fill="none" xmlns="http://www.w3.org/2000/svg">
<path d="M161.015 26.1029C161.181 25.4091 160.88 24.6893 160.262 24.3011L153.953 20.3358C153.246 19.8914 152.297 20.2588 152.103 21.0518L149.288 32.5498C149.112 33.2695 149.677 33.9595 150.442 33.9594C155.345 33.9397 159.892 30.6886 161.015 26.1029Z" fill="white"/>
<path d="M144.542 37.2652C144.412 37.7964 143.921 38.1716 143.356 38.1716L142.853 38.1716C138.84 38.1229 135.553 33.8697 136.477 30.0786L138.011 23.8702C138.174 23.211 138.677 22.6797 139.343 22.4647L146.849 20.039C147.755 19.7463 148.641 20.5285 148.422 21.4267L146.422 29.5989C146.313 30.0444 146.047 30.4391 145.668 30.7146L142.593 32.9549C142.492 33.0283 142.432 33.1429 142.431 33.2649L142.428 33.5587C142.427 33.7768 142.609 33.9546 142.835 33.9546H144.839C145.101 33.9546 145.294 34.191 145.234 34.4375L144.542 37.2652Z" fill="white"/>
<path d="M158.393 5.65516e-05L158.021 6.76855e-05C157.456 8.4573e-05 156.966 0.375152 156.835 0.906253L153.657 13.8766C153.533 14.3834 153.677 14.9168 154.041 15.3004L161.01 22.6328C161.231 22.8646 161.629 22.7642 161.705 22.458L165.295 7.8517C166.228 4.00461 162.748 -0.0173892 158.393 5.65516e-05Z" fill="white"/>
<path d="M140.803 12.2838L139.029 19.501C138.95 19.8241 139.293 20.0907 139.6 19.9419C141.499 19.0229 146.472 16.5819 149.53 14.7712C149.89 14.5579 150.141 14.2131 150.238 13.8159L152.324 5.31134C152.466 4.73272 152.012 4.17782 151.397 4.17848C146.482 4.11873 141.935 7.66224 140.803 12.2838Z" fill="white"/>
<path d="M132.677 32.4352L138.374 9.28983C138.556 8.54997 137.975 7.83984 137.188 7.83984H124.374C120.607 7.83984 117.334 10.3425 116.468 13.8853L112.975 28.1735C112.899 28.4859 112.798 28.7923 112.673 29.0898L111.086 32.8728C110.869 33.389 111.262 33.953 111.839 33.9528L114.925 33.9518C117.748 33.9508 120.201 32.0762 120.852 29.4218L124.2 15.7668C124.548 14.3482 125.861 13.3476 127.369 13.3509L128.107 13.3525C128.631 13.3536 129.017 13.8258 128.896 14.3181L124.447 32.5012C124.266 33.2413 124.847 33.9506 125.634 33.9497L130.704 33.9436C131.644 33.9425 132.46 33.3186 132.677 32.4352Z" fill="white"/>
<path d="M176.224 33.9651C175.436 33.9665 174.854 33.2568 175.036 32.5163L176.868 25.0345C176.929 24.7881 176.735 24.5517 176.473 24.5516L173.262 24.5501C172.886 24.5499 172.558 24.8 172.471 25.1543L170.687 32.4405C170.47 33.3258 169.652 33.9511 168.711 33.9511H163.596C162.809 33.9511 162.229 33.2416 162.41 32.502L168.086 9.35992C168.303 8.47477 169.121 7.84979 170.062 7.84997L175.686 7.85104C176.21 7.85114 176.597 8.32419 176.476 8.81725L174.468 16.9957C174.408 17.2421 174.601 17.4786 174.863 17.4788L178.073 17.4815C178.45 17.4818 178.777 17.2312 178.864 16.8764L180.695 9.36237C180.911 8.47602 181.729 7.84966 182.672 7.84965L187.781 7.84961C188.567 7.8496 189.147 8.55864 188.966 9.29812L183.302 32.4446C183.086 33.3287 182.27 33.9538 181.33 33.9555L176.224 33.9651Z" fill="white"/>
<path d="M0.0323306 6.4057C-0.145753 7.1442 0.434362 7.85047 1.21904 7.85047L6.81583 7.85046L0.759916 32.503C0.578213 33.2427 1.15864 33.9525 1.94533 33.9525L7.05446 33.9531C7.99538 33.9532 8.81316 33.3287 9.03057 32.444L15.0748 7.85045L19.3428 7.85045C20.2848 7.85044 21.103 7.22457 21.3194 6.33867L22.5137 1.44799C22.6943 0.708647 22.1139 -4.17157e-06 21.3278 0L3.18897 9.62586e-05C2.24494 0.000101268 1.42539 0.628755 1.21114 1.51724L0.0323306 6.4057Z" fill="white"/>
<path fill-rule="evenodd" clip-rule="evenodd" d="M71.4457 7.84766C70.5045 7.84765 69.6866 8.47259 69.4696 9.3576L66.6635 20.7989H66.6644L63.9136 32.0182C63.6719 33.0043 64.4458 33.9501 65.4945 33.9502L78.1116 33.9508C81.875 33.951 85.1458 31.4532 86.0155 27.9148L86.6504 25.3314C87.1974 23.106 85.6747 20.9618 83.4448 20.5647C86.2522 19.8735 88.5091 17.7255 89.1966 14.9007C90.0733 11.2984 87.2449 7.84769 83.4155 7.84768L71.4457 7.84766ZM76.7349 13.163C76.8216 12.8091 77.1485 12.5591 77.5248 12.5588L79.6946 12.5573C80.4809 12.5568 81.0618 13.2653 80.8816 14.0049L80.6576 14.9236C80.6523 14.9769 80.6432 15.0307 80.6301 15.0846L80.059 17.4274C79.8427 18.3144 79.0232 18.9408 78.0803 18.94L75.8465 18.9379C75.5845 18.9376 75.3913 18.7013 75.4517 18.455L75.6921 17.4734C75.6915 17.4412 75.695 17.4083 75.7031 17.3752L76.7349 13.163ZM77.9084 26.1429C77.9124 26.1281 77.9162 26.1132 77.9198 26.0983L78.5394 23.5673C78.7203 22.828 78.1404 22.1191 77.3543 22.1187L75.1869 22.1175C74.8102 22.1173 74.4828 22.3673 74.396 22.7215L74.1445 23.7469C74.1434 23.7511 74.1423 23.7553 74.1413 23.7595L73.0603 28.1677C72.9998 28.4145 73.1938 28.6512 73.4563 28.6507L75.6923 28.6471C76.6326 28.6455 77.4488 28.0205 77.6652 27.1363L77.9084 26.1429Z" fill="white"/>
<path fill-rule="evenodd" clip-rule="evenodd" d="M17.0511 41.9994C19.8758 42.0002 22.3307 40.1246 22.9815 37.4683L23.8432 33.9518L30.0006 33.9509C33.7649 33.9504 37.0357 31.4508 37.9038 27.9111L41.0469 15.0953C41.9539 11.3972 39.0514 7.84992 35.1186 7.84992H30.2387L30.2397 7.8457L23.5852 7.85037C22.6443 7.85103 21.8271 8.47611 21.6104 9.36088L14.0893 40.0673C13.8479 41.0531 14.6215 41.9986 15.6698 41.9989L17.0511 41.9994ZM27.7808 17.8814L25.1415 28.6529H27.8649C28.8045 28.6529 29.6214 28.03 29.84 27.1469L32.7285 15.4766C32.9728 14.4896 32.1986 13.5413 31.1484 13.5413H28.858L27.7808 17.8814Z" fill="white"/>
<path fill-rule="evenodd" clip-rule="evenodd" d="M52.4201 7.85156C48.6538 7.85156 45.3813 10.3534 44.5147 13.8955L41.3791 26.7114C40.4745 30.4087 43.3767 33.9537 47.3082 33.9537H56.0475C58.5503 33.9537 60.7227 32.2862 61.2891 29.9304C61.4459 29.2782 60.9335 28.6549 60.2407 28.6549L50.7005 28.6553C49.9143 28.6553 49.3339 27.9467 49.5145 27.2073L50.0937 24.8359C50.137 24.6587 50.3006 24.5335 50.489 24.5335H57.8004C60.6247 24.5335 63.0787 22.6577 63.7292 20.0018L64.9308 15.0951C65.8363 11.3975 62.934 7.85156 59.002 7.85156H52.4201ZM53.467 13.5433C53.0905 13.5433 52.7634 13.7933 52.6765 14.1473L51.3546 19.5367C51.2941 19.7832 51.4876 20.0197 51.7498 20.0197H53.9855C54.9269 20.0197 55.7449 19.3946 55.9617 18.5093L56.8234 14.9921C57.0045 14.2526 56.4241 13.5433 55.6376 13.5433H53.467Z" fill="white"/>
<path fill-rule="evenodd" clip-rule="evenodd" d="M100.49 7.85156C96.7241 7.85156 93.4517 10.3534 92.585 13.8955L89.4494 26.7114C88.5448 30.4087 91.447 33.9537 95.3785 33.9537H104.118C106.621 33.9537 108.793 32.2862 109.359 29.9304C109.516 29.2782 109.004 28.6549 108.311 28.6549L98.7708 28.6553C97.9847 28.6553 97.4042 27.9467 97.5848 27.2073L98.164 24.8359C98.2073 24.6587 98.3709 24.5335 98.5593 24.5335H105.871C108.695 24.5335 111.149 22.6577 111.799 20.0018L113.001 15.0951C113.907 11.3975 111.004 7.85156 107.072 7.85156H100.49ZM101.537 13.5433C101.161 13.5433 100.834 13.7933 100.747 14.1473L99.4249 19.5367C99.3644 19.7832 99.5579 20.0197 99.8201 20.0197H102.056C102.997 20.0197 103.815 19.3946 104.032 18.5093L104.894 14.9921C105.075 14.2526 104.494 13.5433 103.708 13.5433H101.537Z" fill="white"/>
</svg>
