<svg width="66" height="668" viewBox="0 0 66 668" fill="none" xmlns="http://www.w3.org/2000/svg">
<g opacity="0.3">
<path d="M55.3199 439.347L55.8983 439.439L55.8983 438.854L55.8983 432.233L55.8983 432.019L55.7427 431.871L31.0484 408.416L55.3208 412.228L55.8983 412.318L55.8983 411.734L55.8983 403.371L55.8983 402.945L55.4768 402.878L14.5358 396.373L13.9574 396.282L13.9574 396.867L13.9574 403.546L13.9574 403.76L14.1127 403.908L38.6823 427.293L14.5351 423.493L13.9574 423.402L13.9574 423.987L13.9574 432.349L13.9574 432.776L14.379 432.843L55.3199 439.347ZM10.6698 420.369L10.6699 420.369L10.6741 420.359C11.4073 418.73 11.7634 416.778 11.7634 414.521C11.7634 412.453 11.4252 410.551 10.7412 408.821L10.7413 408.82L10.7374 408.811C10.0152 407.086 9.00821 405.613 7.71493 404.401C6.38209 403.149 4.80852 402.222 3.00106 401.619L2.52672 401.461L2.36861 401.936L1.03295 405.943L0.897094 406.35L1.27955 406.546C2.88532 407.367 4.09394 408.382 4.92896 409.579C5.70729 410.712 6.11765 412.211 6.11765 414.115C6.11765 416.027 5.72316 417.459 4.99316 418.467C4.26252 419.476 3.05274 420.279 1.2972 420.839L0.82232 420.991L0.972427 421.466L2.36616 425.88L2.50309 426.313L2.94772 426.218C4.63428 425.857 6.14851 425.212 7.48427 424.281L7.48432 424.281L7.49246 424.275C8.84327 423.293 9.90148 421.986 10.6698 420.369Z" stroke="white"/>
<path d="M55.1354 489.448L55.8988 489.922L55.8988 489.023L55.8988 479.558L55.8988 479.272L55.6522 479.127L47.0138 474.048L47.0138 455.466L55.5268 453.212L55.8988 453.113L55.8988 452.728L55.8988 444.134L55.8988 443.462L55.2555 443.655L14.3145 455.908L13.9579 456.015L13.9579 456.387L13.9579 463.646L13.9579 463.924L14.1945 464.071L55.1354 489.448ZM25.196 461.246L38.987 457.624L38.987 469.314L25.196 461.246Z" stroke="white"/>
<path d="M55.3204 526.197L55.8988 526.289L55.8988 525.703L55.8988 516.702L55.8988 516.276L55.4782 516.208L39.2902 513.605L39.2902 509.443C39.2902 507.689 39.6639 506.374 40.3534 505.443L40.3595 505.435L40.3653 505.426C41.015 504.469 42.1763 503.687 43.9364 503.125L43.9364 503.125L43.9474 503.121L55.5619 499.114L55.8988 498.998L55.8988 498.641L55.8988 489.408L55.8988 488.695L55.2285 488.938L40.481 494.28C40.4806 494.28 40.4801 494.28 40.4797 494.28C38.7088 494.91 37.1972 495.663 35.953 496.544C34.8732 497.254 33.9715 498.108 33.2525 499.106L14.7665 484.601L13.9579 483.967L13.9579 484.994L13.9579 494.925L13.9579 495.17L14.1514 495.32L30.8569 508.283L30.8569 512.284L14.536 509.704L13.9579 509.613L13.9579 510.198L13.9579 519.199L13.9579 519.626L14.3794 519.693L55.3204 526.197Z" stroke="white"/>
<path d="M55.3204 571.664L55.8988 571.756L55.8988 571.17L55.8988 564.55L55.8988 564.335L55.7432 564.187L31.0489 540.733L55.3213 544.544L55.8988 544.635L55.8988 544.05L55.8988 535.688L55.8988 535.261L55.4773 535.194L14.5363 528.69L13.9579 528.598L13.9579 529.184L13.9579 535.862L13.9579 536.076L14.1132 536.224L38.6828 559.609L14.5356 555.81L13.9579 555.719L13.9579 556.303L13.9579 564.666L13.9579 565.093L14.3794 565.16L55.3204 571.664Z" stroke="white"/>
<path d="M55.3204 624.16L55.8988 624.252L55.8988 623.666L55.8988 615.536L55.8988 615.11L55.4779 615.042L32.3049 611.329L49.4324 604.326L49.7432 604.199L49.7432 603.863L49.7432 598.869L49.7432 598.611L49.5322 598.461L32.3772 586.308L55.3215 589.897L55.8988 589.988L55.8988 589.403L55.8988 581.273L55.8988 580.846L55.4773 580.779L14.5363 574.275L13.9579 574.183L13.9579 574.769L13.9579 582.493L13.9579 582.753L14.1704 582.902L38.7439 600.167L14.2788 609.552L13.9579 609.675L13.9579 610.019L13.9579 617.162L13.9579 617.589L14.3794 617.656L55.3204 624.16Z" stroke="white"/>
<path d="M55.3204 666.396L55.8988 666.488L55.8988 665.902L55.8988 645.693C55.8988 642.547 55.4271 639.79 54.4682 637.433C53.5064 635.068 52.0727 633.241 50.1587 631.978C48.2046 630.676 45.8586 630.036 43.1456 630.036C41.4892 630.036 39.9788 630.38 38.6246 631.076C37.2703 631.734 36.161 632.701 35.3014 633.968C35.0049 634.386 34.7406 634.832 34.5079 635.305C33.8529 633.66 32.9215 632.24 31.7087 631.052C29.7466 629.091 27.2341 628.12 24.214 628.12C22.2721 628.12 20.5164 628.586 18.9609 629.528C17.3833 630.483 16.1613 631.986 15.2778 633.994C14.388 636.016 13.9579 638.628 13.9579 641.802L13.9579 659.398L13.9579 659.825L14.3794 659.892L55.3204 666.396ZM47.2465 642.002L47.2504 642.008L47.2546 642.015C47.5683 642.503 47.8192 643.087 48.0015 643.776C48.1459 644.467 48.2205 645.279 48.2205 646.216L48.2205 655.62L38.4771 654.092L38.4771 645.229C38.4771 644.293 38.5709 643.485 38.751 642.801L38.7511 642.801L38.7526 642.795C38.9336 642.071 39.1989 641.499 39.5349 641.062L39.5403 641.055L39.5455 641.048C39.8808 640.578 40.29 640.254 40.7761 640.06L40.7891 640.055L40.8018 640.049C41.304 639.814 41.9067 639.689 42.6229 639.689C43.3539 639.689 44.0207 639.78 44.6265 639.958C45.1893 640.134 45.6964 640.397 46.1508 640.747L46.1508 640.747L46.1557 640.751C46.5607 641.054 46.9259 641.467 47.2465 642.002ZM29.3962 639.499L29.3962 639.499L29.4009 639.504C30.3085 640.621 30.7988 642.273 30.7988 644.532L30.7988 652.834L21.6362 651.42L21.6362 643.254C21.6362 641.243 22.0001 639.866 22.6376 639.027C23.2669 638.199 24.1562 637.773 25.3755 637.773C27.1906 637.773 28.5029 638.365 29.3962 639.499Z" stroke="white"/>
</g>
<g opacity="0.3">
<path d="M41.4335 14.8154L41.9639 14.8477L41.9639 14.3163L41.9639 8.97368L41.9639 8.58567L41.5881 8.48934L13.9457 1.40453L13.3215 1.24456L13.3215 1.88887L13.3215 12.6322L13.3215 13.1027L13.7911 13.1313L41.4335 14.8154ZM54.6823 18.933L55.2625 19.0273L55.2625 18.4395L55.2625 8.97368L55.2625 8.54574L54.8397 8.47968L45.5481 7.02785L44.9709 6.93767L44.9709 7.52186L44.9709 16.9296L44.9709 17.3549L45.3907 17.4231L54.6823 18.933Z" stroke="white"/>
<path d="M54.684 36.6383L55.2625 36.7302L55.2625 36.1445L55.2625 27.1433L55.2625 26.7165L54.8409 26.6495L13.9 20.1454L13.3215 20.0535L13.3215 20.6392L13.3215 29.6404L13.3215 30.0673L13.7431 30.1342L54.684 36.6383Z" stroke="white"/>
<path d="M54.496 102.945L55.2625 103.427L55.2625 102.521L55.2625 92.7073L55.2625 92.4313L55.029 92.2842L43.4145 84.9671L43.4146 84.9671L43.408 84.9631C41.6714 83.906 40.4643 82.7776 39.7445 81.5914C39.0254 80.3675 38.6538 78.8729 38.6538 77.0858L38.6538 74.4767L54.6848 76.999L55.2625 77.0899L55.2625 76.5051L55.2625 67.9104L55.2625 67.4844L54.8419 67.4168L38.6538 64.8131L38.6538 61.987C38.6538 60.233 39.0275 58.9182 39.717 57.9873L39.7171 57.9874L39.7242 57.9774C40.3751 57.0524 41.5419 56.2675 43.3092 55.6659L43.3111 55.6653L54.9255 51.6583L55.2625 51.542L55.2625 51.1856L55.2625 41.9521L55.2625 41.2392L54.5922 41.482L39.8446 46.8237C39.8442 46.8238 39.8438 46.8239 39.8434 46.8241C38.0725 47.4538 36.5608 48.2069 35.3166 49.0885C34.1762 49.8382 33.2345 50.7488 32.4968 51.8199L14.1351 37.0331L13.3215 36.3779L13.3215 37.4225L13.3215 47.527L13.3215 47.7726L13.5158 47.9227L30.2206 60.8309L30.2206 63.4924L13.8996 60.9125L13.3215 60.8211L13.3215 61.4063L13.3215 70.0591L13.3215 70.4863L13.7435 70.5529L30.2206 73.1576L30.2206 75.9392L13.6134 83.5418L13.3215 83.6754L13.3215 83.9964L13.3215 93.4041L13.3215 94.2036L14.0404 93.8537L31.8679 85.1766C31.9519 85.3616 32.039 85.5445 32.1293 85.7251C32.851 87.2472 33.85 88.6636 35.1208 89.9747C36.3559 91.2889 37.9007 92.5144 39.7476 93.6542C39.7483 93.6546 39.7489 93.655 39.7496 93.6554L54.496 102.945Z" stroke="white"/>
<path d="M53.6962 135.73L53.6975 135.727C55.1714 132.819 55.9002 129.448 55.9002 125.629C55.9002 122.203 55.3093 119.114 54.1165 116.37L54.1166 116.37L54.1141 116.365C52.886 113.631 51.1799 111.289 48.9968 109.344C46.7756 107.361 44.1611 105.857 41.1601 104.83C38.1592 103.804 34.8711 103.294 31.3002 103.294C27.4389 103.294 24.0981 104.082 21.2983 105.681C18.5009 107.24 16.361 109.482 14.885 112.393C13.4097 115.265 12.6816 118.637 12.6816 122.493C12.6816 125.882 13.2926 128.953 14.5245 131.696C15.7147 134.433 17.4218 136.794 19.6431 138.778L19.6435 138.778C21.8254 140.722 24.4188 142.225 27.4162 143.289L27.4162 143.289L27.4217 143.291C30.422 144.318 33.6907 144.828 37.2236 144.828C41.1236 144.828 44.4848 144.04 47.2858 142.439C50.0803 140.843 52.2197 138.603 53.6962 135.73ZM45.244 119.134L45.2471 119.138C46.5653 120.859 47.2346 122.955 47.2346 125.455C47.2346 128.29 46.3997 130.472 44.7758 132.062C43.1225 133.605 40.5973 134.42 37.1074 134.42C33.9435 134.42 31.1821 133.944 28.8133 133.004C26.4467 132.065 24.6302 130.723 23.3388 128.989L23.3388 128.989L23.3347 128.983C22.0165 127.262 21.3472 125.166 21.3472 122.667C21.3472 119.829 22.1835 117.646 23.81 116.056C25.4223 114.48 27.9427 113.643 31.4744 113.643C34.5585 113.643 37.3017 114.119 39.7118 115.06C42.0759 115.999 43.9128 117.359 45.244 119.134Z" stroke="white"/>
<path d="M54.684 186.535L55.2625 186.627L55.2625 186.041L55.2625 177.04L55.2625 176.612L54.8403 176.546L40.5121 174.29L40.5121 165.193C40.5121 161.544 39.9436 158.448 38.7822 155.925L38.7808 155.922C37.5805 153.361 35.8495 151.421 33.585 150.127C31.3246 148.795 28.6007 148.142 25.436 148.142C22.8874 148.142 20.7004 148.7 18.9013 149.843C17.0593 150.95 15.6802 152.624 14.7555 154.834C13.7917 157.044 13.3215 159.768 13.3215 162.986L13.3215 179.537L13.3215 179.964L13.7431 180.031L54.684 186.535ZM32.5434 164.845L32.5434 172.971L21.3483 171.212L21.3483 164.09C21.3483 161.852 21.7682 160.278 22.5242 159.282C23.2529 158.321 24.4349 157.795 26.1909 157.795C28.2959 157.795 29.8517 158.401 30.9341 159.551C31.9799 160.703 32.5434 162.44 32.5434 164.845Z" stroke="white"/>
<path d="M53.6962 223.429L53.6975 223.426C55.1714 220.518 55.9002 217.147 55.9002 213.328C55.9002 209.902 55.3093 206.813 54.1165 204.069L54.1166 204.069L54.1141 204.064C52.886 201.33 51.1799 198.988 48.9968 197.043C46.7756 195.06 44.1611 193.556 41.1601 192.53C38.1592 191.503 34.8711 190.993 31.3002 190.993C27.4389 190.993 24.0981 191.781 21.2983 193.38C18.5009 194.94 16.361 197.181 14.885 200.093C13.4097 202.964 12.6816 206.336 12.6816 210.192C12.6816 213.581 13.2926 216.652 14.5245 219.396C15.7147 222.132 17.4218 224.494 19.6431 226.477L19.6435 226.477C21.8254 228.421 24.4188 229.924 27.4162 230.989L27.4162 230.989L27.4217 230.991C30.422 232.017 33.6907 232.527 37.2236 232.527C41.1236 232.527 44.4848 231.739 47.2858 230.139C50.0803 228.542 52.2197 226.302 53.6962 223.429ZM45.244 206.834L45.2471 206.838C46.5653 208.559 47.2346 210.655 47.2346 213.154C47.2346 215.989 46.3997 218.171 44.7758 219.761C43.1225 221.304 40.5973 222.12 37.1074 222.12C33.9435 222.12 31.1821 221.643 28.8133 220.703C26.4467 219.764 24.6302 218.422 23.3388 216.688L23.3388 216.688L23.3347 216.683C22.0165 214.962 21.3472 212.866 21.3472 210.366C21.3472 207.529 22.1835 205.346 23.81 203.755C25.4223 202.179 27.9427 201.343 31.4744 201.343C34.5585 201.343 37.3017 201.818 39.7119 202.76C42.0759 203.698 43.9128 205.059 45.244 206.834Z" stroke="white"/>
<path d="M64.5553 288.302L65.1348 288.396L65.1348 287.809L65.1348 279.853L65.1348 279.426L64.7132 279.359L55.2625 277.858L55.2625 249.602L64.5563 251.078L65.1348 251.17L65.1348 250.584L65.1348 242.686L65.1348 242.261L64.7145 242.193L47.8155 239.463L47.2357 239.37L47.2357 239.957L47.2357 245.179L13.8993 239.928L13.3215 239.837L13.3215 240.422L13.3215 270.445L13.3215 270.871L13.7418 270.939L24.8917 272.739L24.8917 272.739L24.895 272.739C28.6338 273.318 31.9411 274.029 34.8191 274.874L34.8191 274.874L34.8233 274.875C37.6639 275.681 40.1088 276.618 42.1629 277.683C44.1437 278.71 45.8132 279.873 47.1777 281.169L47.1777 285.079L47.1777 285.505L47.5982 285.573L64.5553 288.302ZM42.5381 267.781L42.535 267.78C40.3736 266.837 37.8868 266.035 35.0779 265.371C32.2738 264.671 29.1048 264.049 25.5721 263.505C25.5714 263.505 25.5708 263.505 25.5701 263.505L21.3483 262.819L21.3483 251.112L47.2357 255.25L47.2357 270.508C45.8678 269.473 44.3009 268.565 42.5381 267.781Z" stroke="white"/>
<path d="M53.6962 319.07L53.6975 319.067C55.1714 316.159 55.9002 312.788 55.9002 308.969C55.9002 305.543 55.3093 302.453 54.1165 299.71L54.1166 299.71L54.1141 299.705C52.886 296.971 51.1799 294.629 48.9968 292.684C46.7756 290.701 44.1611 289.197 41.1601 288.17C38.1592 287.144 34.8711 286.634 31.3002 286.634C27.4389 286.634 24.0981 287.422 21.2983 289.021C18.5009 290.58 16.361 292.822 14.885 295.733C13.4097 298.605 12.6816 301.976 12.6816 305.833C12.6816 309.222 13.2926 312.293 14.5246 315.036C15.7147 317.772 17.4218 320.134 19.6431 322.118L19.6435 322.118C21.8254 324.062 24.4188 325.564 27.4162 326.629L27.4162 326.629L27.4217 326.631C30.422 327.658 33.6907 328.168 37.2236 328.168C41.1236 328.168 44.4848 327.38 47.2858 325.779C50.0803 324.182 52.2197 321.943 53.6962 319.07ZM45.244 302.474L45.2471 302.478C46.5653 304.199 47.2346 306.295 47.2346 308.794C47.2346 311.63 46.3997 313.812 44.7758 315.402C43.1225 316.945 40.5973 317.76 37.1074 317.76C33.9435 317.76 31.1821 317.284 28.8133 316.344C26.4467 315.405 24.6302 314.063 23.3388 312.329L23.3388 312.329L23.3347 312.323C22.0165 310.602 21.3472 308.506 21.3472 306.007C21.3472 303.169 22.1835 300.986 23.81 299.396C25.4223 297.819 27.9427 296.983 31.4744 296.983C34.5585 296.983 37.3017 297.459 39.7118 298.4C42.0759 299.339 43.9128 300.699 45.244 302.474Z" stroke="white"/>
<path d="M54.684 376.793L55.2625 376.885L55.2625 376.299L55.2625 367.298L55.2625 366.871L54.8412 366.804L21.7548 361.528L21.7548 343.9L54.6837 349.15L55.2625 349.242L55.2625 348.656L55.2625 339.655L55.2625 339.228L54.8409 339.161L13.9 332.657L13.3215 332.565L13.3215 333.151L13.3215 369.795L13.3215 370.222L13.7431 370.289L54.684 376.793Z" stroke="white"/>
</g>
</svg>
