<svg width="41" height="40" viewBox="0 0 41 40" fill="none" xmlns="http://www.w3.org/2000/svg">
<path d="M4.59829 15.8257C4.9673 14.3424 6.59968 8.59547 12.4021 4.98809C18.0854 1.45433 23.8223 2.42684 25.3211 2.73404C26.309 2.93672 30.9289 3.97013 34.859 8.11012C39.1872 12.6691 39.8425 18.0079 39.9743 19.902C40.1024 21.7471 40.4133 27.4722 36.4196 32.4738C30.6545 39.6949 21.2056 38.7906 20.553 38.717C13.5991 37.9335 9.49087 33.3136 8.50108 32.1275C7.87758 31.3804 2.41695 24.6055 4.5992 15.8275L4.59829 15.8257Z" fill="#FFE457"/>
<path d="M4.53408 15.8095C4.67678 15.2314 4.85129 14.6606 5.05124 14.0999C5.24575 13.5363 5.47479 12.9865 5.71928 12.442C6.21099 11.3559 6.79905 10.3116 7.4789 9.32455C8.15784 8.33659 8.93586 7.41317 9.80112 6.56972C10.2365 6.15072 10.6946 5.75444 11.169 5.37635C11.4108 5.19457 11.6498 5.00551 11.9007 4.83555C12.147 4.65741 12.4024 4.4929 12.6587 4.3293C13.1768 4.01119 13.7085 3.71126 14.2583 3.44496C14.8073 3.17774 15.3736 2.94325 15.9498 2.73693C16.5269 2.53243 17.1168 2.36428 17.713 2.22158C18.3102 2.08434 18.9137 1.97346 19.5227 1.89803C20.7397 1.74715 21.9703 1.72533 23.1919 1.82258C23.8026 1.87439 24.4107 1.95165 25.0151 2.06799C25.6177 2.18069 26.2203 2.3352 26.8029 2.52061C29.136 3.26772 31.2928 4.48745 33.147 6.04347C33.3769 6.23979 33.6123 6.43065 33.8277 6.64333L34.1577 6.95417L34.3231 7.10868C34.3776 7.1614 34.4285 7.21684 34.4803 7.27138C34.6885 7.49042 34.8993 7.70673 35.1038 7.92759L35.6882 8.61743C36.4472 9.55268 37.1279 10.5488 37.7114 11.5977C38.8775 13.6981 39.651 16.0013 40.04 18.3698C40.1355 18.9615 40.2045 19.5614 40.2482 20.1576C40.2963 20.7547 40.3245 21.3555 40.3263 21.9572C40.3236 23.1597 40.2354 24.3685 40.0182 25.56C39.8064 26.7525 39.472 27.9286 39.013 29.0593C38.783 29.6246 38.5267 30.1808 38.2313 30.7171C37.935 31.2524 37.6133 31.7759 37.2597 32.2776C35.8446 34.2817 33.9477 35.9614 31.7818 37.1375C29.6168 38.3217 27.2219 39.0325 24.7933 39.3415C23.5772 39.5006 22.3529 39.5533 21.1159 39.4933C20.9605 39.4851 20.806 39.4751 20.647 39.4615C20.4824 39.4479 20.3298 39.4242 20.178 39.4051C20.0253 39.3833 19.8717 39.3679 19.719 39.3415L19.2618 39.2643C19.1091 39.2406 18.9591 39.2043 18.8074 39.1743C18.6565 39.1425 18.5047 39.1134 18.3547 39.0752L17.9048 38.9652L17.4595 38.8389C15.0854 38.1463 12.8732 36.9548 10.9681 35.4133C10.0156 34.6407 9.13672 33.7818 8.35417 32.8375C8.256 32.7193 8.16057 32.6003 8.06605 32.4794C7.96879 32.3558 7.877 32.2322 7.78611 32.1077C7.60433 31.8595 7.43618 31.6041 7.27076 31.3487C6.94265 30.8352 6.63817 30.3099 6.35642 29.7727C5.23575 27.6241 4.47501 25.2983 4.15598 22.9206C3.82787 20.5448 3.96239 18.1217 4.53772 15.8104L4.53408 15.8095ZM4.66678 15.8422C4.10054 18.138 4.05146 20.5548 4.515 22.8588L4.60316 23.2905L4.70859 23.7177C4.74313 23.8604 4.77858 24.0022 4.82129 24.1431L4.94218 24.5657C5.12123 25.1238 5.3121 25.6773 5.5375 26.2172C5.98104 27.2987 6.52274 28.3367 7.13897 29.3219C7.44618 29.8155 7.77338 30.2944 8.11876 30.7571C8.29236 30.9879 8.4705 31.2142 8.65228 31.4351C8.74317 31.5442 8.83497 31.6541 8.92859 31.7577C9.02402 31.8641 9.12036 31.9713 9.21852 32.075C9.61026 32.494 10.022 32.8966 10.451 33.2783C10.8773 33.6637 11.3235 34.0263 11.7798 34.3726C12.695 35.0634 13.6648 35.6796 14.6828 36.1959C15.1927 36.4522 15.7135 36.6839 16.2425 36.8948C16.7714 37.1066 17.3131 37.282 17.8594 37.4392C18.4056 37.5974 18.9619 37.7192 19.5199 37.8237L19.9407 37.8937C20.0807 37.9182 20.2225 37.9318 20.3634 37.9518C20.5052 37.97 20.646 37.9909 20.7769 38.0009C20.9133 38.0136 21.0541 38.0236 21.195 38.0318C21.7603 38.0636 22.3339 38.0691 22.9065 38.0491C23.4791 38.0291 24.0526 37.9918 24.6225 37.9264C25.7631 37.8 26.8929 37.5819 27.9917 37.2611L28.198 37.202L28.4025 37.1366L28.8115 37.0057L29.2151 36.8602L29.4169 36.7875L29.6159 36.7076L30.0131 36.5467C30.1449 36.4912 30.2731 36.4303 30.4039 36.3722C30.6666 36.2595 30.9184 36.1259 31.1738 35.9986C32.1899 35.4787 33.137 34.8334 34.0122 34.1027C34.1204 34.01 34.2322 33.9209 34.3385 33.8264L34.6512 33.5346C34.8648 33.3447 35.0593 33.1356 35.2583 32.9302C35.4628 32.7303 35.6401 32.5049 35.8318 32.2922L35.9736 32.1313L36.1081 31.9641C36.1972 31.8523 36.289 31.7423 36.3754 31.6278C36.7244 31.1733 37.0452 30.6971 37.3433 30.2063C37.6451 29.7173 37.9132 29.2074 38.1577 28.6857C38.6467 27.6414 39.023 26.5398 39.2856 25.4073C39.5474 24.2749 39.7028 23.1133 39.7464 21.9436C39.7901 20.7756 39.7392 19.595 39.581 18.4353C39.262 16.113 38.5067 13.8399 37.3279 11.8113C36.7371 10.7979 36.0409 9.8499 35.2629 8.97827L34.663 8.34023C34.454 8.13664 34.2395 7.9385 34.0286 7.73764C33.975 7.68765 33.9241 7.63675 33.8686 7.58858L33.7014 7.4477L33.3669 7.16685C33.1479 6.97508 32.9107 6.80602 32.6789 6.63061C31.7455 5.93803 30.7484 5.33634 29.7068 4.83282C29.1869 4.57833 28.6552 4.35293 28.1181 4.14389C27.5773 3.94211 27.0292 3.76488 26.4775 3.60855C25.9231 3.45495 25.3705 3.33225 24.8042 3.23864C24.2398 3.14593 23.6699 3.07957 23.0973 3.03776C21.953 2.95869 20.8006 2.97414 19.6599 3.09594C19.09 3.15683 18.522 3.24136 17.9594 3.35588C17.3967 3.46585 16.8387 3.60582 16.2879 3.76942C15.738 3.93484 15.1963 4.13025 14.661 4.34384C14.1266 4.56015 13.6058 4.81011 13.0931 5.07914C11.0463 6.15799 9.20216 7.67037 7.75611 9.52723C7.03082 10.4525 6.40368 11.4586 5.8847 12.5193C5.62476 13.0492 5.39299 13.5936 5.18758 14.1471C4.98399 14.7015 4.81039 15.2678 4.66587 15.8404L4.66678 15.8422Z" fill="#272727"/>
<path d="M8.44523 18.9195C9.13508 18.7514 9.7804 18.6523 10.4193 18.5342C10.4993 18.5187 10.5784 18.5042 10.6584 18.4924C10.7384 18.4806 10.8165 18.4606 10.8956 18.4478L11.1328 18.4069C11.211 18.3906 11.2901 18.377 11.3691 18.3615C11.4482 18.3479 11.5264 18.3315 11.6055 18.3188C11.6836 18.3024 11.7618 18.2879 11.8409 18.2761C11.9199 18.2633 11.999 18.2524 12.079 18.2452C12.1581 18.2333 12.238 18.2224 12.318 18.2134C12.9561 18.1434 13.6459 18.1361 14.2676 17.9016C14.8866 17.6698 15.4455 17.2917 15.9145 16.8237C16.379 16.3501 16.818 15.8811 17.2424 15.4058L17.3987 15.2258L17.4769 15.1359L17.5496 15.0413C17.6478 14.9159 17.7432 14.7896 17.8441 14.6678C17.895 14.6078 17.9368 14.5387 17.985 14.4769L18.1277 14.2879C18.2258 14.1642 18.3176 14.0352 18.4122 13.9079C18.5067 13.7807 18.6076 13.658 18.6985 13.5271C18.7903 13.3971 18.8921 13.2735 18.9829 13.1417C19.072 13.009 19.1711 12.8818 19.262 12.7491L19.5383 12.3492C19.9055 11.8093 20.2572 11.2522 20.6462 10.6687C20.6662 10.6378 20.708 10.6296 20.7389 10.6496C20.7571 10.6614 20.768 10.6823 20.7689 10.7023C20.7835 11.0577 20.7544 11.4112 20.6953 11.7575C20.6699 11.9329 20.628 12.1029 20.589 12.2756C20.5472 12.4464 20.4953 12.6155 20.4444 12.7845C20.3908 12.9527 20.3254 13.1163 20.2645 13.2826C20.1972 13.4462 20.1245 13.6071 20.0491 13.768C19.9764 13.9298 19.8873 14.0834 19.8028 14.2397C19.7201 14.3969 19.621 14.5451 19.5228 14.6923C19.4738 14.7668 19.4229 14.8396 19.3729 14.9123C19.322 14.985 19.2647 15.0531 19.2084 15.1222C19.0938 15.2586 18.9848 15.3985 18.8621 15.5276C18.7385 15.6557 18.6112 15.7803 18.4858 15.9057L18.3903 15.9993L18.2895 16.0865L18.0877 16.261C17.8259 16.5001 17.5369 16.7082 17.2442 16.9055C17.097 17.0027 16.9361 17.0818 16.7807 17.1654C16.6244 17.2472 16.4717 17.3326 16.3063 17.399C15.9827 17.5399 15.6709 17.6871 15.3556 17.8253C15.2774 17.8616 15.2001 17.898 15.1238 17.937C15.0865 17.957 15.0465 17.9734 15.0074 17.9907L14.8911 18.0452C14.7348 18.1143 14.5857 18.1979 14.433 18.2761C14.2803 18.3524 14.1285 18.4351 13.9795 18.5251C13.8277 18.6096 13.675 18.6941 13.5232 18.785L13.4087 18.8523L13.2915 18.9132L13.0551 19.035C12.9761 19.075 12.8961 19.1159 12.8143 19.1495C12.7325 19.1813 12.6507 19.2168 12.5671 19.2458C12.4016 19.3104 12.2317 19.3585 12.0599 19.3967C11.9736 19.4167 11.8872 19.434 11.8009 19.4494C11.7136 19.4622 11.6255 19.4713 11.5382 19.4822C11.4509 19.4912 11.3637 19.5049 11.2755 19.5103L11.0119 19.524C10.8365 19.5321 10.6602 19.5321 10.4839 19.524C10.3085 19.5221 10.1321 19.4985 9.95763 19.4822C9.78312 19.4576 9.60953 19.4313 9.43684 19.3913C9.09327 19.3149 8.75426 19.2095 8.43251 19.0468C8.39888 19.0304 8.38525 18.9895 8.40251 18.9559C8.4116 18.9377 8.42887 18.925 8.44705 18.9205L8.44523 18.9195Z" fill="#272727"/>
<path d="M35.6953 19.0458C35.3736 19.2085 35.0346 19.3139 34.691 19.3902C34.5192 19.4293 34.3456 19.4557 34.1702 19.4811C33.9957 19.4984 33.8203 19.5211 33.644 19.5229C33.4676 19.5311 33.2922 19.5311 33.1159 19.5229L32.8523 19.5093C32.7642 19.5039 32.6769 19.4902 32.5897 19.4811C32.5024 19.4702 32.4142 19.4611 32.327 19.4484C32.2397 19.433 32.1534 19.4148 32.0679 19.3957C31.8962 19.3575 31.7262 19.3094 31.5608 19.2448C31.4772 19.2157 31.3954 19.1803 31.3136 19.1485C31.2318 19.1148 31.1518 19.0739 31.0727 19.034L30.8364 18.9122L30.7191 18.8513L30.6046 18.784C30.4528 18.6931 30.2992 18.6095 30.1484 18.5241C29.9984 18.435 29.8475 18.3523 29.6948 18.275C29.5421 18.1978 29.3931 18.1142 29.2367 18.0442L29.1204 17.9896C29.0813 17.9724 29.0413 17.956 29.0041 17.936C28.9277 17.8969 28.8505 17.8606 28.7723 17.8242C28.4569 17.6861 28.1452 17.5388 27.8216 17.398C27.6571 17.3325 27.5035 17.2471 27.3472 17.1644C27.1917 17.0808 27.0309 17.0017 26.8836 16.9044C26.591 16.7072 26.3019 16.4991 26.0402 16.26L25.8384 16.0855L25.7375 15.9983L25.6421 15.9047C25.5166 15.7792 25.3885 15.6547 25.2658 15.5266C25.1431 15.3975 25.0331 15.2575 24.9195 15.1212C24.8631 15.0521 24.8059 14.9839 24.755 14.9112C24.705 14.8376 24.6532 14.7649 24.605 14.6913C24.5059 14.5431 24.4078 14.3959 24.3251 14.2387C24.2406 14.0823 24.1515 13.9287 24.0788 13.7669C24.0042 13.6061 23.9306 13.4452 23.8634 13.2816C23.8025 13.1153 23.737 12.9517 23.6834 12.7835C23.6316 12.6145 23.5807 12.4454 23.5389 12.2745C23.4998 12.1019 23.458 11.9319 23.4325 11.7565C23.3735 11.4093 23.3444 11.0557 23.3589 10.7013C23.3607 10.664 23.3916 10.6358 23.4289 10.6367C23.4507 10.6367 23.4707 10.6495 23.4816 10.6667C23.8715 11.2493 24.2233 11.8074 24.5896 12.3473L24.8659 12.7472C24.9577 12.8799 25.0558 13.008 25.1449 13.1398C25.2358 13.2716 25.3376 13.3952 25.4294 13.5252C25.5203 13.6561 25.6212 13.7788 25.7157 13.906C25.8102 14.0333 25.902 14.1623 26.0002 14.2859L26.1429 14.475C26.1919 14.5368 26.2328 14.6059 26.2837 14.6658C26.3837 14.7876 26.4801 14.914 26.5782 15.0394L26.6509 15.1339L26.7291 15.2239L26.8854 15.4039C27.3099 15.8783 27.7489 16.3482 28.2133 16.8217C28.6823 17.2898 29.2404 17.6679 29.8602 17.8997C30.4819 18.1342 31.1718 18.1414 31.8098 18.2114C31.8898 18.2196 31.9698 18.2314 32.0489 18.2432C32.1288 18.2514 32.2079 18.2614 32.287 18.2741C32.3661 18.2868 32.4442 18.3014 32.5224 18.3169C32.6015 18.3287 32.6796 18.345 32.7587 18.3596C32.8369 18.3741 32.9159 18.3877 32.995 18.405L33.2322 18.4459C33.3113 18.4586 33.3904 18.4786 33.4695 18.4904C33.5494 18.5023 33.6285 18.5168 33.7085 18.5323C34.3475 18.6504 34.9928 18.7495 35.6826 18.9176C35.719 18.9267 35.7417 18.9631 35.7326 18.9994C35.7281 19.0194 35.7144 19.0358 35.6972 19.044L35.6953 19.0458Z" fill="#272727"/>
<path d="M22.0629 33.4242C25.0225 33.4242 27.4218 30.4541 27.4218 26.7902C27.4218 23.1264 25.0225 20.1562 22.0629 20.1562C19.1033 20.1562 16.7041 23.1264 16.7041 26.7902C16.7041 30.4541 19.1033 33.4242 22.0629 33.4242Z" fill="#272727"/>
<path d="M27.4985 26.7908C27.4912 27.5851 27.4231 28.3786 27.2658 29.1748L27.2022 29.4729L27.1286 29.771L27.0459 30.0682L26.9504 30.3636C26.8141 30.7553 26.646 31.1425 26.4369 31.5143C26.0188 32.2541 25.4189 32.9294 24.65 33.3948C24.2683 33.6274 23.8475 33.8065 23.4094 33.921C22.9704 34.0355 22.5132 34.0828 22.0633 34.0582C21.6134 34.0337 21.169 33.9392 20.7545 33.7838C20.34 33.6293 19.9529 33.4211 19.602 33.1739C18.9004 32.6776 18.3414 32.0478 17.8824 31.3734C17.4234 30.6972 17.0626 29.9637 16.7999 29.1939C16.5391 28.424 16.3591 27.6179 16.2882 26.7917C16.2546 26.3791 16.2473 25.9601 16.2755 25.5411C16.3018 25.1221 16.3609 24.7012 16.46 24.2868C16.6545 23.457 17.0099 22.6562 17.5007 21.9318C17.9915 21.2084 18.6295 20.5549 19.4148 20.0832C19.8056 19.846 20.2328 19.6596 20.6809 19.5324C21.129 19.407 21.597 19.3433 22.0633 19.3479C22.9967 19.3597 23.9202 19.6469 24.6818 20.135C25.448 20.6231 26.0397 21.3111 26.4542 22.0573C26.6623 22.4308 26.8286 22.8208 26.965 23.2134L27.0604 23.5097L27.1422 23.8078L27.2149 24.1059L27.2776 24.4049C27.434 25.202 27.4985 25.9982 27.4985 26.7926V26.7908ZM27.3467 26.7908C27.3413 26.011 27.1858 25.232 26.8868 24.5222C26.8486 24.434 26.8105 24.3459 26.7687 24.2595L26.6387 24.0032L26.4951 23.756L26.3415 23.517C26.1315 23.2025 25.8934 22.9135 25.638 22.6508C25.129 22.1236 24.5519 21.7046 23.9502 21.4101C23.6484 21.2629 23.3394 21.1466 23.0231 21.072C22.7059 21.0012 22.386 20.9602 22.0642 20.9684C21.4207 20.9784 20.7909 21.152 20.2073 21.462C19.6247 21.7728 19.0949 22.2263 18.6613 22.7762C18.226 23.3252 17.8888 23.9641 17.6297 24.6413C17.5016 24.9803 17.3907 25.3311 17.3052 25.6901C17.2207 26.05 17.1571 26.4181 17.1207 26.7926C17.0553 27.5397 17.0962 28.3095 17.2898 29.0466C17.4807 29.7828 17.8124 30.489 18.2796 31.0862C18.744 31.6851 19.3539 32.1623 20.0201 32.4486C20.6863 32.7413 21.3916 32.8394 22.0642 32.7931C22.7386 32.7431 23.3803 32.5468 23.9811 32.2277C24.5809 31.9096 25.1499 31.4788 25.6553 30.9453C25.9088 30.6799 26.1452 30.3882 26.3551 30.0728C26.566 29.7583 26.7514 29.4211 26.8995 29.0648C27.1976 28.3532 27.3503 27.5724 27.3476 26.7926L27.3467 26.7908Z" fill="#272727"/>
<path d="M18.7014 31.4712C19.5767 32.7028 20.82 33.4726 22.2007 33.4726C23.9221 33.4726 25.4318 32.2747 26.2789 30.476C25.4036 29.2444 24.1602 28.4746 22.7796 28.4746C21.0582 28.4746 19.5485 29.6725 18.7014 31.4712Z" fill="#FF5C2A"/>
<path d="M4.01437 2.30152C4.56031 2.03062 5.11969 1.81969 5.68113 1.6222C6.24361 1.42678 6.81023 1.25514 7.38201 1.10108C7.66842 1.0256 7.9538 0.951156 8.24227 0.883949C8.52868 0.812605 8.8182 0.753667 9.10978 0.700935C9.40135 0.652339 9.695 0.612023 9.99072 0.581004C10.2864 0.549986 10.5842 0.53033 10.881 0.505514L10.9792 0.497247C11.1715 0.481738 11.3411 0.624421 11.3566 0.816739C11.3659 0.926339 11.3214 1.02871 11.248 1.09902C10.9689 1.36268 10.6907 1.62737 10.4281 1.90344C10.1644 2.1795 9.9142 2.46695 9.67639 2.7637C9.19973 3.35616 8.77063 3.98792 8.36635 4.63931C7.96207 5.29071 7.55572 5.94003 7.10594 6.55524C6.6572 7.17045 6.21466 7.79083 5.75454 8.39777L5.10108 7.33899C5.67493 7.19837 6.25395 7.07739 6.83504 6.97193C7.4182 6.8706 8.00239 6.77858 8.58969 6.7C9.17698 6.62141 9.76738 6.55628 10.3619 6.50768C10.9564 6.46012 11.553 6.426 12.1579 6.4291C12.1931 6.4291 12.222 6.45805 12.222 6.4932C12.222 6.51905 12.2065 6.54077 12.1848 6.55111C11.6347 6.8034 11.0764 7.01742 10.516 7.21905C9.95453 7.41964 9.38998 7.60368 8.82233 7.77429C8.25468 7.94489 7.68393 8.10102 7.11111 8.24991C6.53726 8.39363 5.9603 8.52081 5.38025 8.62938L5.34406 8.63661C4.98941 8.70278 4.6482 8.46911 4.58202 8.11446C4.5448 7.91387 4.60477 7.71535 4.72678 7.5706C5.21998 6.99158 5.73076 6.42497 6.23534 5.85422C6.73888 5.28244 7.28585 4.74581 7.83489 4.21125C8.38393 3.67669 8.90918 3.12248 9.38481 2.52795C9.62366 2.23121 9.8501 1.92619 10.0621 1.60876C10.2751 1.29237 10.4736 0.96356 10.6711 0.63476L11.0381 1.22929C10.7579 1.32958 10.4777 1.43402 10.1954 1.52811C9.91317 1.6222 9.62986 1.70596 9.34345 1.78144C9.05704 1.85278 8.76857 1.91895 8.47802 1.97168C8.18851 2.02958 7.89693 2.07922 7.60535 2.12885C7.02116 2.225 6.43386 2.30151 5.8414 2.35528C5.2479 2.40698 4.65233 2.44523 4.04229 2.42249C4.00714 2.42145 3.97922 2.39147 3.98025 2.35528C3.98025 2.33046 3.99576 2.30979 4.01644 2.29945L4.01437 2.30152Z" fill="white"/>
<path d="M0.120459 12.4128C0.562992 12.1964 1.01394 12.0232 1.4685 11.8633C1.92306 11.7045 2.38243 11.5662 2.8442 11.4424C3.30718 11.3209 3.77016 11.2031 4.24035 11.1189C4.47605 11.0792 4.71295 11.0467 4.95225 11.0215C5.19156 10.9962 5.43206 10.9806 5.67257 10.9602L5.75194 10.9541C5.90706 10.9409 6.04416 11.0576 6.05618 11.2127C6.0634 11.3017 6.02852 11.3847 5.96839 11.4412C5.74232 11.654 5.51985 11.8693 5.3046 12.0917C5.09175 12.3154 4.88852 12.5475 4.69611 12.7868C4.3101 13.2654 3.96497 13.7777 3.63668 14.3032L3.14123 15.0884C2.97047 15.3458 2.80091 15.6043 2.61813 15.8521C2.25496 16.3499 1.89781 16.8514 1.52622 17.342L0.997108 16.4858C1.46129 16.3727 1.92907 16.2741 2.39927 16.1888C2.87066 16.107 3.34326 16.0324 3.81826 15.9687C4.29326 15.9026 4.77187 15.8557 5.25048 15.8136C5.7315 15.7763 6.21371 15.7462 6.70314 15.7498C6.73201 15.7498 6.75485 15.7739 6.75485 15.8016C6.75485 15.822 6.74283 15.84 6.72479 15.8484C6.27985 16.0529 5.8289 16.2248 5.37554 16.3884C4.92099 16.5471 4.46522 16.7022 4.00585 16.8369C3.54649 16.9752 3.08591 17.1015 2.62294 17.2217C2.15876 17.3372 1.69217 17.4406 1.22318 17.5284L1.19312 17.5344C0.906918 17.5885 0.630335 17.3985 0.577423 17.1123C0.54736 16.95 0.595461 16.79 0.694069 16.6722C1.09331 16.2032 1.50578 15.7462 1.91344 15.2845C2.11667 15.0524 2.33072 14.8311 2.54597 14.6086L3.20617 13.9557C3.6499 13.5227 4.0744 13.0754 4.45921 12.5944C4.65162 12.3551 4.83561 12.1074 5.00757 11.8512C5.17833 11.5939 5.34067 11.3293 5.50061 11.0636L5.79763 11.5446C5.57035 11.6252 5.34428 11.7093 5.117 11.7863C4.88852 11.8621 4.65883 11.9306 4.42795 11.9907C3.96497 12.1086 3.49357 12.1915 3.02218 12.2709C2.54958 12.3479 2.07458 12.4104 1.59597 12.4537C1.11616 12.4958 0.633942 12.5235 0.142104 12.5078C0.113244 12.5078 0.0903956 12.4826 0.0915981 12.4549C0.0915981 12.4345 0.103623 12.4176 0.120459 12.4092V12.4128Z" fill="white"/>
<path d="M7.62675 12.011C7.94729 11.8543 8.27501 11.7287 8.60392 11.6127C8.93403 11.4979 9.26653 11.3974 9.60143 11.3077C9.93632 11.2192 10.2724 11.1343 10.6145 11.0733C10.9554 11.0135 11.3046 10.9848 11.6526 10.9585L11.7125 10.9537C11.8249 10.9453 11.923 11.0303 11.9313 11.1427C11.9361 11.2061 11.9098 11.2659 11.8667 11.3077C11.5378 11.6163 11.2209 11.9333 10.9446 12.2837C10.6647 12.6305 10.4135 13.0013 10.1767 13.3829C9.93752 13.7632 9.70309 14.1459 9.43757 14.5059C9.17444 14.8671 8.9149 15.2307 8.64579 15.586L8.26305 14.9652C8.93643 14.799 9.61937 14.683 10.3083 14.5909C10.6528 14.543 10.9996 14.5095 11.3477 14.4784C11.6957 14.4509 12.0461 14.4294 12.4002 14.4318C12.4205 14.4318 12.4373 14.4485 12.4373 14.4701C12.4373 14.4856 12.4277 14.4976 12.4157 14.5036C12.0928 14.6519 11.7663 14.7763 11.4374 14.8947C11.1084 15.0095 10.7771 15.1219 10.4446 15.22C9.77844 15.4197 9.10866 15.5955 8.42691 15.7211L8.40418 15.7247C8.19607 15.763 7.99633 15.6254 7.95806 15.4173C7.93653 15.3001 7.97241 15.1841 8.04298 15.0992C8.33242 14.7595 8.63143 14.4282 8.92686 14.0933C9.22108 13.7572 9.54521 13.4451 9.86456 13.1305C10.1863 12.8171 10.4937 12.4918 10.7736 12.1438C11.0558 11.7981 11.2974 11.4214 11.5283 11.0338L11.7435 11.3819C11.4146 11.5015 11.0857 11.6199 10.7508 11.7048C10.4147 11.7897 10.0739 11.8507 9.7318 11.9081C9.38973 11.9644 9.04527 12.0098 8.69722 12.0409C8.34917 12.0708 7.99992 12.0911 7.6423 12.0804C7.62197 12.0804 7.60522 12.0624 7.60522 12.0421C7.60522 12.0278 7.61479 12.0158 7.62675 12.0098V12.011Z" fill="#272727"/>
</svg>
