<svg width="80" height="117" viewBox="0 0 80 117" fill="none" xmlns="http://www.w3.org/2000/svg">
<path d="M9.46465 30.1421C9.46465 32.7094 9.85385 37.2333 9.85385 39.8006C3.5305 46.4464 3.98463 44.8829 1.16797 47.7851C4.45245 48.246 9.85385 48.1884 13.1519 46.5616C16.4715 50.202 16.5252 54.4287 18.6827 56.5863C20.596 53.8785 23.1598 47.1905 21.9091 45.5824C27.7643 44.9698 31.7609 47.2998 33.835 46.5616C33.3165 43.7385 27.0967 38.9942 25.7115 38.9127C26.7971 34.8466 28.549 27.8361 27.2671 28.9898C26.1335 30.01 21.8494 33.2265 20.596 33.9228C16.6087 34.4631 9.46465 28.1138 9.46465 30.1421Z" fill="#FFE457" stroke="white" stroke-linecap="round" stroke-linejoin="round"/>
<path d="M30.4397 103.292C29.0815 102.314 27.6599 101.468 26.3017 100.49C25.9013 98.0928 25.6446 95.7981 25.1824 93.2022C23.6871 94.7642 21.5663 96.8896 20.3484 98.9865C17.1577 99.3556 14.9011 97.7735 12.9377 98.0928C13.6412 100.137 15.1972 104.189 16.5245 104.14C14.6176 107.471 12.8674 108.55 12.4676 109.928C14.1587 110.73 19.0385 109.247 19.6093 108.545C21.3468 110.669 24.388 114.267 24.2661 113.149C24.1583 112.161 24.6946 107.247 24.8038 106.319C26.0372 104.003 31.5127 104.065 30.4397 103.292Z" stroke="white" stroke-linecap="round" stroke-linejoin="round"/>
<path d="M66.812 18.9139C67.8129 17.9535 68.8674 16.7898 69.8684 15.8295C74.4955 15.4655 73.8279 15.9791 75.8664 15.8387C74.9885 14.564 73.9127 12.9914 73.0004 11.6411C73.3508 9.16528 74.0074 7.45916 74.1538 5.92799C72.482 6.29886 69.9952 6.8095 69.1621 7.95119C67.4786 5.60458 66.322 5.01284 65.3663 4.59294C64.4326 5.823 64.5857 9.68516 64.9999 10.1805C63.0651 11.3372 59.7677 13.3718 60.6303 13.3704C61.3931 13.3692 65.0007 13.7107 65.6758 13.8708C67.1703 15.0069 66.0212 19.6726 66.812 18.9139Z" stroke="white" stroke-linecap="round" stroke-linejoin="round"/>
</svg>
