<svg width="80" height="117" viewBox="0 0 80 117" fill="none" xmlns="http://www.w3.org/2000/svg">
<path d="M10.6321 29.5825C10.3745 32.0999 10.3023 36.5749 10.0447 39.0923C3.1774 44.9745 3.77958 43.487 0.726459 46.0502C3.90087 46.8317 9.20306 47.3172 12.6002 46.0528C15.4901 49.9555 15.1186 54.1056 17.0178 56.4376C19.1655 53.9744 22.3506 47.6737 21.2855 45.9714C27.0884 45.9581 30.7735 48.6439 32.8814 48.1281C32.6562 45.3079 27.0333 40.0317 25.6833 39.8128C27.1557 35.9346 29.5769 29.2362 28.2042 30.2388C26.9903 31.1255 22.4667 33.8496 21.1678 34.4066C17.2038 34.5363 10.8356 27.5936 10.6321 29.5825Z" fill="#FFE457" stroke="white" stroke-linecap="round" stroke-linejoin="round"/>
<path d="M32.6551 103.921C31.2773 102.701 29.8155 101.618 28.4377 100.398C28.2644 97.7315 28.2371 95.1926 28.0183 92.3016C26.2098 93.8452 23.6548 95.9362 22.0907 98.0957C18.5592 98.1469 16.2652 96.1668 14.0819 96.2992C14.6257 98.613 15.8804 103.218 17.3379 103.311C14.8837 106.745 12.8496 107.732 12.26 109.196C14.0215 110.259 19.524 109.176 20.2261 108.472C21.8923 110.987 24.822 115.259 24.8121 114.023C24.8033 112.929 25.9329 107.613 26.1549 106.609C27.7601 104.213 33.7437 104.885 32.6551 103.921Z" stroke="white" stroke-linecap="round" stroke-linejoin="round"/>
<path d="M68.1668 20.7784C69.04 19.5385 69.9282 18.0693 70.8014 16.8294C75.6905 15.4712 75.0815 16.1619 77.2396 15.5849C76.031 14.4007 74.5476 12.9382 73.2863 11.6801C73.1445 8.95005 73.4923 6.98196 73.3292 5.3083C71.6128 6.05589 69.0511 7.12393 68.3959 8.52326C66.0986 6.35728 64.7338 5.96418 63.6205 5.71346C62.8758 7.22867 63.8478 11.341 64.3959 11.7859C62.5616 13.4318 59.4488 16.3046 60.3741 16.1227C61.1924 15.9619 65.1349 15.5738 65.8928 15.6045C67.7342 16.511 67.4769 21.758 68.1668 20.7784Z" stroke="white" stroke-linecap="round" stroke-linejoin="round"/>
</svg>
