<svg width="383" height="155" viewBox="0 0 383 155" fill="none" xmlns="http://www.w3.org/2000/svg">
<g opacity="0.1">
<path d="M288.617 152.11L305.156 47.7907H341.837L337.808 73.4463H335.9C338.303 65.2478 342.685 58.6749 349.046 53.7275C355.548 48.7802 363.393 46.0238 372.581 45.4584L382.759 44.8223L381.062 76.6268L357.527 78.9591C352.58 79.3832 348.551 80.4433 345.441 82.1396C342.473 83.8358 340.141 86.3095 338.444 89.5606C336.889 92.6704 335.688 96.7697 334.84 101.858L326.995 152.11H288.617Z" fill="#FF5C2A"/>
<path d="M198.591 154.441C191.24 154.441 184.879 152.886 179.508 149.777C174.278 146.667 170.532 141.79 168.27 135.146C166.15 128.503 165.867 119.951 167.422 109.491L177.176 47.79H214.917L205.376 108.855C204.81 112.389 204.74 115.428 205.164 117.972C205.729 120.516 206.86 122.425 208.556 123.697C210.252 124.969 212.655 125.605 215.765 125.605C219.44 125.605 222.691 124.757 225.519 123.061C228.487 121.223 230.89 118.608 232.728 115.216C234.707 111.823 236.049 107.795 236.756 103.13L245.449 47.79H283.191L266.652 152.109H229.759L232.516 133.874H234.212C230.678 140.518 225.801 145.607 219.582 149.14C213.362 152.674 206.365 154.441 198.591 154.441Z" fill="#FF5C2A"/>
<path d="M71.4489 154.442C57.1722 154.442 44.7331 151.827 34.1316 146.597C23.5301 141.225 15.2609 133.592 9.3241 123.697C3.5286 113.661 0.630859 101.576 0.630859 87.4403C0.630859 74.5771 2.53913 62.8448 6.35567 52.2433C10.3136 41.5004 15.8264 32.2418 22.894 24.4673C30.1031 16.6929 38.6549 10.7561 48.5497 6.6568C58.5858 2.4162 69.682 0.295898 81.8384 0.295898C96.2565 0.295898 108.766 2.98161 119.368 8.35304C129.969 13.5831 138.168 21.2162 143.963 31.2523C149.759 41.147 152.656 53.0914 152.656 67.0854C152.656 80.0899 150.748 91.9636 146.932 102.706C143.115 113.308 137.602 122.496 130.393 130.27C123.184 138.045 114.562 144.052 104.526 148.293C94.6309 152.392 83.6053 154.442 71.4489 154.442ZM71.873 121.789C80.4956 121.789 87.7752 119.528 93.7121 115.004C99.6489 110.481 104.243 104.191 107.494 96.1335C110.745 87.935 112.371 78.535 112.371 67.9335C112.371 56.0598 109.544 47.2959 103.89 41.6418C98.3768 35.8463 90.8143 32.9485 81.2023 32.9485C72.8625 32.9485 65.6534 35.2102 59.5752 39.7335C53.6384 44.2568 49.0444 50.547 45.7933 58.6042C42.6835 66.6613 41.1286 76.0613 41.1286 86.8042C41.1286 98.5365 43.885 107.3 49.3978 113.096C54.9106 118.891 62.4023 121.789 71.873 121.789Z" fill="#FF5C2A"/>
</g>
</svg>
