<svg width="21" height="21" viewBox="0 0 21 21" fill="none" xmlns="http://www.w3.org/2000/svg">
<path d="M18.2836 14.4592C18.1443 15.5178 17.6244 16.4895 16.821 17.1929C16.0176 17.8962 14.9857 18.283 13.918 18.2811C7.71485 18.2811 2.66798 13.2342 2.66798 7.03109C2.66606 5.96335 3.05289 4.93142 3.7562 4.12804C4.45952 3.32466 5.43123 2.80477 6.48985 2.66547C6.75755 2.63278 7.02864 2.68755 7.26265 2.82159C7.49667 2.95563 7.68105 3.16177 7.78829 3.40922L9.43829 7.09281V7.10219C9.52039 7.2916 9.55429 7.4984 9.53698 7.70412C9.51967 7.90984 9.45167 8.10806 9.33907 8.28109C9.32501 8.30219 9.31016 8.32172 9.29454 8.34125L7.66798 10.2694C8.25313 11.4584 9.49688 12.6912 10.7016 13.278L12.6031 11.66C12.6218 11.6443 12.6414 11.6297 12.6617 11.6162C12.8346 11.5009 13.0335 11.4306 13.2405 11.4115C13.4474 11.3924 13.6558 11.4252 13.8469 11.5069L13.857 11.5116L17.5375 13.1608C17.7854 13.2676 17.992 13.4519 18.1265 13.6859C18.261 13.92 18.3161 14.1912 18.2836 14.4592Z" fill="#FF5C2A"/>
</svg>
