<svg width="21" height="21" viewBox="0 0 21 21" fill="none" xmlns="http://www.w3.org/2000/svg">
<path d="M17.8637 14.6409C17.7244 15.6995 17.2045 16.6712 16.4011 17.3745C15.5977 18.0778 14.5658 18.4646 13.4981 18.4627C7.29493 18.4627 2.24805 13.4159 2.24805 7.21273C2.24614 6.14499 2.63297 5.11306 3.33628 4.30968C4.0396 3.5063 5.01131 2.98641 6.06993 2.84711C6.33763 2.81442 6.60872 2.86919 6.84273 3.00323C7.07675 3.13728 7.26113 3.34341 7.36837 3.59086L9.01837 7.27445V7.28383C9.10047 7.47324 9.13437 7.68004 9.11706 7.88576C9.09975 8.09148 9.03175 8.2897 8.91915 8.46273C8.90509 8.48383 8.89024 8.50336 8.87462 8.52289L7.24805 10.451C7.83321 11.6401 9.07696 12.8729 10.2816 13.4596L12.1832 11.8416C12.2019 11.8259 12.2214 11.8113 12.2418 11.7979C12.4147 11.6826 12.6136 11.6122 12.8205 11.5931C13.0275 11.574 13.2359 11.6068 13.427 11.6885L13.4371 11.6932L17.1176 13.3424C17.3655 13.4493 17.5721 13.6335 17.7066 13.8675C17.8411 14.1016 17.8962 14.3729 17.8637 14.6409Z" fill="white"/>
</svg>
