<svg width="60.000000" height="60.000000" viewBox="0 0 60 60" fill="none" xmlns="http://www.w3.org/2000/svg" xmlns:xlink="http://www.w3.org/1999/xlink">
	<desc>
			Created with Pixso.
	</desc>
	<defs>
		<clipPath id="clip10_15596">
			<rect id="messages-bubble-smile--Streamline-Ultimate" rx="0.000000" width="59.000000" height="59.000000" transform="translate(0.500000 0.500000)" fill="white" fill-opacity="0"/>
		</clipPath>
	</defs>
	<rect id="messages-bubble-smile--Streamline-Ultimate" rx="0.000000" width="59.000000" height="59.000000" transform="translate(0.500000 0.500000)" fill="#FFFFFF" fill-opacity="0"/>
	<g clip-path="url(#clip10_15596)">
		<path id="Vector" d="M30 2.5C14.12 2.5 1.25 13.13 1.25 26.25C1.31 29.51 2.11 32.72 3.58 35.64C5.05 38.55 7.16 41.1 9.75 43.1L3.75 57.5L19.67 48.39C23.01 49.45 26.49 50 30 50C45.87 50 58.75 39.36 58.75 26.25C58.75 13.13 45.87 2.5 30 2.5Z" fill="#FF5B29" fill-opacity="1.000000" fill-rule="nonzero"/>
		<path id="Vector" d="M30 12.5C35.48 12.35 40.91 13.46 45.9 15.74C50.88 18.02 55.27 21.42 58.75 25.66C58.36 12.81 45.64 2.5 30 2.5C14.35 2.5 1.63 12.81 1.25 25.66C4.72 21.42 9.11 18.02 14.09 15.74C19.08 13.46 24.51 12.35 30 12.5Z" fill="#FFBDAE" fill-opacity="1.000000" fill-rule="nonzero"/>
		<path id="Vector" d="M1.25 26.25C1.31 29.51 2.11 32.72 3.58 35.64C5.05 38.55 7.16 41.1 9.75 43.1L3.75 57.5L19.67 48.39C23.01 49.45 26.49 50 30 50C45.87 50 58.75 39.36 58.75 26.25C58.75 13.13 45.87 2.5 30 2.5C14.12 2.5 1.25 13.13 1.25 26.25Z" stroke="#252222" stroke-opacity="1.000000" stroke-width="1.000000" stroke-linejoin="round"/>
		<path id="Vector" d="M16.25 21.25C16.25 19.92 16.77 18.65 17.71 17.71C18.65 16.77 19.92 16.25 21.25 16.25C22.57 16.25 23.84 16.77 24.78 17.71C25.72 18.65 26.25 19.92 26.25 21.25" stroke="#252222" stroke-opacity="1.000000" stroke-width="1.000000" stroke-linejoin="round" stroke-linecap="round"/>
		<path id="Vector" d="M43.75 21.25C43.75 19.92 43.22 18.65 42.28 17.71C41.34 16.77 40.07 16.25 38.75 16.25C37.42 16.25 36.15 16.77 35.21 17.71C34.27 18.65 33.75 19.92 33.75 21.25" stroke="#252222" stroke-opacity="1.000000" stroke-width="1.000000" stroke-linejoin="round" stroke-linecap="round"/>
		<path id="Vector" d="M36.25 30C36.25 31.65 35.58 33.24 34.41 34.41C33.24 35.59 31.65 36.25 30 36.25C28.34 36.25 26.75 35.59 25.58 34.41C24.41 33.24 23.75 31.65 23.75 30" stroke="#252222" stroke-opacity="1.000000" stroke-width="1.000000" stroke-linejoin="round" stroke-linecap="round"/>
		<path id="Vector" d="M47.19 10.33C47.19 11.32 47.59 12.27 48.29 12.98C49 13.68 49.95 14.08 50.94 14.08C51.94 14.08 52.89 13.68 53.6 12.98C54.3 12.27 54.69 11.32 54.69 10.33C54.69 9.33 54.3 8.38 53.6 7.67C52.89 6.97 51.94 6.58 50.94 6.58C49.95 6.58 49 6.97 48.29 7.67C47.59 8.38 47.19 9.33 47.19 10.33Z" fill="#FFFFFF" fill-opacity="1.000000" fill-rule="nonzero"/>
		<path id="Vector" d="M48.29 12.98C49 13.68 49.95 14.08 50.94 14.08C51.94 14.08 52.89 13.68 53.6 12.98C54.3 12.27 54.69 11.32 54.69 10.33C54.69 9.33 54.3 8.38 53.6 7.67C52.89 6.97 51.94 6.58 50.94 6.58C49.95 6.58 49 6.97 48.29 7.67C47.59 8.38 47.19 9.33 47.19 10.33C47.19 11.32 47.59 12.27 48.29 12.98Z" stroke="#252222" stroke-opacity="1.000000" stroke-width="1.000000" stroke-linejoin="round"/>
	</g>
</svg>
