<svg width="41" height="41" viewBox="0 0 41 41" fill="none" xmlns="http://www.w3.org/2000/svg">
<path d="M0.618407 23.6581C-0.753667 16.4279 2.73404 10.835 3.27888 9.99161C7.51776 3.42791 15.7968 -0.10925 23.7183 1.52526C34.17 3.68178 38.0362 13.6096 38.3528 14.4663C39.0079 16.2387 41.676 24.2249 37.0226 31.5188C32.7057 38.285 24.5589 40.5832 18.0341 39.7427C9.51169 38.6454 2.20062 31.9952 0.618407 23.6572V23.6581Z" fill="#FFE457"/>
<path d="M0.547319 23.6713C0.311509 22.4077 0.198358 21.1221 0.209768 19.8356C0.217375 19.1919 0.257311 18.5491 0.321018 17.9073C0.387577 17.2664 0.487416 16.6284 0.613879 15.9942C0.868706 14.7277 1.23383 13.4792 1.71401 12.2697C1.95648 11.6659 2.22462 11.0717 2.52698 10.4907C2.67912 10.2016 2.83791 9.90972 3.01287 9.63302L3.27245 9.2156C3.35803 9.07582 3.45501 8.94366 3.54629 8.80769C4.28701 7.72468 5.14752 6.71962 6.10598 5.81441C7.06443 4.90921 8.12463 4.11145 9.25043 3.42209C10.3829 2.74413 11.5772 2.16316 12.8237 1.72672L13.2915 1.56413L13.7641 1.41769L14.0009 1.34449L14.2405 1.28078L14.7188 1.15432C15.3615 1.00503 16.0072 0.868111 16.6613 0.784436C16.9865 0.731188 17.3155 0.706461 17.6436 0.672231C17.8071 0.657017 17.9726 0.650364 18.1361 0.638953C18.3006 0.629445 18.4641 0.615181 18.6286 0.61423C18.9576 0.605673 19.2866 0.595215 19.6156 0.603773C19.7801 0.607576 19.9446 0.603771 20.1082 0.61423L20.6007 0.641809C20.7652 0.648465 20.9278 0.667475 21.0913 0.682689C21.2549 0.698853 21.4184 0.711215 21.581 0.731183L22.0688 0.796797C22.1496 0.808208 22.2314 0.817715 22.3122 0.831027L22.5547 0.872858L23.0387 0.957485L23.5189 1.06112C23.8402 1.12293 24.154 1.21897 24.4707 1.29884C26.9933 1.9882 29.3561 3.19483 31.39 4.79701C33.4343 6.39063 35.1686 8.34937 36.5873 10.5097C36.9439 11.0498 37.2738 11.606 37.5857 12.1727C37.9004 12.7385 38.1923 13.3176 38.4557 13.9137C38.5204 14.064 38.585 14.2133 38.6459 14.3682C38.7048 14.5194 38.7619 14.6716 38.818 14.8246C38.9302 15.1299 39.0348 15.438 39.1337 15.7479C39.3305 16.3679 39.5017 16.9954 39.6462 17.6306C39.9362 18.9 40.1169 20.1979 40.1863 21.5063C40.2157 22.1614 40.2167 22.8184 40.1882 23.4755C40.153 24.1325 40.0807 24.7886 39.9828 25.4418C39.5701 28.0519 38.5423 30.584 36.9952 32.7481C35.4653 34.9313 33.401 36.7255 31.0838 38.0291L30.6464 38.2688C30.5009 38.3486 30.3498 38.419 30.2024 38.4951C29.9076 38.6491 29.6014 38.7794 29.2991 38.9182C28.6867 39.1759 28.0668 39.4174 27.4344 39.619C26.8021 39.8215 26.1622 39.9984 25.5147 40.1381C24.8672 40.2808 24.2149 40.4006 23.5569 40.4785C23.2288 40.5242 22.8989 40.5498 22.569 40.5831C22.2381 40.604 21.9081 40.6316 21.5772 40.6392C21.2463 40.6544 20.9154 40.6544 20.5836 40.6544C20.2527 40.6449 19.9208 40.6411 19.5909 40.6174C18.9291 40.5803 18.2683 40.5128 17.6141 40.4063L17.1225 40.3274L16.6357 40.2275C16.3095 40.1657 15.99 40.0801 15.6687 40.0012C14.386 39.6703 13.1461 39.192 11.9632 38.6139C11.6646 38.4741 11.3784 38.3115 11.0875 38.1575C10.941 38.0824 10.8022 37.994 10.6596 37.9112C10.5189 37.8266 10.3762 37.7448 10.2365 37.6583C9.68212 37.3055 9.13538 36.9423 8.61622 36.543C7.57219 35.7528 6.60517 34.8685 5.73039 33.9053L5.4033 33.543L5.08952 33.1703C4.87748 32.925 4.68256 32.6645 4.48383 32.4087C4.38304 32.2822 4.28986 32.1491 4.19477 32.0179L3.91142 31.6242L3.64233 31.2201C3.55295 31.0861 3.46167 30.952 3.37895 30.8132C2.69529 29.7159 2.0991 28.5673 1.62558 27.3701C1.51528 27.0678 1.38882 26.7721 1.29088 26.4649L1.13589 26.0085L0.999923 25.5464C0.903888 25.2393 0.829721 24.9265 0.74985 24.6155C0.707062 24.4606 0.677586 24.3027 0.645257 24.1449L0.547319 23.6732V23.6713ZM0.687094 23.6447C0.818311 24.2685 0.960939 24.8903 1.15491 25.4979L1.30039 25.9534L1.46394 26.4022C1.56663 26.7036 1.69785 26.9946 1.8186 27.2884C1.87851 27.4358 1.95172 27.5774 2.01733 27.7229C2.08579 27.8665 2.1495 28.012 2.22176 28.1536L2.44236 28.5768L2.55361 28.7879L2.67342 28.9942L2.91208 29.4069C2.9929 29.5438 3.08038 29.676 3.165 29.81C3.3314 30.0801 3.51587 30.3387 3.69748 30.5983C4.42868 31.6356 5.27969 32.5808 6.19441 33.447C7.10817 34.3161 8.10846 35.0863 9.1601 35.7661C9.68212 36.1122 10.227 36.4203 10.7756 36.717C11.0542 36.8577 11.3309 37.0003 11.6123 37.1334C11.8957 37.2618 12.1752 37.3997 12.4643 37.5138L12.8941 37.6935L13.3296 37.858C13.6177 37.973 13.9143 38.0643 14.2082 38.1642C14.3536 38.2165 14.5039 38.2574 14.6522 38.302L15.0972 38.4342C15.3977 38.5074 15.6953 38.5911 15.9976 38.6577C16.3 38.7223 16.6005 38.7946 16.9057 38.8421L17.3612 38.922L17.8195 38.9857C18.4299 39.0732 19.0451 39.1236 19.6622 39.1464C20.2793 39.1711 20.8974 39.1683 21.5145 39.1369C21.8235 39.1274 22.1306 39.097 22.4387 39.0751C22.7458 39.0409 23.0539 39.0142 23.3591 38.9676C24.5838 38.806 25.7923 38.5321 26.9676 38.1604C27.5562 37.9769 28.1324 37.7572 28.701 37.5224C29.2648 37.2761 29.8239 37.0193 30.364 36.7246C30.9022 36.4279 31.4328 36.116 31.9358 35.7642C32.1934 35.5959 32.434 35.4067 32.6831 35.2261L33.0426 34.9389L33.2223 34.7953L33.3963 34.6441L33.7433 34.3418L34.078 34.0261L34.2454 33.8682L34.4061 33.7037L34.7275 33.3738L35.0346 33.0305L35.1886 32.8594L35.335 32.6816L35.6279 32.326L35.9046 31.958C37.3775 29.985 38.374 27.6725 38.857 25.2421C38.973 24.6336 39.0652 24.0184 39.1232 23.3994C39.1803 22.7794 39.2117 22.1566 39.2145 21.531C39.2117 20.2806 39.1004 19.0255 38.8817 17.7856C38.7724 17.1656 38.6354 16.5504 38.4747 15.9409C38.3939 15.6367 38.3074 15.3334 38.2123 15.0329C38.1648 14.8827 38.1144 14.7334 38.063 14.585C38.0126 14.4396 37.9565 14.2931 37.8995 14.1467C37.6684 13.5629 37.406 12.9857 37.1188 12.4228C36.8279 11.8609 36.5179 11.3084 36.1813 10.7712C35.5129 9.69387 34.7531 8.67266 33.905 7.73037L33.7471 7.55257L33.5836 7.38047L33.2565 7.03626L32.917 6.70442C32.8039 6.59412 32.6917 6.48191 32.5719 6.37732L32.2201 6.05879C32.1041 5.95039 31.9786 5.85436 31.8578 5.75262C31.7351 5.65278 31.6153 5.54913 31.4908 5.45215L31.1133 5.16404C29.0975 3.63127 26.7375 2.58439 24.2871 2.06427C23.9791 2.00532 23.6748 1.93116 23.3639 1.89027L22.8999 1.81896L22.4339 1.76571L22.201 1.73908C22.123 1.73052 22.045 1.72672 21.9671 1.72007L21.5002 1.68489C21.3443 1.67443 21.1883 1.67252 21.0324 1.66586C20.8764 1.66111 20.7205 1.6516 20.5646 1.65445C19.318 1.64399 18.0714 1.74003 16.8496 1.96348C16.6965 1.99105 16.5434 2.01673 16.3913 2.04715L15.9368 2.14605L15.7095 2.19549L15.4842 2.25159L15.0325 2.36475L14.5856 2.49406L14.3622 2.55871L14.1406 2.63002L13.6985 2.77265L13.2611 2.9305L13.0424 3.00941L12.8266 3.09594L12.3949 3.26805L11.9689 3.45441C11.8272 3.51622 11.6846 3.57803 11.5467 3.64744L11.1284 3.84902C10.9895 3.91748 10.8536 3.99164 10.7157 4.06201C10.438 4.19988 10.1728 4.36057 9.90176 4.51176C7.76806 5.76783 5.82928 7.38617 4.2813 9.35062C4.18621 9.47423 4.08543 9.59404 3.99414 9.7205L3.71745 10.0989C3.53108 10.35 3.36373 10.6095 3.19733 10.8758C2.86739 11.4073 2.56502 11.9607 2.28832 12.5274C1.73683 13.6618 1.28803 14.8522 0.968545 16.0798C0.643355 17.3064 0.45794 18.5719 0.404692 19.8442C0.378068 20.4803 0.398037 21.1183 0.439874 21.7544C0.487416 22.3905 0.579648 23.0219 0.689947 23.6495L0.687094 23.6447Z" fill="#272727"/>
<path d="M12.4913 13.7922C12.2469 14.4892 12.1005 15.2204 12.0606 15.9583C11.4235 15.0369 10.7493 14.0803 9.75951 13.5545C8.77063 13.0287 7.37003 13.0915 6.71204 13.9976C5.68418 15.4115 6.64548 17.2914 7.58207 18.4714C8.49583 19.6219 9.72053 20.5176 11.0983 21.0291C11.5072 21.1813 11.878 21.2164 12.2194 21.1613C13.0542 21.0263 13.7264 20.2399 14.2855 19.6628C16.2671 17.6165 17.8702 14.5168 17.0848 11.6024C16.7787 10.4652 15.6405 10.1857 14.6602 10.7315C14.1439 11.0186 13.7445 11.4779 13.4117 11.9666C13.0266 12.5314 12.7176 13.1476 12.4913 13.7922Z" fill="#FF5C2A"/>
<path d="M12.5506 13.8118C12.4907 13.9848 12.4375 14.1607 12.3909 14.3376C12.3472 14.5154 12.3091 14.6942 12.2797 14.8748C12.253 15.0555 12.2293 15.2371 12.2178 15.4187C12.2064 15.6013 12.2007 15.7829 12.2064 15.9645C12.2093 16.0425 12.1484 16.1071 12.0705 16.11C12.0248 16.1119 11.9839 16.091 11.9573 16.0586L11.9421 16.0396C11.7091 15.7515 11.4695 15.471 11.2166 15.2095C10.9656 14.9471 10.7041 14.7018 10.4264 14.4935C10.1507 14.2834 9.86259 14.1103 9.56593 13.982C9.28353 13.8584 8.97926 13.7937 8.67784 13.7699C8.07405 13.7328 7.48738 13.8992 7.16979 14.2881C6.99103 14.503 6.85221 14.7598 6.78185 15.046C6.70863 15.3331 6.69627 15.6536 6.73621 15.9826C6.81893 16.6434 7.09373 17.3223 7.47121 17.9299C7.84965 18.5413 8.33648 19.0899 8.89939 19.5425C9.46039 19.997 10.0956 20.3593 10.7678 20.6056C10.9323 20.6683 11.1101 20.7263 11.2718 20.771C11.4324 20.8119 11.5922 20.8357 11.7481 20.8385C11.9031 20.8395 12.0562 20.8214 12.196 20.7786C12.3329 20.7396 12.4651 20.6769 12.5944 20.5942C13.1107 20.2633 13.5519 19.6804 14.0416 19.1289C14.5046 18.5955 14.9249 18.025 15.2824 17.4221C15.9946 16.2184 16.4967 14.9014 16.6174 13.5712C16.6269 13.4048 16.6488 13.2384 16.6421 13.073C16.6412 12.9075 16.6488 12.7402 16.6269 12.5757C16.6098 12.4112 16.606 12.2438 16.5708 12.0822C16.5414 11.9234 16.5195 11.737 16.4872 11.6296C16.4158 11.3871 16.2941 11.1922 16.0954 11.0572C15.9956 10.9906 15.8777 10.9374 15.7445 10.906C15.6105 10.8794 15.4659 10.8717 15.3157 10.8822C15.0162 10.9136 14.7024 11.0258 14.4172 11.214C14.1291 11.3976 13.8666 11.6448 13.6337 11.9215C13.1639 12.4749 12.7941 13.1233 12.5497 13.8137L12.5506 13.8118ZM12.4337 13.7709C12.679 13.0673 12.9909 12.3864 13.3826 11.738C13.5804 11.4147 13.8029 11.0942 14.0882 10.809C14.3706 10.5247 14.7271 10.2813 15.1465 10.1377C15.3575 10.0702 15.5838 10.0321 15.8187 10.0293C16.0545 10.0331 16.2979 10.0759 16.5318 10.1681C16.7658 10.2613 16.9797 10.4134 17.1575 10.596C17.3401 10.7786 17.4675 10.9973 17.5683 11.2207C17.6681 11.4594 17.7052 11.64 17.7584 11.8407C17.8164 12.0375 17.8421 12.24 17.8716 12.4416C17.9077 12.6432 17.9125 12.8467 17.9248 13.0501C17.9429 13.2546 17.9296 13.4561 17.921 13.6596C17.8792 14.4698 17.6947 15.2609 17.4104 16.0006C17.1271 16.7413 16.7486 17.4336 16.3122 18.0773C15.8739 18.72 15.3813 19.32 14.8355 19.8677C14.769 19.9352 14.6977 20.0075 14.633 20.0693L14.4343 20.2595C14.2993 20.3888 14.1566 20.519 14.0083 20.6474C13.7135 20.9051 13.3807 21.1561 12.9833 21.3358C12.7865 21.4262 12.5678 21.4937 12.3415 21.5222C12.119 21.5536 11.8984 21.545 11.6854 21.5108C11.4733 21.4775 11.2708 21.4166 11.0816 21.3387C10.9846 21.2987 10.9028 21.2579 10.8144 21.217C10.7269 21.178 10.6423 21.1333 10.5558 21.0915C9.87496 20.7415 9.24169 20.3175 8.66262 19.8316C8.08356 19.3448 7.55869 18.7961 7.09087 18.1961C6.85887 17.8947 6.63732 17.58 6.44335 17.2424C6.24842 16.9049 6.07632 16.5455 5.96031 16.1509C5.84431 15.7591 5.78156 15.3284 5.831 14.8843C5.88044 14.4403 6.04684 14 6.31974 13.6292C6.46046 13.4295 6.64302 13.2631 6.83795 13.1224C7.03763 12.9902 7.25062 12.878 7.47216 12.8115C7.52731 12.7915 7.58246 12.7753 7.63761 12.763C7.69276 12.7497 7.74886 12.7354 7.80496 12.724C7.91716 12.7097 8.02936 12.6869 8.14061 12.6831C8.36406 12.6612 8.58465 12.6812 8.80145 12.7078C9.23313 12.7744 9.64961 12.9256 10.0166 13.1566C10.3684 13.3839 10.6756 13.6606 10.9323 13.962C11.4534 14.5639 11.808 15.2333 12.1836 15.8723L11.9193 15.9474C11.945 15.7601 11.9725 15.5746 12.0077 15.3902C12.0429 15.2057 12.079 15.0222 12.1247 14.8415C12.1675 14.6599 12.214 14.4793 12.2682 14.3015C12.3186 14.1227 12.3747 13.9449 12.4375 13.7699L12.4337 13.7709Z" fill="#272727"/>
<path d="M27.5158 13.7922C27.7601 14.4892 27.9066 15.2204 27.9465 15.9583C28.5836 15.0369 29.2577 14.0803 30.2475 13.5545C31.2364 13.0287 32.637 13.0915 33.295 13.9976C34.3229 15.4115 33.3616 17.2914 32.425 18.4714C31.5112 19.6219 30.2865 20.5176 28.9088 21.0291C28.4999 21.1813 28.1291 21.2164 27.7877 21.1613C26.9529 21.0263 26.2806 20.2399 25.7215 19.6628C23.7399 17.6165 22.1368 14.5168 22.9222 11.6024C23.2284 10.4652 24.3666 10.1857 25.3469 10.7315C25.8632 11.0186 26.2625 11.4779 26.5953 11.9666C26.9804 12.5314 27.2895 13.1476 27.5158 13.7922Z" fill="#FF5C2A"/>
<path d="M27.5731 13.7713C27.6368 13.9463 27.6948 14.1231 27.7462 14.3019C27.8013 14.4797 27.8489 14.6604 27.8926 14.842C27.9392 15.0236 27.9753 15.2071 28.0115 15.3906C28.0476 15.5751 28.0752 15.7615 28.1008 15.9488L27.8184 15.8689C28.1921 15.229 28.5477 14.5586 29.0669 13.9529C29.3236 13.6496 29.6307 13.372 29.9816 13.1371C30.3486 12.9003 30.767 12.7416 31.2035 12.6674C31.4231 12.637 31.6465 12.6132 31.8738 12.6303C31.9869 12.6313 32.102 12.6522 32.2161 12.6655C32.2732 12.6759 32.3302 12.6893 32.3873 12.7016C32.4443 12.713 32.5014 12.7282 32.5584 12.7473L32.7286 12.8024L32.896 12.8747C32.9235 12.887 32.9521 12.8984 32.9787 12.9127L33.0595 12.9574C33.1128 12.9878 33.1679 13.0173 33.2202 13.0506C33.4275 13.1904 33.6234 13.3577 33.7793 13.5612C33.823 13.6106 33.8535 13.6582 33.8877 13.7067C33.9219 13.7542 33.9543 13.8037 33.9837 13.856C34.0465 13.9567 34.1007 14.0632 34.1501 14.1726C34.25 14.3903 34.3165 14.6233 34.3555 14.8553C34.4363 15.3222 34.3993 15.7843 34.3032 16.2064C34.1035 17.0556 33.6937 17.7706 33.2259 18.4115C32.7524 19.0504 32.1952 19.6238 31.5705 20.1049C31.2576 20.3455 30.9268 20.5604 30.5825 20.7477C30.2393 20.9379 29.8808 21.0986 29.5147 21.2317C29.4225 21.264 29.3322 21.2992 29.239 21.3268C29.1439 21.3562 29.0583 21.3848 28.9537 21.4133C28.7512 21.4675 28.5392 21.5036 28.3243 21.5103C28.1094 21.5179 27.8926 21.4998 27.6834 21.4447C27.4704 21.3914 27.2736 21.3039 27.0967 21.2003C26.7421 20.9892 26.4568 20.7201 26.1925 20.4482C26.0594 20.3132 25.9329 20.1734 25.8083 20.0365L25.4318 19.6257C24.926 19.0713 24.4534 18.4885 24.0141 17.8742C23.5776 17.259 23.1678 16.6125 22.8436 15.9088C22.5165 15.2081 22.2788 14.4464 22.2008 13.6506C22.1837 13.4518 22.1609 13.2522 22.1713 13.0506C22.1742 12.849 22.1732 12.6484 22.2046 12.4477C22.2284 12.2471 22.2493 12.0465 22.3026 11.8506C22.3511 11.6509 22.3843 11.4693 22.4794 11.2345C22.5745 11.0148 22.6981 10.798 22.875 10.6164C23.0471 10.4348 23.2572 10.2836 23.4873 10.1895C23.7165 10.0963 23.957 10.0507 24.1909 10.0459C24.4239 10.0478 24.6483 10.0849 24.8584 10.1515C25.2749 10.2922 25.6305 10.5327 25.9129 10.8161C26.1972 11.0994 26.4188 11.4189 26.6175 11.7413C27.0093 12.3888 27.323 13.0667 27.5741 13.7685L27.5731 13.7713ZM27.4562 13.8122C27.2165 13.119 26.8495 12.4687 26.3798 11.9143C26.1478 11.6376 25.8844 11.3895 25.5963 11.204C25.3101 11.0148 24.9963 10.8998 24.6939 10.8665C24.5418 10.8551 24.3954 10.8608 24.2594 10.8874C24.1244 10.9178 24.0036 10.9682 23.899 11.0338C23.6918 11.1679 23.5586 11.3657 23.4778 11.6139C23.4407 11.7251 23.4151 11.9115 23.3808 12.0712C23.3409 12.2338 23.3333 12.4021 23.3095 12.5685C23.2819 12.7339 23.2857 12.9032 23.2743 13.0715C23.2601 13.2398 23.2734 13.4091 23.2743 13.5793C23.3228 14.9333 23.6879 16.3605 24.4058 17.6251C24.7624 18.2574 25.2036 18.8441 25.7056 19.3709C25.8274 19.503 25.9624 19.6352 26.0907 19.7664C26.221 19.8967 26.3522 20.0232 26.4853 20.1439C26.7525 20.3845 27.0387 20.5956 27.3402 20.7296C27.4894 20.799 27.6435 20.8418 27.7947 20.8561C27.9468 20.8751 28.1046 20.8656 28.2568 20.839C28.4099 20.8104 28.561 20.761 28.7075 20.6973C28.7778 20.6669 28.8625 20.6241 28.9404 20.587C29.0203 20.5509 29.0973 20.5071 29.1753 20.4672C29.4853 20.3018 29.7819 20.1163 30.0681 19.9186C30.3524 19.717 30.6234 19.5002 30.8811 19.271C31.3974 18.8127 31.8529 18.2898 32.2256 17.7164C32.411 17.4302 32.5784 17.1345 32.7124 16.8331C32.8494 16.5335 32.953 16.2264 33.0139 15.9288C33.0747 15.6302 33.0871 15.3412 33.0452 15.0778C33.0253 14.9456 32.9853 14.8211 32.9368 14.7003C32.9112 14.6404 32.8845 14.5805 32.8513 14.5234C32.8361 14.494 32.8189 14.4654 32.7999 14.4379C32.7819 14.4103 32.7638 14.3789 32.7457 14.3599C32.7277 14.338 32.7105 14.3152 32.6934 14.2924C32.6763 14.2696 32.6525 14.2525 32.6335 14.2306C32.5974 14.1849 32.546 14.1536 32.5023 14.1136C32.4776 14.0965 32.451 14.0813 32.4253 14.0642L32.3873 14.0385C32.3739 14.0309 32.3587 14.0242 32.3445 14.0176L32.2598 13.9739L32.1676 13.9387C31.9213 13.8417 31.6275 13.8103 31.3318 13.817C31.0352 13.8331 30.7328 13.8911 30.4513 14.0081C30.1537 14.1288 29.8656 14.3 29.5899 14.5092C29.3122 14.7155 29.0498 14.9599 28.7978 15.2214C28.5449 15.4819 28.3053 15.7624 28.0714 16.0505L28.0552 16.0705C28.0029 16.1351 27.9088 16.1446 27.8441 16.0923C27.8061 16.0619 27.7871 16.0153 27.789 15.9706C27.7956 15.789 27.789 15.6074 27.7785 15.4249C27.768 15.2432 27.7452 15.0616 27.7195 14.881C27.691 14.7003 27.6539 14.5215 27.6111 14.3428C27.5655 14.1659 27.5132 13.99 27.4552 13.816L27.4562 13.8122Z" fill="#272727"/>
<path d="M30.9194 22.7939C31.1153 28.5114 26.8603 33.4719 21.2312 34.149C15.5223 34.8364 10.1539 30.9085 9.0813 25.2053C11.6229 25.7549 15.3664 26.2645 19.8497 25.8148C24.6781 25.3308 28.4719 23.9235 30.9194 22.793V22.7939Z" fill="#272727"/>
<path d="M30.9513 22.7412C30.978 22.9019 31.0207 23.1016 31.0379 23.3069C31.0502 23.4867 31.0569 23.6569 31.0645 23.8328C31.0673 24.0077 31.0645 24.1827 31.0645 24.3586C31.0588 24.5335 31.0436 24.7085 31.0331 24.8844C30.9751 25.5861 30.8448 26.286 30.6395 26.9658C30.2334 28.3284 29.5431 29.6168 28.6275 30.7245C28.1692 31.2779 27.6585 31.7914 27.0994 32.2459C26.5413 32.7013 25.9385 33.1064 25.2966 33.4354C24.6558 33.7663 23.9797 34.0297 23.2837 34.2103C22.9357 34.3016 22.5848 34.3767 22.2311 34.4328C21.8774 34.487 21.5218 34.5231 21.1662 34.5441C20.4549 34.5849 19.7437 34.5536 19.0439 34.4671C18.345 34.3748 17.6556 34.2303 16.9862 34.0278C15.6446 33.6303 14.3743 33.0132 13.2285 32.2069C12.0818 31.4025 11.0577 30.4012 10.2428 29.2317C9.42509 28.065 8.83746 26.7205 8.5408 25.3085C8.47899 25.0156 8.66726 24.7275 8.96012 24.6657C9.03144 24.6505 9.10275 24.6505 9.17121 24.6629L9.19784 24.6686C10.9987 25.0137 12.8234 25.222 14.65 25.2876C15.1064 25.3056 15.5638 25.318 16.0202 25.3199C16.2484 25.3199 16.4766 25.3246 16.7057 25.3218L17.3913 25.3113L18.0759 25.2904C18.3041 25.2828 18.5323 25.2666 18.7605 25.2562C18.9887 25.2486 19.2169 25.2286 19.4451 25.2143L19.7874 25.1906L20.1288 25.1582C20.356 25.1354 20.5852 25.1231 20.8124 25.0955L21.4952 25.0194C21.9487 24.9595 22.4032 24.8977 22.8558 24.8235L23.1962 24.7712L23.5357 24.7123C23.762 24.6733 23.9883 24.6343 24.2136 24.5877C24.439 24.5411 24.6653 24.5012 24.8887 24.4499C25.1131 24.4014 25.3394 24.3576 25.5638 24.3044C25.7882 24.2511 26.0126 24.2007 26.2361 24.1456L26.9064 23.9744L27.5758 23.7947C27.7974 23.7301 28.0208 23.6683 28.2424 23.6008C28.6874 23.4705 29.1295 23.3317 29.5707 23.1862C29.7922 23.1158 30.0119 23.0407 30.2325 22.9646L30.3979 22.9095C30.4616 22.8867 30.5273 22.8639 30.591 22.8439C30.7203 22.803 30.8429 22.7726 30.9523 22.7402L30.9513 22.7412ZM30.8867 22.8467C30.784 22.9104 30.6946 22.9761 30.6109 23.0312C30.5691 23.0588 30.5282 23.0844 30.4854 23.1101L30.3304 23.1938C30.1241 23.305 29.9159 23.4134 29.7057 23.519C29.2874 23.7329 28.8604 23.9278 28.4316 24.1218C28.2167 24.2169 27.999 24.3053 27.7822 24.3976L27.1261 24.66C26.9064 24.7456 26.6839 24.8226 26.4624 24.9044C26.2399 24.9833 26.0164 25.0565 25.793 25.1326C25.5695 25.2086 25.3432 25.2762 25.1179 25.3475C24.8925 25.4188 24.6634 25.4768 24.4361 25.5424C24.2089 25.608 23.9797 25.665 23.7506 25.723L23.4064 25.8105L23.0602 25.8904C22.137 26.0986 21.2032 26.2669 20.2629 26.3924L19.9101 26.439L19.5564 26.4771C19.3206 26.5008 19.0848 26.5303 18.848 26.5474C18.6112 26.5645 18.3745 26.5855 18.1377 26.5988L17.4265 26.6349L16.7143 26.6492C16.4766 26.652 16.2398 26.6492 16.0021 26.6492C15.5276 26.6397 15.0532 26.6245 14.5796 26.594C13.6326 26.5294 12.6884 26.4305 11.7509 26.2888C10.8143 26.1452 9.8834 25.9636 8.96203 25.7449L9.61906 25.105C9.83205 26.3934 10.2628 27.6523 10.9094 28.8114C11.5569 29.9686 12.4307 31.0174 13.4881 31.8541C14.5445 32.6899 15.7825 33.307 17.0899 33.6408C18.3992 33.9736 19.7703 34.003 21.0777 33.7777C21.4048 33.7216 21.7281 33.6522 22.0476 33.5656C22.3661 33.481 22.6818 33.3859 22.9899 33.2737C23.607 33.0493 24.2041 32.7812 24.7756 32.4665C25.3461 32.1498 25.8947 31.7952 26.4091 31.392C26.9216 30.9869 27.4028 30.541 27.8411 30.0542C28.7197 29.0805 29.4338 27.9518 29.9444 26.7243C30.1983 26.11 30.4055 25.472 30.5567 24.815L30.6585 24.3196C30.686 24.1532 30.7174 23.9859 30.7431 23.8185L30.8078 23.3146C30.8211 23.1767 30.861 23.0321 30.8838 22.8505L30.8867 22.8467Z" fill="#272727"/>
<path d="M19.0841 30.9009C17.6959 31.3763 16.533 32.0191 15.5859 32.6761C17.4781 33.5633 19.6308 33.9246 21.8216 33.5908C24.1055 33.2438 26.1251 32.1883 27.6969 30.6822C25.5613 30.1126 22.4539 29.7456 19.0841 30.9009Z" fill="#FF5C2A"/>
</svg>
