<svg width="60.000000" height="60.000000" viewBox="0 0 60 60" fill="none" xmlns="http://www.w3.org/2000/svg" xmlns:xlink="http://www.w3.org/1999/xlink">
	<desc>
			Created with Pixso.
	</desc>
	<defs>
		<clipPath id="clip10_15752">
			<rect id="design-tool-pen-station--Streamline-Ultimate" rx="0.000000" width="59.000000" height="59.000000" transform="translate(0.500000 0.500000)" fill="white" fill-opacity="0"/>
		</clipPath>
	</defs>
	<rect id="design-tool-pen-station--Streamline-Ultimate" rx="0.000000" width="59.000000" height="59.000000" transform="translate(0.500000 0.500000)" fill="#FFFFFF" fill-opacity="0"/>
	<g clip-path="url(#clip10_15752)">
		<path id="Vector" d="M42.5 31.25L45 31.25C46.98 31.25 48.89 32.04 50.3 33.44C51.71 34.85 52.5 36.76 52.5 38.75C52.5 40.73 51.71 42.64 50.3 44.05C48.89 45.45 46.98 46.25 45 46.25L42.5 46.25" stroke="#FFFFFF" stroke-opacity="1.000000" stroke-width="1.000000" stroke-linejoin="round" stroke-linecap="round"/>
		<path id="Vector" d="M42.5 53.75C42.5 55.07 41.97 56.34 41.03 57.28C40.09 58.22 38.82 58.75 37.5 58.75L15 58.75C13.67 58.75 12.4 58.22 11.46 57.28C10.52 56.34 10 55.07 10 53.75L10 27.5C10 27.16 10.13 26.84 10.36 26.61C10.6 26.38 10.91 26.25 11.25 26.25L41.25 26.25C41.58 26.25 41.89 26.38 42.13 26.61C42.36 26.84 42.5 27.16 42.5 27.5L42.5 53.75Z" fill="#FFFFFF" fill-opacity="1.000000" fill-rule="nonzero"/>
		<path id="Vector" d="M37.5 48.16L15 48.16C13.67 48.16 12.4 47.63 11.46 46.69C10.52 45.75 10 44.48 10 43.16L10 53.75C10 55.07 10.52 56.34 11.46 57.28C12.4 58.22 13.67 58.75 15 58.75L37.5 58.75C38.82 58.75 40.09 58.22 41.03 57.28C41.97 56.34 42.5 55.07 42.5 53.75L42.5 43.16C42.5 44.48 41.97 45.75 41.03 46.69C40.09 47.63 38.82 48.16 37.5 48.16Z" fill="#FFBDAE" fill-opacity="1.000000" fill-rule="nonzero"/>
		<path id="Vector" d="M41.03 57.28C40.09 58.22 38.82 58.75 37.5 58.75L15 58.75C13.67 58.75 12.4 58.22 11.46 57.28C10.52 56.34 10 55.07 10 53.75L10 27.5C10 27.16 10.13 26.84 10.36 26.61C10.6 26.38 10.91 26.25 11.25 26.25L41.25 26.25C41.58 26.25 41.89 26.38 42.13 26.61C42.36 26.84 42.5 27.16 42.5 27.5L42.5 53.75C42.5 55.07 41.97 56.34 41.03 57.28Z" stroke="#252222" stroke-opacity="1.000000" stroke-width="1.000000" stroke-linejoin="round"/>
		<path id="Vector" d="M44.1 15.38L40 26.24L35 26.24L41.52 14.53L44.1 15.38Z" fill="#FF5B29" fill-opacity="1.000000" fill-rule="nonzero"/>
		<path id="Vector" d="M20 26.25L12.5 26.25L8.75 18.75L13.75 15L20 26.25Z" fill="#FF5B29" fill-opacity="1.000000" fill-rule="nonzero"/>
		<path id="Vector" d="M13.75 15L8.75 18.75L7.5 11.25L13.75 15Z" fill="#FF5B29" fill-opacity="1.000000" fill-rule="nonzero"/>
		<path id="Vector" d="M32.5 2.5C32.5 2.16 32.36 1.84 32.13 1.61C31.89 1.38 31.58 1.25 31.25 1.25L23.75 1.25C23.41 1.25 23.1 1.38 22.86 1.61C22.63 1.84 22.5 2.16 22.5 2.5L22.5 26.25L32.5 26.25L32.5 2.5Z" fill="#FF5B29" fill-opacity="1.000000" fill-rule="nonzero"/>
		<path id="Vector" d="M32.5 6.25L27.5 6.25" stroke="#252222" stroke-opacity="1.000000" stroke-width="1.000000" stroke-linejoin="round" stroke-linecap="round"/>
		<path id="Vector" d="M32.5 11.25L30 11.25" stroke="#252222" stroke-opacity="1.000000" stroke-width="1.000000" stroke-linejoin="round" stroke-linecap="round"/>
		<path id="Vector" d="M32.5 16.25L27.5 16.25" stroke="#252222" stroke-opacity="1.000000" stroke-width="1.000000" stroke-linejoin="round" stroke-linecap="round"/>
		<path id="Vector" d="M32.5 21.25L30 21.25" stroke="#252222" stroke-opacity="1.000000" stroke-width="1.000000" stroke-linejoin="round" stroke-linecap="round"/>
		<path id="Vector" d="M42.19 1.41C44.78 5.34 40.94 7.5 40.06 9.61C39.83 10.1 39.7 10.64 39.69 11.18C39.67 11.72 39.78 12.26 39.98 12.76C40.19 13.27 40.5 13.72 40.9 14.09C41.29 14.47 41.76 14.75 42.28 14.93C49.53 18 51.69 3.7 42.19 1.41Z" fill="#FFFFFF" fill-opacity="1.000000" fill-rule="nonzero"/>
		<path id="Vector" d="M44.1 15.38L40 26.24L35 26.24L41.52 14.53" stroke="#252222" stroke-opacity="1.000000" stroke-width="1.000000" stroke-linejoin="round" stroke-linecap="round"/>
		<path id="Vector" d="M12.5 26.25L8.75 18.75L13.75 15L20 26.25L12.5 26.25Z" stroke="#252222" stroke-opacity="1.000000" stroke-width="1.000000" stroke-linejoin="round"/>
		<path id="Vector" d="M8.75 18.75L7.5 11.25L13.75 15L8.75 18.75Z" stroke="#252222" stroke-opacity="1.000000" stroke-width="1.000000" stroke-linejoin="round"/>
		<path id="Vector" d="M32.13 1.61C31.89 1.38 31.58 1.25 31.25 1.25L23.75 1.25C23.41 1.25 23.1 1.38 22.86 1.61C22.63 1.84 22.5 2.16 22.5 2.5L22.5 26.25L32.5 26.25L32.5 2.5C32.5 2.16 32.36 1.84 32.13 1.61Z" stroke="#252222" stroke-opacity="1.000000" stroke-width="1.000000" stroke-linejoin="round"/>
		<path id="Vector" d="M40.06 9.61C39.83 10.1 39.7 10.64 39.69 11.18C39.67 11.72 39.78 12.26 39.98 12.76C40.19 13.27 40.5 13.72 40.9 14.09C41.29 14.47 41.76 14.75 42.28 14.93C49.53 18 51.69 3.7 42.19 1.41C44.78 5.34 40.94 7.5 40.06 9.61Z" stroke="#252222" stroke-opacity="1.000000" stroke-width="1.000000" stroke-linejoin="round"/>
	</g>
</svg>
