<svg width="60.000000" height="60.000000" viewBox="0 0 60 60" fill="none" xmlns="http://www.w3.org/2000/svg" xmlns:xlink="http://www.w3.org/1999/xlink">
	<desc>
			Created with Pixso.
	</desc>
	<defs>
		<clipPath id="clip10_15573">
			<rect id="send-email-fly--Streamline-Ultimate" rx="0.000000" width="59.000000" height="59.000000" transform="translate(0.500000 0.500000)" fill="white" fill-opacity="0"/>
		</clipPath>
	</defs>
	<rect id="send-email-fly--Streamline-Ultimate" rx="0.000000" width="59.000000" height="59.000000" transform="translate(0.500000 0.500000)" fill="#FFFFFF" fill-opacity="0"/>
	<g clip-path="url(#clip10_15573)">
		<path id="Vector" d="M15 7.5L6.11 3.06C5.73 2.87 5.31 2.77 4.88 2.79C4.46 2.81 4.04 2.94 3.68 3.16C3.32 3.39 3.02 3.7 2.81 4.07C2.6 4.45 2.5 4.86 2.5 5.29L2.5 7.05C2.5 7.55 2.64 8.04 2.92 8.45C3.21 8.87 3.6 9.19 4.07 9.37L8.75 11.25L7.19 12.28C6.91 12.47 6.67 12.71 6.48 13C6.3 13.28 6.17 13.6 6.12 13.94C6.06 14.27 6.07 14.62 6.15 14.95C6.23 15.28 6.38 15.59 6.58 15.86L8 17.75C8.23 18.06 8.53 18.31 8.88 18.48C9.23 18.66 9.61 18.75 10 18.75L15 17.38L15 7.5Z" fill="#FF5B29" fill-opacity="1.000000" fill-rule="nonzero"/>
		<path id="Vector" d="M45 7.5L53.88 3.06C54.26 2.87 54.68 2.77 55.11 2.79C55.53 2.81 55.95 2.94 56.31 3.16C56.67 3.39 56.97 3.7 57.18 4.07C57.39 4.45 57.5 4.86 57.5 5.29L57.5 7.05C57.5 7.55 57.35 8.04 57.07 8.45C56.78 8.87 56.39 9.19 55.92 9.37L51.25 11.25L52.8 12.28C53.08 12.47 53.32 12.71 53.51 13C53.69 13.28 53.82 13.6 53.87 13.94C53.93 14.27 53.92 14.62 53.84 14.95C53.76 15.28 53.61 15.59 53.41 15.86L52 17.75C51.76 18.06 51.46 18.31 51.11 18.48C50.76 18.66 50.38 18.75 50 18.75L45 17.38L45 7.5Z" fill="#FF5B29" fill-opacity="1.000000" fill-rule="nonzero"/>
		<path id="Vector" d="M17.5 1.25L42.5 1.25C42.5 1.25 45 1.25 45 3.75L45 21.25C45 21.25 45 23.75 42.5 23.75L17.5 23.75C17.5 23.75 15 23.75 15 21.25L15 3.75C15 3.75 15 1.25 17.5 1.25Z" fill="#FFBDAE" fill-opacity="1.000000" fill-rule="nonzero"/>
		<path id="Vector" d="M17.5 1.25C16.83 1.25 16.19 1.51 15.73 1.98C15.26 2.45 15 3.08 15 3.75L15 21.25C15 21.91 15.26 22.54 15.73 23.01C16.19 23.48 16.83 23.75 17.5 23.75L19.56 23.75L42.06 1.25L17.5 1.25Z" fill="#FFFFFF" fill-opacity="1.000000" fill-rule="nonzero"/>
		<path id="Vector" d="M42.5 1.25C42.5 1.25 45 1.25 45 3.75L45 21.25C45 21.25 45 23.75 42.5 23.75L17.5 23.75C17.5 23.75 15 23.75 15 21.25L15 3.75C15 3.75 15 1.25 17.5 1.25L42.5 1.25Z" stroke="#252222" stroke-opacity="1.000000" stroke-width="1.000000" stroke-linejoin="round"/>
		<path id="Vector" d="M15.83 1.88L28.5 11.37C28.93 11.69 29.45 11.87 30 11.87C30.53 11.87 31.06 11.69 31.5 11.37L44.16 1.87" stroke="#252222" stroke-opacity="1.000000" stroke-width="1.000000" stroke-linejoin="round" stroke-linecap="round"/>
		<path id="Vector" d="M30 36.25L30 58.75" stroke="#FFFFFF" stroke-opacity="1.000000" stroke-width="1.000000" stroke-linejoin="round" stroke-linecap="round"/>
		<path id="Vector" d="M22.5 31.25L22.5 48.75" stroke="#FFFFFF" stroke-opacity="1.000000" stroke-width="1.000000" stroke-linejoin="round" stroke-linecap="round"/>
		<path id="Vector" d="M37.5 31.25L37.5 48.75" stroke="#FFFFFF" stroke-opacity="1.000000" stroke-width="1.000000" stroke-linejoin="round" stroke-linecap="round"/>
		<path id="Vector" d="M45 7.5L53.88 3.06C54.26 2.87 54.68 2.77 55.11 2.79C55.53 2.81 55.95 2.94 56.31 3.16C56.67 3.39 56.97 3.7 57.18 4.07C57.39 4.45 57.5 4.86 57.5 5.29L57.5 7.05C57.5 7.55 57.35 8.04 57.07 8.45C56.78 8.87 56.39 9.19 55.92 9.37L51.25 11.25L52.8 12.28C53.08 12.47 53.32 12.71 53.51 13C53.69 13.28 53.82 13.6 53.87 13.94C53.93 14.27 53.92 14.62 53.84 14.95C53.76 15.28 53.61 15.59 53.41 15.86L52 17.75C51.76 18.06 51.46 18.31 51.11 18.48C50.76 18.66 50.38 18.75 50 18.75" stroke="#252222" stroke-opacity="1.000000" stroke-width="1.000000" stroke-linejoin="round" stroke-linecap="round"/>
		<path id="Vector" d="M15 7.5L6.11 3.06C5.73 2.87 5.31 2.77 4.88 2.79C4.46 2.81 4.04 2.94 3.68 3.16C3.32 3.39 3.02 3.7 2.81 4.07C2.6 4.45 2.5 4.86 2.5 5.29L2.5 7.05C2.5 7.55 2.64 8.04 2.92 8.45C3.21 8.87 3.6 9.19 4.07 9.37L8.75 11.25L7.19 12.28C6.91 12.47 6.67 12.71 6.48 13C6.3 13.28 6.17 13.6 6.12 13.94C6.06 14.27 6.07 14.62 6.15 14.95C6.23 15.28 6.38 15.59 6.58 15.86L8 17.75C8.23 18.06 8.53 18.31 8.88 18.48C9.23 18.66 9.61 18.75 10 18.75" stroke="#252222" stroke-opacity="1.000000" stroke-width="1.000000" stroke-linejoin="round" stroke-linecap="round"/>
	</g>
</svg>
