<svg width="60.000000" height="60.000000" viewBox="0 0 60 60" fill="none" xmlns="http://www.w3.org/2000/svg" xmlns:xlink="http://www.w3.org/1999/xlink">
	<desc>
			Created with Pixso.
	</desc>
	<defs>
		<clipPath id="clip10_15699">
			<rect id="color-painting-palette--Streamline-Ultimate" rx="0.000000" width="59.000000" height="59.000000" transform="translate(0.500000 0.500000)" fill="white" fill-opacity="0"/>
		</clipPath>
	</defs>
	<rect id="color-painting-palette--Streamline-Ultimate" rx="0.000000" width="59.000000" height="59.000000" transform="translate(0.500000 0.500000)" fill="#FFFFFF" fill-opacity="0"/>
	<g clip-path="url(#clip10_15699)">
		<path id="Vector" d="M9.67 52.09C5.64 48.08 2.91 42.95 1.8 37.37C0.69 31.8 1.26 26.02 3.43 20.76C5.61 15.51 9.3 11.02 14.02 7.86C18.75 4.7 24.31 3.02 30 3.02C35.68 3.02 41.24 4.7 45.97 7.86C50.69 11.02 54.38 15.51 56.56 20.76C58.73 26.02 59.3 31.8 58.19 37.37C57.08 42.95 54.35 48.08 50.32 52.09C49.05 53.37 47.53 54.39 45.86 55.08C44.19 55.77 42.41 56.12 40.6 56.12C38.8 56.12 37.01 55.77 35.34 55.08C33.67 54.39 32.16 53.37 30.88 52.09L20.27 41.5C19.8 41.08 19.18 40.86 18.54 40.88C17.91 40.9 17.31 41.16 16.86 41.61C16.41 42.06 16.15 42.66 16.13 43.29C16.11 43.93 16.33 44.55 16.75 45.02C17.68 45.96 18.21 47.24 18.21 48.56C18.21 49.89 17.68 51.16 16.74 52.1C15.8 53.04 14.53 53.56 13.2 53.56C11.87 53.56 10.6 53.03 9.67 52.09Z" fill="#FFBDAE" fill-opacity="1.000000" fill-rule="nonzero"/>
		<path id="Vector" d="M25.58 43.19C24.31 43.19 23.04 43.12 21.78 42.99L30.88 52.09C32.16 53.37 33.67 54.39 35.34 55.08C37.01 55.77 38.8 56.12 40.6 56.12C42.41 56.12 44.2 55.77 45.87 55.08C47.53 54.39 49.05 53.37 50.33 52.09C53.93 48.49 56.51 43.99 57.8 39.05C59.09 34.12 59.05 28.93 57.67 24.02C54.55 29.82 49.92 34.66 44.27 38.03C38.62 41.41 32.16 43.19 25.58 43.19Z" fill="#FF5B29" fill-opacity="1.000000" fill-rule="nonzero"/>
		<path id="Vector" d="M16.53 42.01C10.89 40.57 5.69 37.79 1.35 33.92C1.84 40.78 4.8 47.23 9.66 52.09C10.6 53.03 11.87 53.56 13.2 53.56C14.53 53.56 15.8 53.04 16.74 52.1C17.68 51.16 18.21 49.89 18.21 48.56C18.21 47.23 17.68 45.96 16.75 45.02C16.38 44.61 16.16 44.1 16.12 43.55C16.08 43.01 16.23 42.47 16.53 42.01Z" fill="#FF5B29" fill-opacity="1.000000" fill-rule="nonzero"/>
		<path id="Vector" d="M1.8 37.5C0.69 31.92 1.26 26.14 3.43 20.89C5.61 15.63 9.3 11.14 14.02 7.98C18.75 4.82 24.31 3.14 30 3.14C35.68 3.14 41.24 4.82 45.97 7.98C50.69 11.14 54.38 15.63 56.56 20.89C58.73 26.14 59.3 31.92 58.19 37.5C57.08 43.07 54.35 48.2 50.32 52.22C49.05 53.49 47.53 54.51 45.86 55.2C44.19 55.89 42.41 56.25 40.6 56.25C38.8 56.25 37.01 55.89 35.34 55.2C33.67 54.51 32.16 53.49 30.88 52.22L20.27 41.61C19.8 41.18 19.17 40.95 18.53 40.96C17.89 40.98 17.28 41.24 16.83 41.7C16.37 42.15 16.11 42.76 16.1 43.41C16.08 44.05 16.32 44.67 16.75 45.14C17.68 46.08 18.21 47.36 18.21 48.68C18.21 50.01 17.68 51.28 16.74 52.22C15.8 53.16 14.53 53.68 13.2 53.68C11.87 53.68 10.6 53.16 9.67 52.22C5.64 48.2 2.91 43.07 1.8 37.5Z" stroke="#252222" stroke-opacity="1.000000" stroke-width="1.000000" stroke-linejoin="round"/>
		<path id="Vector" d="M43.25 22.16C42.72 22.69 42.05 23.05 41.33 23.19C40.6 23.33 39.84 23.26 39.16 22.98C38.47 22.69 37.89 22.21 37.48 21.6C37.06 20.98 36.84 20.25 36.84 19.51C36.84 18.77 37.06 18.05 37.48 17.43C37.89 16.81 38.47 16.33 39.16 16.05C39.84 15.76 40.6 15.69 41.33 15.83C42.05 15.98 42.72 16.34 43.25 16.86C43.95 17.57 44.34 18.52 44.34 19.51C44.34 20.51 43.95 21.46 43.25 22.16Z" fill="#FFFFFF" fill-opacity="1.000000" fill-rule="nonzero"/>
		<path id="Vector" d="M47.5 34.38C47.99 34.38 48.47 34.24 48.89 33.96C49.3 33.69 49.62 33.3 49.8 32.84C50 32.38 50.04 31.88 49.95 31.39C49.85 30.91 49.61 30.46 49.26 30.11C48.91 29.76 48.47 29.53 47.98 29.43C47.5 29.33 47 29.38 46.54 29.57C46.08 29.76 45.69 30.08 45.42 30.49C45.14 30.9 45 31.39 45 31.88C45 32.54 45.26 33.18 45.73 33.65C46.19 34.12 46.83 34.38 47.5 34.38Z" fill="#FFFFFF" fill-opacity="1.000000" fill-rule="nonzero"/>
		<path id="Vector" d="M37.07 47.8C36.37 47.1 35.89 46.21 35.7 45.24C35.5 44.27 35.6 43.26 35.98 42.35C36.36 41.44 37 40.66 37.82 40.11C38.64 39.56 39.61 39.26 40.6 39.26C41.59 39.26 42.56 39.56 43.38 40.11C44.2 40.66 44.84 41.44 45.22 42.35C45.6 43.26 45.7 44.27 45.5 45.24C45.31 46.21 44.83 47.1 44.14 47.8C43.2 48.74 41.92 49.26 40.6 49.26C39.28 49.26 38 48.74 37.07 47.8Z" fill="#FFBDAE" fill-opacity="1.000000" fill-rule="nonzero"/>
		<path id="Vector" d="M28.22 14.21C28.75 14.73 29.1 15.4 29.25 16.13C29.4 16.85 29.32 17.61 29.04 18.29C28.75 18.98 28.27 19.57 27.66 19.98C27.04 20.39 26.32 20.61 25.57 20.61C24.83 20.61 24.1 20.39 23.49 19.98C22.87 19.57 22.39 18.98 22.11 18.29C21.82 17.61 21.75 16.85 21.9 16.13C22.04 15.4 22.4 14.73 22.92 14.21C23.63 13.5 24.58 13.11 25.57 13.11C26.57 13.11 27.52 13.5 28.22 14.21Z" fill="#FFFFFF" fill-opacity="1.000000" fill-rule="nonzero"/>
		<path id="Vector" d="M43.25 22.16C42.72 22.69 42.05 23.05 41.33 23.19C40.6 23.33 39.84 23.26 39.16 22.98C38.47 22.69 37.89 22.21 37.48 21.6C37.06 20.98 36.84 20.25 36.84 19.51C36.84 18.77 37.06 18.05 37.48 17.43C37.89 16.81 38.47 16.33 39.16 16.05C39.84 15.76 40.6 15.69 41.33 15.83C42.05 15.98 42.72 16.34 43.25 16.86C43.95 17.57 44.34 18.52 44.34 19.51C44.34 20.51 43.95 21.46 43.25 22.16Z" fill="#FF5B29" fill-opacity="1.000000" fill-rule="nonzero"/>
		<path id="Vector" d="M41.33 23.19C40.6 23.33 39.84 23.26 39.16 22.98C38.47 22.69 37.89 22.21 37.48 21.6C37.06 20.98 36.84 20.25 36.84 19.51C36.84 18.77 37.06 18.05 37.48 17.43C37.89 16.81 38.47 16.33 39.16 16.05C39.84 15.76 40.6 15.69 41.33 15.83C42.05 15.98 42.72 16.34 43.25 16.86C43.95 17.57 44.34 18.52 44.34 19.51C44.34 20.51 43.95 21.46 43.25 22.16C42.72 22.69 42.05 23.05 41.33 23.19Z" stroke="#252222" stroke-opacity="1.000000" stroke-width="1.000000" stroke-linejoin="round"/>
		<path id="Vector" d="M48.89 33.96C49.3 33.69 49.62 33.3 49.8 32.84C50 32.38 50.04 31.88 49.95 31.39C49.85 30.91 49.61 30.46 49.26 30.11C48.91 29.76 48.47 29.53 47.98 29.43C47.5 29.33 47 29.38 46.54 29.57C46.08 29.76 45.69 30.08 45.42 30.49C45.14 30.9 45 31.39 45 31.88C45 32.54 45.26 33.18 45.73 33.65C46.19 34.12 46.83 34.38 47.5 34.38C47.99 34.38 48.47 34.24 48.89 33.96Z" stroke="#252222" stroke-opacity="1.000000" stroke-width="1.000000" stroke-linejoin="round"/>
		<path id="Vector" d="M35.7 45.24C35.5 44.27 35.6 43.26 35.98 42.35C36.36 41.44 37 40.66 37.82 40.11C38.64 39.56 39.61 39.26 40.6 39.26C41.59 39.26 42.56 39.56 43.38 40.11C44.2 40.66 44.84 41.44 45.22 42.35C45.6 43.26 45.7 44.27 45.5 45.24C45.31 46.21 44.83 47.1 44.14 47.8C43.2 48.74 41.92 49.26 40.6 49.26C39.28 49.26 38 48.74 37.07 47.8C36.37 47.1 35.89 46.21 35.7 45.24Z" stroke="#252222" stroke-opacity="1.000000" stroke-width="1.000000" stroke-linejoin="round"/>
		<path id="Vector" d="M28.22 14.21C28.75 14.73 29.1 15.4 29.25 16.13C29.4 16.85 29.32 17.61 29.04 18.29C28.75 18.98 28.27 19.57 27.66 19.98C27.04 20.39 26.32 20.61 25.57 20.61C24.83 20.61 24.1 20.39 23.49 19.98C22.87 19.57 22.39 18.98 22.11 18.29C21.82 17.61 21.75 16.85 21.9 16.13C22.04 15.4 22.4 14.73 22.92 14.21C23.63 13.5 24.58 13.11 25.57 13.11C26.57 13.11 27.52 13.5 28.22 14.21Z" fill="#FF5B29" fill-opacity="1.000000" fill-rule="nonzero"/>
		<path id="Vector" d="M29.25 16.13C29.4 16.85 29.32 17.61 29.04 18.29C28.75 18.98 28.27 19.57 27.66 19.98C27.04 20.39 26.32 20.61 25.57 20.61C24.83 20.61 24.1 20.39 23.49 19.98C22.87 19.57 22.39 18.98 22.11 18.29C21.82 17.61 21.75 16.85 21.9 16.13C22.04 15.4 22.4 14.73 22.92 14.21C23.63 13.5 24.58 13.11 25.57 13.11C26.57 13.11 27.52 13.5 28.22 14.21C28.75 14.73 29.1 15.4 29.25 16.13Z" stroke="#252222" stroke-opacity="1.000000" stroke-width="1.000000" stroke-linejoin="round"/>
	</g>
</svg>
