<svg width="56.894531" height="58.501953" viewBox="0 0 56.8945 58.502" fill="none" xmlns="http://www.w3.org/2000/svg" xmlns:xlink="http://www.w3.org/1999/xlink">
	<desc>
			Created with Pixso.
	</desc>
	<defs/>
	<path id="Vector" d="M10.5 18C10.5 20.3 10.95 22.57 11.83 24.69C12.71 26.82 14 28.75 15.62 30.37C17.25 32 19.17 33.29 21.3 34.16C23.42 35.04 25.7 35.5 28 35.5C30.29 35.5 32.57 35.04 34.69 34.16C36.82 33.29 38.75 32 40.37 30.37C42 28.75 43.28 26.82 44.16 24.69C45.04 22.57 45.5 20.3 45.5 18C45.5 15.7 45.04 13.42 44.16 11.3C43.28 9.18 42 7.25 40.37 5.62C38.75 4 36.82 2.71 34.69 1.83C32.57 0.95 30.29 0.5 28 0.5C25.7 0.5 23.42 0.95 21.3 1.83C19.17 2.71 17.25 4 15.62 5.62C14 7.25 12.71 9.18 11.83 11.3C10.95 13.42 10.5 15.7 10.5 18Z" fill="#FF5B29" fill-opacity="1.000000" fill-rule="nonzero"/>
	<path id="Vector" d="M15.5 23C15.5 19.84 16.35 16.74 17.97 14.03C19.59 11.31 21.91 9.09 24.69 7.59C27.47 6.09 30.6 5.37 33.76 5.51C36.92 5.65 39.98 6.64 42.62 8.38C41.18 6.21 39.29 4.39 37.07 3.05C34.85 1.71 32.36 0.88 29.78 0.62C27.19 0.36 24.58 0.67 22.14 1.55C19.7 2.42 17.48 3.82 15.64 5.66C13.81 7.49 12.41 9.71 11.53 12.15C10.66 14.6 10.35 17.21 10.61 19.79C10.87 22.37 11.7 24.86 13.04 27.08C14.38 29.3 16.2 31.2 18.37 32.63C16.48 29.77 15.48 26.42 15.5 23Z" fill="#FFBDAE" fill-opacity="1.000000" fill-rule="nonzero"/>
	<path id="Vector" d="M11.83 24.69C12.71 26.82 14 28.75 15.62 30.37C17.25 32 19.17 33.29 21.3 34.16C23.42 35.04 25.7 35.5 28 35.5C30.29 35.5 32.57 35.04 34.69 34.16C36.82 33.29 38.75 32 40.37 30.37C42 28.75 43.28 26.82 44.16 24.69C45.04 22.57 45.5 20.3 45.5 18C45.5 15.7 45.04 13.42 44.16 11.3C43.28 9.18 42 7.25 40.37 5.62C38.75 4 36.82 2.71 34.69 1.83C32.57 0.95 30.29 0.5 28 0.5C25.7 0.5 23.42 0.95 21.3 1.83C19.17 2.71 17.25 4 15.62 5.62C14 7.25 12.71 9.18 11.83 11.3C10.95 13.42 10.5 15.7 10.5 18C10.5 20.3 10.95 22.57 11.83 24.69Z" stroke="#252222" stroke-opacity="1.000000" stroke-width="1.000000" stroke-linejoin="round"/>
	<path id="Vector" d="M28 35.5C23 31.75 20.5 24.25 20.5 18C20.5 11.75 23 4.25 28 0.5" stroke="#252222" stroke-opacity="1.000000" stroke-width="1.000000" stroke-linejoin="round" stroke-linecap="round"/>
	<path id="Vector" d="M28 35.5C33 31.75 35.5 24.25 35.5 18C35.5 11.75 33 4.25 28 0.5" stroke="#252222" stroke-opacity="1.000000" stroke-width="1.000000" stroke-linejoin="round" stroke-linecap="round"/>
	<path id="Vector" d="M12.18 10.5L43.81 10.5" stroke="#252222" stroke-opacity="1.000000" stroke-width="1.000000" stroke-linejoin="round" stroke-linecap="round"/>
	<path id="Vector" d="M12.18 25.5L43.81 25.5" stroke="#252222" stroke-opacity="1.000000" stroke-width="1.000000" stroke-linejoin="round" stroke-linecap="round"/>
	<path id="Vector" d="M10.5 18L45.5 18" stroke="#252222" stroke-opacity="1.000000" stroke-width="1.000000" stroke-linejoin="round" stroke-linecap="round"/>
	<path id="Vector" d="M5.72 42.33C5.72 43.01 5.85 43.69 6.12 44.33C6.38 44.96 6.76 45.53 7.25 46.02C7.73 46.5 8.31 46.89 8.94 47.15C9.58 47.41 10.26 47.55 10.94 47.55C11.63 47.55 12.31 47.41 12.94 47.15C13.57 46.89 14.15 46.5 14.64 46.02C15.12 45.53 15.5 44.96 15.77 44.33C16.03 43.69 16.16 43.01 16.16 42.33C16.16 41.64 16.03 40.96 15.77 40.33C15.5 39.69 15.12 39.12 14.64 38.63C14.15 38.15 13.57 37.76 12.94 37.5C12.31 37.24 11.63 37.1 10.94 37.1C10.26 37.1 9.58 37.24 8.94 37.5C8.31 37.76 7.73 38.15 7.25 38.63C6.76 39.12 6.38 39.69 6.12 40.33C5.85 40.96 5.72 41.64 5.72 42.33Z" fill="#FFFFFF" fill-opacity="1.000000" fill-rule="nonzero"/>
	<path id="Vector" d="M6.12 44.33C6.38 44.96 6.76 45.53 7.25 46.02C7.73 46.5 8.31 46.89 8.94 47.15C9.58 47.41 10.26 47.55 10.94 47.55C11.63 47.55 12.31 47.41 12.94 47.15C13.57 46.89 14.15 46.5 14.64 46.02C15.12 45.53 15.5 44.96 15.77 44.33C16.03 43.69 16.16 43.01 16.16 42.33C16.16 41.64 16.03 40.96 15.77 40.33C15.5 39.69 15.12 39.12 14.64 38.63C14.15 38.15 13.57 37.76 12.94 37.5C12.31 37.24 11.63 37.1 10.94 37.1C10.26 37.1 9.58 37.24 8.94 37.5C8.31 37.76 7.73 38.15 7.25 38.63C6.76 39.12 6.38 39.69 6.12 40.33C5.85 40.96 5.72 41.64 5.72 42.33C5.72 43.01 5.85 43.69 6.12 44.33Z" stroke="#252222" stroke-opacity="1.000000" stroke-width="1.000000" stroke-linejoin="round"/>
	<path id="Vector" d="M21.39 58C20.8 55.68 19.45 53.62 17.56 52.15C15.67 50.68 13.34 49.88 10.94 49.88C8.55 49.88 6.22 50.68 4.33 52.15C2.44 53.62 1.09 55.68 0.5 58L21.39 58Z" fill="#FFFFFF" fill-opacity="1.000000" fill-rule="nonzero"/>
	<path id="Vector" d="M17.56 52.15C15.67 50.68 13.34 49.88 10.94 49.88C8.55 49.88 6.22 50.68 4.33 52.15C2.44 53.62 1.09 55.68 0.5 58L21.39 58C20.8 55.68 19.45 53.62 17.56 52.15Z" stroke="#252222" stroke-opacity="1.000000" stroke-width="1.000000" stroke-linejoin="round"/>
	<path id="Vector" d="M40.72 42.33C40.72 43.71 41.27 45.04 42.25 46.02C43.23 47 44.56 47.55 45.94 47.55C47.33 47.55 48.66 47 49.64 46.02C50.62 45.04 51.16 43.71 51.16 42.33C51.16 40.94 50.62 39.61 49.64 38.63C48.66 37.65 47.33 37.1 45.94 37.1C44.56 37.1 43.23 37.65 42.25 38.63C41.27 39.61 40.72 40.94 40.72 42.33Z" fill="#FFFFFF" fill-opacity="1.000000" fill-rule="nonzero"/>
	<path id="Vector" d="M42.25 46.02C43.23 47 44.56 47.55 45.94 47.55C47.33 47.55 48.66 47 49.64 46.02C50.62 45.04 51.16 43.71 51.16 42.33C51.16 40.94 50.62 39.61 49.64 38.63C48.66 37.65 47.33 37.1 45.94 37.1C44.56 37.1 43.23 37.65 42.25 38.63C41.27 39.61 40.72 40.94 40.72 42.33C40.72 43.71 41.27 45.04 42.25 46.02Z" stroke="#252222" stroke-opacity="1.000000" stroke-width="1.000000" stroke-linejoin="round"/>
	<path id="Vector" d="M56.39 58C55.8 55.68 54.45 53.62 52.56 52.15C50.67 50.68 48.34 49.88 45.94 49.88C43.55 49.88 41.22 50.68 39.33 52.15C37.44 53.62 36.09 55.68 35.5 58L56.39 58Z" fill="#FFFFFF" fill-opacity="1.000000" fill-rule="nonzero"/>
	<path id="Vector" d="M52.56 52.15C50.67 50.68 48.34 49.88 45.94 49.88C43.55 49.88 41.22 50.68 39.33 52.15C37.44 53.62 36.09 55.68 35.5 58L56.39 58C55.8 55.68 54.45 53.62 52.56 52.15Z" stroke="#252222" stroke-opacity="1.000000" stroke-width="1.000000" stroke-linejoin="round"/>
</svg>
