<svg width="60.000000" height="60.000000" viewBox="0 0 60 60" fill="none" xmlns="http://www.w3.org/2000/svg" xmlns:xlink="http://www.w3.org/1999/xlink">
	<desc>
			Created with Pixso.
	</desc>
	<defs>
		<clipPath id="clip10_15782">
			<rect id="presentation-analytics--Streamline-Ultimate" rx="0.000000" width="59.000000" height="59.000000" transform="translate(0.500000 0.500000)" fill="white" fill-opacity="0"/>
		</clipPath>
	</defs>
	<rect id="presentation-analytics--Streamline-Ultimate" rx="0.000000" width="59.000000" height="59.000000" transform="translate(0.500000 0.500000)" fill="#FFFFFF" fill-opacity="0"/>
	<g clip-path="url(#clip10_15782)">
		<path id="Vector" d="M21.3 6.25L56.25 6.25C56.91 6.25 57.54 6.51 58.01 6.98C58.48 7.45 58.75 8.08 58.75 8.75L58.75 31.25C58.75 31.91 58.48 32.54 58.01 33.01C57.54 33.48 56.91 33.75 56.25 33.75L21.3 33.75C20.64 33.75 20 33.48 19.53 33.01C19.06 32.54 18.8 31.91 18.8 31.25L18.8 8.75C18.8 8.08 19.06 7.45 19.53 6.98C20 6.51 20.64 6.25 21.3 6.25Z" fill="#FFBDAE" fill-opacity="1.000000" fill-rule="nonzero"/>
		<path id="Vector" d="M56.25 6.25L21.3 6.25C20.64 6.25 20 6.51 19.53 6.98C19.06 7.45 18.8 8.08 18.8 8.75L18.8 31.25C18.8 31.91 19.06 32.54 19.53 33.01C20 33.48 20.64 33.75 21.3 33.75L31.07 33.75L57.91 6.91C57.46 6.49 56.86 6.25 56.25 6.25Z" fill="#FFFFFF" fill-opacity="1.000000" fill-rule="nonzero"/>
		<path id="Vector" d="M27.5 6.25L56.25 6.25C56.91 6.25 57.55 6.51 58.01 6.98C58.48 7.45 58.75 8.08 58.75 8.75L58.75 31.25C58.75 31.91 58.48 32.54 58.01 33.01C57.55 33.48 56.91 33.75 56.25 33.75L31.25 33.75" stroke="#252222" stroke-opacity="1.000000" stroke-width="1.000000" stroke-linejoin="round" stroke-linecap="round"/>
		<path id="Vector" d="M18.75 58.75L20 43.75L26.25 43.75L26.25 35C26.25 31.68 24.93 28.5 22.58 26.16C20.24 23.81 17.06 22.5 13.75 22.5C10.43 22.5 7.25 23.81 4.91 26.16C2.56 28.5 1.25 31.68 1.25 35L1.25 43.75L7.5 43.75L8.75 58.75L18.75 58.75Z" fill="#FF5B29" fill-opacity="1.000000" fill-rule="nonzero"/>
		<path id="Vector" d="M20 43.75L26.25 43.75L26.25 35C26.25 31.68 24.93 28.5 22.58 26.16C20.24 23.81 17.06 22.5 13.75 22.5C10.43 22.5 7.25 23.81 4.91 26.16C2.56 28.5 1.25 31.68 1.25 35L1.25 43.75L7.5 43.75L8.75 58.75L18.75 58.75L20 43.75Z" stroke="#252222" stroke-opacity="1.000000" stroke-width="1.000000" stroke-linejoin="round"/>
		<path id="Vector" d="M13.75 18.75C15.48 18.75 17.17 18.23 18.6 17.27C20.05 16.31 21.17 14.94 21.83 13.34C22.49 11.75 22.66 9.99 22.33 8.29C21.99 6.59 21.16 5.03 19.93 3.81C18.71 2.58 17.15 1.75 15.45 1.41C13.75 1.08 12 1.25 10.4 1.91C8.8 2.57 7.43 3.69 6.47 5.13C5.51 6.57 5 8.26 5 10C5 12.32 5.92 14.54 7.56 16.18C9.2 17.82 11.42 18.75 13.75 18.75Z" fill="#FFBDAE" fill-opacity="1.000000" fill-rule="nonzero"/>
		<path id="Vector" d="M18.6 17.27C20.05 16.31 21.17 14.94 21.83 13.34C22.49 11.75 22.66 9.99 22.33 8.29C21.99 6.59 21.16 5.03 19.93 3.81C18.71 2.58 17.15 1.75 15.45 1.41C13.75 1.08 12 1.25 10.4 1.91C8.8 2.57 7.43 3.69 6.47 5.13C5.51 6.57 5 8.26 5 10C5 12.32 5.92 14.54 7.56 16.18C9.2 17.82 11.42 18.75 13.75 18.75C15.48 18.75 17.17 18.23 18.6 17.27Z" stroke="#252222" stroke-opacity="1.000000" stroke-width="1.000000" stroke-linejoin="round"/>
		<path id="Vector" d="M38.75 1.25L38.75 6.25" stroke="#252222" stroke-opacity="1.000000" stroke-width="1.000000" stroke-linejoin="round" stroke-linecap="round"/>
		<path id="Vector" d="M30 21.58L32.63 18.94C32.87 18.71 33.19 18.58 33.51 18.58C33.85 18.58 34.17 18.71 34.4 18.94L36.15 20.69C36.39 20.93 36.7 21.06 37.03 21.06C37.37 21.06 37.68 20.93 37.92 20.69L41.88 16.74C42.12 16.51 42.43 16.38 42.76 16.38C43.1 16.38 43.41 16.51 43.65 16.74L46.73 19.82C46.96 20.06 47.28 20.19 47.61 20.19C47.94 20.19 48.26 20.06 48.49 19.82L53.77 14.54" stroke="#252222" stroke-opacity="1.000000" stroke-width="1.000000" stroke-linejoin="round" stroke-linecap="round"/>
		<path id="Vector" d="M38.75 33.75L38.75 45.65" stroke="#FFFFFF" stroke-opacity="1.000000" stroke-width="1.000000" stroke-linejoin="round" stroke-linecap="round"/>
		<path id="Vector" d="M38.66 45.59L32.5 50" stroke="#FFFFFF" stroke-opacity="1.000000" stroke-width="1.000000" stroke-linejoin="round" stroke-linecap="round"/>
		<path id="Vector" d="M38.66 45.59L44.82 50" stroke="#FFFFFF" stroke-opacity="1.000000" stroke-width="1.000000" stroke-linejoin="round" stroke-linecap="round"/>
	</g>
</svg>
