<svg width="60.000000" height="60.000000" viewBox="0 0 60 60" fill="none" xmlns="http://www.w3.org/2000/svg" xmlns:xlink="http://www.w3.org/1999/xlink">
	<desc>
			Created with Pixso.
	</desc>
	<defs>
		<clipPath id="clip10_15617">
			<rect id="color-palette-sample--Streamline-Ultimate" rx="0.000000" width="59.000000" height="59.000000" transform="translate(0.500000 0.500000)" fill="white" fill-opacity="0"/>
		</clipPath>
	</defs>
	<rect id="color-palette-sample--Streamline-Ultimate" rx="0.000000" width="59.000000" height="59.000000" transform="translate(0.500000 0.500000)" fill="#FFFFFF" fill-opacity="0"/>
	<g clip-path="url(#clip10_15617)">
		<path id="Vector" d="M23.23 58.28L54.39 22.34C54.6 22.09 54.77 21.8 54.87 21.49C54.97 21.17 55.01 20.84 54.99 20.52C54.96 20.19 54.87 19.87 54.73 19.58C54.58 19.28 54.37 19.02 54.12 18.81L43.27 9.49C42.77 9.07 42.12 8.85 41.47 8.9C40.81 8.95 40.2 9.25 39.77 9.74L29.57 21.24L23.23 58.28Z" fill="#FFBDAE" fill-opacity="1.000000" fill-rule="nonzero"/>
		<path id="Vector" d="M24.22 55.52L40.97 10.34C41.2 9.71 41.17 9.03 40.9 8.42C40.62 7.82 40.12 7.35 39.5 7.12L26.27 2.22C25.96 2.1 25.62 2.05 25.28 2.06C24.95 2.08 24.62 2.16 24.32 2.3C24.01 2.45 23.74 2.65 23.52 2.9C23.3 3.16 23.12 3.45 23.02 3.77L15.94 24.91L24.22 55.52Z" fill="#FFBDAE" fill-opacity="1.000000" fill-rule="nonzero"/>
		<path id="Vector" d="M23.23 58.28L54.39 22.34C54.6 22.09 54.77 21.8 54.87 21.49C54.97 21.17 55.01 20.85 54.99 20.52C54.96 20.19 54.87 19.87 54.73 19.58C54.58 19.28 54.37 19.02 54.12 18.81L46.32 12.1L23.23 58.28ZM23.6 58.58L23.61 58.6C23.42 58.82 23.11 58.84 22.9 58.66C22.69 58.47 22.67 58.16 22.85 57.95L22.88 57.95L23.6 58.58ZM46.02 12.48L45.99 12.48C45.78 12.3 45.75 11.99 45.94 11.78C46.12 11.56 46.43 11.54 46.64 11.72L46.64 11.75L46.02 12.48Z" fill="#FFBDAE" fill-opacity="1.000000" fill-rule="nonzero"/>
		<path id="Vector" d="M23.23 58.28L54.39 22.34C54.6 22.09 54.77 21.8 54.87 21.49C54.97 21.17 55.01 20.85 54.99 20.52C54.96 20.19 54.87 19.87 54.73 19.58C54.58 19.28 54.37 19.02 54.12 18.81L46.32 12.1" stroke="#252222" stroke-opacity="1.000000" stroke-width="1.000000" stroke-linejoin="round" stroke-linecap="round"/>
		<path id="Vector" d="M4.22 3.75C4.22 3.08 4.48 2.45 4.95 1.98C5.42 1.51 6.06 1.25 6.72 1.25L21.72 1.25C22.39 1.25 23.02 1.51 23.49 1.98C23.96 2.45 24.22 3.08 24.22 3.75L24.22 56.25C24.22 56.91 23.96 57.54 23.49 58.01C23.02 58.48 22.39 58.75 21.72 58.75L6.72 58.75C6.06 58.75 5.42 58.48 4.95 58.01C4.48 57.54 4.22 56.91 4.22 56.25L4.22 3.75Z" fill="#FFFFFF" fill-opacity="1.000000" fill-rule="nonzero"/>
		<path id="Vector" d="M24.22 55.52L40.97 10.34C41.2 9.72 41.17 9.03 40.9 8.43C40.62 7.82 40.12 7.36 39.5 7.13L28.36 3" stroke="#252222" stroke-opacity="1.000000" stroke-width="1.000000" stroke-linejoin="round" stroke-linecap="round"/>
		<path id="Vector" d="M9.22 7.5C9.22 7.16 9.35 6.84 9.59 6.61C9.82 6.38 10.14 6.25 10.47 6.25L17.97 6.25C18.3 6.25 18.62 6.38 18.85 6.61C19.09 6.84 19.22 7.16 19.22 7.5L19.22 15C19.22 15.33 19.09 15.65 18.85 15.88C18.62 16.11 18.3 16.25 17.97 16.25L10.47 16.25C10.14 16.25 9.82 16.11 9.59 15.88C9.35 15.65 9.22 15.33 9.22 15L9.22 7.5Z" fill="#FF5B29" fill-opacity="1.000000" fill-rule="nonzero"/>
		<path id="Vector" d="M9.22 22.5C9.22 22.16 9.35 21.84 9.59 21.61C9.82 21.38 10.14 21.25 10.47 21.25L17.97 21.25C18.3 21.25 18.62 21.38 18.85 21.61C19.09 21.84 19.22 22.16 19.22 22.5L19.22 30C19.22 30.33 19.09 30.65 18.85 30.88C18.62 31.11 18.3 31.25 17.97 31.25L10.47 31.25C10.14 31.25 9.82 31.11 9.59 30.88C9.35 30.65 9.22 30.33 9.22 30L9.22 22.5Z" fill="#FF5B29" fill-opacity="1.000000" fill-rule="nonzero"/>
		<path id="Vector" d="M9.22 37.5C9.22 37.16 9.35 36.84 9.59 36.61C9.82 36.38 10.14 36.25 10.47 36.25L17.97 36.25C18.3 36.25 18.62 36.38 18.85 36.61C19.09 36.84 19.22 37.16 19.22 37.5L19.22 45C19.22 45.33 19.09 45.65 18.85 45.88C18.62 46.11 18.3 46.25 17.97 46.25L10.47 46.25C10.14 46.25 9.82 46.11 9.59 45.88C9.35 45.65 9.22 45.33 9.22 45L9.22 37.5Z" fill="#FF5B29" fill-opacity="1.000000" fill-rule="nonzero"/>
		<path id="Vector" d="M14.22 55C14.72 55 15.2 54.85 15.61 54.57C16.02 54.3 16.34 53.91 16.53 53.45C16.72 53 16.77 52.49 16.67 52.01C16.58 51.52 16.34 51.08 15.99 50.73C15.64 50.38 15.19 50.14 14.71 50.04C14.23 49.95 13.72 50 13.26 50.18C12.81 50.37 12.42 50.69 12.14 51.11C11.87 51.52 11.72 52 11.72 52.5C11.72 53.16 11.98 53.79 12.45 54.26C12.92 54.73 13.56 55 14.22 55Z" fill="#FFFFFF" fill-opacity="1.000000" fill-rule="nonzero"/>
		<path id="Vector" d="M4.95 1.98C5.42 1.51 6.06 1.25 6.72 1.25L21.72 1.25C22.39 1.25 23.02 1.51 23.49 1.98C23.96 2.45 24.22 3.08 24.22 3.75L24.22 56.25C24.22 56.91 23.96 57.54 23.49 58.01C23.02 58.48 22.39 58.75 21.72 58.75L6.72 58.75C6.06 58.75 5.42 58.48 4.95 58.01C4.48 57.54 4.22 56.91 4.22 56.25L4.22 3.75C4.22 3.08 4.48 2.45 4.95 1.98Z" stroke="#252222" stroke-opacity="1.000000" stroke-width="1.000000" stroke-linejoin="round"/>
		<path id="Vector" d="M9.59 6.61C9.82 6.38 10.14 6.25 10.47 6.25L17.97 6.25C18.3 6.25 18.62 6.38 18.85 6.61C19.09 6.84 19.22 7.16 19.22 7.5L19.22 15C19.22 15.33 19.09 15.65 18.85 15.88C18.62 16.11 18.3 16.25 17.97 16.25L10.47 16.25C10.14 16.25 9.82 16.11 9.59 15.88C9.35 15.65 9.22 15.33 9.22 15L9.22 7.5C9.22 7.16 9.35 6.84 9.59 6.61Z" stroke="#252222" stroke-opacity="1.000000" stroke-width="1.000000" stroke-linejoin="round"/>
		<path id="Vector" d="M9.59 21.61C9.82 21.38 10.14 21.25 10.47 21.25L17.97 21.25C18.3 21.25 18.62 21.38 18.85 21.61C19.09 21.84 19.22 22.16 19.22 22.5L19.22 30C19.22 30.33 19.09 30.65 18.85 30.88C18.62 31.11 18.3 31.25 17.97 31.25L10.47 31.25C10.14 31.25 9.82 31.11 9.59 30.88C9.35 30.65 9.22 30.33 9.22 30L9.22 22.5C9.22 22.16 9.35 21.84 9.59 21.61Z" stroke="#252222" stroke-opacity="1.000000" stroke-width="1.000000" stroke-linejoin="round"/>
		<path id="Vector" d="M9.59 36.61C9.82 36.38 10.14 36.25 10.47 36.25L17.97 36.25C18.3 36.25 18.62 36.38 18.85 36.61C19.09 36.84 19.22 37.16 19.22 37.5L19.22 45C19.22 45.33 19.09 45.65 18.85 45.88C18.62 46.11 18.3 46.25 17.97 46.25L10.47 46.25C10.14 46.25 9.82 46.11 9.59 45.88C9.35 45.65 9.22 45.33 9.22 45L9.22 37.5C9.22 37.16 9.35 36.84 9.59 36.61Z" stroke="#252222" stroke-opacity="1.000000" stroke-width="1.000000" stroke-linejoin="round"/>
		<path id="Vector" d="M15.61 54.57C16.02 54.3 16.34 53.91 16.53 53.45C16.72 53 16.77 52.49 16.67 52.01C16.58 51.52 16.34 51.08 15.99 50.73C15.64 50.38 15.19 50.14 14.71 50.04C14.23 49.95 13.72 50 13.26 50.18C12.81 50.37 12.42 50.69 12.14 51.11C11.87 51.52 11.72 52 11.72 52.5C11.72 53.16 11.98 53.79 12.45 54.26C12.92 54.73 13.56 55 14.22 55C14.72 55 15.2 54.85 15.61 54.57Z" stroke="#252222" stroke-opacity="1.000000" stroke-width="1.000000" stroke-linejoin="round"/>
	</g>
</svg>
