<svg width="60.000000" height="60.000000" viewBox="0 0 60 60" fill="none" xmlns="http://www.w3.org/2000/svg" xmlns:xlink="http://www.w3.org/1999/xlink">
	<desc>
			Created with Pixso.
	</desc>
	<defs>
		<clipPath id="clip10_15643">
			<rect id="business-contract-approve--Streamline-Ultimate" rx="0.000000" width="59.000000" height="59.000000" transform="translate(0.500000 0.500000)" fill="white" fill-opacity="0"/>
		</clipPath>
	</defs>
	<rect id="business-contract-approve--Streamline-Ultimate" rx="0.000000" width="59.000000" height="59.000000" transform="translate(0.500000 0.500000)" fill="#FFFFFF" fill-opacity="0"/>
	<g clip-path="url(#clip10_15643)">
		<path id="Vector" d="M15 6.24L45 6.24C45 6.24 46.25 6.24 46.25 7.49L46.25 57.49C46.25 57.49 46.25 58.74 45 58.74L15 58.74C15 58.74 13.75 58.74 13.75 57.49L13.75 7.49C13.75 7.49 13.75 6.24 15 6.24Z" fill="#FFBDAE" fill-opacity="1.000000" fill-rule="nonzero"/>
		<path id="Vector" d="M45.69 6.5C45.5 6.34 45.25 6.25 45 6.25L15 6.25C14.66 6.25 14.35 6.38 14.11 6.61C13.88 6.84 13.75 7.16 13.75 7.5L13.75 38.43L45.69 6.5Z" fill="#FFFFFF" fill-opacity="1.000000" fill-rule="nonzero"/>
		<path id="Vector" d="M25.62 6.25L15 6.25C14.66 6.25 14.35 6.38 14.11 6.61C13.88 6.84 13.75 7.16 13.75 7.5L13.75 57.5C13.75 57.83 13.88 58.15 14.11 58.38C14.35 58.61 14.66 58.75 15 58.75L45 58.75C45.33 58.75 45.64 58.61 45.88 58.38C46.11 58.15 46.25 57.83 46.25 57.5L46.25 24.95" stroke="#252222" stroke-opacity="1.000000" stroke-width="1.000000" stroke-linejoin="round" stroke-linecap="round"/>
		<path id="Vector" d="M58.75 55L56.25 50.16L56.25 38.75C56.35 34.3 51.04 30.34 46.25 26.25L46.25 39.87L43.66 37.23C43.38 36.93 43.04 36.7 42.66 36.53C42.29 36.37 41.88 36.28 41.47 36.27C41.06 36.27 40.66 36.34 40.27 36.49C39.89 36.65 39.54 36.87 39.25 37.16C38.96 37.44 38.72 37.78 38.56 38.16C38.4 38.54 38.31 38.94 38.31 39.35C38.3 39.77 38.38 40.17 38.53 40.55C38.69 40.93 38.92 41.28 39.21 41.57L46.25 48.75L46.25 52.5C46.63 54.73 47.48 56.86 48.75 58.75L58.75 55ZM59.16 54.76L59.19 54.76C59.32 55.01 59.22 55.31 58.98 55.44C58.73 55.57 58.43 55.47 58.3 55.23L58.31 55.2L59.16 54.76ZM49.13 58.46L49.16 58.47C49.32 58.7 49.26 59 49.02 59.16C48.79 59.32 48.49 59.26 48.33 59.02L48.33 59L49.13 58.46Z" fill="#FFBDAE" fill-opacity="1.000000" fill-rule="nonzero"/>
		<path id="Vector" d="M58.75 55L56.25 50.16L56.25 38.75C56.35 34.3 51.04 30.34 46.25 26.25L46.25 39.87L43.66 37.23C43.38 36.93 43.04 36.7 42.66 36.53C42.29 36.37 41.88 36.28 41.47 36.27C41.06 36.27 40.66 36.34 40.27 36.49C39.89 36.65 39.54 36.87 39.25 37.16C38.96 37.44 38.72 37.78 38.56 38.16C38.4 38.54 38.31 38.94 38.31 39.35C38.3 39.77 38.38 40.17 38.53 40.55C38.69 40.93 38.92 41.28 39.21 41.57L46.25 48.75L46.25 52.5C46.63 54.73 47.48 56.86 48.75 58.75" stroke="#252222" stroke-opacity="1.000000" stroke-width="1.000000" stroke-linejoin="round" stroke-linecap="round"/>
		<path id="Vector" d="M50.04 43.75L46.25 39.86" stroke="#252222" stroke-opacity="1.000000" stroke-width="1.000000" stroke-linejoin="round" stroke-linecap="round"/>
		<path id="Vector" d="M1.25 5L3.75 9.83L3.75 21.25C3.64 25.69 8.95 29.65 13.75 33.75L13.75 20.13L16.32 22.76C16.61 23.06 16.95 23.29 17.33 23.46C17.7 23.62 18.11 23.71 18.52 23.72C18.93 23.72 19.33 23.65 19.72 23.5C20.1 23.34 20.45 23.12 20.74 22.83C21.03 22.55 21.27 22.21 21.43 21.83C21.59 21.45 21.68 21.05 21.68 20.64C21.69 20.22 21.61 19.82 21.46 19.44C21.3 19.06 21.07 18.71 20.78 18.42L13.75 11.25L13.75 7.5C13.36 5.26 12.51 3.13 11.25 1.25L1.25 5ZM0.83 5.23L0.8 5.23C0.67 4.98 0.77 4.68 1.01 4.55C1.26 4.42 1.56 4.52 1.69 4.76L1.68 4.79L0.83 5.23ZM10.86 1.53L10.83 1.52C10.67 1.29 10.73 0.99 10.97 0.83C11.2 0.67 11.5 0.73 11.66 0.97L11.66 1L10.86 1.53Z" fill="#FFBDAE" fill-opacity="1.000000" fill-rule="nonzero"/>
		<path id="Vector" d="M1.25 5L3.75 9.83L3.75 21.25C3.64 25.69 8.95 29.65 13.75 33.75L13.75 20.13L16.32 22.76C16.61 23.06 16.95 23.29 17.33 23.46C17.7 23.62 18.11 23.71 18.52 23.72C18.93 23.72 19.33 23.65 19.72 23.5C20.1 23.34 20.45 23.12 20.74 22.83C21.03 22.55 21.27 22.21 21.43 21.83C21.59 21.45 21.68 21.05 21.68 20.64C21.69 20.22 21.61 19.82 21.46 19.44C21.3 19.06 21.07 18.71 20.78 18.42L13.75 11.25L13.75 7.5C13.36 5.26 12.51 3.13 11.25 1.25" stroke="#252222" stroke-opacity="1.000000" stroke-width="1.000000" stroke-linejoin="round" stroke-linecap="round"/>
		<path id="Vector" d="M9.95 16.25L13.75 20.13" stroke="#252222" stroke-opacity="1.000000" stroke-width="1.000000" stroke-linejoin="round" stroke-linecap="round"/>
		<path id="Vector" d="M32.5 38.75L18.75 38.75" stroke="#252222" stroke-opacity="1.000000" stroke-width="1.000000" stroke-linejoin="round" stroke-linecap="round"/>
		<path id="Vector" d="M41.25 31.25L18.75 31.25" stroke="#252222" stroke-opacity="1.000000" stroke-width="1.000000" stroke-linejoin="round" stroke-linecap="round"/>
		<path id="Vector" d="M30 46.25L18.75 46.25" stroke="#252222" stroke-opacity="1.000000" stroke-width="1.000000" stroke-linejoin="round" stroke-linecap="round"/>
		<path id="Vector" d="M31.2 11.24C31.2 13.89 32.25 16.44 34.13 18.31C36 20.19 38.55 21.24 41.2 21.24C43.85 21.24 46.39 20.19 48.27 18.31C50.14 16.44 51.2 13.89 51.2 11.24C51.2 8.59 50.14 6.05 48.27 4.17C46.39 2.29 43.85 1.24 41.2 1.24C38.55 1.24 36 2.29 34.13 4.17C32.25 6.05 31.2 8.59 31.2 11.24Z" fill="#FF5B29" fill-opacity="1.000000" fill-rule="nonzero"/>
		<path id="Vector" d="M34.13 18.31C36 20.19 38.55 21.24 41.2 21.24C43.85 21.24 46.39 20.19 48.27 18.31C50.14 16.44 51.2 13.89 51.2 11.24C51.2 8.59 50.14 6.05 48.27 4.17C46.39 2.29 43.85 1.24 41.2 1.24C38.55 1.24 36 2.29 34.13 4.17C32.25 6.05 31.2 8.59 31.2 11.24C31.2 13.89 32.25 16.44 34.13 18.31Z" stroke="#252222" stroke-opacity="1.000000" stroke-width="1.000000" stroke-linejoin="round"/>
		<path id="Vector" d="M51.25 3.75L42.13 12.86C42.01 12.97 41.88 13.07 41.73 13.13C41.57 13.19 41.41 13.23 41.25 13.23C41.08 13.23 40.92 13.19 40.76 13.13C40.61 13.07 40.48 12.97 40.36 12.86L37.5 10" stroke="#252222" stroke-opacity="1.000000" stroke-width="1.000000" stroke-linejoin="round" stroke-linecap="round"/>
	</g>
</svg>
