<svg width="60.000000" height="60.000000" viewBox="0 0 60 60" fill="none" xmlns="http://www.w3.org/2000/svg" xmlns:xlink="http://www.w3.org/1999/xlink">
	<desc>
			Created with Pixso.
	</desc>
	<defs>
		<clipPath id="clip10_15804">
			<rect id="discount-circle--Streamline-Ultimate" rx="0.000000" width="59.000000" height="59.000000" transform="translate(0.500000 0.500000)" fill="white" fill-opacity="0"/>
		</clipPath>
	</defs>
	<rect id="discount-circle--Streamline-Ultimate" rx="0.000000" width="59.000000" height="59.000000" transform="translate(0.500000 0.500000)" fill="#FFFFFF" fill-opacity="0"/>
	<g clip-path="url(#clip10_15804)">
		<path id="Vector" d="M1.25 30C1.25 33.77 1.99 37.51 3.43 41C4.88 44.49 7 47.66 9.67 50.33C12.33 52.99 15.5 55.11 18.99 56.56C22.48 58 26.22 58.75 30 58.75C33.77 58.75 37.51 58 41 56.56C44.49 55.11 47.66 52.99 50.32 50.33C53 47.66 55.11 44.49 56.56 41C58 37.51 58.75 33.77 58.75 30C58.75 26.22 58 22.48 56.56 18.99C55.11 15.5 53 12.33 50.32 9.66C47.66 7 44.49 4.88 41 3.43C37.51 1.99 33.77 1.25 30 1.25C26.22 1.25 22.48 1.99 18.99 3.43C15.5 4.88 12.33 7 9.67 9.66C7 12.33 4.88 15.5 3.43 18.99C1.99 22.48 1.25 26.22 1.25 30Z" fill="#FFBDAE" fill-opacity="1.000000" fill-rule="nonzero"/>
		<path id="Vector" d="M30 46.25C23.46 46.24 17.12 44.01 12.02 39.92C6.92 35.83 3.37 30.13 1.95 23.75C1 27.95 1.01 32.32 1.98 36.52C2.95 40.72 4.85 44.65 7.54 48.02C10.24 51.39 13.65 54.1 17.54 55.97C21.42 57.84 25.68 58.81 30 58.81C34.31 58.81 38.57 57.84 42.45 55.97C46.34 54.1 49.75 51.39 52.45 48.02C55.14 44.65 57.04 40.72 58.01 36.52C58.98 32.32 58.99 27.95 58.04 23.75C56.62 30.13 53.07 35.83 47.97 39.92C42.87 44.01 36.53 46.24 30 46.25Z" fill="#FF5B29" fill-opacity="1.000000" fill-rule="nonzero"/>
		<path id="Vector" d="M3.43 41C4.88 44.49 7 47.66 9.67 50.33C12.33 52.99 15.5 55.11 18.99 56.56C22.48 58 26.22 58.75 30 58.75C33.77 58.75 37.51 58 41 56.56C44.49 55.11 47.66 52.99 50.32 50.33C53 47.66 55.11 44.49 56.56 41C58 37.51 58.75 33.77 58.75 30C58.75 26.22 58 22.48 56.56 18.99C55.11 15.5 53 12.33 50.32 9.66C47.66 7 44.49 4.88 41 3.43C37.51 1.99 33.77 1.25 30 1.25C26.22 1.25 22.48 1.99 18.99 3.43C15.5 4.88 12.33 7 9.67 9.66C7 12.33 4.88 15.5 3.43 18.99C1.99 22.48 1.25 26.22 1.25 30C1.25 33.77 1.99 37.51 3.43 41Z" stroke="#252222" stroke-opacity="1.000000" stroke-width="1.000000" stroke-linejoin="round"/>
		<path id="Vector" d="M20 40L40 20" stroke="#252222" stroke-opacity="1.000000" stroke-width="1.000000" stroke-linejoin="round" stroke-linecap="round"/>
		<path id="Vector" d="M41.25 27.67L41.25 18.5L31.5 18.5" stroke="#252222" stroke-opacity="1.000000" stroke-width="1.000000" stroke-linejoin="round" stroke-linecap="round"/>
		<path id="Vector" d="M18.75 22.5C18.75 23.49 19.14 24.44 19.84 25.15C20.55 25.85 21.5 26.25 22.5 26.25C23.49 26.25 24.44 25.85 25.15 25.15C25.85 24.44 26.25 23.49 26.25 22.5C26.25 21.5 25.85 20.55 25.15 19.84C24.44 19.14 23.49 18.75 22.5 18.75C21.5 18.75 20.55 19.14 19.84 19.84C19.14 20.55 18.75 21.5 18.75 22.5Z" fill="#FFFFFF" fill-opacity="1.000000" fill-rule="nonzero"/>
		<path id="Vector" d="M19.84 25.15C20.55 25.85 21.5 26.25 22.5 26.25C23.49 26.25 24.44 25.85 25.15 25.15C25.85 24.44 26.25 23.49 26.25 22.5C26.25 21.5 25.85 20.55 25.15 19.84C24.44 19.14 23.49 18.75 22.5 18.75C21.5 18.75 20.55 19.14 19.84 19.84C19.14 20.55 18.75 21.5 18.75 22.5C18.75 23.49 19.14 24.44 19.84 25.15Z" stroke="#252222" stroke-opacity="1.000000" stroke-width="1.000000" stroke-linejoin="round"/>
		<path id="Vector" d="M33.75 37.5C33.75 38.49 34.14 39.44 34.84 40.15C35.55 40.85 36.5 41.25 37.5 41.25C38.49 41.25 39.44 40.85 40.15 40.15C40.85 39.44 41.25 38.49 41.25 37.5C41.25 36.5 40.85 35.55 40.15 34.84C39.44 34.14 38.49 33.75 37.5 33.75C36.5 33.75 35.55 34.14 34.84 34.84C34.14 35.55 33.75 36.5 33.75 37.5Z" fill="#FFFFFF" fill-opacity="1.000000" fill-rule="nonzero"/>
		<path id="Vector" d="M34.84 40.15C35.55 40.85 36.5 41.25 37.5 41.25C38.49 41.25 39.44 40.85 40.15 40.15C40.85 39.44 41.25 38.49 41.25 37.5C41.25 36.5 40.85 35.55 40.15 34.84C39.44 34.14 38.49 33.75 37.5 33.75C36.5 33.75 35.55 34.14 34.84 34.84C34.14 35.55 33.75 36.5 33.75 37.5C33.75 38.49 34.14 39.44 34.84 40.15Z" stroke="#252222" stroke-opacity="1.000000" stroke-width="1.000000" stroke-linejoin="round"/>
	</g>
</svg>
