<svg width="60.000000" height="60.000000" viewBox="0 0 60 60" fill="none" xmlns="http://www.w3.org/2000/svg" xmlns:xlink="http://www.w3.org/1999/xlink">
	<desc>
			Created with Pixso.
	</desc>
	<defs>
		<clipPath id="clip10_15823">
			<rect id="user-network--Streamline-Ultimate" rx="0.000000" width="59.000000" height="59.000000" transform="translate(0.500000 0.500000)" fill="white" fill-opacity="0"/>
		</clipPath>
	</defs>
	<rect id="user-network--Streamline-Ultimate" rx="0.000000" width="59.000000" height="59.000000" transform="translate(0.500000 0.500000)" fill="#FFFFFF" fill-opacity="0"/>
	<g clip-path="url(#clip10_15823)">
		<path id="Vector" d="M18.77 41.25C18.77 38.26 19.95 35.4 22.07 33.29C24.17 31.18 27.03 30 30.02 30C33 30 35.86 31.18 37.97 33.29C40.08 35.4 41.27 38.26 41.27 41.25L18.77 41.25Z" fill="#FF5B29" fill-opacity="1.000000" fill-rule="nonzero"/>
		<path id="Vector" d="M22.07 33.29C24.17 31.18 27.03 30 30.02 30C33 30 35.86 31.18 37.97 33.29C40.08 35.4 41.27 38.26 41.27 41.25L18.77 41.25C18.77 38.26 19.95 35.4 22.07 33.29Z" stroke="#252222" stroke-opacity="1.000000" stroke-width="1.000000" stroke-linejoin="round"/>
		<path id="Vector" d="M23.14 20.62C23.14 22.44 23.87 24.19 25.16 25.48C26.45 26.77 28.19 27.5 30.02 27.5C31.84 27.5 33.59 26.77 34.88 25.48C36.17 24.19 36.89 22.44 36.89 20.62C36.89 18.8 36.17 17.05 34.88 15.76C33.59 14.47 31.84 13.75 30.02 13.75C28.19 13.75 26.45 14.47 25.16 15.76C23.87 17.05 23.14 18.8 23.14 20.62Z" fill="#FFBDAE" fill-opacity="1.000000" fill-rule="nonzero"/>
		<path id="Vector" d="M25.16 25.48C26.45 26.77 28.19 27.5 30.02 27.5C31.84 27.5 33.59 26.77 34.88 25.48C36.17 24.19 36.89 22.44 36.89 20.62C36.89 18.8 36.17 17.05 34.88 15.76C33.59 14.47 31.84 13.75 30.02 13.75C28.19 13.75 26.45 14.47 25.16 15.76C23.87 17.05 23.14 18.8 23.14 20.62C23.14 22.44 23.87 24.19 25.16 25.48Z" stroke="#252222" stroke-opacity="1.000000" stroke-width="1.000000" stroke-linejoin="round"/>
		<path id="Vector" d="M42.48 17.54L50.25 9.83" stroke="#FFFFFF" stroke-opacity="1.000000" stroke-width="1.000000" stroke-linejoin="round" stroke-linecap="round"/>
		<path id="Vector" d="M44.89 44.94L50.17 50.26" stroke="#FFFFFF" stroke-opacity="1.000000" stroke-width="1.000000" stroke-linejoin="round" stroke-linecap="round"/>
		<path id="Vector" d="M17.48 17.54L9.71 9.83" stroke="#FFFFFF" stroke-opacity="1.000000" stroke-width="1.000000" stroke-linejoin="round" stroke-linecap="round"/>
		<path id="Vector" d="M1.23 6.25C1.23 7.57 1.76 8.84 2.7 9.78C3.64 10.72 4.91 11.25 6.23 11.25C7.56 11.25 8.83 10.72 9.77 9.78C10.71 8.84 11.23 7.57 11.23 6.25C11.23 4.92 10.71 3.65 9.77 2.71C8.83 1.77 7.56 1.25 6.23 1.25C4.91 1.25 3.64 1.77 2.7 2.71C1.76 3.65 1.23 4.92 1.23 6.25Z" fill="#FF5B29" fill-opacity="1.000000" fill-rule="nonzero"/>
		<path id="Vector" d="M6.25 5.25C7.21 5.25 8.16 5.53 8.97 6.07C9.78 6.6 10.42 7.36 10.81 8.25C11.09 7.62 11.24 6.93 11.25 6.25C11.25 5.5 11.08 4.76 10.76 4.09C10.44 3.42 9.98 2.83 9.4 2.36C8.83 1.89 8.15 1.55 7.43 1.38C6.71 1.2 5.95 1.19 5.22 1.34C4.5 1.49 3.81 1.8 3.22 2.25C2.62 2.71 2.14 3.28 1.8 3.94C1.46 4.61 1.27 5.34 1.25 6.08C1.23 6.82 1.37 7.56 1.67 8.25C2.06 7.35 2.7 6.6 3.51 6.06C4.32 5.53 5.27 5.25 6.25 5.25Z" fill="#FFBDAE" fill-opacity="1.000000" fill-rule="nonzero"/>
		<path id="Vector" d="M2.7 9.78C3.64 10.72 4.91 11.25 6.23 11.25C7.56 11.25 8.83 10.72 9.77 9.78C10.71 8.84 11.23 7.57 11.23 6.25C11.23 4.92 10.71 3.65 9.77 2.71C8.83 1.77 7.56 1.25 6.23 1.25C4.91 1.25 3.64 1.77 2.7 2.71C1.76 3.65 1.23 4.92 1.23 6.25C1.23 7.57 1.76 8.84 2.7 9.78Z" stroke="#252222" stroke-opacity="1.000000" stroke-width="1.000000" stroke-linejoin="round"/>
		<path id="Vector" d="M1.23 28.75C1.23 30.07 1.76 31.34 2.7 32.28C3.64 33.22 4.91 33.75 6.23 33.75C7.56 33.75 8.83 33.22 9.77 32.28C10.71 31.34 11.23 30.07 11.23 28.75C11.23 27.42 10.71 26.15 9.77 25.21C8.83 24.27 7.56 23.75 6.23 23.75C4.91 23.75 3.64 24.27 2.7 25.21C1.76 26.15 1.23 27.42 1.23 28.75Z" fill="#FF5B29" fill-opacity="1.000000" fill-rule="nonzero"/>
		<path id="Vector" d="M6.25 27.75C7.22 27.75 8.17 28.03 8.98 28.56C9.79 29.1 10.43 29.85 10.82 30.75C11.1 30.11 11.25 29.43 11.25 28.75C11.25 28 11.08 27.26 10.76 26.59C10.44 25.92 9.98 25.33 9.4 24.86C8.83 24.39 8.15 24.05 7.43 23.88C6.71 23.7 5.95 23.69 5.22 23.84C4.5 23.99 3.81 24.3 3.22 24.75C2.62 25.21 2.14 25.78 1.8 26.44C1.46 27.11 1.27 27.84 1.25 28.58C1.23 29.32 1.37 30.06 1.67 30.75C2.06 29.85 2.7 29.1 3.51 28.56C4.32 28.03 5.27 27.75 6.25 27.75Z" fill="#FFBDAE" fill-opacity="1.000000" fill-rule="nonzero"/>
		<path id="Vector" d="M2.7 32.28C3.64 33.22 4.91 33.75 6.23 33.75C7.56 33.75 8.83 33.22 9.77 32.28C10.71 31.34 11.23 30.07 11.23 28.75C11.23 27.42 10.71 26.15 9.77 25.21C8.83 24.27 7.56 23.75 6.23 23.75C4.91 23.75 3.64 24.27 2.7 25.21C1.76 26.15 1.23 27.42 1.23 28.75C1.23 30.07 1.76 31.34 2.7 32.28Z" stroke="#252222" stroke-opacity="1.000000" stroke-width="1.000000" stroke-linejoin="round"/>
		<path id="Vector" d="M1.23 53.75C1.23 55.07 1.76 56.34 2.7 57.28C3.64 58.22 4.91 58.75 6.23 58.75C7.56 58.75 8.83 58.22 9.77 57.28C10.71 56.34 11.23 55.07 11.23 53.75C11.23 52.42 10.71 51.15 9.77 50.21C8.83 49.27 7.56 48.75 6.23 48.75C4.91 48.75 3.64 49.27 2.7 50.21C1.76 51.15 1.23 52.42 1.23 53.75Z" fill="#FF5B29" fill-opacity="1.000000" fill-rule="nonzero"/>
		<path id="Vector" d="M6.25 52.75C7.22 52.75 8.17 53.03 8.98 53.56C9.79 54.1 10.43 54.85 10.82 55.75C11.1 55.11 11.25 54.43 11.25 53.75C11.25 53 11.08 52.26 10.76 51.59C10.44 50.92 9.98 50.33 9.4 49.86C8.83 49.39 8.15 49.05 7.43 48.88C6.71 48.7 5.95 48.69 5.22 48.84C4.5 48.99 3.81 49.3 3.22 49.75C2.62 50.21 2.14 50.78 1.8 51.44C1.46 52.11 1.27 52.84 1.25 53.58C1.23 54.32 1.37 55.06 1.67 55.75C2.06 54.85 2.7 54.1 3.51 53.56C4.32 53.03 5.27 52.75 6.25 52.75Z" fill="#FFBDAE" fill-opacity="1.000000" fill-rule="nonzero"/>
		<path id="Vector" d="M2.7 57.28C3.64 58.22 4.91 58.75 6.23 58.75C7.56 58.75 8.83 58.22 9.77 57.28C10.71 56.34 11.23 55.07 11.23 53.75C11.23 52.42 10.71 51.15 9.77 50.21C8.83 49.27 7.56 48.75 6.23 48.75C4.91 48.75 3.64 49.27 2.7 50.21C1.76 51.15 1.23 52.42 1.23 53.75C1.23 55.07 1.76 56.34 2.7 57.28Z" stroke="#252222" stroke-opacity="1.000000" stroke-width="1.000000" stroke-linejoin="round"/>
		<path id="Vector" d="M48.76 53.75C48.76 55.07 49.28 56.34 50.22 57.28C51.16 58.22 52.43 58.75 53.76 58.75C55.08 58.75 56.35 58.22 57.29 57.28C58.23 56.34 58.76 55.07 58.76 53.75C58.76 52.42 58.23 51.15 57.29 50.21C56.35 49.27 55.08 48.75 53.76 48.75C52.43 48.75 51.16 49.27 50.22 50.21C49.28 51.15 48.76 52.42 48.76 53.75Z" fill="#FF5B29" fill-opacity="1.000000" fill-rule="nonzero"/>
		<path id="Vector" d="M53.76 52.75C54.73 52.75 55.68 53.03 56.49 53.56C57.3 54.1 57.94 54.85 58.33 55.75C58.67 54.98 58.81 54.15 58.74 53.32C58.67 52.5 58.4 51.7 57.94 51C57.49 50.3 56.87 49.73 56.14 49.34C55.41 48.94 54.59 48.73 53.76 48.73C52.92 48.73 52.11 48.94 51.38 49.34C50.64 49.73 50.03 50.3 49.57 51C49.12 51.7 48.84 52.5 48.77 53.32C48.71 54.15 48.85 54.98 49.18 55.75C49.57 54.85 50.21 54.1 51.02 53.56C51.83 53.03 52.78 52.75 53.76 52.75Z" fill="#FFBDAE" fill-opacity="1.000000" fill-rule="nonzero"/>
		<path id="Vector" d="M50.22 57.28C51.16 58.22 52.43 58.75 53.76 58.75C55.08 58.75 56.35 58.22 57.29 57.28C58.23 56.34 58.76 55.07 58.76 53.75C58.76 52.42 58.23 51.15 57.29 50.21C56.35 49.27 55.08 48.75 53.76 48.75C52.43 48.75 51.16 49.27 50.22 50.21C49.28 51.15 48.76 52.42 48.76 53.75C48.76 55.07 49.28 56.34 50.22 57.28Z" stroke="#252222" stroke-opacity="1.000000" stroke-width="1.000000" stroke-linejoin="round"/>
		<path id="Vector" d="M48.76 28.75C48.76 30.07 49.28 31.34 50.22 32.28C51.16 33.22 52.43 33.75 53.76 33.75C55.08 33.75 56.35 33.22 57.29 32.28C58.23 31.34 58.76 30.07 58.76 28.75C58.76 27.42 58.23 26.15 57.29 25.21C56.35 24.27 55.08 23.75 53.76 23.75C52.43 23.75 51.16 24.27 50.22 25.21C49.28 26.15 48.76 27.42 48.76 28.75Z" fill="#FF5B29" fill-opacity="1.000000" fill-rule="nonzero"/>
		<path id="Vector" d="M53.76 27.75C54.73 27.75 55.68 28.03 56.49 28.56C57.3 29.1 57.94 29.85 58.33 30.75C58.67 29.98 58.81 29.15 58.74 28.32C58.67 27.5 58.4 26.7 57.94 26C57.49 25.3 56.87 24.73 56.14 24.34C55.41 23.94 54.59 23.73 53.76 23.73C52.92 23.73 52.11 23.94 51.38 24.34C50.64 24.73 50.03 25.3 49.57 26C49.12 26.7 48.84 27.5 48.77 28.32C48.71 29.15 48.85 29.98 49.18 30.75C49.57 29.85 50.21 29.1 51.02 28.56C51.83 28.03 52.78 27.75 53.76 27.75Z" fill="#FFBDAE" fill-opacity="1.000000" fill-rule="nonzero"/>
		<path id="Vector" d="M50.22 32.28C51.16 33.22 52.43 33.75 53.76 33.75C55.08 33.75 56.35 33.22 57.29 32.28C58.23 31.34 58.76 30.07 58.76 28.75C58.76 27.42 58.23 26.15 57.29 25.21C56.35 24.27 55.08 23.75 53.76 23.75C52.43 23.75 51.16 24.27 50.22 25.21C49.28 26.15 48.76 27.42 48.76 28.75C48.76 30.07 49.28 31.34 50.22 32.28Z" stroke="#252222" stroke-opacity="1.000000" stroke-width="1.000000" stroke-linejoin="round"/>
		<path id="Vector" d="M48.76 6.25C48.76 7.57 49.28 8.84 50.22 9.78C51.16 10.72 52.43 11.25 53.76 11.25C55.08 11.25 56.35 10.72 57.29 9.78C58.23 8.84 58.76 7.57 58.76 6.25C58.76 4.92 58.23 3.65 57.29 2.71C56.35 1.77 55.08 1.25 53.76 1.25C52.43 1.25 51.16 1.77 50.22 2.71C49.28 3.65 48.76 4.92 48.76 6.25Z" fill="#FF5B29" fill-opacity="1.000000" fill-rule="nonzero"/>
		<path id="Vector" d="M53.76 5.25C54.73 5.25 55.68 5.53 56.49 6.06C57.3 6.6 57.94 7.35 58.33 8.25C58.67 7.48 58.81 6.65 58.74 5.82C58.67 5 58.4 4.2 57.94 3.5C57.49 2.8 56.87 2.23 56.14 1.84C55.41 1.44 54.59 1.23 53.76 1.23C52.92 1.23 52.11 1.44 51.38 1.84C50.64 2.23 50.03 2.8 49.57 3.5C49.12 4.2 48.84 5 48.77 5.82C48.71 6.65 48.85 7.48 49.18 8.25C49.57 7.35 50.21 6.6 51.02 6.06C51.83 5.53 52.78 5.25 53.76 5.25Z" fill="#FFBDAE" fill-opacity="1.000000" fill-rule="nonzero"/>
		<path id="Vector" d="M50.22 9.78C51.16 10.72 52.43 11.25 53.76 11.25C55.08 11.25 56.35 10.72 57.29 9.78C58.23 8.84 58.76 7.57 58.76 6.25C58.76 4.92 58.23 3.65 57.29 2.71C56.35 1.77 55.08 1.25 53.76 1.25C52.43 1.25 51.16 1.77 50.22 2.71C49.28 3.65 48.76 4.92 48.76 6.25C48.76 7.57 49.28 8.84 50.22 9.78Z" stroke="#252222" stroke-opacity="1.000000" stroke-width="1.000000" stroke-linejoin="round"/>
		<path id="Vector" d="M15.08 44.94L9.79 50.26" stroke="#FFFFFF" stroke-opacity="1.000000" stroke-width="1.000000" stroke-linejoin="round" stroke-linecap="round"/>
		<path id="Vector" d="M41.23 28.75L48.73 28.75" stroke="#FFFFFF" stroke-opacity="1.000000" stroke-width="1.000000" stroke-linejoin="round" stroke-linecap="round"/>
		<path id="Vector" d="M18.73 28.75L11.23 28.75" stroke="#FFFFFF" stroke-opacity="1.000000" stroke-width="1.000000" stroke-linejoin="round" stroke-linecap="round"/>
	</g>
</svg>
