<svg width="1190.574219" height="1415.765625" viewBox="0 0 1190.57 1415.77" fill="none" xmlns="http://www.w3.org/2000/svg" xmlns:xlink="http://www.w3.org/1999/xlink">
	<desc>
			Created with Pixso.
	</desc>
	<defs/>
	<g opacity="0.300000">
		<path id="Subtract" d="M293.48 745.66C295.88 747.22 297.05 750.12 296.41 752.92C292.03 771.41 274.34 784.51 255.26 784.59C252.28 784.59 250.08 781.81 250.77 778.91L261.72 732.56C262.48 729.36 266.17 727.88 268.92 729.67L293.48 745.66Z" stroke="#FF5C2A" stroke-opacity="1.000000" stroke-width="1.000000"/>
		<path id="Subtract" d="M227.67 801.57C229.87 801.57 231.78 800.06 232.28 797.92L234.98 786.52C235.21 785.52 234.46 784.57 233.44 784.57L225.64 784.57C224.77 784.57 224.05 783.85 224.06 782.97L224.07 781.79C224.08 781.3 224.31 780.84 224.7 780.54L236.67 771.51C238.14 770.4 239.18 768.81 239.6 767.01L247.39 734.06C248.24 730.44 244.79 727.29 241.27 728.47L212.05 738.25C209.46 739.11 207.5 741.26 206.87 743.92L200.9 768.94C197.3 784.23 210.09 801.37 225.71 801.57L227.67 801.57Z" stroke="#FF5C2A" stroke-opacity="1.000000" stroke-width="1.000000"/>
		<path id="Subtract" d="M286.19 647.69C303.14 647.62 316.68 663.83 313.05 679.34L299.08 738.22C298.78 739.46 297.23 739.86 296.37 738.93L269.25 709.37C267.83 707.82 267.27 705.67 267.76 703.63L280.12 651.34C280.63 649.2 282.54 647.69 284.74 647.69L286.19 647.69Z" stroke="#FF5C2A" stroke-opacity="1.000000" stroke-width="1.000000"/>
		<path id="Subtract" d="M217.73 697.21C222.14 678.58 239.84 664.29 258.96 664.53C261.36 664.53 263.13 666.77 262.57 669.1L254.46 703.39C254.08 704.99 253.1 706.38 251.7 707.24C239.8 714.54 220.44 724.38 213.05 728.08C211.85 728.68 210.52 727.61 210.83 726.3L217.73 697.21Z" stroke="#FF5C2A" stroke-opacity="1.000000" stroke-width="1.000000"/>
		<path id="Subtract" d="M421.45 655.37C423.85 656.94 425.03 659.84 424.38 662.64C420.01 681.12 402.32 694.23 383.23 694.31C380.26 694.31 378.06 691.53 378.74 688.62L389.69 642.27C390.45 639.08 394.14 637.59 396.9 639.39L421.45 655.37Z" stroke="#FF5C2A" stroke-opacity="1.000000" stroke-width="1.000000"/>
		<path id="Subtract" d="M355.65 711.28C357.85 711.28 359.76 709.77 360.27 707.63L362.96 696.23C363.19 695.24 362.44 694.28 361.42 694.28L353.62 694.28C352.75 694.28 352.03 693.57 352.04 692.69L352.05 691.5C352.06 691.01 352.29 690.55 352.68 690.25L364.65 681.22C366.12 680.11 367.16 678.52 367.59 676.72L375.37 643.78C376.22 640.16 372.77 637.01 369.25 638.18L340.03 647.96C337.44 648.83 335.48 650.97 334.85 653.63L328.88 678.66C325.28 693.94 338.07 711.09 353.69 711.28L355.65 711.28Z" stroke="#FF5C2A" stroke-opacity="1.000000" stroke-width="1.000000"/>
		<path id="Subtract" d="M414.17 557.4C431.12 557.33 444.66 573.55 441.03 589.05L427.06 647.94C426.77 649.17 425.21 649.58 424.35 648.64L397.23 619.08C395.81 617.54 395.25 615.39 395.74 613.34L408.1 561.06C408.61 558.91 410.52 557.4 412.72 557.4L414.17 557.4Z" stroke="#FF5C2A" stroke-opacity="1.000000" stroke-width="1.000000"/>
		<path id="Subtract" d="M345.71 606.92C350.12 588.29 367.82 574.01 386.94 574.25C389.34 574.25 391.11 576.48 390.55 578.82L382.44 613.1C382.06 614.7 381.08 616.09 379.68 616.95C367.78 624.25 348.42 634.09 341.03 637.8C339.84 638.4 338.5 637.32 338.81 636.02L345.71 606.92Z" stroke="#FF5C2A" stroke-opacity="1.000000" stroke-width="1.000000"/>
		<path id="Subtract" d="M327.6 591.93C330 593.49 331.18 596.39 330.53 599.19C326.16 617.68 308.46 630.78 289.38 630.86C286.41 630.86 284.21 628.08 284.89 625.18L295.84 578.83C296.6 575.63 300.29 574.15 303.05 575.94L327.6 591.93Z" stroke="#FF5C2A" stroke-opacity="1.000000" stroke-width="1.000000"/>
		<path id="Subtract" d="M261.8 647.84C264 647.84 265.91 646.33 266.41 644.19L269.11 632.79C269.34 631.79 268.59 630.84 267.57 630.84L259.77 630.84C258.89 630.84 258.18 630.12 258.19 629.24L258.2 628.06C258.21 627.57 258.44 627.11 258.83 626.81L270.8 617.78C272.27 616.67 273.31 615.08 273.73 613.28L281.51 580.34C282.37 576.71 278.92 573.56 275.39 574.74L246.18 584.52C243.59 585.39 241.63 587.53 241 590.19L235.03 615.21C231.43 630.5 244.22 647.64 259.84 647.84L261.8 647.84Z" stroke="#FF5C2A" stroke-opacity="1.000000" stroke-width="1.000000"/>
		<path id="Subtract" d="M320.32 493.96C337.27 493.89 350.81 510.1 347.18 525.61L333.21 584.5C332.91 585.73 331.36 586.14 330.5 585.2L303.38 555.64C301.96 554.09 301.4 551.94 301.89 549.9L314.25 497.61C314.76 495.47 316.67 493.96 318.87 493.96L320.32 493.96Z" stroke="#FF5C2A" stroke-opacity="1.000000" stroke-width="1.000000"/>
		<path id="Subtract" d="M251.86 543.48C256.26 524.85 273.97 510.56 293.09 510.81C295.49 510.8 297.26 513.04 296.7 515.37L288.59 549.66C288.21 551.26 287.23 552.65 285.83 553.51C273.93 560.81 254.57 570.65 247.18 574.35C245.98 574.95 244.65 573.88 244.96 572.58L251.86 543.48Z" stroke="#FF5C2A" stroke-opacity="1.000000" stroke-width="1.000000"/>
		<path id="Subtract" d="M455.58 501.64C457.98 503.21 459.16 506.11 458.51 508.91C454.14 527.39 436.44 540.5 417.36 540.58C414.39 540.58 412.19 537.8 412.87 534.9L423.82 488.54C424.58 485.35 428.27 483.87 431.03 485.66L455.58 501.64Z" stroke="#FF5C2A" stroke-opacity="1.000000" stroke-width="1.000000"/>
		<path id="Subtract" d="M389.78 557.56C391.98 557.56 393.89 556.04 394.39 553.9L397.09 542.5C397.32 541.51 396.57 540.56 395.55 540.56L387.75 540.56C386.87 540.56 386.16 539.84 386.17 538.96L386.18 537.77C386.18 537.28 386.41 536.82 386.81 536.52L398.78 527.49C400.25 526.38 401.29 524.79 401.71 523L409.49 490.05C410.35 486.43 406.9 483.28 403.37 484.46L374.16 494.24C371.57 495.1 369.61 497.24 368.98 499.9L363.01 524.93C359.41 540.21 372.2 557.36 387.82 557.56L389.78 557.56Z" stroke="#FF5C2A" stroke-opacity="1.000000" stroke-width="1.000000"/>
		<path id="Subtract" d="M448.3 403.68C465.25 403.6 478.78 419.82 475.16 435.33L461.18 494.21C460.89 495.45 459.34 495.85 458.48 494.92L431.36 465.36C429.94 463.81 429.38 461.66 429.86 459.62L442.23 407.33C442.74 405.19 444.65 403.68 446.85 403.68L448.3 403.68Z" stroke="#FF5C2A" stroke-opacity="1.000000" stroke-width="1.000000"/>
		<path id="Subtract" d="M379.84 453.19C384.24 434.56 401.94 420.28 421.07 420.52C423.46 420.52 425.23 422.76 424.68 425.09L416.56 459.37C416.18 460.97 415.21 462.36 413.8 463.22C401.9 470.52 382.55 480.36 375.16 484.07C373.96 484.67 372.62 483.59 372.94 482.29L379.84 453.19Z" stroke="#FF5C2A" stroke-opacity="1.000000" stroke-width="1.000000"/>
		<path id="Subtract" d="M724.95 745.66C727.35 747.22 728.52 750.12 727.88 752.92C723.51 771.41 705.81 784.51 686.73 784.59C683.75 784.59 681.55 781.81 682.24 778.91L693.19 732.56C693.95 729.36 697.64 727.88 700.39 729.67L724.95 745.66Z" stroke="#FF5C2A" stroke-opacity="1.000000" stroke-width="1.000000"/>
		<path id="Subtract" d="M659.15 801.57C661.35 801.57 663.26 800.06 663.76 797.92L666.46 786.52C666.69 785.52 665.94 784.57 664.92 784.57L657.12 784.57C656.24 784.57 655.53 783.85 655.54 782.97L655.55 781.79C655.55 781.3 655.78 780.84 656.18 780.54L668.15 771.51C669.62 770.4 670.66 768.81 671.08 767.01L678.86 734.06C679.72 730.44 676.27 727.29 672.74 728.47L643.53 738.25C640.94 739.11 638.98 741.26 638.35 743.92L632.38 768.94C628.78 784.23 641.57 801.37 657.19 801.57L659.15 801.57Z" stroke="#FF5C2A" stroke-opacity="1.000000" stroke-width="1.000000"/>
		<path id="Subtract" d="M717.67 647.69C734.62 647.62 748.16 663.83 744.53 679.34L730.55 738.22C730.26 739.46 728.71 739.86 727.85 738.93L700.73 709.37C699.31 707.82 698.75 705.67 699.23 703.63L711.6 651.34C712.11 649.2 714.02 647.69 716.22 647.69L717.67 647.69Z" stroke="#FF5C2A" stroke-opacity="1.000000" stroke-width="1.000000"/>
		<path id="Subtract" d="M649.21 697.21C653.61 678.58 671.32 664.29 690.44 664.53C692.84 664.53 694.6 666.77 694.05 669.1L685.93 703.39C685.55 704.99 684.58 706.38 683.18 707.24C671.27 714.54 651.92 724.38 644.53 728.08C643.33 728.68 642 727.61 642.31 726.3L649.21 697.21Z" stroke="#FF5C2A" stroke-opacity="1.000000" stroke-width="1.000000"/>
		<path id="Subtract" d="M852.93 655.37C855.33 656.94 856.5 659.84 855.86 662.64C851.49 681.12 833.79 694.23 814.71 694.31C811.73 694.31 809.53 691.53 810.22 688.62L821.17 642.27C821.93 639.08 825.62 637.59 828.37 639.39L852.93 655.37Z" stroke="#FF5C2A" stroke-opacity="1.000000" stroke-width="1.000000"/>
		<path id="Subtract" d="M787.12 711.28C789.32 711.28 791.23 709.77 791.74 707.63L794.43 696.23C794.67 695.24 793.91 694.28 792.89 694.28L785.09 694.28C784.22 694.28 783.51 693.57 783.52 692.69L783.52 691.5C783.53 691.01 783.76 690.55 784.16 690.25L796.12 681.22C797.6 680.11 798.64 678.52 799.06 676.72L806.84 643.78C807.69 640.16 804.25 637.01 800.72 638.18L771.5 647.96C768.91 648.83 766.96 650.97 766.32 653.63L760.35 678.66C756.76 693.94 769.55 711.09 785.16 711.28L787.12 711.28Z" stroke="#FF5C2A" stroke-opacity="1.000000" stroke-width="1.000000"/>
		<path id="Subtract" d="M845.64 557.4C862.59 557.33 876.13 573.55 872.5 589.06L858.53 647.94C858.24 649.18 856.68 649.58 855.83 648.65L828.71 619.09C827.28 617.54 826.73 615.39 827.21 613.34L839.58 561.06C840.09 558.92 842 557.4 844.19 557.4L845.64 557.4Z" stroke="#FF5C2A" stroke-opacity="1.000000" stroke-width="1.000000"/>
		<path id="Subtract" d="M777.19 606.92C781.59 588.29 799.29 574.01 818.42 574.25C820.81 574.25 822.58 576.48 822.03 578.82L813.91 613.1C813.53 614.7 812.55 616.09 811.15 616.95C799.25 624.25 779.89 634.09 772.5 637.8C771.31 638.4 769.97 637.32 770.28 636.02L777.19 606.92Z" stroke="#FF5C2A" stroke-opacity="1.000000" stroke-width="1.000000"/>
		<path id="Subtract" d="M791.99 438.2C794.39 439.77 795.56 442.67 794.92 445.46C790.55 463.95 772.85 477.06 753.77 477.14C750.79 477.14 748.59 474.35 749.28 471.45L760.23 425.1C760.99 421.9 764.68 420.42 767.43 422.21L791.99 438.2Z" stroke="#FF5C2A" stroke-opacity="1.000000" stroke-width="1.000000"/>
		<path id="Subtract" d="M726.18 494.11C728.38 494.11 730.29 492.6 730.8 490.46L733.49 479.06C733.73 478.07 732.97 477.11 731.95 477.11L724.15 477.11C723.28 477.11 722.57 476.4 722.57 475.52L722.58 474.33C722.59 473.84 722.82 473.38 723.21 473.08L735.18 464.05C736.66 462.94 737.69 461.35 738.12 459.55L745.9 426.61C746.75 422.99 743.3 419.83 739.78 421.01L710.56 430.79C707.97 431.66 706.02 433.8 705.38 436.46L699.41 461.49C695.82 476.77 708.6 493.92 724.22 494.11L726.18 494.11Z" stroke="#FF5C2A" stroke-opacity="1.000000" stroke-width="1.000000"/>
		<path id="Subtract" d="M784.7 340.23C801.65 340.16 815.19 356.38 811.56 371.88L797.59 430.77C797.3 432 795.74 432.41 794.89 431.47L767.77 401.91C766.34 400.37 765.78 398.22 766.27 396.17L778.64 343.89C779.14 341.74 781.05 340.23 783.25 340.23L784.7 340.23Z" stroke="#FF5C2A" stroke-opacity="1.000000" stroke-width="1.000000"/>
		<path id="Subtract" d="M716.25 389.75C720.65 371.12 738.35 356.84 757.48 357.08C759.87 357.07 761.64 359.31 761.09 361.64L752.97 395.93C752.59 397.53 751.61 398.92 750.21 399.78C738.31 407.08 718.95 416.92 711.56 420.62C710.37 421.22 709.03 420.15 709.34 418.85L716.25 389.75Z" stroke="#FF5C2A" stroke-opacity="1.000000" stroke-width="1.000000"/>
		<path id="Subtract" d="M919.96 347.92C922.37 349.48 923.54 352.38 922.89 355.18C918.52 373.67 900.83 386.77 881.75 386.85C878.77 386.85 876.57 384.07 877.25 381.17L888.21 334.82C888.96 331.62 892.66 330.14 895.41 331.93L919.96 347.92Z" stroke="#FF5C2A" stroke-opacity="1.000000" stroke-width="1.000000"/>
		<path id="Subtract" d="M854.16 403.83C856.36 403.83 858.27 402.31 858.77 400.17L861.47 388.77C861.7 387.78 860.95 386.83 859.93 386.83L852.13 386.83C851.25 386.83 850.54 386.11 850.55 385.23L850.56 384.05C850.57 383.55 850.8 383.09 851.19 382.8L863.16 373.77C864.63 372.65 865.67 371.06 866.09 369.27L873.87 336.32C874.73 332.7 871.28 329.55 867.75 330.73L838.54 340.51C835.95 341.37 833.99 343.52 833.36 346.17L827.39 371.2C823.79 386.48 836.58 403.63 852.2 403.83L854.16 403.83Z" stroke="#FF5C2A" stroke-opacity="1.000000" stroke-width="1.000000"/>
		<path id="Subtract" d="M912.68 249.95C929.63 249.88 943.17 266.09 939.54 281.6L925.57 340.48C925.28 341.72 923.72 342.12 922.87 341.19L895.75 311.63C894.32 310.08 893.77 307.93 894.25 305.89L906.62 253.6C907.12 251.46 909.03 249.95 911.23 249.95L912.68 249.95Z" stroke="#FF5C2A" stroke-opacity="1.000000" stroke-width="1.000000"/>
		<path id="Subtract" d="M844.23 299.47C848.63 280.84 866.33 266.55 885.46 266.79C887.85 266.79 889.62 269.03 889.07 271.36L880.95 305.64C880.57 307.25 879.59 308.63 878.19 309.5C866.29 316.79 846.93 326.63 839.54 330.34C838.35 330.94 837.01 329.86 837.32 328.56L844.23 299.47Z" stroke="#FF5C2A" stroke-opacity="1.000000" stroke-width="1.000000"/>
		<path id="Subtract" d="M759.08 591.93C761.48 593.49 762.65 596.39 762.01 599.19C757.64 617.68 739.94 630.78 720.86 630.86C717.88 630.86 715.68 628.08 716.37 625.18L727.32 578.83C728.08 575.63 731.77 574.15 734.52 575.94L759.08 591.93Z" stroke="#FF5C2A" stroke-opacity="1.000000" stroke-width="1.000000"/>
		<path id="Subtract" d="M693.27 647.84C695.47 647.84 697.38 646.33 697.89 644.19L700.58 632.79C700.82 631.79 700.06 630.84 699.04 630.84L691.24 630.84C690.37 630.84 689.66 630.12 689.66 629.24L689.67 628.06C689.68 627.57 689.91 627.11 690.3 626.81L702.27 617.78C703.75 616.67 704.78 615.08 705.21 613.28L712.99 580.34C713.84 576.71 710.39 573.56 706.87 574.74L677.65 584.52C675.06 585.39 673.1 587.53 672.47 590.19L666.5 615.21C662.91 630.5 675.69 647.64 691.31 647.84L693.27 647.84Z" stroke="#FF5C2A" stroke-opacity="1.000000" stroke-width="1.000000"/>
		<path id="Subtract" d="M751.79 493.96C768.74 493.89 782.28 510.1 778.65 525.61L764.68 584.5C764.39 585.73 762.83 586.14 761.98 585.2L734.85 555.64C733.43 554.09 732.87 551.94 733.36 549.9L745.73 497.61C746.23 495.47 748.14 493.96 750.34 493.96L751.79 493.96Z" stroke="#FF5C2A" stroke-opacity="1.000000" stroke-width="1.000000"/>
		<path id="Subtract" d="M683.34 543.48C687.74 524.85 705.44 510.56 724.57 510.81C726.96 510.8 728.73 513.04 728.18 515.37L720.06 549.66C719.68 551.26 718.7 552.65 717.3 553.51C705.4 560.81 686.04 570.65 678.65 574.35C677.46 574.95 676.12 573.88 676.43 572.58L683.34 543.48Z" stroke="#FF5C2A" stroke-opacity="1.000000" stroke-width="1.000000"/>
		<path id="Subtract" d="M887.05 501.64C889.46 503.21 890.63 506.11 889.98 508.91C885.61 527.39 867.92 540.5 848.84 540.58C845.86 540.58 843.66 537.8 844.34 534.9L855.3 488.54C856.05 485.35 859.75 483.87 862.5 485.66L887.05 501.64Z" stroke="#FF5C2A" stroke-opacity="1.000000" stroke-width="1.000000"/>
		<path id="Subtract" d="M821.25 557.56C823.45 557.56 825.36 556.04 825.87 553.9L828.56 542.5C828.8 541.51 828.04 540.56 827.02 540.56L819.22 540.56C818.35 540.56 817.64 539.84 817.64 538.96L817.65 537.77C817.66 537.28 817.89 536.82 818.28 536.52L830.25 527.49C831.73 526.38 832.77 524.79 833.19 523L840.97 490.05C841.82 486.43 838.37 483.28 834.85 484.46L805.63 494.24C803.04 495.1 801.09 497.24 800.45 499.9L794.48 524.93C790.89 540.21 803.68 557.36 819.29 557.56L821.25 557.56Z" stroke="#FF5C2A" stroke-opacity="1.000000" stroke-width="1.000000"/>
		<path id="Subtract" d="M879.77 403.68C896.72 403.6 910.26 419.82 906.63 435.33L892.66 494.21C892.37 495.45 890.81 495.85 889.96 494.92L862.84 465.36C861.41 463.81 860.85 461.66 861.34 459.62L873.71 407.33C874.21 405.19 876.12 403.68 878.32 403.68L879.77 403.68Z" stroke="#FF5C2A" stroke-opacity="1.000000" stroke-width="1.000000"/>
		<path id="Subtract" d="M811.32 453.19C815.72 434.56 833.42 420.28 852.55 420.52C854.94 420.52 856.71 422.76 856.16 425.09L848.04 459.37C847.66 460.97 846.68 462.36 845.28 463.22C833.38 470.52 814.02 480.36 806.63 484.07C805.44 484.67 804.1 483.59 804.41 482.29L811.32 453.19Z" stroke="#FF5C2A" stroke-opacity="1.000000" stroke-width="1.000000"/>
		<path id="Subtract" d="M826.11 284.47C828.52 286.04 829.69 288.94 829.04 291.74C824.67 310.22 806.98 323.33 787.89 323.41C784.92 323.41 782.72 320.63 783.4 317.72L794.35 271.37C795.11 268.18 798.8 266.69 801.56 268.49L826.11 284.47Z" stroke="#FF5C2A" stroke-opacity="1.000000" stroke-width="1.000000"/>
		<path id="Subtract" d="M760.31 340.38C762.51 340.38 764.42 338.87 764.92 336.73L767.62 325.33C767.85 324.34 767.1 323.38 766.08 323.38L758.28 323.38C757.4 323.38 756.69 322.67 756.7 321.79L756.71 320.6C756.71 320.11 756.94 319.65 757.34 319.35L769.31 310.32C770.78 309.21 771.82 307.62 772.24 305.82L780.02 272.88C780.88 269.26 777.43 266.1 773.9 267.28L744.69 277.06C742.1 277.93 740.14 280.07 739.51 282.73L733.54 307.76C729.94 323.04 742.73 340.19 758.35 340.38L760.31 340.38Z" stroke="#FF5C2A" stroke-opacity="1.000000" stroke-width="1.000000"/>
		<path id="Subtract" d="M818.83 186.5C835.78 186.43 849.32 202.65 845.69 218.16L831.72 277.04C831.43 278.27 829.87 278.68 829.02 277.75L801.89 248.18C800.47 246.64 799.91 244.49 800.4 242.44L812.77 190.16C813.27 188.02 815.18 186.5 817.38 186.5L818.83 186.5Z" stroke="#FF5C2A" stroke-opacity="1.000000" stroke-width="1.000000"/>
		<path id="Subtract" d="M750.37 236.02C754.78 217.39 772.48 203.11 791.6 203.35C794 203.35 795.77 205.58 795.21 207.92L787.1 242.2C786.72 243.8 785.74 245.19 784.34 246.05C772.44 253.35 753.08 263.19 745.69 266.9C744.5 267.5 743.16 266.42 743.47 265.12L750.37 236.02Z" stroke="#FF5C2A" stroke-opacity="1.000000" stroke-width="1.000000"/>
		<path id="Subtract" d="M954.09 194.19C956.5 195.75 957.67 198.65 957.02 201.45C952.65 219.94 934.96 233.04 915.87 233.12C912.9 233.12 910.7 230.34 911.38 227.44L922.34 181.09C923.09 177.89 926.78 176.41 929.54 178.2L954.09 194.19Z" stroke="#FF5C2A" stroke-opacity="1.000000" stroke-width="1.000000"/>
		<path id="Subtract" d="M888.29 250.1C890.49 250.1 892.4 248.59 892.9 246.45L895.6 235.05C895.83 234.05 895.08 233.1 894.06 233.1L886.26 233.1C885.38 233.1 884.67 232.38 884.68 231.5L884.69 230.32C884.69 229.83 884.93 229.37 885.32 229.07L897.29 220.04C898.76 218.93 899.8 217.34 900.22 215.54L908 182.6C908.86 178.97 905.41 175.82 901.88 177L872.67 186.78C870.08 187.65 868.12 189.79 867.49 192.45L861.52 217.47C857.92 232.76 870.71 249.9 886.33 250.1L888.29 250.1Z" stroke="#FF5C2A" stroke-opacity="1.000000" stroke-width="1.000000"/>
		<path id="Subtract" d="M946.81 96.22C963.76 96.15 977.3 112.36 973.67 127.87L959.69 186.76C959.4 187.99 957.85 188.39 956.99 187.46L929.87 157.9C928.45 156.35 927.89 154.2 928.37 152.16L940.74 99.87C941.25 97.73 943.16 96.22 945.36 96.22L946.81 96.22Z" stroke="#FF5C2A" stroke-opacity="1.000000" stroke-width="1.000000"/>
		<path id="Subtract" d="M878.35 145.74C882.75 127.11 900.46 112.82 919.58 113.07C921.98 113.06 923.75 115.3 923.19 117.63L915.07 151.92C914.69 153.52 913.72 154.91 912.32 155.77C900.41 163.07 881.06 172.91 873.67 176.61C872.47 177.21 871.14 176.14 871.45 174.84L878.35 145.74Z" stroke="#FF5C2A" stroke-opacity="1.000000" stroke-width="1.000000"/>
		<path id="Subtract" d="M509.21 745.66C511.61 747.22 512.78 750.12 512.14 752.92C507.77 771.41 490.07 784.51 470.99 784.59C468.02 784.59 465.82 781.81 466.5 778.91L477.45 732.56C478.21 729.36 481.9 727.88 484.66 729.67L509.21 745.66Z" stroke="#FF5C2A" stroke-opacity="1.000000" stroke-width="1.000000"/>
		<path id="Subtract" d="M443.41 801.57C445.6 801.57 447.52 800.05 448.02 797.91L450.71 786.51C450.95 785.52 450.19 784.57 449.18 784.57L441.37 784.57C440.5 784.57 439.79 783.85 439.8 782.97L439.8 781.79C439.81 781.29 440.04 780.83 440.44 780.54L452.41 771.51C453.88 770.39 454.92 768.8 455.34 767.01L463.12 734.06C463.98 730.44 460.53 727.29 457 728.47L427.78 738.25C425.19 739.11 423.24 741.26 422.6 743.91L416.64 768.94C413.04 784.22 425.83 801.37 441.44 801.57L443.41 801.57Z" stroke="#FF5C2A" stroke-opacity="1.000000" stroke-width="1.000000"/>
		<path id="Subtract" d="M501.93 647.69C518.87 647.62 532.41 663.83 528.78 679.34L514.81 738.22C514.52 739.46 512.96 739.86 512.11 738.93L484.99 709.37C483.57 707.82 483.01 705.67 483.49 703.63L495.86 651.34C496.37 649.2 498.28 647.69 500.48 647.69L501.93 647.69Z" stroke="#FF5C2A" stroke-opacity="1.000000" stroke-width="1.000000"/>
		<path id="Subtract" d="M433.47 697.21C437.87 678.58 455.57 664.29 474.7 664.53C477.09 664.53 478.86 666.77 478.31 669.1L470.19 703.38C469.81 704.99 468.84 706.37 467.43 707.24C455.53 714.53 436.18 724.37 428.78 728.08C427.59 728.68 426.25 727.6 426.57 726.3L433.47 697.21Z" stroke="#FF5C2A" stroke-opacity="1.000000" stroke-width="1.000000"/>
		<path id="Subtract" d="M637.19 655.37C639.59 656.94 640.76 659.84 640.12 662.64C635.75 681.12 618.05 694.23 598.97 694.31C595.99 694.31 593.79 691.53 594.48 688.62L605.43 642.27C606.19 639.08 609.88 637.59 612.63 639.39L637.19 655.37Z" stroke="#FF5C2A" stroke-opacity="1.000000" stroke-width="1.000000"/>
		<path id="Subtract" d="M571.39 711.28C573.59 711.28 575.5 709.77 576 707.63L578.69 696.23C578.93 695.24 578.18 694.28 577.15 694.28L569.35 694.28C568.48 694.28 567.77 693.57 567.78 692.69L567.78 691.5C567.79 691.01 568.02 690.55 568.42 690.25L580.39 681.22C581.86 680.11 582.9 678.52 583.32 676.72L591.1 643.78C591.96 640.16 588.51 637.01 584.98 638.18L555.77 647.96C553.18 648.83 551.22 650.97 550.59 653.63L544.62 678.66C541.02 693.94 553.81 711.09 569.43 711.28L571.39 711.28Z" stroke="#FF5C2A" stroke-opacity="1.000000" stroke-width="1.000000"/>
		<path id="Subtract" d="M629.9 557.4C646.85 557.33 660.39 573.55 656.77 589.05L642.79 647.94C642.5 649.17 640.94 649.58 640.09 648.64L612.97 619.08C611.55 617.54 610.99 615.39 611.47 613.34L623.84 561.06C624.35 558.91 626.26 557.4 628.46 557.4L629.9 557.4Z" stroke="#FF5C2A" stroke-opacity="1.000000" stroke-width="1.000000"/>
		<path id="Subtract" d="M561.45 606.92C565.85 588.29 583.55 574.01 602.68 574.25C605.07 574.25 606.84 576.48 606.29 578.82L598.17 613.1C597.79 614.7 596.82 616.09 595.41 616.95C583.51 624.25 564.15 634.09 556.77 637.8C555.57 638.4 554.23 637.32 554.55 636.02L561.45 606.92Z" stroke="#FF5C2A" stroke-opacity="1.000000" stroke-width="1.000000"/>
		<path id="Subtract" d="M576.25 438.2C578.65 439.77 579.82 442.67 579.18 445.46C574.8 463.95 557.11 477.06 538.03 477.14C535.05 477.14 532.85 474.35 533.53 471.45L544.49 425.1C545.25 421.9 548.94 420.42 551.69 422.21L576.25 438.2Z" stroke="#FF5C2A" stroke-opacity="1.000000" stroke-width="1.000000"/>
		<path id="Subtract" d="M510.44 494.11C512.64 494.11 514.55 492.6 515.05 490.46L517.75 479.06C517.98 478.07 517.23 477.11 516.21 477.11L508.41 477.11C507.53 477.11 506.82 476.4 506.83 475.52L506.84 474.33C506.85 473.84 507.08 473.38 507.47 473.08L519.44 464.05C520.91 462.94 521.95 461.35 522.37 459.55L530.15 426.61C531.01 422.99 527.56 419.83 524.03 421.01L494.82 430.79C492.23 431.66 490.27 433.8 489.64 436.46L483.67 461.49C480.07 476.77 492.86 493.92 508.48 494.11L510.44 494.11Z" stroke="#FF5C2A" stroke-opacity="1.000000" stroke-width="1.000000"/>
		<path id="Subtract" d="M568.96 340.23C585.91 340.16 599.45 356.38 595.82 371.88L581.85 430.77C581.56 432 580 432.41 579.15 431.47L552.03 401.91C550.6 400.37 550.05 398.22 550.53 396.17L562.9 343.89C563.4 341.74 565.32 340.23 567.52 340.23L568.96 340.23Z" stroke="#FF5C2A" stroke-opacity="1.000000" stroke-width="1.000000"/>
		<path id="Subtract" d="M500.51 389.75C504.91 371.12 522.61 356.84 541.74 357.08C544.13 357.07 545.9 359.31 545.35 361.64L537.23 395.93C536.85 397.53 535.87 398.92 534.47 399.78C522.57 407.08 503.21 416.92 495.82 420.62C494.63 421.22 493.29 420.15 493.6 418.85L500.51 389.75Z" stroke="#FF5C2A" stroke-opacity="1.000000" stroke-width="1.000000"/>
		<path id="Subtract" d="M704.23 347.92C706.63 349.48 707.8 352.38 707.16 355.18C702.78 373.67 685.09 386.77 666.01 386.85C663.03 386.85 660.83 384.07 661.52 381.17L672.47 334.82C673.23 331.62 676.92 330.14 679.67 331.93L704.23 347.92Z" stroke="#FF5C2A" stroke-opacity="1.000000" stroke-width="1.000000"/>
		<path id="Subtract" d="M638.42 403.83C640.62 403.83 642.53 402.31 643.03 400.17L645.73 388.77C645.96 387.78 645.21 386.83 644.19 386.83L636.39 386.83C635.52 386.83 634.8 386.11 634.81 385.23L634.82 384.05C634.83 383.55 635.06 383.09 635.45 382.8L647.42 373.77C648.89 372.65 649.93 371.06 650.35 369.27L658.14 336.32C658.99 332.7 655.54 329.55 652.02 330.73L622.8 340.51C620.21 341.37 618.25 343.52 617.62 346.17L611.65 371.2C608.05 386.48 620.84 403.63 636.46 403.83L638.42 403.83Z" stroke="#FF5C2A" stroke-opacity="1.000000" stroke-width="1.000000"/>
		<path id="Subtract" d="M696.94 249.95C713.89 249.88 727.43 266.09 723.8 281.6L709.83 340.48C709.53 341.72 707.98 342.12 707.12 341.19L680 311.63C678.58 310.08 678.02 307.93 678.51 305.89L690.87 253.6C691.38 251.46 693.29 249.95 695.49 249.95L696.94 249.95Z" stroke="#FF5C2A" stroke-opacity="1.000000" stroke-width="1.000000"/>
		<path id="Subtract" d="M628.48 299.47C632.89 280.84 650.59 266.55 669.71 266.79C672.11 266.79 673.88 269.03 673.32 271.36L665.21 305.64C664.83 307.25 663.85 308.63 662.45 309.5C650.55 316.79 631.19 326.63 623.8 330.34C622.6 330.94 621.27 329.86 621.58 328.56L628.48 299.47Z" stroke="#FF5C2A" stroke-opacity="1.000000" stroke-width="1.000000"/>
		<path id="Subtract" d="M543.34 591.93C545.74 593.49 546.91 596.39 546.27 599.19C541.9 617.68 524.2 630.78 505.12 630.86C502.14 630.86 499.94 628.08 500.63 625.18L511.58 578.83C512.34 575.63 516.03 574.15 518.78 575.94L543.34 591.93Z" stroke="#FF5C2A" stroke-opacity="1.000000" stroke-width="1.000000"/>
		<path id="Subtract" d="M477.53 647.84C479.73 647.84 481.64 646.33 482.15 644.19L484.84 632.79C485.08 631.79 484.32 630.84 483.3 630.84L475.5 630.84C474.63 630.84 473.92 630.12 473.93 629.24L473.93 628.06C473.94 627.57 474.17 627.11 474.57 626.81L486.53 617.78C488.01 616.67 489.05 615.08 489.47 613.28L497.25 580.34C498.1 576.71 494.66 573.56 491.13 574.74L461.91 584.52C459.32 585.39 457.37 587.53 456.73 590.19L450.77 615.21C447.17 630.5 459.96 647.64 475.57 647.84L477.53 647.84Z" stroke="#FF5C2A" stroke-opacity="1.000000" stroke-width="1.000000"/>
		<path id="Subtract" d="M536.05 493.96C553 493.89 566.54 510.1 562.91 525.61L548.94 584.5C548.65 585.73 547.09 586.14 546.24 585.2L519.12 555.64C517.69 554.09 517.14 551.94 517.62 549.9L529.99 497.61C530.5 495.47 532.4 493.96 534.6 493.96L536.05 493.96Z" stroke="#FF5C2A" stroke-opacity="1.000000" stroke-width="1.000000"/>
		<path id="Subtract" d="M467.6 543.48C472 524.85 489.7 510.56 508.83 510.81C511.22 510.8 512.99 513.04 512.44 515.37L504.32 549.66C503.94 551.26 502.96 552.65 501.56 553.51C489.66 560.81 470.3 570.65 462.91 574.35C461.72 574.95 460.38 573.88 460.69 572.58L467.6 543.48Z" stroke="#FF5C2A" stroke-opacity="1.000000" stroke-width="1.000000"/>
		<path id="Subtract" d="M671.32 501.64C673.72 503.21 674.89 506.11 674.25 508.91C669.87 527.39 652.18 540.5 633.1 540.58C630.12 540.58 627.92 537.8 628.6 534.9L639.56 488.54C640.32 485.35 644.01 483.87 646.76 485.66L671.32 501.64Z" stroke="#FF5C2A" stroke-opacity="1.000000" stroke-width="1.000000"/>
		<path id="Subtract" d="M605.52 557.56C607.71 557.56 609.62 556.04 610.13 553.9L612.82 542.5C613.06 541.51 612.3 540.56 611.28 540.56L603.48 540.56C602.61 540.56 601.9 539.84 601.9 538.96L601.91 537.77C601.92 537.28 602.15 536.82 602.55 536.52L614.52 527.49C615.99 526.38 617.03 524.79 617.45 523L625.23 490.05C626.09 486.43 622.64 483.28 619.11 484.46L589.89 494.24C587.3 495.1 585.35 497.24 584.71 499.9L578.75 524.93C575.15 540.21 587.94 557.36 603.55 557.56L605.52 557.56Z" stroke="#FF5C2A" stroke-opacity="1.000000" stroke-width="1.000000"/>
		<path id="Subtract" d="M664.03 403.68C680.98 403.6 694.52 419.82 690.89 435.33L676.92 494.21C676.63 495.45 675.07 495.85 674.22 494.92L647.1 465.36C645.68 463.81 645.12 461.66 645.6 459.62L657.97 407.33C658.48 405.19 660.39 403.68 662.59 403.68L664.03 403.68Z" stroke="#FF5C2A" stroke-opacity="1.000000" stroke-width="1.000000"/>
		<path id="Subtract" d="M595.58 453.19C599.98 434.56 617.68 420.28 636.81 420.52C639.2 420.52 640.97 422.76 640.42 425.09L632.3 459.37C631.92 460.97 630.94 462.36 629.54 463.22C617.64 470.52 598.28 480.36 590.89 484.07C589.7 484.67 588.36 483.59 588.68 482.29L595.58 453.19Z" stroke="#FF5C2A" stroke-opacity="1.000000" stroke-width="1.000000"/>
		<path id="Subtract" d="M940.68 745.66C943.09 747.22 944.26 750.12 943.61 752.92C939.24 771.41 921.55 784.51 902.46 784.59C899.49 784.59 897.29 781.81 897.97 778.91L908.93 732.56C909.68 729.36 913.37 727.88 916.13 729.67L940.68 745.66Z" stroke="#FF5C2A" stroke-opacity="1.000000" stroke-width="1.000000"/>
		<path id="Subtract" d="M874.88 801.57C877.08 801.57 878.99 800.06 879.5 797.92L882.19 786.52C882.43 785.52 881.67 784.57 880.65 784.57L872.85 784.57C871.98 784.57 871.27 783.85 871.27 782.97L871.28 781.79C871.29 781.3 871.52 780.84 871.91 780.54L883.88 771.51C885.35 770.4 886.39 768.81 886.82 767.01L894.6 734.06C895.45 730.44 892 727.29 888.48 728.47L859.26 738.25C856.67 739.11 854.71 741.26 854.08 743.92L848.11 768.94C844.52 784.23 857.3 801.37 872.92 801.57L874.88 801.57Z" stroke="#FF5C2A" stroke-opacity="1.000000" stroke-width="1.000000"/>
		<path id="Subtract" d="M933.4 647.69C950.35 647.62 963.89 663.83 960.26 679.34L946.29 738.22C946 739.46 944.44 739.86 943.59 738.93L916.46 709.37C915.04 707.82 914.48 705.67 914.97 703.63L927.34 651.34C927.84 649.2 929.75 647.69 931.95 647.69L933.4 647.69Z" stroke="#FF5C2A" stroke-opacity="1.000000" stroke-width="1.000000"/>
		<path id="Subtract" d="M864.94 697.21C869.35 678.58 887.05 664.29 906.18 664.53C908.57 664.53 910.34 666.77 909.78 669.1L901.67 703.38C901.29 704.99 900.31 706.37 898.91 707.24C887.01 714.53 867.65 724.37 860.26 728.08C859.07 728.68 857.73 727.6 858.04 726.3L864.94 697.21Z" stroke="#FF5C2A" stroke-opacity="1.000000" stroke-width="1.000000"/>
		<path id="Subtract" d="M1068.67 655.37C1071.06 656.94 1072.24 659.84 1071.6 662.64C1067.23 681.12 1049.53 694.23 1030.44 694.31C1027.47 694.31 1025.27 691.53 1025.96 688.62L1036.91 642.27C1037.67 639.08 1041.36 637.59 1044.11 639.39L1068.67 655.37Z" stroke="#FF5C2A" stroke-opacity="1.000000" stroke-width="1.000000"/>
		<path id="Subtract" d="M1002.86 711.28C1005.06 711.28 1006.97 709.77 1007.48 707.63L1010.17 696.23C1010.41 695.24 1009.65 694.28 1008.63 694.28L1000.83 694.28C999.95 694.28 999.24 693.57 999.25 692.69L999.26 691.5C999.27 691.01 999.5 690.55 999.89 690.25L1011.86 681.22C1013.34 680.11 1014.38 678.52 1014.8 676.72L1022.58 643.78C1023.43 640.16 1019.98 637.01 1016.46 638.18L987.24 647.96C984.65 648.83 982.69 650.97 982.06 653.63L976.09 678.66C972.49 693.94 985.28 711.09 1000.9 711.28L1002.86 711.28Z" stroke="#FF5C2A" stroke-opacity="1.000000" stroke-width="1.000000"/>
		<path id="Subtract" d="M1061.39 557.4C1078.34 557.33 1091.88 573.55 1088.25 589.05L1074.27 647.94C1073.98 649.17 1072.43 649.58 1071.56 648.64L1044.44 619.08C1043.03 617.54 1042.47 615.39 1042.94 613.34L1055.31 561.06C1055.82 558.91 1057.74 557.4 1059.93 557.4L1061.39 557.4Z" stroke="#FF5C2A" stroke-opacity="1.000000" stroke-width="1.000000"/>
		<path id="Subtract" d="M992.92 606.92C997.32 588.29 1015.03 574.01 1034.16 574.25C1036.55 574.25 1038.31 576.48 1037.77 578.82L1029.65 613.1C1029.27 614.7 1028.29 616.09 1026.89 616.95C1014.99 624.25 995.63 634.09 988.24 637.8C987.04 638.4 985.71 637.32 986.02 636.02L992.92 606.92Z" stroke="#FF5C2A" stroke-opacity="1.000000" stroke-width="1.000000"/>
		<path id="Subtract" d="M1007.73 438.2C1010.13 439.77 1011.3 442.67 1010.66 445.46C1006.29 463.95 988.59 477.06 969.5 477.14C966.53 477.14 964.33 474.35 965.01 471.45L975.96 425.1C976.72 421.9 980.41 420.42 983.17 422.21L1007.73 438.2Z" stroke="#FF5C2A" stroke-opacity="1.000000" stroke-width="1.000000"/>
		<path id="Subtract" d="M941.92 494.11C944.12 494.11 946.03 492.6 946.53 490.46L949.23 479.06C949.46 478.07 948.71 477.11 947.69 477.11L939.89 477.11C939.01 477.11 938.3 476.4 938.31 475.52L938.32 474.33C938.32 473.84 938.55 473.38 938.95 473.08L950.92 464.05C952.39 462.94 953.43 461.35 953.85 459.55L961.63 426.61C962.49 422.99 959.04 419.83 955.51 421.01L926.3 430.79C923.71 431.66 921.75 433.8 921.12 436.46L915.15 461.49C911.55 476.77 924.34 493.92 939.96 494.11L941.92 494.11Z" stroke="#FF5C2A" stroke-opacity="1.000000" stroke-width="1.000000"/>
		<path id="Subtract" d="M1000.44 340.23C1017.39 340.16 1030.93 356.38 1027.3 371.88L1013.33 430.77C1013.04 432 1011.48 432.41 1010.62 431.47L983.5 401.91C982.08 400.37 981.52 398.22 982 396.17L994.37 343.89C994.88 341.74 996.79 340.23 998.99 340.23L1000.44 340.23Z" stroke="#FF5C2A" stroke-opacity="1.000000" stroke-width="1.000000"/>
		<path id="Subtract" d="M931.98 389.75C936.38 371.12 954.09 356.84 973.21 357.08C975.6 357.07 977.37 359.31 976.82 361.64L968.7 395.93C968.32 397.53 967.35 398.92 965.94 399.78C954.04 407.08 934.69 416.92 927.3 420.62C926.1 421.22 924.77 420.15 925.08 418.85L931.98 389.75Z" stroke="#FF5C2A" stroke-opacity="1.000000" stroke-width="1.000000"/>
		<path id="Subtract" d="M1135.69 347.92C1138.11 349.48 1139.28 352.38 1138.63 355.18C1134.26 373.67 1116.56 386.77 1097.48 386.85C1094.51 386.85 1092.31 384.07 1092.99 381.17L1103.94 334.82C1104.69 331.62 1108.39 330.14 1111.15 331.93L1135.69 347.92Z" stroke="#FF5C2A" stroke-opacity="1.000000" stroke-width="1.000000"/>
		<path id="Subtract" d="M1069.9 403.83C1072.1 403.83 1074.01 402.31 1074.52 400.17L1077.21 388.77C1077.44 387.78 1076.68 386.83 1075.67 386.83L1067.87 386.83C1067 386.83 1066.29 386.11 1066.29 385.23L1066.3 384.05C1066.31 383.55 1066.54 383.09 1066.93 382.8L1078.9 373.77C1080.38 372.65 1081.41 371.06 1081.84 369.27L1089.62 336.32C1090.47 332.7 1087.02 329.55 1083.5 330.73L1054.28 340.51C1051.68 341.37 1049.73 343.52 1049.1 346.17L1043.13 371.2C1039.54 386.48 1052.31 403.63 1067.93 403.83L1069.9 403.83Z" stroke="#FF5C2A" stroke-opacity="1.000000" stroke-width="1.000000"/>
		<path id="Subtract" d="M1128.42 249.95C1145.37 249.88 1158.91 266.09 1155.28 281.6L1141.31 340.48C1141.02 341.72 1139.46 342.12 1138.61 341.19L1111.48 311.63C1110.06 310.08 1109.5 307.93 1109.99 305.89L1122.36 253.6C1122.86 251.46 1124.77 249.95 1126.97 249.95L1128.42 249.95Z" stroke="#FF5C2A" stroke-opacity="1.000000" stroke-width="1.000000"/>
		<path id="Subtract" d="M1059.96 299.47C1064.37 280.84 1082.06 266.55 1101.19 266.79C1103.59 266.79 1105.36 269.03 1104.8 271.36L1096.68 305.64C1096.31 307.25 1095.32 308.63 1093.93 309.5C1082.03 316.79 1062.67 326.63 1055.28 330.34C1054.09 330.94 1052.75 329.86 1053.06 328.56L1059.96 299.47Z" stroke="#FF5C2A" stroke-opacity="1.000000" stroke-width="1.000000"/>
		<path id="Subtract" d="M974.81 591.93C977.21 593.49 978.39 596.39 977.74 599.19C973.37 617.68 955.68 630.78 936.59 630.86C933.62 630.86 931.42 628.08 932.1 625.18L943.05 578.83C943.81 575.63 947.5 574.15 950.26 575.94L974.81 591.93Z" stroke="#FF5C2A" stroke-opacity="1.000000" stroke-width="1.000000"/>
		<path id="Subtract" d="M909.01 647.84C911.21 647.84 913.12 646.33 913.62 644.19L916.32 632.79C916.55 631.79 915.8 630.84 914.78 630.84L906.98 630.84C906.1 630.84 905.39 630.12 905.4 629.24L905.41 628.06C905.41 627.57 905.64 627.11 906.04 626.81L918.01 617.78C919.48 616.67 920.52 615.08 920.94 613.28L928.72 580.34C929.58 576.71 926.13 573.56 922.6 574.74L893.39 584.52C890.8 585.39 888.84 587.53 888.21 590.19L882.24 615.21C878.64 630.5 891.43 647.64 907.05 647.84L909.01 647.84Z" stroke="#FF5C2A" stroke-opacity="1.000000" stroke-width="1.000000"/>
		<path id="Subtract" d="M967.53 493.96C984.48 493.89 998.02 510.1 994.39 525.61L980.42 584.5C980.12 585.73 978.57 586.14 977.71 585.2L950.59 555.64C949.17 554.09 948.61 551.94 949.1 549.9L961.46 497.61C961.97 495.47 963.88 493.96 966.08 493.96L967.53 493.96Z" stroke="#FF5C2A" stroke-opacity="1.000000" stroke-width="1.000000"/>
		<path id="Subtract" d="M899.07 543.48C903.47 524.85 921.18 510.56 940.3 510.81C942.69 510.8 944.46 513.04 943.91 515.37L935.79 549.66C935.41 551.26 934.44 552.65 933.03 553.51C921.13 560.81 901.78 570.65 894.39 574.35C893.19 574.95 891.85 573.88 892.17 572.58L899.07 543.48Z" stroke="#FF5C2A" stroke-opacity="1.000000" stroke-width="1.000000"/>
		<path id="Subtract" d="M1102.79 501.64C1105.19 503.21 1106.37 506.11 1105.72 508.91C1101.35 527.39 1083.66 540.5 1064.56 540.58C1061.6 540.58 1059.4 537.8 1060.07 534.9L1071.04 488.54C1071.79 485.35 1075.48 483.87 1078.24 485.66L1102.79 501.64Z" stroke="#FF5C2A" stroke-opacity="1.000000" stroke-width="1.000000"/>
		<path id="Subtract" d="M1036.99 557.56C1039.18 557.56 1041.1 556.04 1041.61 553.9L1044.3 542.5C1044.54 541.51 1043.78 540.56 1042.76 540.56L1034.96 540.56C1034.09 540.56 1033.38 539.84 1033.38 538.96L1033.39 537.77C1033.4 537.28 1033.63 536.82 1034.02 536.52L1045.99 527.49C1047.46 526.38 1048.5 524.79 1048.93 523L1056.71 490.05C1057.56 486.43 1054.11 483.28 1050.59 484.46L1021.37 494.24C1018.78 495.1 1016.82 497.24 1016.19 499.9L1010.22 524.93C1006.62 540.21 1019.41 557.36 1035.03 557.56L1036.99 557.56Z" stroke="#FF5C2A" stroke-opacity="1.000000" stroke-width="1.000000"/>
		<path id="Subtract" d="M1095.51 403.68C1112.46 403.6 1126 419.82 1122.37 435.33L1108.4 494.21C1108.11 495.45 1106.55 495.85 1105.69 494.92L1078.56 465.36C1077.15 463.81 1076.59 461.66 1077.07 459.62L1089.44 407.33C1089.94 405.19 1091.86 403.68 1094.06 403.68L1095.51 403.68Z" stroke="#FF5C2A" stroke-opacity="1.000000" stroke-width="1.000000"/>
		<path id="Subtract" d="M1027.05 453.19C1031.46 434.56 1049.16 420.28 1068.29 420.52C1070.68 420.52 1072.44 422.76 1071.89 425.09L1063.78 459.37C1063.4 460.97 1062.42 462.36 1061.02 463.22C1049.12 470.52 1029.76 480.36 1022.37 484.07C1021.18 484.67 1019.84 483.59 1020.15 482.29L1027.05 453.19Z" stroke="#FF5C2A" stroke-opacity="1.000000" stroke-width="1.000000"/>
		<path id="Subtract" d="M1041.85 284.47C1044.25 286.04 1045.43 288.94 1044.78 291.74C1040.41 310.22 1022.71 323.33 1003.63 323.41C1000.66 323.41 998.45 320.63 999.14 317.72L1010.09 271.37C1010.85 268.18 1014.54 266.69 1017.3 268.49L1041.85 284.47Z" stroke="#FF5C2A" stroke-opacity="1.000000" stroke-width="1.000000"/>
		<path id="Subtract" d="M976.05 340.38C978.25 340.38 980.16 338.87 980.66 336.73L983.35 325.33C983.59 324.34 982.84 323.38 981.82 323.38L974.02 323.38C973.14 323.38 972.43 322.67 972.44 321.79L972.44 320.6C972.45 320.11 972.68 319.65 973.08 319.35L985.05 310.32C986.52 309.21 987.56 307.62 987.98 305.82L995.76 272.88C996.62 269.26 993.17 266.1 989.64 267.28L960.43 277.06C957.84 277.93 955.88 280.07 955.25 282.73L949.28 307.76C945.68 323.04 958.47 340.19 974.09 340.38L976.05 340.38Z" stroke="#FF5C2A" stroke-opacity="1.000000" stroke-width="1.000000"/>
		<path id="Subtract" d="M1034.56 186.5C1051.52 186.43 1065.06 202.65 1061.43 218.16L1047.46 277.04C1047.16 278.27 1045.61 278.68 1044.75 277.75L1017.63 248.18C1016.21 246.64 1015.65 244.49 1016.14 242.44L1028.5 190.16C1029.01 188.02 1030.92 186.5 1033.12 186.5L1034.56 186.5Z" stroke="#FF5C2A" stroke-opacity="1.000000" stroke-width="1.000000"/>
		<path id="Subtract" d="M966.11 236.02C970.51 217.39 988.21 203.11 1007.34 203.35C1009.74 203.35 1011.51 205.58 1010.95 207.92L1002.84 242.2C1002.46 243.8 1001.48 245.19 1000.08 246.05C988.17 253.35 968.82 263.19 961.43 266.9C960.23 267.5 958.89 266.42 959.21 265.12L966.11 236.02Z" stroke="#FF5C2A" stroke-opacity="1.000000" stroke-width="1.000000"/>
		<path id="Subtract" d="M1169.82 194.19C1172.23 195.75 1173.41 198.65 1172.76 201.45C1168.39 219.94 1150.69 233.04 1131.61 233.12C1128.64 233.12 1126.43 230.34 1127.12 227.44L1138.06 181.09C1138.82 177.89 1142.52 176.41 1145.28 178.2L1169.82 194.19Z" stroke="#FF5C2A" stroke-opacity="1.000000" stroke-width="1.000000"/>
		<path id="Subtract" d="M1104.03 250.1C1106.23 250.1 1108.14 248.59 1108.64 246.45L1111.34 235.05C1111.56 234.05 1110.81 233.1 1109.8 233.1L1102 233.1C1101.12 233.1 1100.41 232.38 1100.42 231.5L1100.43 230.32C1100.43 229.83 1100.66 229.37 1101.06 229.07L1113.03 220.04C1114.5 218.93 1115.54 217.34 1115.96 215.54L1123.74 182.6C1124.6 178.97 1121.15 175.82 1117.62 177L1088.41 186.78C1085.81 187.65 1083.86 189.79 1083.23 192.45L1077.26 217.47C1073.66 232.76 1086.44 249.9 1102.06 250.1L1104.03 250.1Z" stroke="#FF5C2A" stroke-opacity="1.000000" stroke-width="1.000000"/>
		<path id="Subtract" d="M1162.55 96.22C1179.5 96.15 1193.04 112.36 1189.41 127.87L1175.43 186.76C1175.14 187.99 1173.59 188.39 1172.73 187.46L1145.61 157.9C1144.18 156.35 1143.63 154.2 1144.11 152.16L1156.48 99.87C1156.99 97.73 1158.9 96.22 1161.1 96.22L1162.55 96.22Z" stroke="#FF5C2A" stroke-opacity="1.000000" stroke-width="1.000000"/>
		<path id="Subtract" d="M1094.09 145.74C1098.49 127.11 1116.19 112.82 1135.31 113.06C1137.71 113.06 1139.48 115.3 1138.93 117.63L1130.81 151.92C1130.43 153.52 1129.46 154.91 1128.05 155.77C1116.15 163.07 1096.8 172.91 1089.41 176.61C1088.21 177.21 1086.88 176.14 1087.18 174.83L1094.09 145.74Z" stroke="#FF5C2A" stroke-opacity="1.000000" stroke-width="1.000000"/>
		<path id="Subtract" d="M1078.42 131.96C1080.81 133.53 1082 136.43 1081.35 139.23C1076.98 157.71 1059.29 170.82 1040.19 170.9C1037.23 170.9 1035.03 168.12 1035.71 165.22L1046.66 118.86C1047.42 115.67 1051.11 114.19 1053.87 115.98L1078.42 131.96Z" stroke="#FF5C2A" stroke-opacity="1.000000" stroke-width="1.000000"/>
		<path id="Subtract" d="M1012.62 187.88C1014.82 187.88 1016.73 186.36 1017.23 184.22L1019.93 172.82C1020.16 171.83 1019.41 170.88 1018.39 170.88L1010.59 170.88C1009.71 170.88 1009 170.16 1009.01 169.28L1009.02 168.1C1009.02 167.6 1009.25 167.14 1009.65 166.85L1021.62 157.81C1023.09 156.7 1024.13 155.11 1024.55 153.32L1032.32 120.37C1033.18 116.75 1029.74 113.6 1026.21 114.78L996.99 124.56C994.4 125.42 992.44 127.56 991.81 130.22L985.84 155.25C982.25 170.53 995.03 187.68 1010.66 187.88L1012.62 187.88Z" stroke="#FF5C2A" stroke-opacity="1.000000" stroke-width="1.000000"/>
		<path id="Subtract" d="M1071.14 34C1088.09 33.92 1101.62 50.14 1098 65.65L1084.02 124.53C1083.73 125.77 1082.18 126.17 1081.31 125.24L1054.19 95.68C1052.78 94.13 1052.22 91.98 1052.69 89.94L1065.06 37.65C1065.57 35.51 1067.49 34 1069.68 34L1071.14 34Z" stroke="#FF5C2A" stroke-opacity="1.000000" stroke-width="1.000000"/>
		<path id="Subtract" d="M1002.68 83.51C1007.08 64.88 1024.79 50.6 1043.91 50.84C1046.3 50.84 1048.06 53.08 1047.52 55.41L1039.4 89.69C1039.02 91.29 1038.05 92.68 1036.64 93.54C1024.74 100.84 1005.39 110.68 997.99 114.39C996.8 114.99 995.46 113.91 995.77 112.61L1002.68 83.51Z" stroke="#FF5C2A" stroke-opacity="1.000000" stroke-width="1.000000"/>
		<path id="Subtract" d="M158.18 1359.35C160.59 1360.92 161.76 1363.82 161.11 1366.62C156.74 1385.1 139.05 1398.21 119.96 1398.29C116.99 1398.29 114.79 1395.51 115.47 1392.61L126.43 1346.25C127.18 1343.06 130.87 1341.58 133.63 1343.37L158.18 1359.35Z" stroke="#FF5C2A" stroke-opacity="1.000000" stroke-width="1.000000"/>
		<path id="Subtract" d="M92.38 1415.27C94.58 1415.27 96.49 1413.75 96.99 1411.61L99.69 1400.21C99.92 1399.22 99.17 1398.27 98.15 1398.27L90.35 1398.27C89.47 1398.27 88.76 1397.55 88.77 1396.67L88.78 1395.48C88.78 1394.99 89.01 1394.53 89.41 1394.23L101.38 1385.2C102.85 1384.09 103.89 1382.5 104.31 1380.71L112.09 1347.76C112.95 1344.14 109.5 1340.99 105.97 1342.17L76.76 1351.95C74.17 1352.81 72.21 1354.95 71.58 1357.61L65.61 1382.64C62.01 1397.92 74.8 1415.07 90.42 1415.27L92.38 1415.27Z" stroke="#FF5C2A" stroke-opacity="1.000000" stroke-width="1.000000"/>
		<path id="Subtract" d="M150.9 1261.38C167.85 1261.31 181.39 1277.53 177.76 1293.04L163.78 1351.92C163.49 1353.16 161.94 1353.56 161.08 1352.63L133.96 1323.07C132.54 1321.52 131.98 1319.37 132.46 1317.33L144.83 1265.04C145.34 1262.9 147.25 1261.38 149.45 1261.38L150.9 1261.38Z" stroke="#FF5C2A" stroke-opacity="1.000000" stroke-width="1.000000"/>
		<path id="Subtract" d="M82.44 1310.9C86.84 1292.27 104.55 1277.99 123.67 1278.23C126.07 1278.23 127.84 1280.46 127.28 1282.8L119.16 1317.08C118.78 1318.68 117.81 1320.07 116.41 1320.93C104.5 1328.23 85.15 1338.07 77.76 1341.78C76.56 1342.38 75.23 1341.3 75.54 1340L82.44 1310.9Z" stroke="#FF5C2A" stroke-opacity="1.000000" stroke-width="1.000000"/>
		<path id="Subtract" d="M286.16 1269.06C288.56 1270.63 289.73 1273.53 289.09 1276.32C284.72 1294.81 267.02 1307.92 247.94 1308C244.96 1308 242.77 1305.22 243.45 1302.31L254.4 1255.97C255.16 1252.77 258.85 1251.29 261.6 1253.07L286.16 1269.06Z" stroke="#FF5C2A" stroke-opacity="1.000000" stroke-width="1.000000"/>
		<path id="Subtract" d="M220.36 1324.98C222.56 1324.98 224.47 1323.47 224.97 1321.33L227.67 1309.93C227.9 1308.93 227.15 1307.98 226.13 1307.98L218.33 1307.98C217.45 1307.98 216.74 1307.26 216.75 1306.38L216.76 1305.19C216.77 1304.71 217 1304.25 217.39 1303.94L229.36 1294.92C230.83 1293.81 231.87 1292.22 232.29 1290.42L240.07 1257.47C240.93 1253.85 237.48 1250.69 233.95 1251.88L204.74 1261.66C202.15 1262.53 200.19 1264.67 199.56 1267.32L193.59 1292.35C189.99 1307.64 202.78 1324.78 218.4 1324.98L220.36 1324.98Z" stroke="#FF5C2A" stroke-opacity="1.000000" stroke-width="1.000000"/>
		<path id="Subtract" d="M278.88 1171.1C295.83 1171.03 309.37 1187.24 305.74 1202.75L291.76 1261.64C291.47 1262.87 289.92 1263.28 289.06 1262.34L261.94 1232.78C260.52 1231.23 259.96 1229.07 260.44 1227.04L272.81 1174.75C273.32 1172.61 275.23 1171.1 277.43 1171.1L278.88 1171.1Z" stroke="#FF5C2A" stroke-opacity="1.000000" stroke-width="1.000000"/>
		<path id="Subtract" d="M210.42 1220.62C214.82 1201.99 232.53 1187.69 251.65 1187.94C254.05 1187.93 255.82 1190.18 255.26 1192.51L247.14 1226.8C246.77 1228.4 245.79 1229.79 244.39 1230.65C232.48 1237.94 213.13 1247.79 205.74 1251.49C204.54 1252.09 203.21 1251.02 203.52 1249.71L210.42 1220.62Z" stroke="#FF5C2A" stroke-opacity="1.000000" stroke-width="1.000000"/>
		<path id="Subtract" d="M225.22 1051.9C227.62 1053.46 228.79 1056.36 228.15 1059.16C223.78 1077.65 206.08 1090.75 187 1090.82C184.02 1090.82 181.82 1088.05 182.51 1085.15L193.46 1038.8C194.22 1035.6 197.91 1034.12 200.66 1035.91L225.22 1051.9Z" stroke="#FF5C2A" stroke-opacity="1.000000" stroke-width="1.000000"/>
		<path id="Subtract" d="M159.41 1107.81C161.61 1107.81 163.52 1106.29 164.03 1104.15L166.72 1092.75C166.96 1091.76 166.2 1090.81 165.18 1090.81L157.38 1090.81C156.51 1090.81 155.8 1090.09 155.8 1089.21L155.81 1088.03C155.82 1087.54 156.05 1087.06 156.44 1086.78L168.41 1077.75C169.89 1076.63 170.93 1075.04 171.35 1073.25L179.13 1040.3C179.98 1036.68 176.53 1033.53 173.01 1034.71L143.79 1044.49C141.2 1045.35 139.25 1047.5 138.61 1050.15L132.64 1075.18C129.05 1090.46 141.84 1107.61 157.45 1107.81L159.41 1107.81Z" stroke="#FF5C2A" stroke-opacity="1.000000" stroke-width="1.000000"/>
		<path id="Subtract" d="M217.94 953.92C234.89 953.85 248.43 970.07 244.8 985.58L230.82 1044.46C230.53 1045.69 228.98 1046.1 228.12 1045.17L201 1015.61C199.58 1014.06 199.02 1011.91 199.5 1009.87L211.87 957.58C212.38 955.43 214.29 953.92 216.49 953.92L217.94 953.92Z" stroke="#FF5C2A" stroke-opacity="1.000000" stroke-width="1.000000"/>
		<path id="Subtract" d="M149.48 1003.45C153.88 984.81 171.59 970.53 190.71 970.77C193.1 970.77 194.87 973 194.32 975.34L186.2 1009.62C185.82 1011.23 184.85 1012.62 183.44 1013.48C171.54 1020.78 152.19 1030.62 144.8 1034.31C143.6 1034.92 142.27 1033.85 142.58 1032.54L149.48 1003.45Z" stroke="#FF5C2A" stroke-opacity="1.000000" stroke-width="1.000000"/>
		<path id="Subtract" d="M353.2 961.61C355.6 963.17 356.77 966.07 356.13 968.87C351.76 987.36 334.06 1000.47 314.98 1000.55C312 1000.55 309.8 997.76 310.49 994.86L321.44 948.51C322.2 945.31 325.89 943.83 328.64 945.62L353.2 961.61Z" stroke="#FF5C2A" stroke-opacity="1.000000" stroke-width="1.000000"/>
		<path id="Subtract" d="M287.39 1017.52C289.59 1017.52 291.5 1016.01 292.01 1013.87L294.7 1002.47C294.94 1001.48 294.18 1000.52 293.16 1000.52L285.36 1000.52C284.49 1000.52 283.78 999.8 283.78 998.92L283.79 997.74C283.8 997.25 284.03 996.78 284.43 996.49L296.39 987.46C297.87 986.35 298.91 984.76 299.33 982.96L307.11 950.01C307.96 946.39 304.51 943.24 300.99 944.42L271.77 954.2C269.18 955.06 267.23 957.21 266.59 959.86L260.62 984.89C257.03 1000.18 269.82 1017.33 285.43 1017.52L287.39 1017.52Z" stroke="#FF5C2A" stroke-opacity="1.000000" stroke-width="1.000000"/>
		<path id="Subtract" d="M345.91 863.64C362.86 863.57 376.4 879.78 372.77 895.29L358.8 954.18C358.51 955.41 356.95 955.81 356.1 954.88L328.98 925.32C327.55 923.77 327 921.62 327.48 919.58L339.85 867.29C340.35 865.15 342.27 863.64 344.46 863.64L345.91 863.64Z" stroke="#FF5C2A" stroke-opacity="1.000000" stroke-width="1.000000"/>
		<path id="Subtract" d="M277.46 913.16C281.86 894.53 299.56 880.24 318.69 880.48C321.08 880.48 322.85 882.72 322.3 885.05L314.18 919.34C313.8 920.94 312.82 922.33 311.42 923.19C299.52 930.49 280.16 940.33 272.77 944.03C271.58 944.63 270.24 943.56 270.55 942.25L277.46 913.16Z" stroke="#FF5C2A" stroke-opacity="1.000000" stroke-width="1.000000"/>
		<path id="Subtract" d="M192.31 1205.62C194.71 1207.18 195.88 1210.09 195.24 1212.89C190.87 1231.38 173.17 1244.48 154.09 1244.56C151.11 1244.56 148.91 1241.78 149.6 1238.88L160.55 1192.53C161.31 1189.32 165 1187.85 167.75 1189.64L192.31 1205.62Z" stroke="#FF5C2A" stroke-opacity="1.000000" stroke-width="1.000000"/>
		<path id="Subtract" d="M126.51 1261.54C128.71 1261.54 130.62 1260.02 131.12 1257.88L133.82 1246.48C134.05 1245.49 133.3 1244.54 132.28 1244.54L124.48 1244.54C123.6 1244.54 122.89 1243.81 122.9 1242.93L122.91 1241.76C122.91 1241.26 123.14 1240.8 123.54 1240.51L135.51 1231.47C136.98 1230.36 138.02 1228.77 138.44 1226.98L146.22 1194.03C147.08 1190.41 143.63 1187.26 140.1 1188.43L110.89 1198.22C108.3 1199.07 106.34 1201.22 105.71 1203.88L99.74 1228.91C96.14 1244.18 108.93 1261.34 124.55 1261.54L126.51 1261.54Z" stroke="#FF5C2A" stroke-opacity="1.000000" stroke-width="1.000000"/>
		<path id="Subtract" d="M185.03 1107.66C201.98 1107.59 215.52 1123.8 211.89 1139.31L197.91 1198.18C197.62 1199.43 196.07 1199.82 195.21 1198.9L168.09 1169.34C166.67 1167.79 166.11 1165.64 166.59 1163.6L178.96 1111.31C179.47 1109.17 181.38 1107.66 183.58 1107.66L185.03 1107.66Z" stroke="#FF5C2A" stroke-opacity="1.000000" stroke-width="1.000000"/>
		<path id="Subtract" d="M116.57 1157.18C120.97 1138.54 138.67 1124.26 157.8 1124.5C160.19 1124.5 161.96 1126.74 161.41 1129.06L153.29 1163.35C152.91 1164.96 151.94 1166.34 150.53 1167.21C138.63 1174.5 119.28 1184.34 111.89 1188.05C110.69 1188.65 109.35 1187.56 109.67 1186.27L116.57 1157.18Z" stroke="#FF5C2A" stroke-opacity="1.000000" stroke-width="1.000000"/>
		<path id="Subtract" d="M320.29 1115.34C322.69 1116.9 323.86 1119.8 323.22 1122.6C318.85 1141.09 301.15 1154.19 282.07 1154.28C279.09 1154.28 276.89 1151.49 277.58 1148.59L288.53 1102.24C289.29 1099.04 292.98 1097.56 295.73 1099.35L320.29 1115.34Z" stroke="#FF5C2A" stroke-opacity="1.000000" stroke-width="1.000000"/>
		<path id="Subtract" d="M254.48 1171.25C256.68 1171.25 258.59 1169.74 259.1 1167.6L261.79 1156.19C262.03 1155.21 261.27 1154.25 260.25 1154.25L252.45 1154.25C251.58 1154.25 250.87 1153.54 250.87 1152.65L250.88 1151.47C250.89 1150.98 251.12 1150.52 251.52 1150.22L263.48 1141.18C264.96 1140.07 266 1138.49 266.42 1136.68L274.2 1103.75C275.05 1100.12 271.6 1096.97 268.08 1098.15L238.86 1107.93C236.27 1108.8 234.32 1110.93 233.68 1113.6L227.71 1138.62C224.12 1153.91 236.91 1171.05 252.52 1171.25L254.48 1171.25Z" stroke="#FF5C2A" stroke-opacity="1.000000" stroke-width="1.000000"/>
		<path id="Subtract" d="M313 1017.37C329.95 1017.3 343.49 1033.52 339.86 1049.02L325.89 1107.91C325.6 1109.14 324.04 1109.55 323.19 1108.61L296.07 1079.05C294.64 1077.51 294.09 1075.36 294.57 1073.31L306.94 1021.03C307.44 1018.88 309.35 1017.37 311.55 1017.37L313 1017.37Z" stroke="#FF5C2A" stroke-opacity="1.000000" stroke-width="1.000000"/>
		<path id="Subtract" d="M244.55 1066.89C248.95 1048.26 266.65 1033.97 285.78 1034.22C288.17 1034.21 289.94 1036.44 289.39 1038.78L281.27 1073.06C280.89 1074.67 279.91 1076.06 278.51 1076.92C266.61 1084.22 247.25 1094.06 239.86 1097.76C238.67 1098.36 237.33 1097.29 237.64 1095.99L244.55 1066.89Z" stroke="#FF5C2A" stroke-opacity="1.000000" stroke-width="1.000000"/>
		<path id="Subtract" d="M259.35 898.17C261.75 899.73 262.92 902.63 262.28 905.43C257.91 923.92 240.21 937.02 221.13 937.1C218.15 937.1 215.95 934.32 216.64 931.42L227.59 885.07C228.35 881.87 232.04 880.39 234.79 882.18L259.35 898.17Z" stroke="#FF5C2A" stroke-opacity="1.000000" stroke-width="1.000000"/>
		<path id="Subtract" d="M193.54 954.08C195.74 954.08 197.65 952.56 198.16 950.42L200.85 939.02C201.09 938.03 200.33 937.08 199.31 937.08L191.51 937.08C190.64 937.08 189.93 936.36 189.93 935.48L189.94 934.3C189.95 933.8 190.18 933.34 190.57 933.05L202.54 924.02C204.02 922.9 205.05 921.31 205.48 919.52L213.26 886.57C214.11 882.95 210.66 879.8 207.14 880.98L177.92 890.76C175.33 891.62 173.37 893.77 172.74 896.42L166.77 921.45C163.17 936.73 175.96 953.88 191.58 954.08L193.54 954.08Z" stroke="#FF5C2A" stroke-opacity="1.000000" stroke-width="1.000000"/>
		<path id="Subtract" d="M252.07 800.19C269.01 800.12 282.55 816.34 278.93 831.85L264.95 890.73C264.66 891.97 263.1 892.37 262.25 891.44L235.13 861.88C233.71 860.33 233.15 858.18 233.63 856.14L246 803.85C246.51 801.71 248.42 800.19 250.62 800.19L252.07 800.19Z" stroke="#FF5C2A" stroke-opacity="1.000000" stroke-width="1.000000"/>
		<path id="Subtract" d="M183.61 849.72C188.01 831.09 205.71 816.8 224.84 817.04C227.23 817.04 229 819.28 228.45 821.61L220.33 855.89C219.95 857.5 218.98 858.88 217.57 859.75C205.67 867.04 186.32 876.88 178.93 880.59C177.73 881.19 176.39 880.11 176.71 878.81L183.61 849.72Z" stroke="#FF5C2A" stroke-opacity="1.000000" stroke-width="1.000000"/>
		<path id="Subtract" d="M387.33 807.88C389.73 809.44 390.9 812.35 390.26 815.14C385.89 833.63 368.19 846.74 349.11 846.82C346.13 846.82 343.93 844.03 344.62 841.13L355.57 794.78C356.33 791.58 360.02 790.1 362.77 791.89L387.33 807.88Z" stroke="#FF5C2A" stroke-opacity="1.000000" stroke-width="1.000000"/>
		<path id="Subtract" d="M321.52 863.79C323.72 863.79 325.63 862.28 326.14 860.14L328.83 848.74C329.07 847.75 328.31 846.79 327.29 846.79L319.49 846.79C318.62 846.79 317.91 846.08 317.91 845.19L317.92 844.01C317.93 843.52 318.16 843.06 318.55 842.76L330.52 833.73C332 832.62 333.03 831.03 333.46 829.23L341.24 796.29C342.09 792.67 338.64 789.51 335.12 790.69L305.9 800.47C303.31 801.34 301.35 803.48 300.72 806.14L294.75 831.17C291.16 846.45 303.94 863.6 319.56 863.79L321.52 863.79Z" stroke="#FF5C2A" stroke-opacity="1.000000" stroke-width="1.000000"/>
		<path id="Subtract" d="M380.04 709.91C396.99 709.84 410.53 726.06 406.9 741.56L392.93 800.45C392.64 801.68 391.08 802.09 390.23 801.15L363.1 771.59C361.68 770.05 361.12 767.9 361.61 765.85L373.98 713.57C374.48 711.42 376.39 709.91 378.59 709.91L380.04 709.91Z" stroke="#FF5C2A" stroke-opacity="1.000000" stroke-width="1.000000"/>
		<path id="Subtract" d="M311.59 759.43C315.99 740.8 333.69 726.52 352.82 726.76C355.21 726.75 356.98 728.99 356.43 731.32L348.31 765.61C347.93 767.21 346.95 768.6 345.55 769.46C333.65 776.76 314.29 786.6 306.9 790.3C305.71 790.9 304.37 789.83 304.68 788.53L311.59 759.43Z" stroke="#FF5C2A" stroke-opacity="1.000000" stroke-width="1.000000"/>
		<path id="Subtract" d="M589.65 1359.35C592.06 1360.92 593.23 1363.82 592.59 1366.62C588.21 1385.1 570.52 1398.21 551.44 1398.29C548.46 1398.29 546.26 1395.51 546.94 1392.61L557.9 1346.25C558.65 1343.06 562.35 1341.58 565.1 1343.37L589.65 1359.35Z" stroke="#FF5C2A" stroke-opacity="1.000000" stroke-width="1.000000"/>
		<path id="Subtract" d="M523.85 1415.27C526.05 1415.27 527.96 1413.75 528.47 1411.61L531.16 1400.21C531.4 1399.22 530.64 1398.27 529.62 1398.27L521.82 1398.27C520.95 1398.27 520.24 1397.55 520.25 1396.67L520.25 1395.48C520.26 1394.99 520.49 1394.53 520.89 1394.23L532.85 1385.2C534.33 1384.09 535.37 1382.5 535.79 1380.71L543.57 1347.76C544.43 1344.14 540.98 1340.99 537.45 1342.17L508.23 1351.95C505.64 1352.81 503.69 1354.95 503.05 1357.61L497.09 1382.64C493.49 1397.92 506.28 1415.07 521.89 1415.27L523.85 1415.27Z" stroke="#FF5C2A" stroke-opacity="1.000000" stroke-width="1.000000"/>
		<path id="Subtract" d="M582.37 1261.38C599.32 1261.31 612.86 1277.53 609.23 1293.04L595.26 1351.92C594.97 1353.16 593.41 1353.56 592.56 1352.63L565.44 1323.07C564.02 1321.52 563.46 1319.37 563.94 1317.33L576.31 1265.04C576.82 1262.9 578.73 1261.38 580.93 1261.38L582.37 1261.38Z" stroke="#FF5C2A" stroke-opacity="1.000000" stroke-width="1.000000"/>
		<path id="Subtract" d="M513.92 1310.9C518.32 1292.27 536.02 1277.99 555.15 1278.23C557.54 1278.23 559.31 1280.46 558.76 1282.8L550.64 1317.08C550.26 1318.68 549.28 1320.07 547.88 1320.93C535.98 1328.23 516.62 1338.07 509.23 1341.78C508.04 1342.38 506.7 1341.3 507.02 1340L513.92 1310.9Z" stroke="#FF5C2A" stroke-opacity="1.000000" stroke-width="1.000000"/>
		<path id="Subtract" d="M717.64 1269.06C720.04 1270.63 721.21 1273.53 720.57 1276.32C716.19 1294.81 698.5 1307.92 679.42 1308C676.44 1308 674.24 1305.22 674.93 1302.31L685.88 1255.97C686.64 1252.77 690.33 1251.29 693.08 1253.07L717.64 1269.06Z" stroke="#FF5C2A" stroke-opacity="1.000000" stroke-width="1.000000"/>
		<path id="Subtract" d="M651.83 1324.98C654.03 1324.98 655.94 1323.47 656.44 1321.33L659.14 1309.93C659.37 1308.93 658.62 1307.98 657.6 1307.98L649.8 1307.98C648.93 1307.98 648.21 1307.26 648.22 1306.38L648.23 1305.19C648.24 1304.71 648.47 1304.25 648.86 1303.94L660.83 1294.92C662.3 1293.81 663.34 1292.22 663.77 1290.42L671.55 1257.47C672.4 1253.85 668.95 1250.69 665.43 1251.88L636.21 1261.66C633.62 1262.53 631.66 1264.67 631.03 1267.32L625.06 1292.35C621.46 1307.64 634.25 1324.78 649.87 1324.98L651.83 1324.98Z" stroke="#FF5C2A" stroke-opacity="1.000000" stroke-width="1.000000"/>
		<path id="Subtract" d="M710.35 1171.1C727.3 1171.03 740.84 1187.24 737.21 1202.75L723.24 1261.64C722.94 1262.87 721.39 1263.28 720.53 1262.34L693.41 1232.78C691.99 1231.23 691.43 1229.07 691.92 1227.04L704.28 1174.75C704.79 1172.61 706.7 1171.1 708.9 1171.1L710.35 1171.1Z" stroke="#FF5C2A" stroke-opacity="1.000000" stroke-width="1.000000"/>
		<path id="Subtract" d="M641.89 1220.62C646.3 1201.99 664 1187.69 683.12 1187.94C685.52 1187.93 687.29 1190.18 686.73 1192.51L678.62 1226.8C678.24 1228.4 677.26 1229.79 675.86 1230.65C663.96 1237.94 644.6 1247.79 637.21 1251.49C636.02 1252.09 634.68 1251.02 634.99 1249.71L641.89 1220.62Z" stroke="#FF5C2A" stroke-opacity="1.000000" stroke-width="1.000000"/>
		<path id="Subtract" d="M656.69 1051.9C659.1 1053.46 660.27 1056.36 659.62 1059.16C655.25 1077.65 637.56 1090.75 618.48 1090.82C615.5 1090.82 613.3 1088.05 613.98 1085.15L624.94 1038.8C625.69 1035.6 629.39 1034.12 632.14 1035.91L656.69 1051.9Z" stroke="#FF5C2A" stroke-opacity="1.000000" stroke-width="1.000000"/>
		<path id="Subtract" d="M590.89 1107.81C593.09 1107.81 595 1106.29 595.5 1104.15L598.2 1092.75C598.43 1091.76 597.68 1090.81 596.66 1090.81L588.86 1090.81C587.98 1090.81 587.27 1090.09 587.28 1089.21L587.29 1088.03C587.3 1087.54 587.53 1087.06 587.92 1086.78L599.89 1077.75C601.36 1076.63 602.4 1075.04 602.82 1073.25L610.6 1040.3C611.46 1036.68 608.01 1033.53 604.48 1034.71L575.27 1044.49C572.68 1045.35 570.72 1047.5 570.09 1050.15L564.12 1075.18C560.52 1090.46 573.31 1107.61 588.93 1107.81L590.89 1107.81Z" stroke="#FF5C2A" stroke-opacity="1.000000" stroke-width="1.000000"/>
		<path id="Subtract" d="M649.41 953.92C666.36 953.85 679.9 970.07 676.27 985.58L662.3 1044.46C662 1045.69 660.45 1046.1 659.59 1045.17L632.47 1015.61C631.05 1014.06 630.49 1011.91 630.98 1009.87L643.34 957.58C643.85 955.43 645.76 953.92 647.96 953.92L649.41 953.92Z" stroke="#FF5C2A" stroke-opacity="1.000000" stroke-width="1.000000"/>
		<path id="Subtract" d="M580.95 1003.45C585.35 984.81 603.06 970.53 622.18 970.77C624.58 970.77 626.35 973 625.79 975.34L617.68 1009.62C617.3 1011.23 616.32 1012.62 614.92 1013.48C603.02 1020.78 583.66 1030.62 576.27 1034.31C575.07 1034.92 573.74 1033.85 574.05 1032.54L580.95 1003.45Z" stroke="#FF5C2A" stroke-opacity="1.000000" stroke-width="1.000000"/>
		<path id="Subtract" d="M784.67 961.61C787.07 963.17 788.25 966.07 787.6 968.87C783.23 987.36 765.53 1000.47 746.45 1000.55C743.48 1000.55 741.28 997.76 741.96 994.86L752.91 948.51C753.67 945.31 757.36 943.83 760.12 945.62L784.67 961.61Z" stroke="#FF5C2A" stroke-opacity="1.000000" stroke-width="1.000000"/>
		<path id="Subtract" d="M718.87 1017.52C721.07 1017.52 722.98 1016.01 723.48 1013.87L726.18 1002.47C726.41 1001.48 725.66 1000.52 724.64 1000.52L716.84 1000.52C715.96 1000.52 715.25 999.8 715.26 998.92L715.27 997.74C715.28 997.25 715.51 996.78 715.9 996.49L727.87 987.46C729.34 986.35 730.38 984.76 730.8 982.96L738.59 950.01C739.44 946.39 735.99 943.24 732.46 944.42L703.25 954.2C700.66 955.06 698.7 957.21 698.07 959.86L692.1 984.89C688.5 1000.18 701.29 1017.33 716.91 1017.52L718.87 1017.52Z" stroke="#FF5C2A" stroke-opacity="1.000000" stroke-width="1.000000"/>
		<path id="Subtract" d="M777.39 863.64C794.34 863.57 807.88 879.78 804.25 895.29L790.28 954.18C789.98 955.41 788.43 955.81 787.57 954.88L760.45 925.32C759.03 923.77 758.47 921.62 758.96 919.58L771.32 867.29C771.83 865.15 773.74 863.64 775.94 863.64L777.39 863.64Z" stroke="#FF5C2A" stroke-opacity="1.000000" stroke-width="1.000000"/>
		<path id="Subtract" d="M708.93 913.16C713.34 894.53 731.04 880.24 750.16 880.48C752.56 880.48 754.33 882.72 753.77 885.05L745.66 919.34C745.28 920.94 744.3 922.33 742.9 923.19C731 930.49 711.64 940.33 704.25 944.03C703.05 944.63 701.72 943.56 702.03 942.25L708.93 913.16Z" stroke="#FF5C2A" stroke-opacity="1.000000" stroke-width="1.000000"/>
		<path id="Subtract" d="M623.78 1205.62C626.19 1207.18 627.36 1210.09 626.71 1212.89C622.34 1231.38 604.65 1244.48 585.57 1244.56C582.59 1244.56 580.39 1241.78 581.07 1238.88L592.03 1192.53C592.78 1189.32 596.48 1187.85 599.23 1189.64L623.78 1205.62Z" stroke="#FF5C2A" stroke-opacity="1.000000" stroke-width="1.000000"/>
		<path id="Subtract" d="M557.98 1261.54C560.18 1261.54 562.09 1260.02 562.59 1257.88L565.29 1246.48C565.52 1245.49 564.77 1244.54 563.75 1244.54L555.95 1244.54C555.07 1244.54 554.36 1243.81 554.37 1242.93L554.38 1241.76C554.39 1241.26 554.62 1240.8 555.01 1240.51L566.98 1231.47C568.45 1230.36 569.49 1228.77 569.91 1226.98L577.69 1194.03C578.55 1190.41 575.1 1187.26 571.57 1188.43L542.36 1198.22C539.77 1199.07 537.81 1201.22 537.18 1203.88L531.21 1228.91C527.61 1244.18 540.4 1261.34 556.02 1261.54L557.98 1261.54Z" stroke="#FF5C2A" stroke-opacity="1.000000" stroke-width="1.000000"/>
		<path id="Subtract" d="M616.5 1107.66C633.45 1107.59 646.99 1123.8 643.36 1139.31L629.39 1198.18C629.09 1199.43 627.54 1199.82 626.68 1198.9L599.56 1169.34C598.14 1167.79 597.58 1165.64 598.07 1163.6L610.43 1111.31C610.94 1109.17 612.85 1107.66 615.05 1107.66L616.5 1107.66Z" stroke="#FF5C2A" stroke-opacity="1.000000" stroke-width="1.000000"/>
		<path id="Subtract" d="M548.04 1157.18C552.44 1138.54 570.15 1124.26 589.27 1124.5C591.67 1124.5 593.44 1126.74 592.88 1129.06L584.77 1163.35C584.39 1164.96 583.41 1166.34 582.01 1167.21C570.1 1174.5 550.75 1184.34 543.36 1188.05C542.16 1188.65 540.83 1187.56 541.14 1186.27L548.04 1157.18Z" stroke="#FF5C2A" stroke-opacity="1.000000" stroke-width="1.000000"/>
		<path id="Subtract" d="M751.76 1115.34C754.16 1116.9 755.34 1119.8 754.69 1122.6C750.32 1141.09 732.62 1154.19 713.54 1154.28C710.57 1154.28 708.37 1151.49 709.05 1148.59L720 1102.24C720.76 1099.04 724.45 1097.56 727.21 1099.35L751.76 1115.34Z" stroke="#FF5C2A" stroke-opacity="1.000000" stroke-width="1.000000"/>
		<path id="Subtract" d="M685.96 1171.25C688.16 1171.25 690.07 1169.74 690.57 1167.6L693.27 1156.19C693.5 1155.21 692.75 1154.25 691.73 1154.25L683.93 1154.25C683.05 1154.25 682.34 1153.54 682.35 1152.65L682.36 1151.47C682.37 1150.98 682.6 1150.52 682.99 1150.22L694.96 1141.18C696.43 1140.07 697.47 1138.49 697.89 1136.68L705.68 1103.75C706.53 1100.12 703.08 1096.97 699.55 1098.15L670.34 1107.93C667.75 1108.8 665.79 1110.93 665.16 1113.6L659.19 1138.62C655.59 1153.91 668.38 1171.05 684 1171.25L685.96 1171.25Z" stroke="#FF5C2A" stroke-opacity="1.000000" stroke-width="1.000000"/>
		<path id="Subtract" d="M744.48 1017.37C761.43 1017.3 774.97 1033.52 771.34 1049.02L757.37 1107.91C757.07 1109.14 755.52 1109.55 754.66 1108.61L727.54 1079.05C726.12 1077.51 725.56 1075.36 726.05 1073.31L738.41 1021.03C738.92 1018.88 740.83 1017.37 743.03 1017.37L744.48 1017.37Z" stroke="#FF5C2A" stroke-opacity="1.000000" stroke-width="1.000000"/>
		<path id="Subtract" d="M676.02 1066.89C680.43 1048.26 698.13 1033.97 717.25 1034.22C719.65 1034.21 721.42 1036.44 720.86 1038.78L712.75 1073.06C712.37 1074.67 711.39 1076.06 709.99 1076.92C698.09 1084.22 678.73 1094.06 671.34 1097.76C670.14 1098.36 668.81 1097.29 669.12 1095.99L676.02 1066.89Z" stroke="#FF5C2A" stroke-opacity="1.000000" stroke-width="1.000000"/>
		<path id="Subtract" d="M690.82 898.17C693.22 899.73 694.39 902.63 693.75 905.43C689.38 923.92 671.68 937.02 652.6 937.1C649.62 937.1 647.43 934.32 648.11 931.42L659.06 885.07C659.82 881.87 663.51 880.39 666.27 882.18L690.82 898.17Z" stroke="#FF5C2A" stroke-opacity="1.000000" stroke-width="1.000000"/>
		<path id="Subtract" d="M625.02 954.08C627.22 954.08 629.13 952.56 629.63 950.42L632.33 939.02C632.56 938.03 631.81 937.08 630.79 937.08L622.99 937.08C622.11 937.08 621.4 936.36 621.41 935.48L621.42 934.3C621.43 933.8 621.65 933.34 622.05 933.05L634.02 924.02C635.49 922.9 636.53 921.31 636.95 919.52L644.73 886.57C645.59 882.95 642.14 879.8 638.61 880.98L609.4 890.76C606.81 891.62 604.85 893.77 604.22 896.42L598.25 921.45C594.65 936.73 607.44 953.88 623.06 954.08L625.02 954.08Z" stroke="#FF5C2A" stroke-opacity="1.000000" stroke-width="1.000000"/>
		<path id="Subtract" d="M683.54 800.19C700.49 800.12 714.03 816.34 710.4 831.85L696.43 890.73C696.13 891.97 694.58 892.37 693.72 891.44L666.6 861.88C665.18 860.33 664.62 858.18 665.1 856.14L677.47 803.85C677.98 801.71 679.89 800.19 682.09 800.19L683.54 800.19Z" stroke="#FF5C2A" stroke-opacity="1.000000" stroke-width="1.000000"/>
		<path id="Subtract" d="M615.08 849.72C619.48 831.09 637.19 816.8 656.31 817.04C658.71 817.04 660.48 819.28 659.92 821.61L651.8 855.89C651.43 857.5 650.45 858.88 649.05 859.75C637.14 867.04 617.79 876.88 610.4 880.59C609.2 881.19 607.87 880.11 608.18 878.81L615.08 849.72Z" stroke="#FF5C2A" stroke-opacity="1.000000" stroke-width="1.000000"/>
		<path id="Subtract" d="M818.8 807.88C821.2 809.44 822.37 812.35 821.73 815.14C817.36 833.63 799.66 846.74 780.58 846.82C777.6 846.82 775.41 844.03 776.09 841.13L787.04 794.78C787.8 791.58 791.49 790.1 794.25 791.89L818.8 807.88Z" stroke="#FF5C2A" stroke-opacity="1.000000" stroke-width="1.000000"/>
		<path id="Subtract" d="M753 863.79C755.19 863.79 757.1 862.28 757.61 860.14L760.3 848.74C760.54 847.75 759.78 846.79 758.77 846.79L750.96 846.79C750.09 846.79 749.38 846.08 749.39 845.19L749.39 844.01C749.4 843.52 749.63 843.06 750.03 842.76L762 833.73C763.47 832.62 764.51 831.03 764.93 829.23L772.71 796.29C773.57 792.67 770.12 789.51 766.59 790.69L737.37 800.47C734.78 801.34 732.83 803.48 732.19 806.14L726.23 831.17C722.63 846.45 735.42 863.6 751.03 863.79L753 863.79Z" stroke="#FF5C2A" stroke-opacity="1.000000" stroke-width="1.000000"/>
		<path id="Subtract" d="M811.52 709.91C828.46 709.84 842 726.06 838.37 741.56L824.4 800.45C824.11 801.68 822.55 802.09 821.7 801.15L794.58 771.59C793.16 770.05 792.6 767.9 793.08 765.85L805.45 713.57C805.96 711.42 807.87 709.91 810.07 709.91L811.52 709.91Z" stroke="#FF5C2A" stroke-opacity="1.000000" stroke-width="1.000000"/>
		<path id="Subtract" d="M743.06 759.43C747.46 740.8 765.16 726.52 784.29 726.76C786.68 726.75 788.45 728.99 787.9 731.32L779.78 765.61C779.4 767.21 778.43 768.6 777.02 769.46C765.12 776.76 745.77 786.6 738.37 790.3C737.18 790.9 735.84 789.83 736.16 788.53L743.06 759.43Z" stroke="#FF5C2A" stroke-opacity="1.000000" stroke-width="1.000000"/>
		<path id="Subtract" d="M373.92 1359.35C376.32 1360.92 377.49 1363.82 376.85 1366.62C372.48 1385.1 354.78 1398.21 335.7 1398.29C332.72 1398.29 330.52 1395.51 331.21 1392.61L342.16 1346.25C342.92 1343.06 346.61 1341.58 349.36 1343.37L373.92 1359.35Z" stroke="#FF5C2A" stroke-opacity="1.000000" stroke-width="1.000000"/>
		<path id="Subtract" d="M308.11 1415.27C310.31 1415.27 312.22 1413.75 312.73 1411.61L315.42 1400.21C315.66 1399.22 314.9 1398.27 313.88 1398.27L306.08 1398.27C305.21 1398.27 304.5 1397.55 304.5 1396.67L304.51 1395.48C304.52 1394.99 304.75 1394.53 305.14 1394.23L317.11 1385.2C318.59 1384.09 319.62 1382.5 320.05 1380.71L327.83 1347.76C328.68 1344.14 325.23 1340.99 321.71 1342.17L292.49 1351.95C289.9 1352.81 287.94 1354.95 287.31 1357.61L281.34 1382.64C277.75 1397.92 290.53 1415.07 306.15 1415.27L308.11 1415.27Z" stroke="#FF5C2A" stroke-opacity="1.000000" stroke-width="1.000000"/>
		<path id="Subtract" d="M366.63 1261.38C383.58 1261.31 397.12 1277.53 393.49 1293.04L379.52 1351.92C379.23 1353.16 377.67 1353.56 376.82 1352.63L349.69 1323.07C348.27 1321.52 347.71 1319.37 348.2 1317.33L360.57 1265.04C361.07 1262.9 362.98 1261.38 365.18 1261.38L366.63 1261.38Z" stroke="#FF5C2A" stroke-opacity="1.000000" stroke-width="1.000000"/>
		<path id="Subtract" d="M298.18 1310.9C302.58 1292.27 320.28 1277.99 339.41 1278.23C341.8 1278.23 343.57 1280.46 343.02 1282.8L334.9 1317.08C334.52 1318.68 333.54 1320.07 332.14 1320.93C320.24 1328.23 300.88 1338.07 293.49 1341.78C292.3 1342.38 290.96 1341.3 291.27 1340L298.18 1310.9Z" stroke="#FF5C2A" stroke-opacity="1.000000" stroke-width="1.000000"/>
		<path id="Subtract" d="M501.89 1269.06C504.3 1270.63 505.47 1273.53 504.82 1276.32C500.45 1294.81 482.76 1307.92 463.68 1308C460.7 1308 458.5 1305.22 459.18 1302.31L470.14 1255.97C470.89 1252.77 474.59 1251.29 477.34 1253.07L501.89 1269.06Z" stroke="#FF5C2A" stroke-opacity="1.000000" stroke-width="1.000000"/>
		<path id="Subtract" d="M436.09 1324.98C438.29 1324.98 440.2 1323.47 440.71 1321.33L443.4 1309.93C443.64 1308.93 442.88 1307.98 441.86 1307.98L434.06 1307.98C433.19 1307.98 432.48 1307.26 432.48 1306.38L432.49 1305.19C432.5 1304.71 432.73 1304.25 433.12 1303.94L445.09 1294.92C446.57 1293.81 447.6 1292.22 448.03 1290.42L455.81 1257.47C456.66 1253.85 453.21 1250.69 449.69 1251.88L420.47 1261.66C417.88 1262.53 415.93 1264.67 415.29 1267.32L409.32 1292.35C405.73 1307.64 418.52 1324.78 434.13 1324.98L436.09 1324.98Z" stroke="#FF5C2A" stroke-opacity="1.000000" stroke-width="1.000000"/>
		<path id="Subtract" d="M494.61 1171.1C511.56 1171.03 525.1 1187.24 521.47 1202.75L507.5 1261.64C507.21 1262.87 505.65 1263.28 504.8 1262.34L477.68 1232.78C476.25 1231.23 475.69 1229.07 476.18 1227.04L488.55 1174.75C489.05 1172.61 490.96 1171.1 493.16 1171.1L494.61 1171.1Z" stroke="#FF5C2A" stroke-opacity="1.000000" stroke-width="1.000000"/>
		<path id="Subtract" d="M426.16 1220.62C430.56 1201.99 448.26 1187.69 467.39 1187.94C469.78 1187.93 471.55 1190.18 471 1192.51L462.88 1226.8C462.5 1228.4 461.52 1229.79 460.12 1230.65C448.22 1237.94 428.86 1247.79 421.47 1251.49C420.28 1252.09 418.94 1251.02 419.25 1249.71L426.16 1220.62Z" stroke="#FF5C2A" stroke-opacity="1.000000" stroke-width="1.000000"/>
		<path id="Subtract" d="M440.95 1051.9C443.35 1053.46 444.53 1056.36 443.88 1059.16C439.51 1077.65 421.82 1090.75 402.73 1090.82C399.76 1090.82 397.56 1088.05 398.24 1085.15L409.19 1038.8C409.95 1035.6 413.64 1034.12 416.4 1035.91L440.95 1051.9Z" stroke="#FF5C2A" stroke-opacity="1.000000" stroke-width="1.000000"/>
		<path id="Subtract" d="M375.15 1107.81C377.35 1107.81 379.26 1106.29 379.77 1104.15L382.46 1092.75C382.69 1091.76 381.94 1090.81 380.92 1090.81L373.12 1090.81C372.25 1090.81 371.53 1090.09 371.54 1089.21L371.55 1088.03C371.56 1087.54 371.79 1087.06 372.18 1086.78L384.15 1077.75C385.62 1076.63 386.66 1075.04 387.09 1073.25L394.87 1040.3C395.72 1036.68 392.27 1033.53 388.75 1034.71L359.53 1044.49C356.94 1045.35 354.98 1047.5 354.35 1050.15L348.38 1075.18C344.78 1090.46 357.57 1107.61 373.19 1107.81L375.15 1107.81Z" stroke="#FF5C2A" stroke-opacity="1.000000" stroke-width="1.000000"/>
		<path id="Subtract" d="M433.67 953.92C450.62 953.85 464.16 970.07 460.53 985.58L446.56 1044.46C446.27 1045.69 444.71 1046.1 443.85 1045.17L416.73 1015.61C415.31 1014.06 414.75 1011.91 415.24 1009.87L427.6 957.58C428.11 955.43 430.02 953.92 432.22 953.92L433.67 953.92Z" stroke="#FF5C2A" stroke-opacity="1.000000" stroke-width="1.000000"/>
		<path id="Subtract" d="M365.21 1003.45C369.62 984.81 387.32 970.53 406.44 970.77C408.84 970.77 410.61 973 410.05 975.34L401.94 1009.62C401.56 1011.23 400.58 1012.62 399.18 1013.48C387.28 1020.78 367.92 1030.62 360.53 1034.31C359.34 1034.92 358 1033.85 358.31 1032.54L365.21 1003.45Z" stroke="#FF5C2A" stroke-opacity="1.000000" stroke-width="1.000000"/>
		<path id="Subtract" d="M568.93 961.61C571.34 963.17 572.51 966.07 571.86 968.87C567.49 987.36 549.8 1000.47 530.71 1000.55C527.74 1000.55 525.54 997.76 526.22 994.86L537.18 948.51C537.93 945.31 541.62 943.83 544.38 945.62L568.93 961.61Z" stroke="#FF5C2A" stroke-opacity="1.000000" stroke-width="1.000000"/>
		<path id="Subtract" d="M503.13 1017.52C505.33 1017.52 507.24 1016.01 507.74 1013.87L510.44 1002.47C510.67 1001.48 509.92 1000.52 508.9 1000.52L501.1 1000.52C500.22 1000.52 499.51 999.8 499.52 998.92L499.53 997.74C499.53 997.25 499.77 996.78 500.16 996.49L512.13 987.46C513.6 986.35 514.64 984.76 515.06 982.96L522.84 950.01C523.7 946.39 520.25 943.24 516.72 944.42L487.51 954.2C484.92 955.06 482.96 957.21 482.33 959.86L476.36 984.89C472.76 1000.18 485.55 1017.33 501.17 1017.52L503.13 1017.52Z" stroke="#FF5C2A" stroke-opacity="1.000000" stroke-width="1.000000"/>
		<path id="Subtract" d="M561.65 863.64C578.6 863.57 592.14 879.78 588.51 895.29L574.53 954.18C574.24 955.41 572.69 955.81 571.83 954.88L544.71 925.32C543.29 923.77 542.73 921.62 543.21 919.58L555.58 867.29C556.09 865.15 558 863.64 560.2 863.64L561.65 863.64Z" stroke="#FF5C2A" stroke-opacity="1.000000" stroke-width="1.000000"/>
		<path id="Subtract" d="M493.19 913.16C497.59 894.53 515.3 880.24 534.42 880.48C536.82 880.48 538.59 882.72 538.03 885.05L529.91 919.34C529.53 920.94 528.56 922.33 527.15 923.19C515.25 930.49 495.9 940.33 488.51 944.03C487.31 944.63 485.98 943.56 486.29 942.25L493.19 913.16Z" stroke="#FF5C2A" stroke-opacity="1.000000" stroke-width="1.000000"/>
		<path id="Subtract" d="M408.05 1205.62C410.45 1207.18 411.62 1210.09 410.98 1212.89C406.6 1231.38 388.91 1244.48 369.83 1244.56C366.85 1244.56 364.65 1241.78 365.34 1238.88L376.29 1192.53C377.05 1189.32 380.74 1187.85 383.49 1189.64L408.05 1205.62Z" stroke="#FF5C2A" stroke-opacity="1.000000" stroke-width="1.000000"/>
		<path id="Subtract" d="M342.24 1261.54C344.44 1261.54 346.35 1260.02 346.85 1257.88L349.55 1246.48C349.78 1245.49 349.03 1244.54 348.01 1244.54L340.21 1244.54C339.34 1244.54 338.62 1243.81 338.63 1242.93L338.64 1241.76C338.65 1241.26 338.88 1240.8 339.27 1240.51L351.24 1231.47C352.71 1230.36 353.75 1228.77 354.18 1226.98L361.96 1194.03C362.81 1190.41 359.36 1187.26 355.84 1188.43L326.62 1198.22C324.03 1199.07 322.07 1201.22 321.44 1203.88L315.47 1228.91C311.87 1244.18 324.66 1261.34 340.28 1261.54L342.24 1261.54Z" stroke="#FF5C2A" stroke-opacity="1.000000" stroke-width="1.000000"/>
		<path id="Subtract" d="M400.76 1107.66C417.71 1107.59 431.25 1123.8 427.62 1139.31L413.65 1198.18C413.35 1199.43 411.8 1199.82 410.94 1198.9L383.82 1169.34C382.4 1167.79 381.84 1165.64 382.33 1163.6L394.69 1111.31C395.2 1109.17 397.11 1107.66 399.31 1107.66L400.76 1107.66Z" stroke="#FF5C2A" stroke-opacity="1.000000" stroke-width="1.000000"/>
		<path id="Subtract" d="M332.3 1157.18C336.71 1138.54 354.41 1124.26 373.53 1124.5C375.93 1124.5 377.7 1126.74 377.14 1129.06L369.03 1163.35C368.65 1164.96 367.67 1166.34 366.27 1167.21C354.37 1174.5 335.01 1184.34 327.62 1188.05C326.43 1188.65 325.09 1187.56 325.4 1186.27L332.3 1157.18Z" stroke="#FF5C2A" stroke-opacity="1.000000" stroke-width="1.000000"/>
		<path id="Subtract" d="M536.02 1115.34C538.43 1116.9 539.6 1119.8 538.95 1122.6C534.58 1141.09 516.89 1154.19 497.8 1154.28C494.83 1154.28 492.63 1151.49 493.31 1148.59L504.27 1102.24C505.02 1099.04 508.71 1097.56 511.47 1099.35L536.02 1115.34Z" stroke="#FF5C2A" stroke-opacity="1.000000" stroke-width="1.000000"/>
		<path id="Subtract" d="M470.22 1171.25C472.42 1171.25 474.33 1169.74 474.84 1167.6L477.53 1156.19C477.77 1155.21 477.01 1154.25 475.99 1154.25L468.19 1154.25C467.32 1154.25 466.6 1153.54 466.61 1152.65L466.62 1151.47C466.63 1150.98 466.86 1150.52 467.25 1150.22L479.22 1141.18C480.69 1140.07 481.73 1138.49 482.16 1136.68L489.94 1103.75C490.79 1100.12 487.34 1096.97 483.82 1098.15L454.6 1107.93C452.01 1108.8 450.05 1110.93 449.42 1113.6L443.45 1138.62C439.85 1153.91 452.64 1171.05 468.26 1171.25L470.22 1171.25Z" stroke="#FF5C2A" stroke-opacity="1.000000" stroke-width="1.000000"/>
		<path id="Subtract" d="M528.74 1017.37C545.69 1017.3 559.23 1033.52 555.6 1049.02L541.63 1107.91C541.34 1109.14 539.78 1109.55 538.93 1108.61L511.8 1079.05C510.38 1077.51 509.82 1075.36 510.31 1073.31L522.68 1021.03C523.18 1018.88 525.09 1017.37 527.29 1017.37L528.74 1017.37Z" stroke="#FF5C2A" stroke-opacity="1.000000" stroke-width="1.000000"/>
		<path id="Subtract" d="M460.28 1066.89C464.69 1048.26 482.39 1033.97 501.52 1034.22C503.91 1034.21 505.68 1036.44 505.12 1038.78L497.01 1073.06C496.63 1074.67 495.65 1076.06 494.25 1076.92C482.35 1084.22 462.99 1094.06 455.6 1097.76C454.41 1098.36 453.07 1097.29 453.38 1095.99L460.28 1066.89Z" stroke="#FF5C2A" stroke-opacity="1.000000" stroke-width="1.000000"/>
		<path id="Subtract" d="M475.08 898.17C477.48 899.73 478.66 902.63 478.01 905.43C473.64 923.92 455.94 937.02 436.86 937.1C433.89 937.1 431.69 934.32 432.37 931.42L443.32 885.07C444.08 881.87 447.77 880.39 450.53 882.18L475.08 898.17Z" stroke="#FF5C2A" stroke-opacity="1.000000" stroke-width="1.000000"/>
		<path id="Subtract" d="M409.28 954.08C411.48 954.08 413.39 952.56 413.89 950.42L416.59 939.02C416.82 938.03 416.07 937.08 415.05 937.08L407.25 937.08C406.37 937.08 405.66 936.36 405.67 935.48L405.68 934.3C405.69 933.8 405.92 933.34 406.31 933.05L418.28 924.02C419.75 922.9 420.79 921.31 421.21 919.52L429 886.57C429.85 882.95 426.4 879.8 422.87 880.98L393.66 890.76C391.07 891.62 389.11 893.77 388.48 896.42L382.51 921.45C378.91 936.73 391.7 953.88 407.32 954.08L409.28 954.08Z" stroke="#FF5C2A" stroke-opacity="1.000000" stroke-width="1.000000"/>
		<path id="Subtract" d="M467.8 800.19C484.75 800.12 498.29 816.34 494.66 831.85L480.69 890.73C480.39 891.97 478.84 892.37 477.98 891.44L450.86 861.88C449.44 860.33 448.88 858.18 449.37 856.14L461.73 803.85C462.24 801.71 464.15 800.19 466.35 800.19L467.8 800.19Z" stroke="#FF5C2A" stroke-opacity="1.000000" stroke-width="1.000000"/>
		<path id="Subtract" d="M399.34 849.72C403.75 831.09 421.45 816.8 440.57 817.04C442.97 817.04 444.74 819.28 444.18 821.61L436.07 855.89C435.69 857.5 434.71 858.88 433.31 859.75C421.41 867.04 402.05 876.88 394.66 880.59C393.46 881.19 392.13 880.11 392.44 878.81L399.34 849.72Z" stroke="#FF5C2A" stroke-opacity="1.000000" stroke-width="1.000000"/>
		<path id="Subtract" d="M603.06 807.88C605.46 809.44 606.64 812.35 605.99 815.14C601.62 833.63 583.93 846.74 564.84 846.82C561.87 846.82 559.67 844.03 560.35 841.13L571.3 794.78C572.06 791.58 575.75 790.1 578.51 791.89L603.06 807.88Z" stroke="#FF5C2A" stroke-opacity="1.000000" stroke-width="1.000000"/>
		<path id="Subtract" d="M537.26 863.79C539.46 863.79 541.37 862.28 541.87 860.14L544.57 848.74C544.8 847.75 544.05 846.79 543.03 846.79L535.23 846.79C534.35 846.79 533.64 846.08 533.65 845.19L533.65 844.01C533.66 843.52 533.89 843.06 534.29 842.76L546.26 833.73C547.73 832.62 548.77 831.03 549.19 829.23L556.97 796.29C557.83 792.67 554.38 789.51 550.85 790.69L521.64 800.47C519.05 801.34 517.09 803.48 516.46 806.14L510.49 831.17C506.89 846.45 519.68 863.6 535.3 863.79L537.26 863.79Z" stroke="#FF5C2A" stroke-opacity="1.000000" stroke-width="1.000000"/>
		<path id="Subtract" d="M595.78 709.91C612.73 709.84 626.27 726.06 622.64 741.56L608.66 800.45C608.37 801.68 606.82 802.09 605.96 801.15L578.84 771.59C577.42 770.05 576.86 767.9 577.34 765.85L589.71 713.57C590.22 711.42 592.13 709.91 594.33 709.91L595.78 709.91Z" stroke="#FF5C2A" stroke-opacity="1.000000" stroke-width="1.000000"/>
		<path id="Subtract" d="M527.32 759.43C531.72 740.8 549.43 726.52 568.55 726.76C570.94 726.75 572.71 728.99 572.16 731.32L564.04 765.61C563.66 767.21 562.69 768.6 561.28 769.46C549.38 776.76 530.03 786.6 522.64 790.3C521.44 790.9 520.1 789.83 520.42 788.53L527.32 759.43Z" stroke="#FF5C2A" stroke-opacity="1.000000" stroke-width="1.000000"/>
		<path id="Subtract" d="M805.39 1359.35C807.79 1360.92 808.96 1363.82 808.32 1366.62C803.95 1385.1 786.25 1398.21 767.17 1398.29C764.19 1398.29 762 1395.51 762.68 1392.61L773.63 1346.25C774.39 1343.06 778.08 1341.58 780.84 1343.37L805.39 1359.35Z" stroke="#FF5C2A" stroke-opacity="1.000000" stroke-width="1.000000"/>
		<path id="Subtract" d="M739.59 1415.27C741.79 1415.27 743.7 1413.75 744.2 1411.61L746.9 1400.21C747.13 1399.22 746.38 1398.27 745.36 1398.27L737.56 1398.27C736.68 1398.27 735.97 1397.55 735.98 1396.67L735.99 1395.48C736 1394.99 736.23 1394.53 736.62 1394.23L748.59 1385.2C750.06 1384.09 751.1 1382.5 751.52 1380.71L759.3 1347.76C760.16 1344.14 756.71 1340.99 753.18 1342.17L723.97 1351.95C721.38 1352.81 719.42 1354.95 718.79 1357.61L712.82 1382.64C709.22 1397.92 722.01 1415.07 737.63 1415.27L739.59 1415.27Z" stroke="#FF5C2A" stroke-opacity="1.000000" stroke-width="1.000000"/>
		<path id="Subtract" d="M798.11 1261.38C815.06 1261.31 828.6 1277.53 824.97 1293.04L811 1351.92C810.7 1353.16 809.15 1353.56 808.29 1352.63L781.17 1323.07C779.75 1321.52 779.19 1319.37 779.68 1317.33L792.04 1265.04C792.55 1262.9 794.46 1261.38 796.66 1261.38L798.11 1261.38Z" stroke="#FF5C2A" stroke-opacity="1.000000" stroke-width="1.000000"/>
		<path id="Subtract" d="M729.65 1310.9C734.05 1292.27 751.76 1277.99 770.88 1278.23C773.28 1278.23 775.05 1280.46 774.49 1282.8L766.37 1317.08C766 1318.68 765.02 1320.07 763.62 1320.93C751.71 1328.23 732.36 1338.07 724.97 1341.78C723.77 1342.38 722.44 1341.3 722.75 1340L729.65 1310.9Z" stroke="#FF5C2A" stroke-opacity="1.000000" stroke-width="1.000000"/>
		<path id="Subtract" d="M933.37 1269.06C935.77 1270.63 936.94 1273.54 936.3 1276.32C931.93 1294.81 914.23 1307.93 895.15 1308.01C892.18 1308.01 889.98 1305.22 890.66 1302.31L901.61 1255.97C902.37 1252.77 906.06 1251.29 908.82 1253.07L933.37 1269.06Z" stroke="#FF5C2A" stroke-opacity="1.000000" stroke-width="1.000000"/>
		<path id="Subtract" d="M867.57 1324.98C869.77 1324.98 871.68 1323.47 872.18 1321.33L874.87 1309.93C875.11 1308.93 874.35 1307.98 873.34 1307.98L865.53 1307.98C864.66 1307.98 863.95 1307.26 863.96 1306.38L863.96 1305.19C863.97 1304.71 864.2 1304.25 864.6 1303.94L876.57 1294.92C878.04 1293.81 879.08 1292.22 879.5 1290.42L887.28 1257.47C888.14 1253.85 884.69 1250.69 881.16 1251.88L851.94 1261.66C849.35 1262.53 847.4 1264.67 846.77 1267.32L840.8 1292.35C837.2 1307.64 849.99 1324.78 865.6 1324.98L867.57 1324.98Z" stroke="#FF5C2A" stroke-opacity="1.000000" stroke-width="1.000000"/>
		<path id="Subtract" d="M926.09 1171.1C943.04 1171.03 956.58 1187.24 952.95 1202.75L938.98 1261.64C938.68 1262.87 937.13 1263.28 936.27 1262.34L909.15 1232.78C907.73 1231.23 907.17 1229.07 907.66 1227.04L920.02 1174.75C920.53 1172.61 922.44 1171.1 924.64 1171.1L926.09 1171.1Z" stroke="#FF5C2A" stroke-opacity="1.000000" stroke-width="1.000000"/>
		<path id="Subtract" d="M857.63 1220.62C862.03 1201.99 879.74 1187.69 898.86 1187.94C901.26 1187.93 903.03 1190.18 902.47 1192.51L894.35 1226.8C893.98 1228.4 893 1229.79 891.6 1230.65C879.69 1237.94 860.34 1247.79 852.95 1251.49C851.75 1252.09 850.42 1251.02 850.73 1249.71L857.63 1220.62Z" stroke="#FF5C2A" stroke-opacity="1.000000" stroke-width="1.000000"/>
		<path id="Subtract" d="M872.43 1051.9C874.83 1053.46 876 1056.36 875.36 1059.16C870.99 1077.65 853.29 1090.75 834.21 1090.82C831.23 1090.82 829.03 1088.05 829.72 1085.15L840.67 1038.8C841.43 1035.6 845.12 1034.12 847.87 1035.91L872.43 1051.9Z" stroke="#FF5C2A" stroke-opacity="1.000000" stroke-width="1.000000"/>
		<path id="Subtract" d="M806.62 1107.81C808.82 1107.81 810.73 1106.29 811.24 1104.15L813.93 1092.75C814.17 1091.76 813.41 1090.81 812.39 1090.81L804.59 1090.81C803.72 1090.81 803.01 1090.09 803.02 1089.21L803.02 1088.03C803.03 1087.54 803.26 1087.06 803.66 1086.78L815.62 1077.75C817.1 1076.63 818.14 1075.04 818.56 1073.25L826.34 1040.3C827.19 1036.68 823.75 1033.53 820.22 1034.71L791 1044.49C788.41 1045.35 786.46 1047.5 785.82 1050.15L779.85 1075.18C776.26 1090.46 789.05 1107.61 804.66 1107.81L806.62 1107.81Z" stroke="#FF5C2A" stroke-opacity="1.000000" stroke-width="1.000000"/>
		<path id="Subtract" d="M865.14 953.92C882.09 953.85 895.63 970.07 892 985.58L878.03 1044.46C877.74 1045.69 876.18 1046.1 875.33 1045.17L848.21 1015.61C846.78 1014.06 846.23 1011.91 846.71 1009.87L859.08 957.58C859.59 955.43 861.5 953.92 863.69 953.92L865.14 953.92Z" stroke="#FF5C2A" stroke-opacity="1.000000" stroke-width="1.000000"/>
		<path id="Subtract" d="M796.69 1003.45C801.09 984.81 818.79 970.53 837.92 970.77C840.31 970.77 842.08 973 841.53 975.34L833.41 1009.62C833.03 1011.23 832.05 1012.62 830.65 1013.48C818.75 1020.78 799.39 1030.62 792 1034.31C790.81 1034.92 789.47 1033.85 789.78 1032.54L796.69 1003.45Z" stroke="#FF5C2A" stroke-opacity="1.000000" stroke-width="1.000000"/>
		<path id="Subtract" d="M1000.41 961.61C1002.81 963.17 1003.98 966.07 1003.34 968.87C998.96 987.36 981.27 1000.47 962.19 1000.55C959.21 1000.55 957.01 997.76 957.69 994.86L968.65 948.51C969.41 945.31 973.1 943.83 975.85 945.62L1000.41 961.61Z" stroke="#FF5C2A" stroke-opacity="1.000000" stroke-width="1.000000"/>
		<path id="Subtract" d="M934.6 1017.52C936.8 1017.52 938.71 1016.01 939.22 1013.87L941.91 1002.47C942.15 1001.48 941.39 1000.52 940.37 1000.52L932.57 1000.52C931.7 1000.52 930.99 999.8 931 998.92L931 997.74C931.01 997.25 931.24 996.78 931.64 996.49L943.6 987.46C945.08 986.35 946.12 984.76 946.54 982.96L954.32 950.01C955.18 946.39 951.73 943.24 948.2 944.42L918.98 954.2C916.39 955.06 914.44 957.21 913.8 959.86L907.84 984.89C904.24 1000.18 917.03 1017.33 932.64 1017.52L934.6 1017.52Z" stroke="#FF5C2A" stroke-opacity="1.000000" stroke-width="1.000000"/>
		<path id="Subtract" d="M993.12 863.64C1010.08 863.57 1023.62 879.78 1019.99 895.29L1006.02 954.18C1005.72 955.41 1004.17 955.81 1003.31 954.88L976.19 925.32C974.77 923.77 974.21 921.62 974.69 919.58L987.06 867.29C987.57 865.15 989.48 863.64 991.68 863.64L993.12 863.64Z" stroke="#FF5C2A" stroke-opacity="1.000000" stroke-width="1.000000"/>
		<path id="Subtract" d="M924.67 913.16C929.07 894.53 946.77 880.24 965.9 880.48C968.29 880.48 970.06 882.72 969.51 885.05L961.39 919.34C961.01 920.94 960.03 922.33 958.63 923.19C946.73 930.49 927.37 940.33 919.98 944.03C918.79 944.63 917.45 943.56 917.77 942.25L924.67 913.16Z" stroke="#FF5C2A" stroke-opacity="1.000000" stroke-width="1.000000"/>
		<path id="Subtract" d="M839.52 1205.62C841.92 1207.18 843.09 1210.09 842.45 1212.89C838.08 1231.38 820.38 1244.48 801.3 1244.56C798.32 1244.56 796.12 1241.78 796.81 1238.88L807.76 1192.53C808.52 1189.32 812.21 1187.85 814.96 1189.64L839.52 1205.62Z" stroke="#FF5C2A" stroke-opacity="1.000000" stroke-width="1.000000"/>
		<path id="Subtract" d="M773.71 1261.54C775.91 1261.54 777.82 1260.02 778.33 1257.88L781.02 1246.48C781.26 1245.49 780.5 1244.54 779.48 1244.54L771.68 1244.54C770.81 1244.54 770.1 1243.81 770.1 1242.93L770.11 1241.76C770.12 1241.26 770.35 1240.8 770.75 1240.51L782.71 1231.47C784.19 1230.36 785.23 1228.77 785.65 1226.98L793.43 1194.03C794.28 1190.41 790.84 1187.26 787.31 1188.43L758.09 1198.22C755.5 1199.07 753.55 1201.22 752.91 1203.88L746.94 1228.91C743.35 1244.18 756.14 1261.34 771.75 1261.54L773.71 1261.54Z" stroke="#FF5C2A" stroke-opacity="1.000000" stroke-width="1.000000"/>
		<path id="Subtract" d="M832.23 1107.66C849.18 1107.59 862.72 1123.8 859.09 1139.31L845.12 1198.18C844.83 1199.43 843.27 1199.82 842.42 1198.9L815.3 1169.34C813.87 1167.79 813.32 1165.64 813.8 1163.6L826.17 1111.31C826.68 1109.17 828.59 1107.66 830.78 1107.66L832.23 1107.66Z" stroke="#FF5C2A" stroke-opacity="1.000000" stroke-width="1.000000"/>
		<path id="Subtract" d="M763.78 1157.18C768.18 1138.54 785.88 1124.26 805.01 1124.5C807.4 1124.5 809.17 1126.74 808.62 1129.06L800.5 1163.35C800.12 1164.96 799.14 1166.34 797.74 1167.21C785.84 1174.5 766.48 1184.34 759.09 1188.05C757.9 1188.65 756.56 1187.56 756.87 1186.27L763.78 1157.18Z" stroke="#FF5C2A" stroke-opacity="1.000000" stroke-width="1.000000"/>
		<path id="Subtract" d="M967.5 1115.34C969.9 1116.9 971.07 1119.8 970.43 1122.6C966.05 1141.09 948.36 1154.19 929.28 1154.28C926.3 1154.28 924.1 1151.49 924.78 1148.59L935.74 1102.24C936.5 1099.04 940.19 1097.56 942.94 1099.35L967.5 1115.34Z" stroke="#FF5C2A" stroke-opacity="1.000000" stroke-width="1.000000"/>
		<path id="Subtract" d="M901.69 1171.25C903.89 1171.25 905.8 1169.74 906.31 1167.6L909 1156.19C909.24 1155.21 908.48 1154.25 907.46 1154.25L899.66 1154.25C898.79 1154.25 898.08 1153.54 898.09 1152.65L898.09 1151.47C898.1 1150.98 898.33 1150.52 898.73 1150.22L910.69 1141.18C912.17 1140.07 913.21 1138.49 913.63 1136.68L921.41 1103.75C922.27 1100.12 918.82 1096.97 915.29 1098.15L886.07 1107.93C883.48 1108.8 881.53 1110.93 880.89 1113.6L874.93 1138.62C871.33 1153.91 884.12 1171.05 899.73 1171.25L901.69 1171.25Z" stroke="#FF5C2A" stroke-opacity="1.000000" stroke-width="1.000000"/>
		<path id="Subtract" d="M960.21 1017.37C977.16 1017.3 990.7 1033.52 987.07 1049.02L973.1 1107.91C972.81 1109.14 971.25 1109.55 970.4 1108.61L943.28 1079.05C941.85 1077.51 941.3 1075.36 941.78 1073.31L954.15 1021.03C954.66 1018.88 956.57 1017.37 958.77 1017.37L960.21 1017.37Z" stroke="#FF5C2A" stroke-opacity="1.000000" stroke-width="1.000000"/>
		<path id="Subtract" d="M891.76 1066.89C896.16 1048.26 913.86 1033.97 932.99 1034.22C935.38 1034.21 937.15 1036.44 936.6 1038.78L928.48 1073.06C928.1 1074.67 927.12 1076.06 925.72 1076.92C913.82 1084.22 894.46 1094.06 887.07 1097.76C885.88 1098.36 884.54 1097.29 884.85 1095.99L891.76 1066.89Z" stroke="#FF5C2A" stroke-opacity="1.000000" stroke-width="1.000000"/>
		<path id="Subtract" d="M906.55 898.17C908.96 899.73 910.13 902.63 909.48 905.43C905.11 923.92 887.42 937.02 868.34 937.1C865.36 937.1 863.16 934.32 863.84 931.42L874.8 885.07C875.55 881.87 879.25 880.39 882 882.18L906.55 898.17Z" stroke="#FF5C2A" stroke-opacity="1.000000" stroke-width="1.000000"/>
		<path id="Subtract" d="M840.75 954.08C842.95 954.08 844.86 952.56 845.37 950.42L848.06 939.02C848.3 938.03 847.54 937.08 846.52 937.08L838.72 937.08C837.85 937.08 837.14 936.36 837.14 935.48L837.15 934.3C837.16 933.8 837.39 933.34 837.78 933.05L849.75 924.02C851.23 922.9 852.27 921.31 852.69 919.52L860.47 886.57C861.32 882.95 857.87 879.8 854.35 880.98L825.13 890.76C822.54 891.62 820.59 893.77 819.95 896.42L813.98 921.45C810.39 936.73 823.18 953.88 838.79 954.08L840.75 954.08Z" stroke="#FF5C2A" stroke-opacity="1.000000" stroke-width="1.000000"/>
		<path id="Subtract" d="M899.27 800.19C916.22 800.12 929.76 816.34 926.13 831.85L912.16 890.73C911.87 891.97 910.31 892.37 909.46 891.44L882.34 861.88C880.91 860.33 880.35 858.18 880.84 856.14L893.21 803.85C893.71 801.71 895.62 800.19 897.82 800.19L899.27 800.19Z" stroke="#FF5C2A" stroke-opacity="1.000000" stroke-width="1.000000"/>
		<path id="Subtract" d="M830.82 849.72C835.22 831.09 852.92 816.8 872.05 817.04C874.44 817.04 876.21 819.28 875.66 821.61L867.54 855.89C867.16 857.5 866.18 858.88 864.78 859.75C852.88 867.04 833.52 876.88 826.13 880.59C824.94 881.19 823.6 880.11 823.91 878.81L830.82 849.72Z" stroke="#FF5C2A" stroke-opacity="1.000000" stroke-width="1.000000"/>
		<path id="Subtract" d="M1034.54 807.88C1036.93 809.44 1038.11 812.35 1037.47 815.14C1033.1 833.63 1015.4 846.74 996.32 846.82C993.34 846.82 991.14 844.03 991.82 841.13L1002.78 794.78C1003.54 791.58 1007.23 790.1 1009.98 791.89L1034.54 807.88Z" stroke="#FF5C2A" stroke-opacity="1.000000" stroke-width="1.000000"/>
		<path id="Subtract" d="M968.73 863.79C970.93 863.79 972.84 862.28 973.34 860.14L976.04 848.74C976.27 847.75 975.52 846.79 974.5 846.79L966.7 846.79C965.82 846.79 965.11 846.08 965.12 845.19L965.13 844.01C965.14 843.52 965.37 843.06 965.76 842.76L977.73 833.73C979.2 832.62 980.24 831.03 980.66 829.23L988.44 796.29C989.3 792.67 985.85 789.51 982.32 790.69L953.11 800.47C950.52 801.34 948.56 803.48 947.93 806.14L941.96 831.17C938.36 846.45 951.15 863.6 966.77 863.79L968.73 863.79Z" stroke="#FF5C2A" stroke-opacity="1.000000" stroke-width="1.000000"/>
		<path id="Subtract" d="M1027.25 709.91C1044.19 709.84 1057.74 726.06 1054.11 741.56L1040.14 800.45C1039.85 801.68 1038.29 802.09 1037.43 801.15L1010.32 771.59C1008.89 770.05 1008.34 767.9 1008.82 765.85L1021.19 713.57C1021.7 711.42 1023.61 709.91 1025.8 709.91L1027.25 709.91Z" stroke="#FF5C2A" stroke-opacity="1.000000" stroke-width="1.000000"/>
		<path id="Subtract" d="M958.79 759.43C963.19 740.8 980.9 726.52 1000.03 726.76C1002.42 726.75 1004.19 728.99 1003.64 731.32L995.52 765.61C995.14 767.21 994.16 768.6 992.76 769.46C980.85 776.76 961.5 786.6 954.11 790.3C952.91 790.9 951.58 789.83 951.89 788.53L958.79 759.43Z" stroke="#FF5C2A" stroke-opacity="1.000000" stroke-width="1.000000"/>
	</g>
</svg>
