<svg width="60.000000" height="60.000000" viewBox="0 0 60 60" fill="none" xmlns="http://www.w3.org/2000/svg" xmlns:xlink="http://www.w3.org/1999/xlink">
	<desc>
			Created with Pixso.
	</desc>
	<defs>
		<clipPath id="clip10_15540">
			<rect id="laptop-launch--Streamline-Ultimate" rx="0.000000" width="59.000000" height="59.000000" transform="translate(0.500000 0.500000)" fill="white" fill-opacity="0"/>
		</clipPath>
	</defs>
	<rect id="laptop-launch--Streamline-Ultimate" rx="0.000000" width="59.000000" height="59.000000" transform="translate(0.500000 0.500000)" fill="#FFFFFF" fill-opacity="0"/>
	<g clip-path="url(#clip10_15540)">
		<path id="Vector" d="M46.88 13.75C47.54 13.75 48.17 14.01 48.64 14.48C49.11 14.95 49.38 15.58 49.38 16.25L49.38 41.25C49.38 42.63 49.51 43.75 48.13 43.75L10.63 43.75C9.25 43.75 9.38 42.63 9.38 41.25L9.38 16.25C9.38 15.58 9.64 14.95 10.11 14.48C10.58 14.01 11.21 13.75 11.88 13.75L46.88 13.75Z" fill="#FF5B29" fill-opacity="1.000000" fill-rule="nonzero"/>
		<path id="Vector" d="M11.88 13.75C11.21 13.75 10.58 14.01 10.11 14.48C9.64 14.95 9.38 15.58 9.38 16.25L9.38 41.25C9.27 41.97 9.39 42.71 9.72 43.36L39.33 13.75L11.88 13.75Z" fill="#FFBDAE" fill-opacity="1.000000" fill-rule="nonzero"/>
		<path id="Vector" d="M48.13 43.75C48.63 43.7 49.14 43.8 49.59 44.01C50.04 44.24 50.42 44.58 50.7 45L56.88 52.5C57.07 52.91 57.14 53.36 57.11 53.81C57.07 54.26 56.92 54.69 56.67 55.07C56.42 55.44 56.08 55.75 55.68 55.95C55.28 56.16 54.83 56.26 54.38 56.25L5.58 56.25C5.13 56.26 4.69 56.16 4.29 55.95C3.89 55.74 3.55 55.43 3.3 55.06C3.06 54.68 2.91 54.25 2.88 53.8C2.85 53.35 2.94 52.9 3.13 52.5L9.25 45C9.46 44.62 9.78 44.3 10.16 44.08C10.54 43.86 10.97 43.75 11.41 43.75L48.13 43.75Z" fill="#FFBDAE" fill-opacity="1.000000" fill-rule="nonzero"/>
		<path id="Vector" d="M34.12 38.81C34.12 42.52 29.37 47.49 29.37 47.49C29.37 47.49 24.62 42.52 24.62 38.81C24.57 38.16 24.66 37.51 24.88 36.9C25.1 36.28 25.44 35.72 25.88 35.24C26.33 34.77 26.86 34.39 27.46 34.13C28.06 33.87 28.7 33.73 29.35 33.73C30.01 33.73 30.65 33.87 31.25 34.13C31.85 34.39 32.38 34.77 32.83 35.24C33.27 35.72 33.61 36.28 33.83 36.9C34.05 37.51 34.14 38.16 34.09 38.81L34.12 38.81Z" fill="#FF5B29" fill-opacity="1.000000" fill-rule="nonzero"/>
		<path id="Vector" d="M29.37 47.49C29.37 47.49 24.62 42.52 24.62 38.81C24.57 38.16 24.66 37.51 24.88 36.9C25.1 36.28 25.44 35.72 25.88 35.24C26.33 34.77 26.86 34.39 27.46 34.13C28.06 33.87 28.7 33.73 29.35 33.73C30.01 33.73 30.65 33.87 31.25 34.13C31.85 34.39 32.38 34.77 32.83 35.24C33.27 35.72 33.61 36.28 33.83 36.9C34.05 37.51 34.14 38.16 34.09 38.81L34.12 38.81C34.12 42.52 29.37 47.49 29.37 47.49Z" stroke="#252222" stroke-opacity="1.000000" stroke-width="1.000000" stroke-linejoin="round"/>
		<path id="Vector" d="M34.38 11.25C34.38 7.1 29.38 3.75 29.38 3.75C29.38 3.75 24.38 7.1 24.38 11.25L24.38 28.75L34.38 28.75L34.38 11.25Z" fill="#FFBDAE" fill-opacity="1.000000" fill-rule="nonzero"/>
		<path id="Vector" d="M29.38 3.75C29.38 3.75 24.38 7.1 24.38 11.25L24.38 17.7C24.38 17.41 24.4 17.12 24.45 16.83C24.7 15.71 25.33 14.71 26.23 14C27.12 13.28 28.23 12.89 29.38 12.89C30.52 12.89 31.64 13.28 32.53 14C33.42 14.71 34.05 15.71 34.3 16.83C34.35 17.12 34.38 17.41 34.38 17.7L34.38 11.25C34.38 7.1 29.38 3.75 29.38 3.75Z" fill="#FFFFFF" fill-opacity="1.000000" fill-rule="nonzero"/>
		<path id="Vector" d="M29.38 3.75C29.38 3.75 24.38 7.1 24.38 11.25L24.38 28.75L34.38 28.75L34.38 11.25C34.38 7.1 29.38 3.75 29.38 3.75Z" stroke="#252222" stroke-opacity="1.000000" stroke-width="1.000000" stroke-linejoin="round"/>
		<path id="Vector" d="M24.38 28.75L18.29 28.75C18.1 28.75 17.91 28.7 17.74 28.62C17.57 28.53 17.42 28.41 17.3 28.26C17.19 28.11 17.11 27.93 17.07 27.75C17.03 27.56 17.03 27.37 17.08 27.18C17.61 25.48 18.55 23.93 19.83 22.67C21.1 21.42 22.66 20.5 24.38 20L24.38 28.75Z" fill="#FF5B29" fill-opacity="1.000000" fill-rule="nonzero"/>
		<path id="Vector" d="M18.29 28.75C18.1 28.75 17.91 28.7 17.74 28.62C17.57 28.53 17.42 28.41 17.3 28.26C17.19 28.11 17.11 27.93 17.07 27.75C17.03 27.56 17.03 27.37 17.08 27.18C17.61 25.48 18.55 23.93 19.83 22.67C21.1 21.42 22.66 20.5 24.38 20L24.38 28.75L18.29 28.75Z" stroke="#252222" stroke-opacity="1.000000" stroke-width="1.000000" stroke-linejoin="round"/>
		<path id="Vector" d="M34.38 28.75L40.46 28.75C40.66 28.75 40.84 28.7 41.01 28.62C41.18 28.53 41.33 28.41 41.45 28.26C41.57 28.11 41.65 27.94 41.69 27.75C41.73 27.56 41.72 27.37 41.67 27.18C41.14 25.48 40.2 23.93 38.92 22.68C37.65 21.42 36.09 20.5 34.38 20L34.38 28.75Z" fill="#FF5B29" fill-opacity="1.000000" fill-rule="nonzero"/>
		<path id="Vector" d="M40.46 28.75C40.66 28.75 40.84 28.7 41.01 28.62C41.18 28.53 41.33 28.41 41.45 28.26C41.57 28.11 41.65 27.94 41.69 27.75C41.73 27.56 41.72 27.37 41.67 27.18C41.14 25.48 40.2 23.93 38.92 22.68C37.65 21.42 36.09 20.5 34.38 20L34.38 28.75L40.46 28.75Z" stroke="#252222" stroke-opacity="1.000000" stroke-width="1.000000" stroke-linejoin="round"/>
		<path id="Vector" d="M21.88 33.75C21.39 33.68 20.88 33.77 20.44 33.99C19.99 34.21 19.62 34.56 19.38 35C19.28 35.19 19.23 35.4 19.23 35.62C19.23 35.84 19.28 36.05 19.38 36.25L18.13 36.25C17.14 36.27 16.21 36.68 15.51 37.38C14.81 38.07 14.41 39.01 14.38 40" stroke="#252222" stroke-opacity="1.000000" stroke-width="1.000000" stroke-linejoin="round" stroke-linecap="round"/>
		<path id="Vector" d="M36.88 33.75C37.37 33.68 37.87 33.77 38.32 33.99C38.76 34.21 39.13 34.56 39.38 35C39.48 35.19 39.53 35.4 39.53 35.62C39.53 35.84 39.48 36.05 39.38 36.25L40.63 36.25C41.61 36.27 42.55 36.68 43.25 37.38C43.94 38.07 44.35 39.01 44.38 40" stroke="#252222" stroke-opacity="1.000000" stroke-width="1.000000" stroke-linejoin="round" stroke-linecap="round"/>
		<path id="Vector" d="M48.13 43.75C48.63 43.7 49.14 43.8 49.59 44.01C50.04 44.24 50.42 44.58 50.7 45L56.88 52.5C57.07 52.91 57.14 53.36 57.11 53.81C57.07 54.26 56.92 54.69 56.67 55.07C56.42 55.44 56.08 55.75 55.68 55.95C55.28 56.16 54.83 56.26 54.38 56.25L5.58 56.25C5.13 56.26 4.69 56.16 4.29 55.95C3.89 55.74 3.55 55.43 3.3 55.06C3.06 54.68 2.91 54.25 2.88 53.8C2.85 53.35 2.94 52.9 3.13 52.5L9.25 45C9.46 44.62 9.78 44.3 10.16 44.08C10.54 43.86 10.97 43.75 11.41 43.75" stroke="#252222" stroke-opacity="1.000000" stroke-width="1.000000" stroke-linejoin="round" stroke-linecap="round"/>
		<path id="Vector" d="M19.37 13.75L11.87 13.75C11.21 13.75 10.57 14.01 10.1 14.48C9.64 14.95 9.37 15.58 9.37 16.25L9.37 41.25C9.37 42.63 9.25 43.75 10.62 43.75L19.37 43.75" stroke="#252222" stroke-opacity="1.000000" stroke-width="1.000000" stroke-linejoin="round" stroke-linecap="round"/>
		<path id="Vector" d="M39.38 43.75L48.13 43.75C49.51 43.75 49.38 42.63 49.38 41.25L49.38 16.25C49.38 15.58 49.12 14.95 48.65 14.48C48.18 14.01 47.54 13.75 46.88 13.75L39.38 13.75" stroke="#252222" stroke-opacity="1.000000" stroke-width="1.000000" stroke-linejoin="round" stroke-linecap="round"/>
		<path id="Vector" d="M25.63 51.25L33.13 51.25" stroke="#252222" stroke-opacity="1.000000" stroke-width="1.000000" stroke-linejoin="round" stroke-linecap="round"/>
	</g>
</svg>
