<svg width="60.000000" height="60.000000" viewBox="0 0 60 60" fill="none" xmlns="http://www.w3.org/2000/svg" xmlns:xlink="http://www.w3.org/1999/xlink">
	<desc>
			Created with Pixso.
	</desc>
	<defs>
		<clipPath id="clip10_15497">
			<rect id="network--Streamline-Ultimate" rx="0.000000" width="59.000000" height="59.000000" transform="translate(0.500000 0.500000)" fill="white" fill-opacity="0"/>
		</clipPath>
	</defs>
	<rect id="network--Streamline-Ultimate" rx="0.000000" width="59.000000" height="59.000000" transform="translate(0.500000 0.500000)" fill="#FFFFFF" fill-opacity="0"/>
	<g clip-path="url(#clip10_15497)">
		<path id="Vector" d="M1.25 29.99C1.25 33.76 1.99 37.5 3.43 40.99C4.88 44.48 7 47.65 9.67 50.32C12.33 52.99 15.5 55.11 18.99 56.55C22.48 58 26.22 58.74 30 58.74C33.77 58.74 37.51 58 41 56.55C44.49 55.11 47.66 52.99 50.32 50.32C53 47.65 55.11 44.48 56.56 40.99C58 37.5 58.75 33.76 58.75 29.99C58.75 26.21 58 22.48 56.56 18.99C55.11 15.5 53 12.33 50.32 9.66C47.66 6.99 44.49 4.87 41 3.43C37.51 1.98 33.77 1.24 30 1.24C26.22 1.24 22.48 1.98 18.99 3.43C15.5 4.87 12.33 6.99 9.67 9.66C7 12.33 4.88 15.5 3.43 18.99C1.99 22.48 1.25 26.21 1.25 29.99Z" fill="#FF5B29" fill-opacity="1.000000" fill-rule="nonzero"/>
		<path id="Vector" d="M9.91 37.5C9.91 32.47 11.22 27.54 13.72 23.18C16.22 18.83 19.81 15.2 24.15 12.67C28.48 10.14 33.41 8.78 38.43 8.74C43.45 8.7 48.39 9.98 52.77 12.44C50.17 9.07 46.85 6.32 43.05 4.38C39.25 2.45 35.07 1.38 30.82 1.26C26.56 1.14 22.32 1.96 18.42 3.68C14.52 5.4 11.05 7.96 8.26 11.18C5.48 14.4 3.44 18.2 2.3 22.31C1.16 26.41 0.94 30.72 1.67 34.92C2.4 39.11 4.05 43.1 6.51 46.58C8.97 50.06 12.17 52.95 15.88 55.04C12 50.02 9.9 43.85 9.91 37.5Z" fill="#FFBDAE" fill-opacity="1.000000" fill-rule="nonzero"/>
		<path id="Vector" d="M3.43 40.99C4.88 44.48 7 47.65 9.67 50.32C12.33 52.99 15.5 55.11 18.99 56.55C22.48 58 26.22 58.74 30 58.74C33.77 58.74 37.51 58 41 56.55C44.49 55.11 47.66 52.99 50.32 50.32C53 47.65 55.11 44.48 56.56 40.99C58 37.5 58.75 33.76 58.75 29.99C58.75 26.21 58 22.48 56.56 18.99C55.11 15.5 53 12.33 50.32 9.66C47.66 6.99 44.49 4.87 41 3.43C37.51 1.98 33.77 1.24 30 1.24C26.22 1.24 22.48 1.98 18.99 3.43C15.5 4.87 12.33 6.99 9.67 9.66C7 12.33 4.88 15.5 3.43 18.99C1.99 22.48 1.25 26.21 1.25 29.99C1.25 33.76 1.99 37.5 3.43 40.99Z" stroke="#252222" stroke-opacity="1.000000" stroke-width="1.000000" stroke-linejoin="round"/>
		<path id="Vector" d="M16.25 19.36C16.25 20.1 16.39 20.83 16.67 21.52C16.96 22.2 17.37 22.82 17.89 23.34C18.41 23.86 19.03 24.28 19.72 24.56C20.4 24.84 21.13 24.99 21.87 24.99C22.61 24.99 23.34 24.84 24.02 24.56C24.71 24.28 25.33 23.86 25.85 23.34C26.37 22.82 26.78 22.2 27.07 21.52C27.35 20.83 27.5 20.1 27.5 19.36C27.5 18.63 27.35 17.89 27.07 17.21C26.78 16.53 26.37 15.91 25.85 15.39C25.33 14.86 24.71 14.45 24.02 14.17C23.34 13.88 22.61 13.74 21.87 13.74C21.13 13.74 20.4 13.88 19.72 14.17C19.03 14.45 18.41 14.86 17.89 15.39C17.37 15.91 16.96 16.53 16.67 17.21C16.39 17.89 16.25 18.63 16.25 19.36Z" fill="#FFFFFF" fill-opacity="1.000000" fill-rule="nonzero"/>
		<path id="Vector" d="M16.67 21.52C16.96 22.2 17.37 22.82 17.89 23.34C18.41 23.86 19.03 24.28 19.72 24.56C20.4 24.84 21.13 24.99 21.87 24.99C22.61 24.99 23.34 24.84 24.02 24.56C24.71 24.28 25.33 23.86 25.85 23.34C26.37 22.82 26.78 22.2 27.07 21.52C27.35 20.83 27.5 20.1 27.5 19.36C27.5 18.63 27.35 17.89 27.07 17.21C26.78 16.53 26.37 15.91 25.85 15.39C25.33 14.86 24.71 14.45 24.02 14.17C23.34 13.88 22.61 13.74 21.87 13.74C21.13 13.74 20.4 13.88 19.72 14.17C19.03 14.45 18.41 14.86 17.89 15.39C17.37 15.91 16.96 16.53 16.67 17.21C16.39 17.89 16.25 18.63 16.25 19.36C16.25 20.1 16.39 20.83 16.67 21.52Z" stroke="#252222" stroke-opacity="1.000000" stroke-width="1.000000" stroke-linejoin="round"/>
		<path id="Vector" d="M32.5 44.36C32.5 45.19 32.82 45.99 33.41 46.57C34 47.16 34.79 47.49 35.62 47.49C36.45 47.49 37.25 47.16 37.83 46.57C38.42 45.99 38.75 45.19 38.75 44.36C38.75 43.54 38.42 42.74 37.83 42.16C37.25 41.57 36.45 41.24 35.62 41.24C34.79 41.24 34 41.57 33.41 42.16C32.82 42.74 32.5 43.54 32.5 44.36Z" fill="#FFFFFF" fill-opacity="1.000000" fill-rule="nonzero"/>
		<path id="Vector" d="M33.41 46.57C34 47.16 34.79 47.49 35.62 47.49C36.45 47.49 37.25 47.16 37.83 46.57C38.42 45.99 38.75 45.19 38.75 44.36C38.75 43.54 38.42 42.74 37.83 42.16C37.25 41.57 36.45 41.24 35.62 41.24C34.79 41.24 34 41.57 33.41 42.16C32.82 42.74 32.5 43.54 32.5 44.36C32.5 45.19 32.82 45.99 33.41 46.57Z" stroke="#252222" stroke-opacity="1.000000" stroke-width="1.000000" stroke-linejoin="round"/>
		<path id="Vector" d="M42.5 25.61C42.5 26.77 42.96 27.89 43.78 28.71C44.6 29.53 45.71 29.99 46.87 29.99C48.03 29.99 49.14 29.53 49.96 28.71C50.78 27.89 51.25 26.77 51.25 25.61C51.25 24.45 50.78 23.34 49.96 22.52C49.14 21.7 48.03 21.24 46.87 21.24C45.71 21.24 44.6 21.7 43.78 22.52C42.96 23.34 42.5 24.45 42.5 25.61Z" fill="#FFFFFF" fill-opacity="1.000000" fill-rule="nonzero"/>
		<path id="Vector" d="M43.78 28.71C44.6 29.53 45.71 29.99 46.87 29.99C48.03 29.99 49.14 29.53 49.96 28.71C50.78 27.89 51.25 26.77 51.25 25.61C51.25 24.45 50.78 23.34 49.96 22.52C49.14 21.7 48.03 21.24 46.87 21.24C45.71 21.24 44.6 21.7 43.78 22.52C42.96 23.34 42.5 24.45 42.5 25.61C42.5 26.77 42.96 27.89 43.78 28.71Z" stroke="#252222" stroke-opacity="1.000000" stroke-width="1.000000" stroke-linejoin="round"/>
		<path id="Vector" d="M27.5 18.75C33.08 18.96 38.41 21.18 42.5 25" stroke="#252222" stroke-opacity="1.000000" stroke-width="1.000000" stroke-linejoin="round" stroke-linecap="round"/>
		<path id="Vector" d="M47.75 29.91L48.75 31.24C48.75 31.24 52.5 36.25 52.5 47.5" stroke="#252222" stroke-opacity="1.000000" stroke-width="1.000000" stroke-linejoin="round" stroke-linecap="round"/>
		<path id="Vector" d="M42.05 3.88L42.5 5C44.3 10.35 45.15 15.99 45 21.64" stroke="#252222" stroke-opacity="1.000000" stroke-width="1.000000" stroke-linejoin="round" stroke-linecap="round"/>
		<path id="Vector" d="M43.75 28.75C43.43 33.91 41.57 38.86 38.41 42.95" stroke="#252222" stroke-opacity="1.000000" stroke-width="1.000000" stroke-linejoin="round" stroke-linecap="round"/>
		<path id="Vector" d="M34.12 47.11L33.75 47.5C33.75 47.5 27.5 53.75 13.75 53.75" stroke="#252222" stroke-opacity="1.000000" stroke-width="1.000000" stroke-linejoin="round" stroke-linecap="round"/>
		<path id="Vector" d="M30 1.25C26.57 4.9 23.82 9.13 21.87 13.75" stroke="#252222" stroke-opacity="1.000000" stroke-width="1.000000" stroke-linejoin="round" stroke-linecap="round"/>
		<path id="Vector" d="M18.95 24.17L18.75 25C17.38 31.76 18.26 38.78 21.25 45C25.5 53.51 36.25 57.5 36.25 57.5L37.18 57.84" stroke="#252222" stroke-opacity="1.000000" stroke-width="1.000000" stroke-linejoin="round" stroke-linecap="round"/>
		<path id="Vector" d="M16.25 19.36C16.25 19.36 6.64 20.05 1.81 24.3" stroke="#252222" stroke-opacity="1.000000" stroke-width="1.000000" stroke-linejoin="round" stroke-linecap="round"/>
		<path id="Vector" d="M1.95 36.33L2.5 36.25C2.5 36.25 19.7 33.6 33.68 41.92" stroke="#252222" stroke-opacity="1.000000" stroke-width="1.000000" stroke-linejoin="round" stroke-linecap="round"/>
	</g>
</svg>
