<svg width="60.000000" height="60.000000" viewBox="0 0 60 60" fill="none" xmlns="http://www.w3.org/2000/svg" xmlns:xlink="http://www.w3.org/1999/xlink">
	<desc>
			Created with Pixso.
	</desc>
	<defs>
		<clipPath id="clip10_15552">
			<rect id="business-climb-top--Streamline-Ultimate" rx="0.000000" width="59.000000" height="59.000000" transform="translate(0.500000 0.500000)" fill="white" fill-opacity="0"/>
		</clipPath>
	</defs>
	<rect id="business-climb-top--Streamline-Ultimate" rx="0.000000" width="59.000000" height="59.000000" transform="translate(0.500000 0.500000)" fill="#FFFFFF" fill-opacity="0"/>
	<g clip-path="url(#clip10_15552)">
		<path id="Vector" d="M34.18 2.44L50.85 2.44C51.08 2.44 51.3 2.51 51.49 2.63C51.68 2.75 51.83 2.92 51.93 3.12C52.03 3.33 52.07 3.55 52.04 3.78C52.02 4 51.93 4.21 51.79 4.39L49.16 7.68C48.99 7.9 48.9 8.16 48.9 8.43C48.9 8.7 48.99 8.97 49.16 9.18L51.8 12.48C51.94 12.65 52.02 12.86 52.05 13.09C52.07 13.31 52.04 13.54 51.94 13.74C51.84 13.95 51.69 14.12 51.5 14.24C51.31 14.36 51.08 14.42 50.86 14.42L34.19 14.42L34.18 2.44Z" fill="#FF5B29" fill-opacity="1.000000" fill-rule="nonzero"/>
		<path id="Vector" d="M34.18 14.42L34.42 14.42L46.4 2.44L34.18 2.44L34.18 14.42Z" fill="#FFBDAE" fill-opacity="1.000000" fill-rule="nonzero"/>
		<path id="Vector" d="M46.26 40.58L40.66 45.35C40.2 45.74 39.61 45.94 39.01 45.91C38.41 45.88 37.85 45.63 37.42 45.21L35.87 43.67C35.42 43.23 34.81 42.98 34.17 42.98C33.54 42.98 32.94 43.23 32.49 43.67L30.95 45.21C30.53 45.63 29.96 45.88 29.36 45.91C28.76 45.94 28.18 45.74 27.72 45.35L22.11 40.58L31.79 25.2C32.07 24.84 32.44 24.54 32.85 24.34C33.27 24.13 33.73 24.03 34.19 24.03C34.65 24.03 35.1 24.13 35.52 24.34C35.94 24.54 36.3 24.84 36.58 25.2L46.26 40.58Z" fill="#FFBDAE" fill-opacity="1.000000" fill-rule="nonzero"/>
		<path id="Vector" d="M34.19 36.83C37.16 36.84 40.11 36.29 42.88 35.21L36.58 25.2C36.3 24.84 35.94 24.54 35.52 24.34C35.1 24.13 34.65 24.03 34.19 24.03C33.73 24.03 33.27 24.13 32.85 24.34C32.44 24.54 32.07 24.84 31.79 25.2L25.5 35.21C28.26 36.29 31.21 36.84 34.19 36.83Z" fill="#FFFFFF" fill-opacity="1.000000" fill-rule="nonzero"/>
		<path id="Vector" d="M40.66 45.35C40.2 45.74 39.61 45.94 39.01 45.91C38.41 45.88 37.85 45.63 37.42 45.21L35.87 43.67C35.42 43.23 34.81 42.98 34.17 42.98C33.54 42.98 32.94 43.23 32.49 43.67L30.95 45.21C30.53 45.63 29.96 45.88 29.36 45.91C28.76 45.94 28.18 45.74 27.72 45.35L22.11 40.58L31.79 25.2C32.07 24.84 32.44 24.54 32.85 24.34C33.27 24.13 33.73 24.03 34.19 24.03C34.65 24.03 35.1 24.13 35.52 24.34C35.94 24.54 36.3 24.84 36.58 25.2L46.26 40.58L40.66 45.35Z" stroke="#252222" stroke-opacity="1.000000" stroke-width="1.000000" stroke-linejoin="round"/>
		<path id="Vector" d="M17.78 47.48L11.43 57.55L3.04 57.55L11.43 44.37C11.72 44.01 12.08 43.71 12.5 43.51C12.91 43.3 13.36 43.19 13.82 43.17C14.28 43.19 14.74 43.3 15.15 43.51C15.57 43.72 15.93 44.01 16.22 44.37L17.78 47.48Z" fill="#FF5B29" fill-opacity="1.000000" fill-rule="nonzero"/>
		<path id="Vector" d="M11.43 57.55L3.04 57.55L11.43 44.37C11.72 44.01 12.08 43.71 12.5 43.51C12.91 43.3 13.36 43.19 13.82 43.17C14.28 43.19 14.74 43.3 15.15 43.51C15.57 43.72 15.93 44.01 16.22 44.37L17.78 47.48L11.43 57.55Z" stroke="#252222" stroke-opacity="1.000000" stroke-width="1.000000" stroke-linejoin="round"/>
		<path id="Vector" d="M56.95 57.55L11.43 57.55L17.78 47.49L22.11 40.58L27.72 45.35C28.18 45.74 28.77 45.94 29.37 45.91C29.96 45.88 30.53 45.63 30.96 45.21L32.49 43.67C32.94 43.23 33.55 42.98 34.18 42.98C34.81 42.98 35.42 43.23 35.87 43.67L37.42 45.21C37.85 45.63 38.41 45.88 39.01 45.91C39.61 45.94 40.2 45.74 40.66 45.35L46.26 40.58L56.95 57.55Z" fill="#FF5B29" fill-opacity="1.000000" fill-rule="nonzero"/>
		<path id="Vector" d="M11.43 57.55L17.78 47.49L22.11 40.58L27.72 45.35C28.18 45.74 28.77 45.94 29.37 45.91C29.96 45.88 30.53 45.63 30.96 45.21L32.49 43.67C32.94 43.23 33.55 42.98 34.18 42.98C34.81 42.98 35.42 43.23 35.87 43.67L37.42 45.21C37.85 45.63 38.41 45.88 39.01 45.91C39.61 45.94 40.2 45.74 40.66 45.35L46.26 40.58L56.95 57.55L11.43 57.55Z" stroke="#252222" stroke-opacity="1.000000" stroke-width="1.000000" stroke-linejoin="round"/>
		<path id="Vector" d="M34.18 24L34.18 2.44" stroke="#FFFFFF" stroke-opacity="1.000000" stroke-width="1.000000" stroke-linejoin="round" stroke-linecap="round"/>
		<path id="Vector" d="M50.85 2.44C51.08 2.44 51.3 2.51 51.49 2.63C51.68 2.75 51.83 2.92 51.93 3.12C52.03 3.33 52.07 3.55 52.04 3.78C52.02 4 51.93 4.21 51.79 4.39L49.16 7.68C48.99 7.9 48.9 8.16 48.9 8.43C48.9 8.7 48.99 8.97 49.16 9.18L51.8 12.48C51.94 12.65 52.02 12.86 52.05 13.09C52.07 13.31 52.04 13.54 51.94 13.74C51.84 13.95 51.69 14.12 51.5 14.24C51.31 14.36 51.08 14.42 50.86 14.42L34.19 14.42L34.18 2.44L50.85 2.44Z" stroke="#252222" stroke-opacity="1.000000" stroke-width="1.000000" stroke-linejoin="round"/>
	</g>
</svg>
