<svg width="148" height="157" viewBox="0 0 148 157" fill="none" xmlns="http://www.w3.org/2000/svg">
<path d="M67.2852 109.057C88.8968 109.057 117.798 106.043 132.35 92.4249C163.348 63.4159 141.506 0.486134 105.178 1.00303C81.1677 1.34468 62.9809 25.4141 38.692 25.4141C10.9626 25.4141 -6.03903 45.5056 3.82579 75.2137C13.6591 104.827 43.4501 109.057 67.2852 109.057Z" fill="#FFE457" stroke="white" stroke-linecap="round"/>
<path d="M39.2225 148.347C35.9623 152.681 42.3662 159.901 46.3908 153.746C49.9211 148.347 41.545 144.919 39.2228 148.348" stroke="white" stroke-linecap="round"/>
<path d="M55.7936 125.383C49.2125 134.132 62.1398 148.706 70.2641 136.282C77.3905 125.383 60.482 118.463 55.7944 125.385" stroke="white" stroke-linecap="round"/>
</svg>
