<svg width="148" height="157" viewBox="0 0 148 157" fill="none" xmlns="http://www.w3.org/2000/svg">
<path d="M67.4844 109.057C89.096 109.057 117.997 106.043 132.549 92.4249C163.547 63.4159 141.705 0.486134 105.377 1.00303C81.3669 1.34468 63.1801 25.4141 38.8913 25.4141C11.1618 25.4141 -5.83981 45.5056 4.02501 75.2137C13.8583 104.827 43.6493 109.057 67.4844 109.057Z" fill="#FFE457" stroke="white" stroke-linecap="round"/>
<path d="M33.858 90.8417C32.1358 89.8446 31.3608 87.0804 33.0289 83.1236C34.5801 78.5483 39.0463 73.7337 35.2772 66.8176C28.0473 57.0832 29.2567 50.3138 36.9858 57.27C37.1577 57.4247 36.6275 54.4034 36.5901 53.9915C35.703 44.233 45.1733 47.3358 43.6181 56.667C43.1421 59.523 41.694 63.9618 41.694 66.8176C41.0962 81.6688 46.0676 78.1525 46.0676 85.043C46.0676 87.0934 43.1342 91.8336 40.6411 88.7172C37.1921 84.4059 36.3709 92.2968 33.858 90.8417Z" fill="#272727" stroke="white" stroke-linecap="round"/>
<path d="M76.7871 33.2684C79.0897 34.6015 80.1259 38.2974 77.8957 43.5877C75.6654 48.8781 72.9342 65.3891 76.7875 70.5476C89.6079 87.7101 80.1545 96.5797 72.0822 82.6703C72.0822 85.8222 58.3728 99.2886 63.1613 78.4946C64.0301 74.7221 66.3102 69.2075 66.3102 65.3891C67.1094 45.5328 60.4626 50.2341 60.4626 41.0213C60.4626 38.28 64.3847 31.9422 67.7179 36.1088C72.3294 41.8732 73.4273 31.3228 76.7871 33.2684Z" fill="#272727" stroke="white" stroke-linecap="round" stroke-linejoin="round"/>
<path d="M99.5043 88.1027C96.2924 86.2432 94.8471 81.0878 97.958 73.7083C100.851 65.1753 105.338 51.1515 99.5043 43.2974C86.0204 25.1424 96.3539 9.55466 105.338 25.4907C105.338 15.4784 120.495 10.4714 118.17 24.4209C117.282 29.7473 114.119 37.9711 114.119 43.2974C113.004 70.9951 122.687 68.4895 122.687 81.3404C122.687 85.1643 116.924 91.7411 112.274 85.929C105.842 77.8883 104.191 90.8166 99.5043 88.1027Z" fill="#272727"/>
<path d="M97.958 73.7083L98.4188 73.9025L98.4258 73.8859L98.4316 73.8688L97.958 73.7083ZM99.5043 88.1027L99.7549 87.67L99.7549 87.67L99.5043 88.1027ZM114.119 43.2974L114.618 43.3175L114.619 43.3074L114.619 43.2974L114.119 43.2974ZM118.17 24.4209L117.677 24.3387L118.17 24.4209ZM99.5043 43.2974L99.1029 43.5955L99.5043 43.2974ZM112.274 85.929L112.665 85.6167V85.6167L112.274 85.929ZM105.338 25.4907L104.902 25.7363C105.014 25.9342 105.245 26.032 105.465 25.9743C105.684 25.9167 105.838 25.718 105.838 25.4907L105.338 25.4907ZM97.4973 73.514C94.3532 80.9722 95.7054 86.481 99.2538 88.5354L99.7549 87.67C96.8795 86.0053 95.3409 81.2035 98.4188 73.9025L97.4973 73.514ZM114.619 43.2974C114.619 40.7091 115.391 37.3824 116.295 33.9878C117.189 30.6269 118.214 27.1975 118.663 24.5031L117.677 24.3387C117.238 26.9707 116.237 30.3164 115.328 33.7305C114.428 37.111 113.619 40.5593 113.619 43.2974L114.619 43.2974ZM99.1029 43.5955C101.9 47.3612 102.257 52.6636 101.508 58.181C100.761 63.6821 98.9316 69.2797 97.4845 73.5477L98.4316 73.8688C99.8776 69.6039 101.738 63.9231 102.499 58.3155C103.258 52.7242 102.942 47.0876 99.9057 42.9992L99.1029 43.5955ZM123.187 81.3404C123.187 74.7584 120.67 72.0201 118.43 67.658C116.195 63.3072 114.064 57.0982 114.618 43.3175L113.619 43.2772C113.059 57.1943 115.212 63.5814 117.54 68.1149C119.863 72.6371 122.187 75.0715 122.187 81.3404L123.187 81.3404ZM111.884 86.2414C113.108 87.7718 114.451 88.5385 115.804 88.6983C117.151 88.8572 118.427 88.4063 119.508 87.6597C120.589 86.9136 121.503 85.8556 122.147 84.7376C122.789 83.6244 123.187 82.4101 123.187 81.3404L122.187 81.3404C122.187 82.1827 121.865 83.2244 121.281 84.2382C120.699 85.2472 119.881 86.1871 118.94 86.8367C118 87.4857 116.964 87.8282 115.922 87.7052C114.887 87.583 113.765 86.9923 112.665 85.6167L111.884 86.2414ZM105.773 25.2452C103.505 21.221 101.083 19.0571 98.8592 18.5113C97.7317 18.2347 96.6671 18.3791 95.7434 18.899C94.8273 19.4148 94.084 20.2799 93.5456 21.392C92.4719 23.6098 92.1732 26.8834 92.9745 30.7172C93.778 34.5615 95.6939 39.0055 99.1029 43.5955L99.9057 42.9992C96.5728 38.5117 94.7239 34.1991 93.9534 30.5126C93.1806 26.8157 93.4985 23.7843 94.4457 21.8278C94.9177 20.8527 95.5359 20.1634 96.234 19.7704C96.9246 19.3817 97.727 19.2632 98.6209 19.4825C100.439 19.9287 102.679 21.7924 104.902 25.7363L105.773 25.2452ZM99.2538 88.5354C99.9264 88.9249 100.579 89.0503 101.211 88.9529C101.831 88.8573 102.383 88.5547 102.878 88.1733C103.372 87.7925 103.836 87.3112 104.279 86.8234C104.734 86.322 105.15 85.8312 105.596 85.3636C106.495 84.422 107.327 83.7893 108.242 83.7579C109.132 83.7273 110.306 84.2688 111.884 86.2414L112.665 85.6167C111.027 83.5689 109.582 82.7112 108.207 82.7585C106.856 82.8049 105.777 83.7269 104.873 84.673C104.418 85.1494 103.961 85.6857 103.538 86.1516C103.103 86.6311 102.687 87.0573 102.267 87.3813C101.847 87.7047 101.451 87.904 101.059 87.9645C100.678 88.0232 100.254 87.959 99.7549 87.67L99.2538 88.5354ZM118.663 24.5031C119.255 20.9528 118.759 18.4755 117.533 16.9783C116.288 15.4582 114.397 15.0739 112.52 15.4815C108.805 16.288 104.838 20.235 104.838 25.4907L105.838 25.4907C105.838 20.7342 109.449 17.1716 112.732 16.4588C114.353 16.1068 115.816 16.4605 116.759 17.612C117.721 18.7864 118.248 20.9142 117.677 24.3387L118.663 24.5031Z" fill="white"/>
<path d="M105.378 62.7402C104.708 67.9566 101.141 73.5209 101.141 78.6144" stroke="white" stroke-linecap="round"/>
<path d="M110.965 21.9958C113.955 18.2397 116.042 21.9959 113.641 27.7434" stroke="white" stroke-linecap="round"/>
<path d="M66.2722 38.5957C63.5147 39.4473 63.3985 41.5348 64.3859 44.0032" stroke="white" stroke-linecap="round"/>
<path d="M39.4217 148.347C36.1615 152.681 42.5655 159.901 46.5901 153.746C50.1203 148.347 41.7442 144.919 39.4221 148.348" stroke="white" stroke-linecap="round"/>
<path d="M55.9928 125.383C49.4117 134.132 62.339 148.706 70.4633 136.282C77.5897 125.383 60.6812 118.463 55.9936 125.385" stroke="white" stroke-linecap="round"/>
</svg>
