<svg width="148" height="157" viewBox="0 0 148 157" fill="none" xmlns="http://www.w3.org/2000/svg">
<path d="M67.3516 109.057C88.9632 109.057 117.864 106.043 132.416 92.4249C163.414 63.4159 141.572 0.486134 105.245 1.00303C81.2341 1.34468 63.0473 25.4141 38.7584 25.4141C11.029 25.4141 -5.97262 45.5056 3.8922 75.2137C13.7255 104.827 43.5165 109.057 67.3516 109.057Z" fill="#FFE457" stroke="white" stroke-linecap="round"/>
<path d="M33.7252 90.8417C32.003 89.8446 31.228 87.0804 32.8961 83.1236C34.4473 78.5483 38.9135 73.7337 35.1444 66.8176C27.9145 57.0832 29.1239 50.3138 36.8529 57.27C37.0249 57.4247 36.4947 54.4034 36.4573 53.9915C35.5701 44.233 45.0405 47.3358 43.4853 56.667C43.0093 59.523 41.5612 63.9618 41.5612 66.8176C40.9634 81.6688 45.9348 78.1525 45.9348 85.043C45.9348 87.0934 43.0013 91.8336 40.5083 88.7172C37.0592 84.4059 36.2381 92.2968 33.7252 90.8417Z" fill="#272727" stroke="white" stroke-linecap="round"/>
<path d="M39.2889 148.347C36.0287 152.681 42.4326 159.901 46.4572 153.746C49.9875 148.347 41.6114 144.919 39.2892 148.348" stroke="white" stroke-linecap="round"/>
<path d="M55.86 125.383C49.2789 134.132 62.2062 148.706 70.3305 136.282C77.4569 125.383 60.5484 118.463 55.8608 125.385" stroke="white" stroke-linecap="round"/>
</svg>
