<svg width="148" height="157" viewBox="0 0 148 157" fill="none" xmlns="http://www.w3.org/2000/svg">
<path d="M67.418 109.057C89.0296 109.057 117.931 106.043 132.483 92.4249C163.481 63.4159 141.638 0.486134 105.311 1.00303C81.3005 1.34468 63.1137 25.4141 38.8249 25.4141C11.0954 25.4141 -5.90621 45.5056 3.95861 75.2137C13.7919 104.827 43.5829 109.057 67.418 109.057Z" fill="#FFE457" stroke="white" stroke-linecap="round"/>
<path d="M33.7877 90.8417C32.0655 89.8446 31.2905 87.0804 32.9586 83.1236C34.5098 78.5483 38.976 73.7337 35.2069 66.8176C27.977 57.0832 29.1864 50.3138 36.9154 57.27C37.0874 57.4247 36.5572 54.4034 36.5198 53.9915C35.6326 44.233 45.103 47.3358 43.5478 56.667C43.0718 59.523 41.6237 63.9618 41.6237 66.8176C41.0259 81.6688 45.9973 78.1525 45.9973 85.043C45.9973 87.0934 43.0638 91.8336 40.5708 88.7172C37.1217 84.4059 36.3006 92.2968 33.7877 90.8417Z" fill="#272727" stroke="white" stroke-linecap="round"/>
<path d="M76.7168 33.2684C79.0194 34.6015 80.0556 38.2974 77.8254 43.5877C75.5951 48.8781 72.8639 65.3891 76.7172 70.5476C89.5376 87.7101 80.0841 96.5797 72.0118 82.6703C72.0119 85.8222 58.3025 99.2886 63.091 78.4946C63.9597 74.7221 66.2398 69.2075 66.2398 65.3891C67.0391 45.5328 60.3923 50.2341 60.3923 41.0213C60.3923 38.28 64.3143 31.9422 67.6476 36.1088C72.2591 41.8732 73.357 31.3228 76.7168 33.2684Z" fill="#272727" stroke="white" stroke-linecap="round" stroke-linejoin="round"/>
<path d="M66.2019 38.5957C63.4444 39.4473 63.3282 41.5348 64.3156 44.0032" stroke="white" stroke-linecap="round"/>
<path d="M39.3553 148.347C36.0951 152.681 42.499 159.901 46.5237 153.746C50.0539 148.347 41.6778 144.919 39.3557 148.348" stroke="white" stroke-linecap="round"/>
<path d="M55.9264 125.383C49.3453 134.132 62.2726 148.706 70.3969 136.282C77.5233 125.383 60.6148 118.463 55.9272 125.385" stroke="white" stroke-linecap="round"/>
</svg>
