<svg width="41" height="41" viewBox="0 0 41 41" fill="none" xmlns="http://www.w3.org/2000/svg">
<path d="M33.8262 10.1799C33.8126 11.1009 33.4778 12.0258 33.3046 12.9794C33.1237 13.9809 32.8688 14.971 32.6489 15.9668C32.2851 17.615 31.9174 19.2632 31.5594 20.9113C31.2929 22.1432 31.0497 23.3788 30.7812 24.6087C30.4232 26.2588 30.0515 27.907 29.6877 29.5552C29.5204 30.3227 29.4096 31.0902 29.1722 31.8423C28.8045 33.0051 27.7518 33.431 26.7265 32.7345C25.2186 31.7119 23.7536 30.6239 22.273 29.5686C21.6056 29.089 20.9264 28.6246 20.2844 28.1142C19.9147 27.8207 19.6735 27.9089 19.3739 28.2006C18.4419 29.112 17.4846 29.9984 16.5468 30.9041C16.2711 31.1722 15.939 31.3772 15.574 31.5046C15.2549 31.6159 15.0624 31.5238 15.0507 31.1727C15.0318 30.9336 15.0363 30.6933 15.0642 30.4551C15.2055 29.5875 15.2824 28.7108 15.2939 27.8322C15.3114 26.8728 15.5274 25.9288 15.5215 24.9695C15.5246 24.8338 15.5588 24.7005 15.6219 24.5798C15.6849 24.4591 15.7751 24.3542 15.8854 24.2729C17.4419 22.8991 18.9984 21.5241 20.5549 20.1477C22.6108 18.3211 24.6648 16.4906 26.7168 14.6563C27.1857 14.24 27.6721 13.8408 28.143 13.4245C28.2675 13.3132 28.4718 13.175 28.3375 12.9908C28.2033 12.8066 27.9736 12.9122 27.8122 13.0043C27.1798 13.3631 26.5513 13.7257 25.9326 14.1076C22.1049 16.474 18.2785 18.8404 14.4533 21.2068C13.6595 21.698 12.852 22.1662 12.0562 22.6632C11.9496 22.7337 11.8274 22.778 11.6998 22.7924C11.5722 22.8068 11.4429 22.7907 11.3228 22.7457C9.90834 22.2909 8.48985 21.8573 7.07147 21.4179C6.29322 21.1781 5.52675 20.9478 4.75627 20.708C4.62121 20.659 4.49097 20.598 4.36714 20.5257C3.69395 20.1592 3.64145 19.48 4.25238 19.0099C4.97032 18.4573 5.84575 18.2424 6.67265 17.922C9.2662 16.9358 11.8695 15.9707 14.4689 14.994C17.8414 13.7277 21.2098 12.4581 24.5745 11.1853C26.9002 10.3066 29.2247 9.42458 31.5478 8.53941C32.5207 8.16526 33.2853 8.34755 33.688 9.03254C33.8807 9.37791 33.7853 9.75013 33.8262 10.1799Z" fill="#333333"/>
</svg>
