<svg width="21" height="21" viewBox="0 0 21 21" fill="none" xmlns="http://www.w3.org/2000/svg">
<path d="M19.328 5.24425C19.3197 5.7811 19.1171 6.3202 19.0122 6.87607C18.9027 7.4599 18.7484 8.03701 18.6153 8.61748C18.3951 9.57823 18.1725 10.539 17.9558 11.4997C17.7945 12.2178 17.6473 12.9381 17.4847 13.655C17.268 14.6169 17.043 15.5776 16.8228 16.5384C16.7215 16.9857 16.6545 17.4331 16.5108 17.8715C16.2882 18.5493 15.651 18.7976 15.0303 18.3916C14.1175 17.7955 13.2307 17.1613 12.3344 16.5462C11.9304 16.2666 11.5193 15.9959 11.1307 15.6984C10.9069 15.5273 10.7609 15.5787 10.5795 15.7487C10.0154 16.28 9.43587 16.7967 8.86819 17.3246C8.7013 17.4809 8.50026 17.6004 8.2793 17.6747C8.08615 17.7396 7.96962 17.6859 7.96255 17.4812C7.95112 17.3418 7.9538 17.2018 7.97072 17.0629C8.05625 16.5572 8.10277 16.0462 8.10977 15.534C8.12037 14.9748 8.25109 14.4245 8.24756 13.8653C8.24941 13.7862 8.27013 13.7085 8.30829 13.6381C8.34645 13.5678 8.40106 13.5066 8.46782 13.4593C9.41003 12.6584 10.3522 11.8569 11.2944 11.0546C12.539 9.98982 13.7823 8.92284 15.0244 7.8536C15.3083 7.61089 15.6027 7.37824 15.8877 7.13553C15.9631 7.07066 16.0868 6.99014 16.0055 6.88276C15.9242 6.77539 15.7852 6.83692 15.6875 6.8906C15.3047 7.09975 14.9243 7.31114 14.5497 7.53371C12.2327 8.91313 9.91642 10.2926 7.60094 11.672C7.12041 11.9583 6.63161 12.2312 6.1499 12.5209C6.08533 12.562 6.01139 12.5879 5.93413 12.5962C5.85687 12.6046 5.77861 12.5952 5.70594 12.569C4.8497 12.3039 3.99105 12.0511 3.13246 11.795C2.66135 11.6552 2.19738 11.521 1.73099 11.3812C1.64923 11.3526 1.57039 11.3171 1.49544 11.2749C1.08793 11.0613 1.05615 10.6654 1.42597 10.3914C1.86056 10.0692 2.39049 9.94398 2.89104 9.7572C4.461 9.18232 6.03688 8.61974 7.61037 8.05045C9.65183 7.31227 11.6909 6.57222 13.7276 5.83031C15.1354 5.31806 16.5426 4.80394 17.9488 4.28796C18.5377 4.06987 19.0006 4.17613 19.2443 4.57541C19.3609 4.77674 19.3032 4.99371 19.328 5.24425Z" fill="white"/>
</svg>
