<?xml version="1.0" standalone="no"?>
<!DOCTYPE svg PUBLIC "-//W3C//DTD SVG 20010904//EN"
 "http://www.w3.org/TR/2001/REC-SVG-20010904/DTD/svg10.dtd">
<svg version="1.0" xmlns="http://www.w3.org/2000/svg"
 width="814.000000pt" height="814.000000pt" viewBox="0 0 814.000000 814.000000"
 preserveAspectRatio="xMidYMid meet">
<metadata>
Created by potrace 1.14, written by Peter Selinger 2001-2017
</metadata>
<g transform="translate(0.000000,814.000000) scale(0.100000,-0.100000)"
fill="#000000" stroke="none">
<path d="M4000 6169 c-113 -5 -253 -15 -313 -24 -59 -9 -111 -14 -115 -11 -13
8 -153 -63 -245 -125 -114 -77 -241 -176 -373 -291 -56 -48 -104 -88 -106 -88
-3 0 -8 9 -11 20 -10 39 -80 17 -125 -40 -11 -14 -31 -49 -46 -77 -24 -48 -28
-52 -49 -44 -29 11 -47 2 -43 -23 2 -12 11 -20 25 -21 53 -4 37 -46 -29 -76
l-34 -16 67 -22 67 -23 138 27 c116 23 145 25 187 16 28 -6 156 -13 285 -16
129 -3 323 -12 430 -20 224 -16 729 -63 747 -70 7 -2 40 0 73 6 l62 10 65 -47
c48 -34 64 -51 60 -64 -3 -11 2 -21 11 -25 15 -6 576 -6 687 -1 79 4 157 17
195 33 34 13 36 18 84 166 26 84 82 244 122 357 109 299 117 341 72 356 -19 6
-19 7 4 32 52 58 60 75 17 34 l-45 -42 -76 19 c-177 46 -551 77 -1081 91 -397
11 -410 11 -707 -1z"/>
<path d="M6270 6124 c-154 -41 -228 -137 -328 -424 -90 -259 -169 -509 -161
-512 5 -2 10 -27 11 -55 3 -47 6 -53 24 -53 19 0 24 -10 39 -76 9 -41 19 -74
21 -71 2 2 -3 35 -12 73 -9 38 -17 75 -17 82 0 6 -8 12 -17 12 -12 0 -20 11
-24 31 -12 63 -11 64 70 83 41 10 77 16 80 13 3 -2 -9 -7 -26 -10 -37 -8 -63
-53 -40 -67 12 -7 12 -12 2 -22 -20 -20 -14 -31 14 -24 20 5 30 2 41 -14 17
-24 88 -28 118 -6 10 7 26 11 35 9 18 -5 47 48 36 65 -9 15 61 31 205 47 264
30 286 36 303 91 6 18 3 20 -26 16 -31 -5 -32 -6 -8 -12 l25 -6 -25 -7 c-37
-10 -52 -8 -44 5 7 11 -223 6 -374 -9 l-62 -6 14 40 c8 22 23 58 35 81 24 47
27 66 9 57 -7 -4 2 8 21 26 l34 32 107 -7 c164 -10 220 -22 257 -58 l32 -31
126 44 c70 23 133 49 140 56 7 7 42 26 77 43 35 17 87 51 116 76 46 40 52 50
52 84 0 47 -34 141 -58 163 -9 8 -50 33 -90 54 -39 22 -69 43 -65 47 4 4 -1 4
-11 0 -13 -5 -17 -4 -12 4 5 8 1 10 -10 5 -12 -4 -15 -3 -10 5 5 8 1 10 -10 5
-13 -5 -15 -3 -9 7 5 9 4 11 -4 6 -14 -9 -53 2 -46 14 3 4 -5 6 -17 2 -16 -4
-19 -2 -13 8 5 9 4 11 -3 6 -14 -8 -93 14 -87 24 2 4 -6 5 -18 3 -12 -2 -42 4
-67 12 l-45 15 40 -5 c73 -9 5 12 -95 29 -113 19 -177 19 -250 0z m448 -136
c39 -94 63 -171 97 -303 39 -150 35 -148 136 -89 67 39 133 100 124 114 -3 5
-1 11 5 15 20 13 9 -33 -14 -58 -29 -31 -130 -98 -178 -117 -18 -8 -35 -17
-38 -21 -3 -3 -21 -10 -39 -14 l-35 -7 18 27 c10 15 14 25 8 21 -5 -3 -10 4
-11 17 -7 114 -13 161 -32 222 -31 103 -80 226 -87 221 -4 -2 -13 2 -20 10
-11 12 -8 14 16 14 25 0 31 -6 50 -52z m-173 -108 l30 -7 -30 -8 c-58 -16
-465 -2 -465 17 0 10 422 9 465 -2z m513 -27 c24 -21 31 -69 14 -98 -10 -17
-13 -18 -21 -6 -8 12 -11 9 -16 -12 -4 -14 -21 -37 -38 -50 -52 -38 -64 -42
-34 -10 16 18 30 47 35 74 6 37 11 44 30 43 22 -1 27 11 16 40 -3 9 -10 13
-15 10 -5 -3 -9 2 -9 10 0 21 13 20 38 -1z m-323 -213 c32 -112 37 -143 22
-133 -7 4 -23 9 -37 10 -69 8 -71 10 -69 61 2 51 13 74 33 66 7 -3 13 2 13 11
0 8 -4 15 -8 15 -4 0 -5 8 -2 19 3 10 -2 47 -11 81 -9 34 -16 65 -16 68 1 17
53 -121 75 -198z m190 180 l30 -20 -32 0 c-18 0 -33 2 -33 4 0 2 -3 11 -6 20
-8 21 5 20 41 -4z m-175 -319 c0 -5 -7 -12 -16 -15 -14 -5 -15 -4 -4 9 14 17
20 19 20 6z m-242 -218 c-10 -2 -26 -2 -35 0 -10 3 -2 5 17 5 19 0 27 -2 18
-5z m-408 -23 c0 -5 -10 -10 -22 -9 -22 0 -22 1 -3 9 11 5 21 9 23 9 1 1 2 -3
2 -9z"/>
<path d="M7435 5750 c17 -4 44 -8 60 -8 25 0 24 2 -10 9 -51 10 -92 10 -50 -1z"/>
<path d="M7550 5730 c14 -4 36 -8 50 -8 22 0 22 1 -5 8 -16 4 -39 8 -50 8 -16
0 -15 -2 5 -8z"/>
<path d="M2557 5509 c7 -7 15 -10 18 -7 3 3 -2 9 -12 12 -14 6 -15 5 -6 -5z"/>
<path d="M7860 5412 c-45 -35 -58 -64 -30 -69 8 -2 26 13 39 32 24 35 41 45
41 23 0 -19 -43 -76 -61 -81 -14 -4 -15 -16 -11 -81 2 -42 2 -76 -2 -76 -4 0
-24 11 -44 25 -103 70 -195 0 -310 -235 -36 -74 -74 -141 -84 -148 -10 -7 -18
-20 -18 -28 0 -17 -16 -19 -24 -1 -3 6 -3 -1 -1 -16 3 -25 1 -27 -17 -21 -18
5 -20 3 -15 -15 3 -12 0 -21 -6 -21 -6 0 -19 -8 -30 -17 -11 -10 -17 -13 -14
-7 4 7 0 14 -8 18 -9 3 -12 12 -8 22 4 12 3 15 -5 10 -8 -5 -10 -2 -6 8 3 9
10 16 15 16 5 0 1 8 -8 18 -10 11 -21 17 -25 15 -4 -2 -5 7 -2 21 7 38 -26 89
-74 115 -12 6 -22 22 -23 34 -1 21 -1 21 -8 -2 -4 -15 -15 -25 -29 -28 -13 -1
-64 -18 -115 -37 -51 -19 -110 -39 -132 -46 -22 -7 -51 -17 -65 -23 -14 -6
-36 -12 -49 -14 -14 -2 -34 -9 -45 -16 -12 -6 -28 -12 -36 -13 -8 -2 -22 -11
-30 -22 -9 -10 -23 -18 -33 -16 -9 1 -15 -1 -12 -5 5 -8 -44 -36 -57 -33 -5 1
-8 -3 -8 -8 0 -6 -9 -10 -20 -10 -12 0 -32 -7 -45 -16 -14 -9 -25 -12 -25 -8
0 5 -7 0 -15 -10 -8 -11 -15 -16 -15 -12 0 5 -11 1 -25 -8 -14 -9 -25 -13 -25
-10 0 4 -8 0 -17 -9 -10 -8 -31 -19 -48 -23 -16 -3 -38 -14 -47 -22 -10 -8
-18 -11 -18 -6 0 5 -4 3 -8 -4 -5 -7 -22 -15 -38 -18 -16 -3 -31 -8 -34 -12
-3 -4 -12 -8 -20 -10 -8 -2 -33 -12 -55 -22 -59 -28 -99 -43 -107 -42 -5 1 -8
-2 -8 -8 0 -5 -4 -10 -10 -10 -5 0 -11 30 -13 68 l-3 67 -2 -72 c-2 -77 4 -69
-72 -98 -33 -12 -91 -38 -113 -50 -16 -8 -36 -15 -44 -15 -12 0 -13 -3 -4 -14
9 -11 5 -15 -23 -20 -25 -5 -34 -11 -29 -21 3 -8 0 -15 -7 -15 -6 0 -8 -4 -5
-10 3 -5 1 -10 -4 -10 -6 0 -11 -4 -11 -9 0 -5 -5 -22 -12 -38 -6 -15 -10 -32
-9 -37 1 -4 -4 -15 -10 -23 -10 -11 -14 -11 -20 -2 -6 10 -11 10 -25 -2 -15
-12 -17 -12 -9 0 6 11 4 13 -8 8 -11 -4 -21 1 -28 15 -23 42 -95 110 -144 136
-41 22 -63 27 -125 26 -105 0 -168 -33 -284 -146 l-90 -87 -43 39 c-60 56 -67
50 -10 -8 l47 -48 -33 -49 c-19 -28 -52 -84 -75 -125 -26 -49 -65 -99 -110
-142 -68 -66 -71 -70 -108 -180 -20 -62 -42 -116 -48 -121 -21 -15 -71 3 -104
38 -37 40 -38 40 -78 21 -16 -8 -52 -16 -81 -19 -28 -3 -59 -10 -70 -15 -33
-18 -106 -25 -283 -27 -96 -2 -236 -8 -310 -15 -74 -6 -239 -10 -367 -9 -259
3 -249 5 -288 -70 -33 -64 -47 -80 -72 -84 -12 -2 -25 -6 -29 -9 -3 -4 -16 -4
-29 -2 -14 2 -42 0 -65 -5 -22 -5 -40 -6 -40 -2 0 3 -62 6 -137 7 -130 0 -338
10 -379 18 -17 3 -100 12 -214 22 -25 2 -62 6 -84 10 -42 7 -83 12 -136 18
-19 2 -47 7 -63 10 -15 4 -44 8 -65 10 -20 3 -71 12 -112 21 -41 9 -88 19
-105 21 -100 13 -354 94 -363 116 -2 4 -12 8 -23 8 -11 0 -27 4 -37 9 -25 14
-56 24 -65 23 -4 -1 -7 2 -7 8 0 5 -9 10 -20 10 -11 0 -20 5 -20 10 0 6 -8 10
-18 10 -10 0 -27 7 -38 15 -10 8 -29 15 -41 15 -12 0 -29 7 -37 16 -9 8 -20
13 -25 9 -5 -3 -13 0 -16 6 -4 6 -36 24 -71 41 -36 17 -70 40 -76 51 -6 12
-13 60 -16 108 -3 50 -9 87 -15 86 -13 -3 -56 81 -58 113 -3 49 -18 -65 -18
-143 -1 -43 -6 -97 -12 -121 -16 -63 2 -117 59 -180 77 -84 86 -96 81 -101 -3
-2 -18 2 -34 11 -38 19 -47 5 -42 -64 3 -39 12 -64 35 -97 l31 -44 -29 -53
c-16 -29 -30 -64 -30 -78 0 -18 8 -8 24 33 38 91 61 109 61 45 0 -26 5 -32 43
-45 24 -8 46 -12 48 -10 2 2 -3 35 -11 72 -9 37 -14 79 -12 94 4 33 11 16 26
-67 20 -104 49 -188 77 -215 41 -41 257 -108 633 -197 151 -35 281 -58 486
-84 376 -47 615 -69 701 -64 87 6 115 23 164 103 19 31 47 76 62 101 19 29 34
44 49 44 l21 0 -22 -27 c-12 -16 -48 -70 -80 -120 -79 -124 -94 -133 -236
-133 -135 0 -353 20 -706 65 -282 36 -518 85 -813 170 -189 55 -233 74 -271
117 -21 24 -36 33 -45 28 -25 -13 -148 -32 -170 -27 l-21 6 21 -23 c11 -12 21
-27 21 -33 0 -5 9 -18 20 -28 38 -34 16 -71 -23 -39 -12 10 -9 4 7 -14 29 -31
32 -32 110 -32 60 0 108 -8 185 -30 57 -16 106 -32 109 -35 7 -6 -54 -65 -68
-65 -5 0 -10 -6 -10 -14 0 -7 -9 -20 -20 -27 -27 -19 -34 -75 -14 -119 17 -37
91 -110 111 -110 6 0 13 -4 15 -9 3 -9 164 -79 213 -92 17 -4 55 -15 85 -24
52 -16 221 -61 265 -70 11 -3 30 -7 42 -10 13 -3 31 -7 42 -9 10 -2 35 -7 55
-10 19 -3 56 -10 80 -16 56 -12 218 -39 282 -45 27 -3 58 -7 69 -10 11 -2 40
-6 65 -10 25 -3 61 -7 80 -9 145 -19 205 -25 270 -30 41 -3 140 -10 220 -17
232 -19 895 -15 929 5 3 2 33 7 66 10 33 4 68 9 79 13 10 3 30 6 45 8 14 1 64
10 111 19 47 10 94 19 105 21 11 2 76 16 145 30 69 15 134 28 145 31 11 2 144
24 295 49 329 54 464 85 589 134 104 40 161 82 165 122 3 30 115 179 134 179
6 0 12 4 12 10 0 5 3 9 8 8 4 -1 18 5 32 14 41 26 183 101 380 200 102 51 188
97 191 101 3 5 10 9 15 9 11 1 151 70 319 158 66 35 156 81 200 103 44 23 82
44 85 47 10 11 313 162 333 166 12 2 35 10 52 19 18 8 100 28 184 44 238 47
311 75 351 131 56 79 125 274 145 415 4 28 17 63 27 78 11 16 17 31 14 34 -3
4 -6 0 -6 -7 0 -7 -2 -11 -5 -8 -3 3 8 47 25 97 16 51 30 107 30 125 0 17 11
76 25 130 27 108 32 191 13 260 -9 35 -9 68 2 158 17 145 17 321 -1 369 l-14
35 -45 -34z m-175 -602 c3 -5 2 -10 -4 -10 -5 0 -12 -24 -14 -52 l-3 -53 -2
58 c-2 42 -6 57 -16 57 -24 0 -29 -18 -29 -109 l0 -86 -6 85 -6 85 -28 -42
c-16 -23 -42 -79 -57 -125 -16 -46 -29 -78 -29 -72 -1 6 8 40 20 75 42 127 92
199 139 199 16 0 32 -4 35 -10z m-140 -349 c11 -26 -5 -24 -35 4 -40 38 -41
65 -1 33 16 -13 32 -29 36 -37z m30 -51 c11 0 11 -5 -1 -27 -7 -16 -14 -33
-14 -40 0 -7 -15 -14 -32 -17 -47 -7 -68 -4 -68 9 0 7 11 10 30 7 22 -3 30 0
30 11 0 9 8 23 18 33 9 10 16 19 15 21 -2 2 -3 9 -2 16 0 10 2 10 6 0 2 -7 11
-13 18 -13z m143 -12 c-7 -19 -92 -48 -108 -38 -17 11 -17 11 40 32 55 20 73
22 68 6z m-571 -24 c50 -38 43 -49 -69 -102 -57 -27 -246 -120 -421 -206 -332
-164 -879 -428 -934 -452 l-32 -14 9 31 c5 16 18 45 30 64 28 45 123 131 128
115 3 -7 9 -2 16 10 13 27 182 122 561 314 297 151 439 218 520 247 67 24 155
21 192 -7z m507 -124 c30 -33 47 -70 33 -70 -2 0 -25 21 -52 47 -28 27 -51 41
-53 34 -2 -6 15 -41 38 -76 23 -35 40 -70 38 -76 -4 -13 -82 104 -93 140 -5
15 -3 26 6 32 26 17 47 9 83 -31z m-104 -18 c0 -15 -2 -15 -10 -2 -13 20 -13
33 0 25 6 -3 10 -14 10 -23z m17 -84 c-3 -8 -6 -5 -6 6 -1 11 2 17 5 13 3 -3
4 -12 1 -19z m-2333 -257 c78 -38 155 -116 197 -197 l32 -65 -22 -16 c-13 -8
-55 -44 -94 -79 -49 -43 -74 -59 -79 -51 -4 7 -8 14 -8 17 0 3 39 37 85 75 47
39 85 75 85 81 0 22 -81 133 -119 164 -46 36 -138 80 -167 80 -24 0 -26 -11
-40 -187 -5 -65 -10 -83 -22 -83 -12 0 -14 11 -8 70 3 39 9 102 12 140 l7 70
-45 0 c-25 0 -59 -5 -76 -11 -26 -9 -31 -15 -27 -37 39 -249 39 -252 11 -252
-9 0 -16 37 -25 123 -7 67 -16 126 -20 130 -12 12 -125 -69 -185 -133 -30 -33
-73 -90 -96 -127 -47 -78 -44 -46 3 36 71 121 220 241 346 277 74 22 182 11
255 -25z m2376 -6 c-7 -8 -19 -15 -26 -15 -8 0 -14 7 -14 15 0 10 10 15 26 15
22 0 25 -2 14 -15z m-2930 -432 c67 -27 90 -41 90 -55 0 -26 -18 -23 -114 22
-54 24 -86 45 -86 55 0 21 9 20 110 -22z m-4136 -28 c10 -19 23 -32 27 -29 5
3 9 0 9 -5 0 -18 -22 -12 -47 11 -22 20 -32 58 -15 58 4 0 16 -16 26 -35z
m4956 5 c0 -21 -4 -28 -14 -24 -8 3 -50 -13 -94 -35 -44 -22 -124 -51 -178
-65 -87 -22 -101 -23 -114 -11 -12 13 -11 15 11 15 14 0 50 7 80 16 61 18 279
111 294 125 14 14 15 12 15 -21z m-473 -5 c7 -20 -2 -29 -21 -22 -9 4 -13 13
-10 22 8 19 23 19 31 0z m-1088 -47 c49 -38 131 -185 136 -245 5 -49 -24 -43
-91 18 -31 28 -80 62 -108 75 -62 29 -138 31 -456 9 -260 -18 -283 -18 -275
-5 28 45 410 144 645 168 89 9 117 5 149 -20z m951 11 c0 -24 -23 -21 -28 4
-2 10 3 17 12 17 10 0 16 -9 16 -21z m83 -3 c3 -8 1 -17 -6 -19 -7 -2 4 -8 24
-12 25 -4 40 -15 48 -31 6 -15 7 -24 1 -24 -6 0 -10 4 -10 10 0 5 -11 17 -26
26 -24 16 -26 16 -54 -5 -21 -15 -28 -17 -24 -6 4 8 1 21 -5 29 -6 7 -9 21 -5
30 8 20 50 21 57 2z m-89 -80 c-8 -27 -25 -48 -33 -40 -3 3 -6 20 -6 38 0 28
3 32 23 28 18 -4 21 -9 16 -26z m613 -38 c-3 -7 -5 -2 -5 12 0 14 2 19 5 13 2
-7 2 -19 0 -25z m-502 2 c-3 -5 -17 -10 -31 -10 -13 0 -24 5 -24 10 0 6 14 10
31 10 17 0 28 -4 24 -10z m73 -13 c2 -10 -3 -17 -11 -17 -16 0 -30 24 -19 34
10 10 27 1 30 -17z m-338 -17 c0 -18 -7 -20 -59 -20 -90 0 -151 11 -151 26 0
11 23 14 105 14 98 0 105 -1 105 -20z m118 -28 c2 -7 -5 -12 -17 -12 -14 0
-19 5 -14 15 6 17 25 15 31 -3z m219 -22 c28 0 63 -23 129 -86 83 -79 116
-154 39 -89 -129 108 -191 155 -202 155 -32 0 -20 -34 46 -125 68 -94 89 -141
56 -129 -23 9 -135 163 -135 186 0 11 -8 33 -17 48 -16 28 -16 29 7 48 20 16
26 17 38 6 7 -8 25 -14 39 -14z m-1247 -16 c15 -15 0 -52 -23 -58 -31 -8 -67
-7 -67 2 0 4 -37 8 -83 10 -57 2 -77 -1 -67 -8 12 -8 10 -10 -10 -10 -14 1
-33 7 -42 14 -22 16 -23 46 -2 46 8 0 13 3 11 8 -7 10 272 7 283 -4z m-460 -6
c0 -4 10 -9 23 -11 12 -2 -4 -5 -35 -6 -32 0 -58 -5 -58 -11 0 -5 -15 -10 -32
-10 -18 0 -57 -7 -85 -14 -30 -8 -55 -10 -58 -5 -10 15 14 48 38 54 50 11 207
14 207 3z m43 5 c-7 -2 -19 -2 -25 0 -7 3 -2 5 12 5 14 0 19 -2 13 -5z m1493
-11 c19 -12 27 -72 26 -176 -2 -99 -7 -122 -28 -108 -7 5 -8 43 -4 117 7 103
-1 159 -19 139 -5 -5 -18 -49 -31 -97 -23 -88 -33 -107 -45 -87 -11 18 37 183
60 202 23 20 26 20 41 10z m64 -27 c0 -8 -6 -15 -14 -15 -17 0 -28 14 -19 24
12 12 33 6 33 -9z m-1745 -55 c8 -12 -42 -12 -70 0 -16 7 -11 9 22 9 23 1 45
-3 48 -9z m73 -7 c-10 -2 -28 -2 -40 0 -13 2 -5 4 17 4 22 1 32 -1 23 -4z
m262 -48 c-9 -10 -9 -15 -1 -15 8 0 8 -6 -1 -20 -10 -15 -10 -22 0 -32 17 -17
15 -33 -3 -18 -12 10 -15 10 -15 0 0 -10 -3 -10 -15 0 -9 7 -18 10 -22 7 -9
-10 17 -37 36 -37 14 0 14 -2 1 -10 -8 -5 -17 -10 -20 -10 -11 0 -40 58 -40
79 0 20 1 21 29 7 l29 -15 -8 34 c-6 27 -4 35 9 38 30 8 33 7 21 -8z m45 -30
c0 -10 -6 -20 -12 -22 -8 -3 -13 5 -13 22 0 17 5 25 13 23 6 -3 12 -13 12 -23z
m-92 8 c-7 -2 -19 -2 -25 0 -7 3 -2 5 12 5 14 0 19 -2 13 -5z m112 -91 c-8 -8
-25 10 -19 20 4 6 9 5 15 -3 4 -7 6 -15 4 -17z m-585 -61 c0 -5 -34 -21 -75
-36 -84 -31 -96 -43 -19 -20 27 8 54 15 59 15 23 -1 -57 -28 -145 -50 -52 -12
-99 -26 -104 -31 -5 -4 27 -26 70 -48 44 -22 76 -40 71 -41 -19 -1 -168 82
-165 92 4 12 270 126 296 127 6 1 12 -3 12 -8z m690 -76 c0 -3 -44 -26 -97
-51 -54 -25 -105 -50 -114 -54 -9 -5 -33 -12 -53 -15 -20 -4 -34 -10 -32 -14
6 -9 -296 -32 -394 -30 -60 2 -67 3 -35 8 22 4 105 28 185 53 167 55 374 96
395 78 9 -8 25 -5 61 9 48 20 84 26 84 16z m515 -14 c-11 -5 -40 -11 -65 -14
l-45 -6 45 13 c25 8 54 14 65 14 l20 1 -20 -8z m-122 -28 c-7 -2 -19 -2 -25 0
-7 3 -2 5 12 5 14 0 19 -2 13 -5z m-68 -13 c-16 -4 -41 -8 -55 -8 -22 0 -22 1
5 8 17 4 41 8 55 8 22 0 22 -1 -5 -8z m-92 -17 c-7 -2 -21 -2 -30 0 -10 3 -4
5 12 5 17 0 24 -2 18 -5z m-60 -10 c-7 -2 -21 -2 -30 0 -10 3 -4 5 12 5 17 0
24 -2 18 -5z m-70 -10 c-7 -2 -19 -2 -25 0 -7 3 -2 5 12 5 14 0 19 -2 13 -5z
m-60 -10 c-7 -2 -21 -2 -30 0 -10 3 -4 5 12 5 17 0 24 -2 18 -5z m-70 -10 c-7
-2 -21 -2 -30 0 -10 3 -4 5 12 5 17 0 24 -2 18 -5z m-80 -10 c-7 -2 -21 -2
-30 0 -10 3 -4 5 12 5 17 0 24 -2 18 -5z m-100 -10 c-7 -2 -21 -2 -30 0 -10 3
-4 5 12 5 17 0 24 -2 18 -5z"/>
<path d="M6953 5185 c-58 -26 -62 -30 -35 -32 9 -1 38 -5 63 -9 51 -7 75 9 46
31 -26 19 -20 28 13 23 17 -3 30 -1 30 4 0 16 -66 7 -117 -17z"/>
<path d="M7188 5186 c-42 -13 -84 -30 -93 -39 -17 -18 -91 -41 -165 -53 -67
-10 -1386 -467 -1430 -495 -34 -22 175 -1 265 27 50 15 100 28 112 29 12 1 28
6 35 12 7 6 200 72 428 147 228 75 455 152 504 170 78 28 87 34 65 41 -24 8
-24 8 6 12 16 3 40 13 54 24 18 15 26 17 32 7 6 -9 12 -8 27 5 23 21 39 22 22
2 -22 -27 8 -17 101 32 102 53 167 103 134 102 -11 -1 -54 -11 -97 -23z"/>
<path d="M5584 5120 c3 -14 6 -42 6 -62 0 -21 4 -38 10 -38 11 0 2 88 -12 110
-7 11 -8 8 -4 -10z"/>
<path d="M1687 4990 c-82 -42 -155 -90 -210 -138 -27 -23 -46 -42 -43 -42 5 0
290 155 324 176 12 8 22 19 22 24 0 18 -35 10 -93 -20z"/>
<path d="M867 4864 c-37 -25 -98 -75 -135 -111 -61 -59 -62 -61 -12 -19 30 26
91 74 135 107 88 67 90 69 84 69 -2 0 -35 -20 -72 -46z"/>
<path d="M7280 4699 c0 -5 5 -7 10 -4 6 3 10 8 10 11 0 2 -4 4 -10 4 -5 0 -10
-5 -10 -11z"/>
<path d="M4160 4444 c-86 -65 -214 -172 -310 -260 -60 -55 -72 -61 -121 -67
-30 -3 -170 -20 -313 -37 -297 -35 -270 -39 -446 52 -109 56 -125 61 -310 98
-562 112 -1482 215 -1850 208 -93 -2 -82 -3 225 -18 565 -29 1318 -130 1753
-236 77 -19 127 -38 200 -79 53 -30 103 -55 111 -55 36 0 -1 -9 -79 -20 -103
-14 -134 -33 -45 -28 51 3 63 0 80 -19 59 -65 226 -208 261 -226 31 -15 40
-24 37 -38 -15 -54 197 -32 497 54 69 19 181 49 250 65 183 43 240 75 323 182
l27 35 -28 -55 c-16 -32 -42 -65 -62 -78 -35 -24 -56 -57 -41 -66 24 -15 153
162 191 262 32 85 60 124 84 118 16 -4 14 0 -9 19 -17 13 -35 24 -41 25 -6 0
-62 -13 -125 -30 -163 -42 -326 -78 -464 -100 -139 -23 -138 -23 -130 -10 7
11 225 199 343 295 65 53 78 65 69 65 -1 0 -36 -25 -77 -56z m327 -220 c5 -16
-136 -204 -183 -242 -43 -36 -112 -62 -176 -67 -24 -1 -60 -10 -80 -19 -21 -9
-43 -16 -50 -16 -18 0 3 17 27 22 13 3 7 7 -20 12 -97 17 -145 66 -145 149 0
26 4 47 8 47 4 0 14 -21 21 -47 15 -54 37 -93 51 -93 6 0 3 11 -6 25 -9 14
-14 28 -11 31 3 3 8 -3 11 -13 3 -10 18 -26 33 -35 23 -15 25 -18 9 -18 -14 0
-17 -3 -9 -11 6 -6 23 -9 39 -7 22 2 33 12 46 38 24 49 22 78 -8 130 -23 40
-23 43 -4 25 21 -19 23 -19 34 -3 7 10 16 15 19 11 4 -3 7 0 7 7 0 29 50 -34
51 -64 2 -30 2 -30 6 -4 2 15 -3 38 -11 50 -15 22 -15 22 147 64 169 44 188
46 194 28z m-1021 -247 c19 7 71 -28 119 -79 l40 -43 -29 -3 c-18 -2 -35 3
-45 14 -9 9 -10 14 -3 10 20 -12 14 -1 -15 25 -25 22 -26 22 -9 2 11 -13 16
-23 12 -23 -14 0 -97 73 -129 114 l-32 41 39 -32 c21 -17 45 -29 52 -26z
m-161 -1 c22 9 85 -34 139 -92 40 -44 46 -55 32 -60 -10 -4 -26 1 -38 12 -12
11 -18 13 -13 5 13 -22 -142 113 -168 145 l-22 29 28 -22 c16 -12 35 -19 42
-17z m719 13 c-6 -11 -31 -12 -37 -1 -3 4 6 8 19 8 13 1 21 -2 18 -7z m-403
-26 c-18 23 -10 30 20 18 36 -14 111 -93 99 -105 -7 -7 -21 1 -43 22 -18 18
-42 32 -53 32 -11 0 -33 14 -50 32 l-29 31 35 -23 c23 -16 30 -18 21 -7z"/>
<path d="M4426 4208 c5 -8 -2 -9 -22 -4 -21 5 -25 4 -14 -4 19 -12 60 -13 60
-1 0 5 -7 12 -16 15 -10 4 -13 2 -8 -6z"/>
<path d="M4346 4189 c4 -8 0 -9 -15 -4 -11 3 -21 2 -21 -3 0 -6 -22 -15 -50
-22 -27 -7 -50 -16 -50 -20 0 -5 12 -5 28 0 15 5 53 16 85 25 52 14 70 35 31
35 -9 0 -12 -5 -8 -11z"/>
<path d="M4178 4153 c7 -3 16 -2 19 1 4 3 -2 6 -13 5 -11 0 -14 -3 -6 -6z"/>
<path d="M4323 4056 c-44 -39 -94 -66 -122 -66 -11 0 -23 -4 -26 -10 -8 -13 3
-13 61 5 34 10 63 29 94 60 52 53 47 60 -7 11z"/>
<path d="M4020 3930 c-8 -5 -10 -10 -5 -10 6 0 17 5 25 10 8 5 11 10 5 10 -5
0 -17 -5 -25 -10z"/>
<path d="M673 4423 c9 -2 25 -2 35 0 9 3 1 5 -18 5 -19 0 -27 -2 -17 -5z"/>
<path d="M605 4237 c-17 -14 -37 -37 -44 -51 -13 -24 -15 -24 -27 -8 -12 15
-13 14 -14 -11 0 -18 4 -26 11 -21 8 4 9 -1 4 -17 -8 -27 -48 -134 -60 -161
-5 -14 -2 -18 14 -18 19 0 21 -5 21 -75 0 -65 3 -79 23 -98 49 -50 446 -151
892 -226 304 -52 1289 -133 1379 -114 59 13 115 78 138 160 6 21 15 41 21 45
14 9 -101 145 -213 252 -102 97 -153 126 -255 149 -355 79 -1315 201 -1685
214 l-175 6 -30 -26z m832 -234 c-5 -8 5 -10 73 -14 32 -3 37 -8 18 -27 -17
-17 14 -26 74 -19 32 4 60 2 77 -6 14 -7 56 -13 93 -12 55 0 65 -2 55 -13 -7
-10 -23 -12 -48 -8 -21 3 -41 2 -44 -4 -3 -5 -17 -10 -30 -10 -12 0 -25 -6
-28 -14 -7 -17 -83 -70 -114 -80 -18 -6 -22 -4 -17 8 3 8 14 18 24 21 10 3 23
19 29 35 9 28 8 30 -14 30 -13 0 -30 3 -39 6 -12 4 -16 0 -16 -16 0 -11 4 -19
9 -15 5 3 13 0 17 -6 8 -14 -13 -28 -35 -24 -9 2 -22 4 -28 4 -8 1 -11 11 -7
29 5 29 -35 108 -43 85 -3 -7 -13 -13 -24 -13 -10 0 -19 -4 -19 -10 0 -5 -4
-10 -10 -10 -5 0 -10 5 -10 12 0 15 43 78 53 78 5 0 6 -3 4 -7z"/>
<path d="M4620 4226 c0 -3 9 -10 20 -16 11 -6 20 -8 20 -6 0 3 -9 10 -20 16
-11 6 -20 8 -20 6z"/>
<path d="M4690 4186 c0 -3 9 -10 20 -16 11 -6 20 -8 20 -6 0 3 -9 10 -20 16
-11 6 -20 8 -20 6z"/>
<path d="M3318 4173 c7 -3 16 -2 19 1 4 3 -2 6 -13 5 -11 0 -14 -3 -6 -6z"/>
<path d="M442 3090 c0 -14 2 -19 5 -12 2 6 2 18 0 25 -3 6 -5 1 -5 -13z"/>
<path d="M450 2981 c0 -6 4 -13 10 -16 6 -3 7 1 4 9 -7 18 -14 21 -14 7z"/>
</g>
</svg>
