<?xml version="1.0" standalone="no"?>
<!DOCTYPE svg PUBLIC "-//W3C//DTD SVG 20010904//EN"
 "http://www.w3.org/TR/2001/REC-SVG-20010904/DTD/svg10.dtd">
<svg version="1.0" xmlns="http://www.w3.org/2000/svg"
 width="784.000000pt" height="784.000000pt" viewBox="0 0 784.000000 784.000000"
 preserveAspectRatio="xMidYMid meet">
<metadata>
Created by potrace 1.14, written by Peter Selinger 2001-2017
</metadata>
<g transform="translate(0.000000,784.000000) scale(0.100000,-0.100000)"
fill="#000000" stroke="none">
<path d="M6531 7807 c-8 -18 -41 -88 -73 -157 -33 -69 -64 -135 -69 -148 -10
-26 -13 -25 -124 48 -33 22 -80 51 -103 66 l-44 27 -44 -44 -44 -44 50 -100
50 -100 -103 -99 c-190 -183 -433 -415 -701 -669 -76 -73 -176 -168 -221 -212
-46 -44 -145 -138 -220 -210 -76 -71 -159 -151 -186 -176 -30 -29 -87 -66
-151 -97 -106 -52 -387 -189 -703 -342 -99 -48 -283 -138 -408 -199 -126 -61
-231 -111 -234 -111 -2 0 -18 -9 -34 -21 -16 -11 -29 -18 -29 -16 0 3 -86 -38
-190 -89 -105 -52 -195 -94 -200 -94 -6 0 -10 -4 -10 -10 0 -5 -3 -9 -7 -8 -7
2 -193 -85 -347 -163 -33 -17 -89 -37 -125 -45 -37 -8 -75 -17 -86 -19 -11 -3
-33 -8 -50 -10 -16 -3 -38 -8 -47 -11 -9 -3 -25 -7 -35 -9 -10 -2 -38 -8 -63
-14 -25 -5 -58 -12 -75 -15 -16 -3 -45 -10 -62 -15 -18 -5 -33 -8 -33 -6 0 3
-12 0 -26 -6 -15 -5 -42 -12 -62 -15 -19 -3 -42 -7 -52 -9 -21 -4 -123 -47
-130 -54 -3 -4 -21 -13 -41 -22 -19 -9 -47 -32 -62 -50 -15 -19 -48 -61 -74
-94 -27 -33 -54 -66 -60 -73 -7 -7 -13 -17 -13 -20 0 -4 -10 -19 -22 -32 -13
-14 -37 -44 -54 -65 -166 -216 -191 -253 -207 -305 -9 -30 -39 -134 -67 -230
-29 -96 -54 -182 -57 -190 -3 -8 -7 -19 -8 -25 -2 -5 -10 -34 -19 -63 -8 -30
-15 -57 -15 -60 1 -4 0 -9 -1 -12 -1 -3 -3 -16 -4 -30 -7 -61 -18 -150 -25
-205 -10 -75 -13 -62 39 -174 l44 -94 13 64 c6 35 21 96 33 134 12 39 23 77
25 85 14 63 37 149 46 170 5 14 11 34 13 45 2 11 10 40 17 65 7 25 14 51 15
58 1 8 5 17 9 20 3 4 4 -7 0 -23 -3 -17 -8 -50 -10 -75 -3 -25 -8 -61 -11 -80
-4 -19 -8 -48 -9 -65 -2 -16 -6 -46 -8 -65 -3 -19 -8 -62 -12 -95 -4 -33 -9
-69 -12 -80 -2 -11 -6 -41 -8 -67 -2 -25 -7 -59 -9 -75 -8 -43 -18 -134 -20
-170 0 -18 -3 -33 -6 -33 -3 0 -5 -10 -6 -22 0 -25 -11 -117 -18 -158 -2 -14
-7 -47 -10 -75 -4 -27 -8 -63 -11 -80 -4 -30 -132 -434 -162 -510 -8 -22 -17
-49 -19 -60 -2 -11 -6 -31 -9 -45 -3 -14 -12 -61 -20 -105 -8 -44 -18 -91 -21
-105 -15 -67 -26 -117 -29 -140 -2 -14 -13 -72 -25 -130 -25 -121 -25 -120
-36 -180 -4 -25 -8 -47 -9 -50 -2 -7 -17 -81 -21 -103 -2 -10 -5 -26 -8 -35
-3 -9 -7 -33 -10 -52 -7 -42 -14 -76 -20 -98 -3 -9 -7 -33 -10 -52 -3 -19 -12
-68 -20 -107 -9 -40 -18 -85 -21 -100 -3 -16 -7 -39 -10 -53 -12 -58 -19 -96
-21 -115 -1 -11 -3 -20 -4 -20 -2 0 -9 -32 -14 -65 -3 -14 -9 -45 -15 -70 -6
-25 -11 -48 -11 -52 0 -5 68 -8 151 -8 l150 0 -32 58 c-18 31 -38 64 -45 72
-14 18 -13 32 15 165 24 111 31 147 36 187 2 15 6 35 9 45 3 10 7 29 10 43 3
14 10 50 16 80 6 30 13 66 15 80 2 14 6 36 9 50 20 92 29 138 32 155 2 18 577
1171 590 1184 3 3 3 -6 -1 -20 -3 -14 -7 -32 -9 -40 -1 -8 -5 -23 -9 -34 -3
-11 -8 -31 -11 -45 -3 -14 -12 -54 -21 -90 -18 -71 -23 -91 -29 -118 -2 -9 -7
-29 -11 -43 -4 -17 2 -57 15 -104 12 -42 23 -84 25 -94 4 -22 44 -160 52 -181
3 -8 7 -24 9 -35 5 -27 10 -47 17 -65 5 -14 16 -60 18 -77 1 -5 6 -19 11 -33
5 -14 11 -32 13 -40 3 -14 17 -67 50 -187 30 -106 47 -170 75 -273 16 -58 43
-154 60 -215 46 -168 68 -248 91 -332 11 -43 24 -81 28 -86 4 -4 76 -6 160 -5
l152 3 -70 90 c-38 49 -69 92 -68 95 1 6 -30 104 -43 135 -5 11 -18 52 -30 90
-12 39 -24 77 -27 85 -4 8 -7 17 -8 20 -1 3 -4 12 -8 20 -31 81 -100 311 -103
345 -2 25 -6 64 -8 87 -2 24 -7 75 -10 113 -3 39 -7 88 -10 110 -3 22 -8 69
-11 105 -3 36 -8 85 -11 110 -2 25 -6 72 -9 105 -3 33 -8 80 -10 105 -22 211
-22 216 4 275 13 28 28 64 36 80 30 69 48 110 49 115 1 3 9 21 18 40 16 35 71
163 164 379 48 111 52 117 152 216 l104 102 478 -1 479 -1 85 -86 c47 -48 83
-88 81 -90 -2 -2 -6 -28 -10 -58 -4 -30 -8 -61 -10 -70 -1 -9 -6 -38 -9 -66
-10 -76 -37 -277 -41 -305 -2 -14 -6 -47 -10 -75 -9 -69 -15 -116 -20 -145 -3
-14 -7 -51 -10 -83 -4 -32 -8 -68 -10 -79 -3 -12 -9 -58 -15 -102 -6 -45 -13
-94 -15 -111 -3 -16 -7 -50 -10 -75 -3 -25 -7 -54 -9 -65 -2 -11 -7 -49 -11
-85 -11 -93 -13 -105 -15 -105 -1 0 -3 -13 -4 -30 -4 -37 -22 -176 -31 -235
-3 -14 -7 -45 -10 -70 -3 -25 -7 -61 -10 -80 -3 -19 -7 -55 -10 -80 -3 -25 -7
-56 -10 -69 -2 -13 -7 -49 -10 -80 -4 -31 -8 -63 -11 -71 -9 -33 -16 -139 -15
-215 2 -161 8 -285 13 -290 3 -3 70 -4 150 -3 l145 3 -53 80 -53 80 5 120 c3
66 7 163 9 215 9 175 14 294 20 410 5 126 9 150 30 213 12 37 34 114 41 142 1
6 14 51 29 100 40 134 55 187 61 214 3 13 9 32 15 43 5 10 7 18 5 18 -3 0 2
19 10 43 13 36 47 148 59 197 2 8 36 125 75 260 40 135 73 252 75 260 2 8 10
34 19 58 8 23 14 42 12 42 -2 0 7 30 19 68 20 62 24 67 50 67 27 0 31 -6 79
-130 29 -71 53 -134 55 -140 2 -5 7 -19 12 -30 4 -11 31 -81 59 -155 28 -74
56 -144 60 -155 5 -11 32 -81 60 -155 28 -74 71 -184 95 -245 52 -134 71 -181
175 -455 45 -118 90 -234 101 -257 10 -24 19 -45 19 -48 0 -4 70 -188 95 -250
5 -11 9 -22 10 -25 1 -3 5 -14 10 -25 4 -11 39 -101 77 -200 38 -99 86 -222
106 -272 l37 -93 148 0 c81 0 147 3 147 6 0 4 -32 39 -71 78 -42 42 -77 87
-86 111 -8 22 -21 54 -28 70 -7 17 -20 50 -29 75 -8 25 -26 74 -39 110 -14 36
-43 117 -66 180 -41 113 -56 153 -86 228 -13 34 -27 85 -41 152 -2 14 -7 33
-10 42 -3 10 -7 28 -10 40 -2 13 -6 32 -9 43 -6 24 -35 152 -65 285 -12 52
-26 113 -31 135 -5 22 -12 51 -15 65 -3 14 -9 41 -14 60 -5 19 -11 46 -14 60
-14 62 -25 113 -51 220 -15 63 -29 124 -31 135 -2 11 -6 32 -10 47 -3 15 -5
29 -4 30 1 2 -3 16 -9 31 -6 15 -13 42 -16 60 -3 18 -31 140 -62 272 -62 266
-64 287 -39 455 2 14 6 54 10 90 4 36 9 76 11 90 2 14 7 50 10 80 4 30 8 71
11 90 17 141 25 210 28 240 3 19 8 64 12 100 4 36 8 74 9 84 1 10 -11 78 -26
150 l-28 131 25 90 c14 49 29 95 32 101 6 11 80 97 127 148 11 12 45 51 75 86
30 35 74 84 96 109 23 25 65 73 94 106 29 33 69 78 89 101 20 22 63 71 96 109
33 38 80 92 105 120 25 28 72 81 105 119 33 38 74 83 90 101 17 18 49 55 71
81 23 27 52 60 65 75 13 14 49 54 79 89 30 35 66 76 80 90 14 15 43 48 65 74
22 27 45 54 50 60 41 43 235 263 312 352 17 20 126 144 148 168 6 6 44 49 85
96 154 175 128 158 296 192 l148 30 96 -35 c427 -157 654 -237 663 -234 6 2
12 12 13 23 2 21 5 32 28 121 l16 61 -39 115 c-27 81 -54 137 -92 193 -30 43
-56 81 -59 84 -11 11 -50 70 -50 75 0 3 -8 15 -18 26 -11 10 -25 32 -33 47 -8
15 -22 33 -31 40 -10 7 -18 19 -18 25 0 7 -13 28 -30 47 -16 19 -29 40 -30 46
0 10 -11 21 -95 93 -22 19 -67 58 -100 87 -33 29 -71 61 -84 72 -23 18 -25 27
-27 118 -1 54 -2 101 -3 105 -1 4 -98 75 -126 91 -6 4 -17 -8 -24 -25z"/>
</g>
</svg>
