<svg version="1.0" xmlns="http://www.w3.org/2000/svg" width="682.667" height="682.667" viewBox="0 0 512 512"><path d="M276 114.8c-3.8 1.7-7.1 4.8-11.6 10.5-2.7 3.4-5.3 6.7-5.9 7.4-6.3 7.2-33.5 46.7-44.8 65.3-16.5 27-33.7 60.5-40.2 78.5-2.9 7.9-2.7 7.8-13.3 7.1-29.7-2.1-60.5-13.7-86.1-32.6-5.3-4-10.8-7.2-12.7-7.6-10.9-2-20.4 6.8-19.1 17.8.8 6.1 3.9 10.2 12 15.9 3.4 2.3 6.4 4.6 6.7 5 .3.3 5.3 3.4 11.2 6.8 20.1 11.7 43 20.5 64.1 24.5 7.7 1.5 21.6 3.2 23 2.8.5-.1.6.5.3 1.5-1.2 4-4.5 22.3-5.2 28.8-1 8.6-1.1 27.1-.2 34.5.9 7.6 3.2 11.5 8.4 14.6 5.7 3.4 12.6 3 17.7-.9 5.9-4.5 6.6-7.2 6.2-24.7-.5-17.6 1.3-31.5 6.1-48.8 1.5-5.5 2-6.2 4.3-6.4 1.4 0 3.1-.2 3.6-.3 18.8-3.5 42.4-11.4 56.3-18.9l6.3-3.4 4.9 4.2c21.4 18.3 46.8 30.5 69.7 33.6 15.5 2.1 37.4.2 53.3-4.6 3-.9 6-1.7 6.5-1.9.6-.1 1.7-.4 2.5-.7.8-.3 4.4-1.6 8-2.8 3.6-1.2 7.2-2.5 8-2.8.8-.3 2-.6 2.5-.8.9-.2 6.9-2.6 15-6 1.7-.6 9.1-3.3 16.5-5.9 7.4-2.5 14.6-5.3 15.8-6.1 5.5-3.6 7.5-15.2 3.7-21.1-4.9-7.4-10-9-22.7-6.7-15.3 2.6-18.6 2.9-34.8 2.9-16.1 0-23.1-.6-30.3-2.6-2.3-.6-4.9-1.2-5.7-1.4-.8-.2-4.2-1.3-7.5-2.6-23.4-8.7-41.7-26.3-53.5-51.4-4-8.4-8.8-21.1-9.6-25-.1-.6-.9-3.7-1.7-7-3.3-12.6-5.2-27.8-6.1-50.2-.4-8.1-.8-9.7-3.1-12.7-3.9-5.2-13.3-8.1-18.5-5.8zm-5.7 70.5c4 20.9 14.7 46.9 26.4 64.6 7.1 10.6 23.3 27.2 33.3 33.8 8.6 5.8 23.2 13.3 25.6 13.3 1 0 1.4.3 1.1.6-.8.8-8.8.8-13.7 0-9.3-1.4-12.1-2.2-20-5.3-8-3.3-17.5-8.4-23-12.5-8.3-6.2-10.7-8.2-18-14.9-12.4-11.4-16.7-12-30.3-4.2-9.4 5.5-23.7 12.5-23.7 11.6 0-.3-.6-.1-1.3.5-1.6 1.4-17.7 6.5-18.3 5.9-1.2-1.2 19.5-41.1 31.9-61.2 6.5-10.6 27.1-41.5 27.6-41.5.3 0 1.4 4.2 2.4 9.3z"/></svg>