<svg width="19.999756" height="20.000000" viewBox="0 0 19.9998 20" fill="none" xmlns="http://www.w3.org/2000/svg" xmlns:xlink="http://www.w3.org/1999/xlink">
	<desc>
			Created with Pixso.
	</desc>
	<defs/>
	<path id="Vector" d="M15 1.33984C16.5082 2.21069 17.7629 3.46045 18.6398 4.96509C19.5167 6.46997 19.9854 8.17773 19.9995 9.91919C20.0135 11.6609 19.5724 13.3757 18.72 14.8945C17.8676 16.4133 16.6332 17.6831 15.1392 18.5781C13.6453 19.4734 11.9434 19.9626 10.2021 19.998C8.46082 20.0332 6.74054 19.613 5.21155 18.7791C3.68256 17.9453 2.39789 16.7263 1.48468 15.2434C0.571472 13.7605 0.0614014 12.0647 0.00500488 10.324L0 10L0.00500488 9.67578C0.0609741 7.94897 0.563538 6.26587 1.46362 4.79077C2.36371 3.31592 3.63068 2.09937 5.14087 1.25977C6.65112 0.420166 8.35315 -0.0136719 10.081 0.000244141C11.8088 0.0144043 13.5036 0.47583 15 1.33984ZM8.51099 7.13989C8.30145 7.01514 8.05359 6.97119 7.81403 7.0166C7.5744 7.06177 7.35956 7.19287 7.20996 7.3855C7.0603 7.57788 6.98615 7.8186 7.00146 8.06201C7.01678 8.30518 7.12042 8.53467 7.29303 8.70679L8.58502 10L7.29303 11.293L7.21002 11.387C7.05457 11.5879 6.98151 11.8406 7.00562 12.0935C7.02972 12.3464 7.14917 12.5806 7.33972 12.7485C7.53027 12.9167 7.77765 13.0059 8.03162 12.998C8.28558 12.9905 8.52704 12.8862 8.70697 12.7068L10 11.4148L11.293 12.7068L11.387 12.7898C11.588 12.9453 11.8406 13.0183 12.0935 12.9944C12.3464 12.9702 12.5807 12.8508 12.7488 12.6602C12.9168 12.4697 13.006 12.2222 12.9982 11.9683C12.9905 11.7144 12.8864 11.4729 12.707 11.293L11.415 10L12.707 8.70679L12.79 8.61279C12.9454 8.41187 13.0185 8.15918 12.9944 7.90625C12.9703 7.65356 12.8508 7.41919 12.6603 7.25122C12.4697 7.08301 12.2224 6.9939 11.9684 7.00171C11.7144 7.00952 11.473 7.11353 11.293 7.29297L10 8.58496L8.70697 7.29297L8.61298 7.20996L8.51099 7.13989Z" fill="#0FA2FF" fill-opacity="1.000000" fill-rule="evenodd"/>
</svg>
