<svg width="18.000000" height="28.666656" viewBox="0 0 18 28.6667" fill="none" xmlns="http://www.w3.org/2000/svg" xmlns:xlink="http://www.w3.org/1999/xlink">
	<desc>
			Created with Pixso.
	</desc>
	<defs/>
	<path id="Vector" d="M6.72388 24.0572C6.97388 23.8071 7.31299 23.6667 7.66675 23.6667L10.3333 23.6667C10.687 23.6667 11.0261 23.8071 11.2761 24.0572C11.5261 24.3073 11.6667 24.6464 11.6667 25L11.6667 26.3333C11.6667 26.687 11.5261 27.0261 11.2761 27.2762C11.0261 27.5262 10.687 27.6667 10.3333 27.6667L7.66675 27.6667C7.31299 27.6667 6.97388 27.5262 6.72388 27.2762C6.47388 27.0261 6.33325 26.687 6.33325 26.3333L6.33325 25C6.33325 24.6464 6.47388 24.3073 6.72388 24.0572ZM17 9C17 6.87827 16.1572 4.84344 14.6567 3.34314C13.1565 1.84286 11.1218 1 9 1C6.87817 1 4.84351 1.84286 3.34326 3.34314C1.84277 4.84344 1 6.87827 1 9C1 13.4187 4.5813 19.6667 9 19.6667C13.4187 19.6667 17 13.4187 17 9ZM9 1C8.29272 1 7.6145 1.98334 7.1145 3.73367C6.61426 5.48401 6.33325 7.85797 6.33325 10.3333C6.33325 12.8087 6.61426 15.1826 7.1145 16.933C7.6145 18.6833 8.29272 19.6667 9 19.6667M9 19.6667C9.70728 19.6667 10.3855 18.6833 10.8855 16.933C11.3857 15.1826 11.6667 12.8087 11.6667 10.3333C11.6667 7.85797 11.3857 5.48401 10.8855 3.73367C10.3855 1.98334 9.70728 1 9 1" stroke="#0FA2FF" stroke-opacity="1.000000" stroke-width="2.000000" stroke-linejoin="round"/>
</svg>
