<svg width="26.666016" height="26.666748" viewBox="0 0 26.666 26.6667" fill="none" xmlns="http://www.w3.org/2000/svg" xmlns:xlink="http://www.w3.org/1999/xlink">
	<desc>
			Created with Pixso.
	</desc>
	<defs/>
	<path id="Vector" d="M20 1.78662C22.0107 2.94775 23.6836 4.61377 24.8535 6.62036C26.0225 8.62671 26.6475 10.9036 26.666 13.2256C26.6846 15.5479 26.0967 17.8345 24.96 19.8594C23.8232 21.8845 22.1777 23.5774 20.1855 24.771C18.1934 25.9644 15.9248 26.6169 13.6025 26.6641C11.2812 26.7109 8.9873 26.1506 6.94922 25.0388C4.91016 23.927 3.19727 22.302 1.97949 20.3245C0.761719 18.3472 0.0820312 16.0862 0.00683594 13.7651L0 13.3333L0.00683594 12.9011C0.0810547 10.5986 0.750977 8.35449 1.95117 6.38794C3.15137 4.42114 4.84082 2.79907 6.85449 1.67969C8.86816 0.560303 11.1377 -0.0183105 13.4414 0.000488281C15.7451 0.019043 18.0049 0.634521 20 1.78662ZM11.3477 9.51978C11.0684 9.35352 10.7383 9.29517 10.4189 9.35547C10.0996 9.41577 9.8125 9.59058 9.61328 9.84741C9.41406 10.104 9.31445 10.4248 9.33496 10.7493C9.35547 11.0737 9.49414 11.3794 9.72363 11.6091L11.4463 13.3333L9.72363 15.0571L9.61328 15.1826C9.40625 15.4504 9.30859 15.7874 9.34082 16.1245C9.37305 16.4617 9.53223 16.7742 9.78613 16.9983C10.04 17.2222 10.3701 17.3411 10.709 17.3308C11.0479 17.3206 11.3691 17.1816 11.6094 16.9426L13.333 15.22L15.0576 16.9426L15.1826 17.0532C15.4502 17.2605 15.7871 17.3579 16.125 17.3257C16.4619 17.2937 16.7744 17.1343 16.998 16.8801C17.2227 16.6262 17.3418 16.2964 17.3311 15.9578C17.3203 15.6191 17.1816 15.2971 16.9424 15.0571L15.2197 13.3333L16.9424 11.6091L17.0537 11.4839C17.2607 11.2158 17.3584 10.8792 17.3262 10.5417C17.2939 10.2046 17.1348 9.89233 16.8809 9.66821C16.626 9.44409 16.2969 9.3252 15.958 9.33545C15.6191 9.34595 15.2969 9.48462 15.0576 9.72388L13.333 11.4465L11.6094 9.72388L11.4844 9.61328L11.3477 9.51978Z" fill="#0FA2FF" fill-opacity="1.000000" fill-rule="evenodd"/>
</svg>
