<svg width="26.666016" height="26.666748" viewBox="0 0 26.666 26.6667" fill="none" xmlns="http://www.w3.org/2000/svg" xmlns:xlink="http://www.w3.org/1999/xlink">
	<desc>
			Created with Pixso.
	</desc>
	<defs/>
	<path id="Vector" d="M20 1.78662C22.0107 2.94775 23.6836 4.61377 24.8535 6.62036C26.0225 8.62671 26.6475 10.9036 26.666 13.2256C26.6846 15.5479 26.0967 17.8345 24.96 19.8594C23.8232 21.8845 22.1777 23.5774 20.1855 24.771C18.1934 25.9644 15.9248 26.6169 13.6025 26.6641C11.2812 26.7109 8.9873 26.1506 6.94922 25.0388C4.91016 23.927 3.19727 22.302 1.97949 20.3245C0.761719 18.3472 0.0820312 16.0862 0.00683594 13.7651L0 13.3333L0.00683594 12.9011C0.0810547 10.5986 0.750977 8.35449 1.95117 6.38794C3.15137 4.42114 4.84082 2.79907 6.85449 1.67969C8.86816 0.560303 11.1377 -0.0183105 13.4414 0.000488281C15.7451 0.019043 18.0049 0.634521 20 1.78662ZM18.2764 9.72388C18.0469 9.49438 17.7412 9.35645 17.417 9.33594C17.0928 9.31567 16.7725 9.41431 16.5156 9.61328L16.3906 9.72388L12 14.1133L10.2764 12.3906L10.1504 12.2798C9.89453 12.0811 9.57422 11.9827 9.25 12.0029C8.92578 12.0234 8.62012 12.1614 8.39062 12.3909C8.16113 12.6204 8.02344 12.9258 8.00293 13.2498C7.98242 13.5737 8.08105 13.894 8.28027 14.1506L8.39062 14.2759L11.0576 16.9426L11.1826 17.0532C11.416 17.2346 11.7041 17.333 12 17.333C12.2959 17.333 12.584 17.2346 12.8174 17.0532L12.9424 16.9426L18.2764 11.6091L18.3867 11.4839C18.5859 11.2273 18.6846 10.907 18.6641 10.583C18.6436 10.259 18.5059 9.95337 18.2764 9.72388Z" fill="#00BF1F" fill-opacity="1.000000" fill-rule="nonzero"/>
</svg>
