<svg width="32" height="32" fill="none" xmlns="http://www.w3.org/2000/svg"><path d="M12 18.667c0 2.209 3.581 4 8 4 4.419 0 8-1.791 8-4m-16 0c0-2.21 3.581-4 8-4 4.419 0 8 1.79 8 4m-16 0V24c0 2.208 3.581 4 8 4 4.419 0 8-1.792 8-4v-5.333M4 8c0 1.43 1.525 2.75 4 3.464 2.475.715 5.525.715 8 0 2.475-.715 4-2.035 4-3.464 0-1.43-1.525-2.75-4-3.464-2.475-.715-5.525-.715-8 0C5.525 5.251 4 6.571 4 8zm0 0v13.333C4 22.517 5.03 23.267 6.667 24M4 14.667c0 1.184 1.03 1.933 2.667 2.666" stroke="#000" stroke-width="2" stroke-linecap="round" stroke-linejoin="round"/></svg>