<svg width="26.000000" height="20.666748" viewBox="0 0 26 20.6667" fill="none" xmlns="http://www.w3.org/2000/svg" xmlns:xlink="http://www.w3.org/1999/xlink">
	<desc>
			Created with Pixso.
	</desc>
	<defs/>
	<path id="Vector" d="M1.78125 1.78101C2.28125 1.28101 2.95947 1 3.6665 1L22.3335 1C23.0405 1 23.7188 1.28101 24.2188 1.78101C24.7192 2.28125 25 2.95947 25 3.66675L25 17C25 17.7073 24.7192 18.3855 24.2188 18.8855C23.7188 19.3857 23.0405 19.6667 22.3335 19.6667L3.6665 19.6667C2.95947 19.6667 2.28125 19.3857 1.78125 18.8855C1.28076 18.3855 1 17.7073 1 17L1 3.66675C1 2.95947 1.28076 2.28125 1.78125 1.78101ZM1 3.66675L13 11.6667L25 3.66675" stroke="#000000" stroke-opacity="1.000000" stroke-width="2.000000" stroke-linejoin="round"/>
</svg>
