<svg width="26.003906" height="26.004089" viewBox="0 0 26.0039 26.0041" fill="none" xmlns="http://www.w3.org/2000/svg" xmlns:xlink="http://www.w3.org/1999/xlink">
	<desc>
			Created with Pixso.
	</desc>
	<defs/>
	<path id="Vector" d="M1.71094 13.905C2.17969 15.0374 2.86719 16.0663 3.7334 16.933C4.60059 17.7997 5.62891 18.4872 6.76172 18.9562C7.89355 19.4252 9.10742 19.6667 10.333 19.6667C11.5586 19.6667 12.7725 19.4252 13.9053 18.9562C15.0371 18.4872 16.0664 17.7997 16.9326 16.933C17.7998 16.0663 18.4873 15.0374 18.9561 13.905C19.4248 12.7726 19.667 11.559 19.667 10.3333C19.667 9.10767 19.4248 7.89398 18.9561 6.7616C18.4873 5.62927 17.7998 4.60034 16.9326 3.73364C16.0664 2.867 15.0371 2.1795 13.9053 1.71045C12.7725 1.24139 11.5586 1 10.333 1C9.10742 1 7.89355 1.24139 6.76172 1.71045C5.62891 2.1795 4.60059 2.867 3.7334 3.73364C2.86719 4.60034 2.17969 5.62927 1.71094 6.7616C1.24121 7.89398 1 9.10767 1 10.3333C1 11.559 1.24121 12.7726 1.71094 13.905ZM25 25L17 17" stroke="#000000" stroke-opacity="1.000000" stroke-width="2.000000" stroke-linejoin="round" stroke-linecap="round"/>
</svg>
