<svg width="27" height="27" fill="none" xmlns="http://www.w3.org/2000/svg"><path d="M1 25l2.2-5.067A12 12 0 117.733 23.8L1 25z" fill="#fff"/><path d="M9 10.333a.667.667 0 101.333 0V9A.667.667 0 109 9v1.333A6.667 6.667 0 0015.667 17H17a.666.666 0 100-1.333h-1.333a.667.667 0 100 1.333" fill="#fff"/><path d="M9 10.333a.667.667 0 101.333 0V9A.667.667 0 109 9v1.333zm0 0A6.667 6.667 0 0015.667 17m0 0H17a.666.666 0 100-1.333h-1.333a.667.667 0 100 1.333zM1 25l2.2-5.067A12 12 0 117.733 23.8L1 25z" stroke="#000" stroke-width="2" stroke-linecap="round" stroke-linejoin="round"/></svg>