<?xml version="1.0" standalone="no"?>
<!DOCTYPE svg PUBLIC "-//W3C//DTD SVG 20010904//EN"
 "http://www.w3.org/TR/2001/REC-SVG-20010904/DTD/svg10.dtd">
<svg version="1.0" xmlns="http://www.w3.org/2000/svg"
 width="960.000000pt" height="960.000000pt" viewBox="0 0 960.000000 960.000000"
 preserveAspectRatio="xMidYMid meet">
<metadata>
Created by potrace 1.14, written by Peter Selinger 2001-2017
</metadata>
<g transform="translate(0.000000,960.000000) scale(0.100000,-0.100000)"
fill="#000000" stroke="none">
<path d="M508 9025 c-3 -3 -264 -16 -355 -19 -18 -1 -33 -5 -33 -9 0 -5 -4 -6
-9 -3 -12 8 -72 -13 -94 -32 -34 -30 -6 -142 35 -142 10 0 18 -4 18 -9 0 -11
60 -28 130 -37 19 -3 44 -7 55 -10 11 -3 47 -7 80 -10 33 -3 98 -11 145 -19
47 -7 88 -11 93 -8 4 2 7 -1 7 -8 0 -7 2 -10 5 -7 4 3 25 1 48 -4 23 -5 51
-11 61 -14 11 -2 65 -18 120 -36 56 -17 103 -32 106 -33 9 -1 105 -50 110 -55
3 -3 36 -26 74 -50 38 -25 74 -48 80 -52 8 -5 11 -1023 11 -3672 l0 -3665 -38
-23 c-21 -13 -44 -28 -50 -33 -28 -26 -137 -87 -196 -110 -68 -28 -223 -71
-286 -80 -11 -2 -20 -4 -20 -5 0 -2 -25 -7 -75 -14 -25 -4 -52 -9 -60 -11 -13
-4 -64 -10 -157 -20 -174 -19 -258 -46 -292 -94 -18 -25 -21 -44 -21 -124 l0
-94 393 3 c980 6 1998 15 2387 20 234 2 549 6 702 8 152 2 281 7 287 10 6 4
11 2 11 -4 0 -6 5 -8 11 -4 7 4 93 8 193 10 201 3 461 11 696 21 85 3 192 7
237 7 46 1 83 3 83 6 0 3 24 5 53 6 64 1 251 13 292 19 17 2 62 7 100 10 39 3
81 7 95 9 14 3 45 7 70 10 45 6 72 10 140 22 19 3 46 8 60 10 14 2 45 9 70 14
25 5 59 12 75 15 28 4 51 9 93 19 9 2 40 10 67 16 28 6 59 14 70 17 11 3 27 6
35 7 8 2 35 9 60 16 25 7 50 13 55 14 6 2 30 8 55 15 25 8 50 14 55 16 6 1 17
5 25 8 25 9 85 27 90 26 5 0 168 55 200 68 8 4 17 7 20 7 3 1 19 7 35 13 17 7
82 32 145 57 197 76 424 185 613 294 54 32 108 63 121 70 13 6 74 46 136 87
62 41 116 75 121 75 5 0 9 3 9 8 0 4 17 18 38 32 20 14 39 27 42 30 3 4 23 19
45 36 38 28 54 41 101 81 12 10 43 36 70 58 133 110 362 339 464 464 19 24 43
53 54 64 37 43 217 288 223 305 4 9 12 22 17 29 31 35 36 43 29 43 -4 0 -3 4
3 8 13 9 114 179 114 192 0 6 3 10 8 10 4 0 16 19 27 43 10 23 26 53 35 67 14
21 134 281 160 345 4 11 15 37 24 57 29 65 106 302 106 326 0 12 3 22 8 22 4
0 7 10 8 23 1 26 14 109 19 117 2 3 6 41 10 85 4 44 9 94 11 110 10 86 15 387
15 780 0 454 -4 625 -15 643 -3 6 -2 13 4 17 6 4 7 11 4 17 -4 6 -8 38 -10 72
-2 34 -4 61 -4 61 -1 0 -3 20 -5 45 -2 25 -6 61 -9 80 -2 19 -7 56 -10 82 -9
71 -17 121 -22 140 -6 20 -10 43 -18 93 -4 20 -9 41 -12 46 -3 5 -8 22 -10 37
-5 30 -11 47 -53 177 -28 85 -51 145 -71 190 -10 21 -60 136 -63 145 -1 3 -32
63 -70 134 -136 259 -235 412 -376 585 -38 46 -393 405 -426 431 -11 8 -58 47
-105 86 -90 74 -188 151 -255 197 -109 76 -204 137 -213 137 -6 0 -12 4 -14 8
-7 18 -238 143 -363 197 -22 9 -49 21 -60 26 -11 5 -45 18 -75 29 -30 11 -64
25 -75 30 -28 13 -312 112 -415 144 -47 15 -92 30 -100 33 -8 4 -18 7 -22 8
-5 2 -9 3 -10 5 -2 1 -11 3 -21 5 -21 4 -122 34 -157 46 -14 5 -36 11 -50 13
-14 3 -25 5 -25 6 0 1 -7 3 -15 5 -73 18 -271 75 -279 79 -5 4 -22 8 -38 10
-15 3 -75 18 -133 34 -78 21 -128 29 -193 30 -49 0 -91 3 -94 6 -3 2 -15 1
-28 -4 -14 -5 -26 -5 -34 3 -8 8 -11 8 -11 0 0 -8 -9 -9 -29 -3 -16 4 -31 7
-33 5 -6 -6 -62 -6 -723 -1 -1999 16 -2422 18 -3337 20 -554 2 -1009 2 -1010
1z m3422 -265 c9 6 17 5 22 -3 5 -8 8 -8 8 -1 0 7 15 9 45 4 25 -4 48 -3 51 2
3 4 10 6 15 3 5 -4 55 -8 111 -10 107 -5 172 -10 273 -20 32 -4 80 -8 105 -10
78 -6 292 -32 425 -52 22 -3 49 -7 60 -9 11 -1 22 -3 25 -4 3 -1 8 -2 11 -2
10 2 191 -30 249 -43 14 -3 39 -8 55 -11 26 -4 273 -61 300 -68 6 -2 17 -5 25
-8 8 -3 51 -16 95 -28 141 -40 352 -115 460 -165 123 -56 157 -73 265 -133
120 -67 269 -166 355 -236 28 -22 57 -46 65 -52 70 -57 268 -264 330 -344 19
-25 37 -47 40 -50 12 -10 158 -236 181 -280 13 -25 30 -53 38 -62 8 -10 10
-18 6 -18 -4 0 -1 -8 7 -17 43 -51 220 -495 254 -635 1 -5 2 -9 4 -10 1 -2 3
-10 5 -19 1 -9 10 -41 18 -70 9 -30 18 -66 21 -81 2 -15 7 -31 10 -36 5 -8 11
-37 22 -102 3 -19 8 -38 10 -41 2 -4 6 -24 10 -44 3 -21 8 -47 10 -59 5 -20 9
-44 18 -91 1 -11 6 -33 9 -50 4 -16 9 -48 12 -70 3 -23 7 -50 9 -60 2 -11 7
-45 11 -75 3 -30 8 -66 10 -80 7 -45 16 -124 21 -180 2 -30 7 -86 10 -125 10
-104 10 -773 0 -905 -4 -63 -8 -136 -9 -162 -1 -27 -4 -48 -7 -48 -3 0 -5 -17
-5 -38 -1 -47 -11 -138 -25 -224 -5 -37 -10 -71 -9 -75 1 -4 0 -11 -1 -15 -1
-5 -4 -17 -5 -28 -1 -11 -3 -21 -5 -22 -1 -2 -3 -21 -5 -43 -1 -22 -4 -40 -5
-40 -2 0 -8 -29 -15 -80 -3 -22 -8 -49 -10 -60 -2 -11 -7 -36 -10 -55 -4 -19
-15 -73 -26 -120 -26 -114 -27 -119 -33 -138 -3 -9 -7 -29 -10 -44 -3 -15 -9
-42 -15 -60 -60 -191 -112 -349 -122 -373 -7 -16 -13 -32 -13 -35 -3 -15 -80
-194 -95 -221 -5 -8 -30 -55 -55 -105 -26 -49 -52 -98 -59 -108 -7 -11 -32
-52 -56 -90 -24 -39 -47 -73 -50 -76 -3 -3 -18 -23 -33 -45 -88 -133 -329
-388 -440 -466 -18 -13 -40 -31 -49 -41 -9 -10 -20 -18 -25 -18 -5 0 -24 -14
-43 -30 -18 -17 -37 -30 -42 -30 -4 0 -14 -6 -21 -13 -40 -40 -316 -189 -488
-265 -112 -49 -421 -155 -515 -177 -11 -2 -65 -16 -120 -30 -107 -27 -128 -31
-188 -41 -20 -4 -40 -11 -43 -15 -3 -5 -9 -7 -14 -4 -5 3 -29 1 -55 -5 -25 -6
-62 -13 -83 -16 -20 -3 -44 -7 -52 -9 -8 -2 -35 -7 -60 -10 -25 -3 -58 -8 -75
-10 -16 -2 -30 -4 -30 -5 0 -2 -27 -7 -85 -13 -30 -4 -73 -9 -95 -12 -46 -6
-116 -13 -195 -20 -30 -2 -73 -7 -95 -9 -22 -3 -78 -8 -125 -11 -47 -3 -116
-8 -155 -12 -83 -7 -563 -7 -620 0 -39 4 -124 20 -175 32 -14 4 -38 8 -55 11
-16 3 -37 8 -45 11 -13 5 -38 11 -120 29 -36 8 -98 30 -150 53 -49 22 -130 90
-130 109 0 7 -4 12 -9 12 -8 0 -60 107 -65 134 -2 6 -8 31 -15 55 -7 25 -14
54 -15 65 -2 12 -6 32 -9 46 -18 75 -39 290 -51 529 -4 62 -9 118 -12 122 -3
5 0 9 6 9 6 0 8 5 4 11 -9 15 -16 334 -18 811 0 214 -5 388 -9 388 -5 0 -5 5
-1 11 10 16 11 100 1 106 -4 2 -4 9 0 16 3 6 5 52 4 101 -1 50 -2 96 -2 101 1
6 2 27 4 48 1 21 -1 41 -5 43 -5 3 -5 10 -2 16 4 6 6 54 5 107 -2 107 -2 101
2 154 1 21 -1 41 -5 43 -5 3 -5 10 -2 16 8 13 8 208 0 216 -3 3 -1 10 4 17 6
7 6 23 1 43 -5 17 -7 33 -4 36 8 8 8 181 0 193 -4 7 -4 14 1 17 9 5 9 47 0 62
-3 5 -2 18 2 28 3 11 3 37 0 58 -4 21 -3 41 1 44 5 3 6 17 2 32 -3 15 -6 31
-5 37 5 41 6 435 0 435 -4 0 -3 12 0 28 7 24 8 492 2 517 -1 6 -1 12 0 15 1 3
3 244 5 535 7 1039 23 1599 51 1850 3 33 8 71 9 85 11 97 31 145 86 205 46 50
167 135 193 135 9 0 16 5 16 10 0 6 8 10 18 10 10 0 22 3 26 7 3 4 12 8 19 10
7 1 48 13 92 27 45 13 94 27 110 29 17 3 39 8 51 11 19 4 92 13 174 22 19 2
86 6 149 9 63 3 117 7 119 10 3 2 12 0 21 -5 10 -5 23 -5 31 0z"/>
</g>
</svg>
