<?xml version="1.0" standalone="no"?>
<!DOCTYPE svg PUBLIC "-//W3C//DTD SVG 20010904//EN"
 "http://www.w3.org/TR/2001/REC-SVG-20010904/DTD/svg10.dtd">
<svg version="1.0" xmlns="http://www.w3.org/2000/svg"
 width="640.000000pt" height="640.000000pt" viewBox="0 0 640.000000 640.000000"
 preserveAspectRatio="xMidYMid meet">
<metadata>
Created by potrace 1.14, written by Peter Selinger 2001-2017
</metadata>
<g transform="translate(0.000000,640.000000) scale(0.100000,-0.100000)"
fill="#000000" stroke="none">
<path d="M3769 5206 c-1 0 -2 -119 -3 -263 -1 -144 -4 -265 -8 -268 -3 -3 -52
18 -109 48 -210 110 -557 287 -563 287 -9 0 -1 -39 10 -49 5 -5 106 -59 224
-119 118 -61 267 -137 330 -170 l114 -59 1 -117 c0 -64 -3 -116 -8 -116 -4 0
-36 15 -70 34 -51 28 -460 238 -547 282 -41 21 -52 20 -56 -3 -3 -16 3 -24 24
-32 15 -5 79 -38 142 -71 63 -34 178 -94 255 -133 77 -39 151 -78 164 -86 13
-8 30 -16 37 -17 7 -1 23 -9 36 -18 l23 -16 0 -1046 c0 -872 -2 -1047 -13
-1052 -8 -3 -172 -5 -366 -6 l-351 -1 0 -39 0 -39 365 -1 364 -1 1 -148 c0
-91 -4 -151 -10 -155 -5 -4 -170 -7 -365 -7 l-355 0 -3 -34 c-2 -19 1 -37 6
-40 6 -3 522 -6 1149 -6 l1138 0 3 41 3 40 -398 -1 -398 0 0 156 -1 156 254 0
c184 0 256 3 261 12 6 10 7 25 2 62 -1 4 -103 7 -228 7 -126 0 -242 1 -259 1
l-30 1 0 850 c0 468 2 850 5 850 7 0 274 -133 281 -140 3 -3 50 -28 105 -55
55 -28 199 -102 320 -165 121 -62 249 -128 285 -147 35 -18 69 -33 76 -33 17
0 25 27 11 38 -7 5 -120 64 -252 132 -132 68 -303 155 -380 195 -77 40 -192
99 -255 131 -63 33 -117 62 -120 66 -3 3 -18 10 -33 13 -15 4 -31 12 -35 19
-7 11 -12 236 -5 236 6 0 214 -105 368 -185 66 -34 208 -107 315 -163 107 -55
238 -122 291 -150 92 -48 96 -49 108 -30 7 11 11 21 9 22 -2 1 -50 26 -108 56
-58 29 -154 79 -215 110 -60 31 -216 111 -345 178 -129 66 -278 143 -330 170
l-95 49 0 276 0 277 -41 0 -40 0 0 -232 c1 -128 0 -243 -3 -255 -3 -21 -10
-19 -135 46 -72 38 -208 108 -301 156 l-171 88 1 284 c0 157 -3 287 -7 289 -6
4 -67 13 -69 10z m242 -720 c90 -47 227 -117 304 -157 l140 -72 0 -117 c0
-100 -2 -117 -15 -112 -8 3 -69 33 -135 68 -66 34 -174 89 -240 123 -66 33
-125 65 -132 71 -7 5 -19 10 -26 10 -8 0 -25 9 -38 19 -23 18 -24 26 -25 135
0 64 0 116 1 116 1 0 76 -38 166 -84z m-56 -261 c44 -23 175 -91 290 -150
l210 -107 0 -874 0 -874 -25 -1 c-30 -1 -536 -1 -565 0 -20 1 -21 3 -20 1030
0 917 1 1028 15 1023 8 -3 51 -24 95 -47z m500 -2225 c0 -74 -1 -144 -3 -155
-3 -20 -11 -20 -303 -20 -164 0 -300 2 -300 5 -3 11 -5 295 -2 301 1 4 139 6
305 5 l302 -1 1 -135z"/>
<path d="M2815 4986 c-377 -241 -885 -561 -910 -574 -16 -9 -36 -22 -43 -29
-8 -7 -27 -20 -43 -28 -15 -9 -45 -26 -65 -40 -20 -14 -40 -25 -45 -25 -5 0
-8 46 -8 101 0 56 -2 103 -3 105 -7 6 -235 7 -245 1 -7 -4 -10 -71 -9 -184 1
-165 0 -179 -19 -199 -16 -17 -134 -95 -256 -169 -9 -5 -35 -21 -58 -35 -22
-14 -41 -27 -41 -30 0 -3 417 -5 928 -5 l927 0 3 588 c1 323 -1 587 -5 587 -5
0 -53 -29 -108 -64z"/>
<path d="M1053 3597 c-4 -6 -6 -820 -3 -1708 l0 -125 939 0 938 0 -1 55 -1 56
-865 2 c-476 1 -872 2 -881 2 -14 1 -15 88 -15 852 1 468 -2 855 -5 861 -8 13
-98 17 -106 5z"/>
<path d="M1439 3599 c-5 -3 -8 -300 -7 -725 l3 -719 748 0 747 0 0 722 c0 571
-3 723 -12 724 -63 4 -1472 3 -1479 -2z"/>
</g>
</svg>
