<?xml version="1.0" standalone="no"?>
<!DOCTYPE svg PUBLIC "-//W3C//DTD SVG 20010904//EN"
 "http://www.w3.org/TR/2001/REC-SVG-20010904/DTD/svg10.dtd">
<svg version="1.0" xmlns="http://www.w3.org/2000/svg"
 width="2000.000000pt" height="2000.000000pt" viewBox="0 0 2000.000000 2000.000000"
 preserveAspectRatio="xMidYMid meet">
<metadata>
Created by potrace 1.14, written by Peter Selinger 2001-2017
</metadata>
<g transform="translate(0.000000,2000.000000) scale(0.100000,-0.100000)"
fill="#000000" stroke="none">
<path d="M4450 19216 c-3 -3 -21 -8 -40 -11 -19 -3 -41 -12 -48 -18 -15 -16
-148 -395 -172 -493 -28 -112 -31 -146 -35 -354 -3 -170 0 -213 20 -330 33
-191 112 -416 261 -745 7 -16 56 -131 109 -255 53 -124 103 -238 110 -255 8
-16 48 -111 90 -210 42 -99 85 -198 94 -220 10 -22 92 -211 181 -420 89 -209
173 -404 186 -433 13 -29 24 -55 24 -57 0 -2 11 -29 25 -59 22 -48 45 -101 50
-116 1 -3 10 -23 19 -45 106 -239 166 -404 181 -496 4 -24 10 -53 12 -64 3
-11 11 -60 18 -110 7 -49 16 -103 20 -118 l8 -28 31 33 c18 18 39 45 49 58 11
16 17 19 17 9 0 -8 -4 -19 -9 -24 -6 -6 -12 -21 -15 -35 -4 -20 -28 -94 -51
-158 -3 -8 -19 3 -42 30 -69 78 -81 85 -145 83 -34 -1 -57 -9 -82 -28 -20 -16
-37 -23 -41 -17 -3 5 -4 10 -1 10 7 0 -38 163 -73 266 -29 85 -34 118 -12 75
28 -52 112 -89 171 -76 35 8 85 53 95 85 21 68 2 112 -92 213 -69 75 -191 58
-234 -32 l-16 -34 -35 89 c-20 49 -63 151 -97 227 -34 76 -61 140 -61 143 0 3
16 -14 36 -37 54 -65 75 -77 134 -81 100 -5 170 124 114 210 -34 53 -99 124
-126 138 -76 40 -198 -19 -198 -96 0 -11 -4 -20 -10 -20 -5 0 -10 6 -10 13 0
6 -13 40 -30 75 -16 34 -27 62 -23 62 3 0 1 6 -5 13 -9 10 -114 244 -129 287
-3 8 6 2 20 -15 14 -16 33 -39 43 -51 78 -88 223 -44 240 73 7 55 -39 137
-124 219 -51 49 -143 43 -192 -12 -27 -31 -35 -52 -31 -76 0 -5 -2 -8 -7 -8
-4 0 -27 46 -51 103 -24 56 -53 122 -63 147 -11 25 -29 63 -39 84 -11 21 -18
40 -16 42 2 2 21 -19 42 -47 21 -27 54 -58 74 -68 103 -50 225 56 188 164 -18
54 -118 176 -156 192 -57 24 -119 12 -158 -31 -19 -21 -33 -46 -33 -61 0 -14
-3 -25 -7 -25 -5 1 -37 69 -72 153 -62 147 -113 262 -133 301 -18 33 10 8 42
-39 45 -65 115 -86 183 -53 48 24 77 71 77 124 0 33 -10 56 -58 124 -68 98
-95 121 -154 127 -71 8 -119 -23 -142 -92 l-13 -36 -83 193 c-118 275 -120
278 -178 310 -45 25 -50 26 -55 10 -3 -9 -38 -109 -77 -222 -39 -113 -85 -244
-101 -293 l-29 -87 216 -498 c119 -273 222 -510 229 -527 8 -16 66 -151 130
-300 65 -148 133 -306 152 -350 19 -44 55 -127 80 -185 44 -102 145 -335 163
-375 14 -31 43 -98 113 -260 83 -193 163 -375 194 -445 14 -30 34 -77 45 -105
10 -27 30 -72 43 -100 48 -100 118 -288 131 -351 4 -23 35 -62 47 -60 61 11
79 39 111 177 24 101 31 137 43 229 7 61 7 246 -2 259 -14 23 13 10 41 -20 38
-41 100 -69 136 -62 29 6 36 -5 16 -25 -7 -7 -10 -12 -6 -12 3 0 -7 -35 -23
-77 -18 -51 -32 -77 -41 -75 -10 3 -10 1 -2 -8 9 -9 -19 -101 -108 -363 -65
-194 -137 -407 -160 -475 l-41 -123 -21 19 c-12 11 -46 36 -76 55 -68 42 -130
45 -180 9 -20 -15 -30 -18 -31 -10 -2 36 -89 341 -116 406 -3 8 21 -4 53 -26
76 -51 113 -58 171 -32 34 15 48 28 63 63 34 76 13 124 -83 196 -68 50 -74 53
-120 48 -56 -5 -92 -29 -118 -75 l-17 -33 -12 38 c-17 50 -91 235 -130 319
-16 37 -30 69 -30 71 0 3 17 -9 38 -25 52 -41 76 -52 111 -52 92 0 156 80 136
171 -13 58 -136 158 -202 164 -50 5 -118 -34 -136 -77 -13 -31 -13 -30 -91
148 -43 98 -83 185 -89 192 -16 21 3 13 46 -18 54 -38 100 -43 152 -14 65 35
92 112 61 172 -15 30 -94 107 -139 137 -59 38 -149 15 -188 -49 l-18 -29 -14
34 c-8 19 -40 93 -72 164 -31 72 -64 146 -72 165 l-15 35 46 -43 c76 -70 126
-80 197 -40 53 29 77 98 56 159 -12 38 -149 169 -178 171 -56 3 -93 -2 -116
-17 -27 -18 -64 -75 -57 -87 3 -4 2 -8 -3 -8 -6 1 -165 353 -182 404 -2 6 18
-10 45 -36 77 -74 139 -90 203 -52 53 31 78 102 57 162 -16 45 -139 169 -179
178 -44 11 -84 7 -117 -13 -30 -17 -60 -61 -60 -87 0 -9 -4 -16 -10 -16 -5 0
-10 5 -10 12 0 10 -66 164 -156 366 -13 29 -24 56 -24 60 -1 24 -94 92 -125
92 -16 0 -7 24 -132 -340 -99 -288 -104 -307 -92 -340 11 -31 175 -415 199
-465 5 -11 105 -240 221 -510 116 -269 263 -609 326 -755 196 -452 296 -683
443 -1025 78 -181 151 -350 162 -375 11 -25 26 -58 33 -75 7 -16 29 -68 49
-115 21 -47 41 -94 46 -105 11 -28 42 -99 75 -173 28 -62 29 -64 62 -60 27 3
32 1 27 -11 -28 -69 -26 -83 23 -183 20 -43 42 -73 57 -79 24 -11 25 -18 6
-64 -7 -17 -29 -109 -44 -190 -11 -59 -19 -171 -17 -264 3 -172 9 -228 42
-376 20 -86 28 -116 45 -160 4 -11 8 -22 9 -25 6 -26 52 -134 81 -191 189
-377 535 -693 912 -835 37 -14 67 -26 68 -27 0 -1 9 4 18 12 16 14 17 11 12
-40 -8 -72 -13 -127 -21 -224 -3 -44 -8 -96 -10 -115 -3 -19 -7 -64 -10 -100
-5 -60 -4 -66 17 -76 21 -9 166 -85 322 -168 l58 -31 -30 -9 c-27 -7 -36 -20
-70 -100 -38 -87 -78 -200 -86 -242 -2 -10 -9 -37 -14 -59 -53 -203 -45 -509
18 -745 7 -25 14 -52 16 -60 20 -86 127 -309 202 -421 l51 -76 -32 -63 c-20
-38 -42 -67 -59 -76 -16 -8 -28 -12 -28 -10 0 3 -11 1 -24 -4 -52 -19 -128 48
-182 163 -10 20 -22 37 -28 37 -6 0 -39 -19 -73 -42 -52 -35 -68 -54 -92 -103
-16 -33 -35 -79 -41 -103 -8 -33 -15 -42 -28 -38 -9 3 -53 17 -97 30 -118 37
-135 37 -200 -8 -31 -22 -61 -48 -66 -58 -25 -46 73 -165 209 -253 33 -22 61
-42 62 -45 0 -3 -14 -6 -31 -6 -30 -2 -99 -48 -107 -73 -7 -20 83 -98 156
-135 37 -18 106 -46 153 -61 l87 -28 -42 -35 c-22 -19 -43 -36 -45 -38 -13
-12 40 -60 92 -84 78 -34 174 -54 308 -62 l41 -2 -35 -33 -36 -32 33 -29 c30
-26 48 -35 122 -59 31 -10 270 -11 309 -1 11 3 37 8 58 12 20 4 66 27 102 51
36 25 70 45 75 45 6 0 10 4 10 8 0 11 75 49 111 57 25 6 107 -24 136 -50 6 -5
26 -21 44 -35 51 -39 132 -125 163 -172 15 -23 15 -27 1 -41 -8 -9 -15 -33
-15 -56 0 -36 -3 -41 -23 -41 -13 0 -38 15 -58 36 -78 80 -193 122 -321 117
-46 -2 -99 -9 -118 -16 -19 -6 -39 -12 -45 -12 -25 -2 -80 -40 -128 -89 -83
-86 -107 -117 -140 -186 -28 -59 -31 -74 -31 -160 -1 -86 2 -99 26 -136 58
-90 153 -135 293 -140 57 -2 79 2 118 21 27 13 56 33 65 44 43 50 54 64 82
103 17 22 30 39 30 37 0 -2 15 -49 34 -105 19 -55 37 -111 40 -124 33 -163
140 -489 208 -629 27 -58 57 -121 65 -140 21 -50 139 -238 192 -306 76 -100
251 -266 348 -333 50 -34 98 -62 105 -62 8 0 18 -4 24 -9 54 -51 292 -142 479
-185 151 -35 166 -40 172 -65 18 -73 71 -120 146 -131 l39 -5 3 -110 c8 -224
60 -344 373 -844 l140 -225 -23 -30 c-33 -45 -53 -88 -66 -142 -6 -27 -13 -58
-16 -69 -18 -71 -15 -125 12 -197 15 -40 38 -104 52 -143 14 -38 29 -79 34
-90 5 -11 20 -54 35 -95 27 -78 182 -440 193 -452 3 -4 33 50 66 120 32 70 88
188 123 262 65 136 104 221 107 230 1 3 21 46 44 95 68 141 97 342 64 438 -12
37 -12 38 15 50 84 37 115 84 133 198 11 71 13 76 71 134 160 159 231 337 231
575 0 40 -10 102 -26 160 -29 106 -39 194 -24 228 14 31 27 28 18 -5 -5 -17
-3 -46 5 -74 11 -35 24 -53 60 -79 40 -29 55 -34 105 -34 100 0 174 69 187
176 12 98 8 191 -12 228 -53 102 -188 152 -300 110 -74 -28 -140 -96 -159
-162 -35 -121 -55 -245 -62 -394 -7 -119 -11 -154 -30 -216 -27 -91 -156 -264
-218 -292 -126 -57 -282 -59 -451 -3 -61 19 -76 30 -127 87 -32 36 -73 88 -91
115 -18 28 -39 60 -46 70 -33 51 -83 170 -98 231 -23 102 -19 273 7 290 10 6
19 8 119 24 36 5 76 12 90 15 14 4 36 8 50 11 44 8 183 44 249 65 l63 19 59
-54 c33 -31 93 -72 136 -93 70 -34 84 -38 157 -38 45 0 95 6 112 13 28 12 32
20 41 73 l10 59 -39 25 c-40 27 -78 78 -78 106 0 34 91 154 147 194 151 108
239 176 311 242 l79 72 20 -27 c40 -55 65 -117 68 -169 2 -29 6 -67 10 -85 8
-35 104 -228 114 -228 10 0 69 92 89 140 11 25 43 95 72 155 29 61 66 139 82
175 35 76 282 605 357 763 28 60 51 110 51 112 0 2 29 63 63 137 35 73 74 156
87 183 13 28 43 93 67 145 25 52 60 127 78 165 18 39 48 104 67 145 20 41 49
104 66 140 16 36 95 205 175 375 80 171 162 346 182 390 21 44 53 114 73 155
36 79 85 184 132 285 15 33 49 105 75 160 26 55 123 262 215 460 92 198 195
418 229 488 34 71 61 130 61 131 0 2 28 62 61 132 34 71 74 156 89 189 15 33
43 94 63 135 19 41 112 242 207 445 168 359 209 447 292 625 22 47 53 112 68
145 15 33 44 96 65 140 20 44 50 107 65 140 15 33 47 101 70 150 23 50 55 117
70 150 15 33 55 118 89 189 33 70 61 130 61 131 0 2 25 57 56 122 46 97 306
653 439 938 57 122 96 206 156 334 33 68 59 125 59 126 0 2 25 56 56 121 31
66 133 283 226 484 94 201 189 403 210 450 22 47 55 117 73 155 18 39 49 106
70 150 20 44 51 109 67 145 42 89 103 219 148 315 21 44 52 111 69 149 34 73
79 169 143 306 23 47 53 112 68 145 15 33 43 94 63 135 40 86 84 180 187 400
40 85 88 189 107 230 20 41 48 102 62 134 l27 59 -47 96 c-45 91 -305 638
-374 786 -18 39 -74 155 -124 259 -50 104 -91 190 -91 192 0 1 -29 62 -64 136
-35 73 -87 183 -116 243 -111 233 -435 915 -477 1005 -25 52 -68 142 -95 200
-28 58 -70 148 -95 200 -94 199 -152 316 -165 334 -14 17 -22 9 -118 -110 -57
-71 -118 -158 -136 -194 -32 -64 -105 -235 -299 -695 -53 -126 -103 -243 -110
-260 -8 -16 -75 -176 -150 -355 -75 -179 -156 -370 -180 -425 -23 -55 -116
-273 -205 -485 -89 -212 -199 -473 -245 -580 -45 -107 -120 -283 -165 -390
-45 -107 -88 -208 -95 -225 -8 -16 -68 -160 -135 -320 -67 -159 -128 -304
-135 -320 -17 -38 -230 -541 -260 -615 -12 -30 -86 -206 -165 -390 -78 -184
-263 -623 -411 -975 -149 -352 -274 -649 -279 -660 -13 -28 -112 -262 -208
-490 -164 -390 -434 -1031 -447 -1060 -7 -16 -25 -59 -40 -95 -14 -36 -32 -78
-40 -95 -7 -16 -68 -160 -135 -320 -67 -159 -127 -303 -135 -320 -7 -16 -25
-59 -40 -95 -15 -36 -33 -78 -40 -95 -11 -24 -543 -1290 -805 -1915 -68 -161
-146 -352 -153 -373 -14 -39 -96 -39 -139 0 -33 28 -93 126 -118 190 -12 32
-26 67 -30 78 -18 42 -102 374 -138 550 -5 22 -13 39 -19 38 -5 -1 -10 19 -10
45 1 43 -6 115 -18 202 -15 110 -71 289 -133 423 -149 320 -440 616 -758 772
-84 41 -88 42 -118 29 -11 -4 -17 -4 -14 2 4 5 9 43 13 84 3 41 8 89 10 105 1
17 6 59 9 95 3 36 8 85 11 110 10 88 14 126 21 190 3 36 7 76 9 90 8 75 19
187 19 199 1 19 -309 149 -341 143 -15 -3 -23 0 -22 9 1 20 37 116 38 102 1
-11 121 -55 187 -68 25 -5 33 -2 37 12 3 10 53 158 112 328 58 171 112 330
120 355 7 25 59 178 114 340 56 162 131 381 166 485 35 105 130 384 210 620
80 237 168 495 195 575 62 182 286 840 293 860 3 8 42 123 86 255 87 262 108
361 126 589 12 152 7 446 -9 534 -2 9 -7 44 -11 77 -13 108 -37 230 -60 315
-17 58 -22 79 -29 108 -16 61 -106 305 -163 437 -110 256 -297 552 -497 785
-53 61 -308 313 -381 376 -139 119 -342 269 -435 321 -116 65 -210 114 -210
110 0 -29 82 -184 150 -287 122 -182 220 -371 305 -585 75 -191 156 -450 186
-595 6 -30 15 -73 20 -95 5 -22 11 -58 15 -80 3 -22 7 -51 10 -65 2 -14 6 -41
9 -60 3 -19 7 -51 10 -70 24 -167 25 -658 1 -787 -4 -19 -15 -87 -22 -138 -26
-175 -60 -295 -249 -870 -23 -71 -70 -213 -103 -315 -171 -524 -353 -1083
-428 -1310 -46 -140 -103 -316 -127 -390 l-44 -135 33 -40 c99 -123 236 -364
306 -540 101 -251 133 -407 133 -650 -1 -149 -7 -213 -32 -303 -8 -32 -15 -63
-16 -69 0 -7 -5 -13 -10 -13 -5 0 -6 8 -2 18 21 53 38 194 40 342 4 281 -42
498 -157 750 -140 304 -399 585 -680 739 -87 48 -106 65 -28 26 37 -19 52 -22
55 -13 2 7 113 337 245 733 133 396 284 848 337 1005 309 920 435 1300 444
1340 35 149 44 247 44 455 0 157 -9 315 -20 347 -2 7 -7 30 -10 51 -18 124
-67 300 -126 450 -82 207 -278 560 -387 697 -11 14 -49 61 -83 105 -88 112
-344 365 -469 463 -58 46 -112 89 -120 95 -80 64 -340 220 -340 204 0 -23 37
-94 106 -202 92 -146 200 -356 267 -520 44 -106 124 -335 131 -372 2 -10 10
-38 17 -63 7 -25 13 -50 15 -57 1 -6 7 -35 14 -65 7 -29 14 -66 16 -83 2 -16
6 -37 9 -45 6 -18 22 -133 32 -226 4 -38 8 -148 8 -244 0 -344 -21 -455 -180
-950 -59 -184 -122 -382 -140 -440 -18 -58 -60 -193 -94 -300 -64 -198 -98
-307 -150 -472 -96 -305 -223 -705 -228 -718 -3 -8 -7 -19 -9 -25 -7 -28 -95
-306 -179 -565 -26 -80 -51 -161 -56 -180 -6 -19 -19 -62 -30 -94 -16 -46 -17
-61 -8 -67 7 -4 -23 -7 -67 -7 -135 0 -248 -14 -374 -45 l-87 -22 9 30 c5 16
12 37 15 45 3 8 7 20 8 25 2 6 13 39 25 75 12 36 24 72 25 80 2 8 4 16 5 18 2
1 4 7 5 12 1 6 3 11 5 13 1 1 3 9 5 18 1 9 14 49 28 90 14 41 59 180 101 309
41 129 92 287 112 350 21 63 39 120 40 125 1 6 28 89 59 185 32 96 75 231 97
300 22 69 43 134 48 145 9 24 113 345 116 361 1 6 45 146 99 310 53 164 117
362 142 439 25 77 57 178 73 225 86 264 147 462 154 505 5 28 8 51 21 160 5
45 6 307 1 345 -2 14 -7 57 -11 95 -19 189 -127 549 -225 749 -107 220 -261
429 -432 591 -85 80 -96 90 -178 156 -125 100 -338 229 -379 229 -16 0 66
-196 119 -284 174 -289 291 -630 336 -981 11 -78 11 -414 1 -485 -23 -167 -12
-130 -282 -924 -63 -187 -115 -342 -115 -345 -1 -7 -25 41 -69 139 -57 126
-151 331 -186 405 -18 39 -105 228 -193 420 -181 398 -320 700 -364 795 -17
36 -52 112 -78 170 -26 58 -69 149 -94 203 -25 55 -46 100 -46 102 0 2 -17 41
-39 87 -21 45 -89 193 -151 328 -62 135 -128 279 -147 320 -20 41 -55 120 -80
175 -25 55 -65 142 -89 194 -24 51 -44 96 -44 100 0 11 -45 63 -50 57z m2525
-6456 c3 -6 -1 -7 -9 -4 -18 7 -21 14 -7 14 6 0 13 -4 16 -10z m105 -24 c78
-20 213 -66 223 -76 5 -4 -62 14 -148 41 -87 27 -161 51 -164 55 -3 4 3 4 14
1 11 -4 45 -13 75 -21z m-2164 -37 c46 -24 67 -29 96 -25 21 3 38 4 38 3 0 -2
-11 -31 -24 -65 -14 -34 -22 -62 -19 -62 3 0 1 -6 -4 -12 -5 -7 -38 -100 -73
-207 -35 -107 -66 -189 -67 -184 -2 6 0 35 5 65 13 85 6 366 -12 486 -3 17 -3
32 -2 32 2 0 30 -14 62 -31z m2464 -69 c46 -25 34 -25 -21 0 -24 11 -37 19
-29 19 8 0 31 -8 50 -19z m-760 -309 c0 -4 -13 -8 -29 -7 -16 1 -27 4 -24 9 6
10 53 9 53 -2z m-384 -69 c-4 -7 -11 -77 -21 -222 -3 -30 -7 -82 -11 -115 -3
-33 -7 -77 -7 -97 -1 -21 -3 -38 -5 -38 -4 0 -170 86 -427 220 -304 159 -427
220 -445 220 -20 0 -34 13 -24 23 4 3 101 -41 216 -99 132 -66 228 -108 258
-113 49 -8 50 -7 127 50 121 91 366 214 339 171z m1023 -124 c39 -24 45 -28
141 -114 104 -92 192 -208 258 -339 36 -72 88 -217 96 -269 4 -21 8 -42 11
-45 4 -7 12 -69 21 -151 5 -59 4 -280 -2 -280 -2 0 -20 10 -41 21 -21 12 -67
38 -103 57 -68 36 -464 251 -585 317 -38 21 -113 61 -165 88 -92 48 -140 77
-129 77 3 0 70 -34 149 -76 161 -85 229 -103 231 -62 1 13 2 34 4 48 1 14 5
57 9 95 3 39 8 88 10 110 3 22 8 72 11 110 4 39 8 84 10 100 3 17 7 64 10 105
3 41 7 85 9 98 3 12 6 47 8 77 2 30 5 55 7 55 2 0 20 -10 40 -22z m-2053 -345
c90 -49 164 -91 164 -94 0 -4 -60 25 -132 63 -119 61 -208 96 -208 80 0 -3 -2
-3 -5 0 -6 6 4 38 13 38 3 0 79 -39 168 -87z m235 -130 c13 -17 13 -17 -6 -3
-11 8 -22 16 -24 17 -2 2 0 3 6 3 6 0 17 -8 24 -17z m109 -64 c0 -4 -9 -5 -20
-2 -11 3 -20 12 -20 19 0 12 4 12 20 2 11 -7 20 -16 20 -19z m61 -26 c13 -16
12 -17 -3 -4 -17 13 -22 21 -14 21 2 0 10 -8 17 -17z m1028 -7 c10 -12 8 -13
-8 -9 -12 3 -21 9 -21 14 0 14 16 11 29 -5z m106 -59 c16 -15 -48 20 -70 38
-11 9 -2 7 20 -6 22 -12 45 -26 50 -32z m-1055 17 c0 -2 -9 0 -20 6 -11 6 -20
13 -20 16 0 2 9 0 20 -6 11 -6 20 -13 20 -16z m155 -82 c-5 -5 -103 47 -110
58 -3 6 21 -4 54 -22 32 -18 58 -34 56 -36z m186 -96 c48 -25 94 -46 103 -46
9 0 16 -7 16 -15 0 -15 -63 15 -213 102 -32 18 -62 33 -68 33 -5 0 -9 5 -9 11
0 6 19 0 43 -14 23 -14 81 -46 128 -71z m-431 -293 c168 -89 296 -158 375
-200 44 -24 108 -57 143 -75 34 -18 62 -35 62 -38 0 -3 -16 -5 -37 -5 -41 0
-39 4 -48 -110 -3 -38 -7 -92 -9 -120 -3 -27 -7 -84 -11 -125 -3 -41 -8 -88
-10 -105 -4 -31 -18 -191 -18 -212 0 -7 -5 -13 -10 -13 -14 0 -107 54 -107 63
0 4 -5 7 -11 7 -29 0 -183 140 -260 236 -27 34 -49 65 -49 70 0 4 -6 15 -14
23 -30 35 -86 152 -119 251 -45 135 -65 241 -71 379 l-4 81 56 -31 c32 -17 95
-52 142 -76z m997 -4 c73 -40 75 -42 38 -37 -28 4 -73 26 -113 55 -36 26 16
13 75 -18z m543 -302 c25 -13 108 -59 185 -102 77 -42 168 -93 203 -112 38
-21 72 -33 84 -30 13 4 18 1 14 -8 -3 -8 16 -24 52 -43 31 -16 102 -54 157
-83 201 -106 215 -111 256 -88 20 10 20 10 3 -23 -9 -18 -18 -34 -19 -36 -3
-3 -168 82 -190 98 -5 4 -50 29 -100 55 -49 26 -112 60 -140 75 -354 196 -515
280 -537 280 -19 0 -25 5 -23 18 1 9 -3 24 -9 32 -9 12 -8 13 4 4 8 -7 35 -23
60 -37z m-610 -157 c0 -5 -7 -7 -15 -4 -8 4 -15 8 -15 10 0 2 7 4 15 4 8 0 15
-4 15 -10z m747 -432 c35 -17 62 -32 60 -34 -1 -1 -17 -4 -35 -7 -18 -3 -61
-24 -95 -46 -58 -38 -199 -108 -236 -117 -9 -2 -39 -10 -66 -18 -68 -19 -112
-25 -230 -31 -55 -3 -112 -8 -127 -10 -21 -3 -26 -1 -21 10 3 10 21 15 57 16
72 1 114 6 252 35 152 30 186 44 189 75 6 55 17 195 17 209 -1 39 9 39 90 -5
46 -25 111 -59 145 -77z m667 -399 c-3 -94 0 -89 -46 -87 -24 1 -79 -2 -123
-6 -119 -11 -163 -18 -313 -52 -229 -50 -446 -139 -613 -251 -23 -15 -53 -36
-68 -45 -14 -10 -65 -54 -114 -99 l-89 -82 -54 26 -53 26 4 43 c3 24 7 79 11
123 3 44 8 82 11 85 2 3 26 6 51 6 46 2 141 10 192 18 14 1 50 6 80 10 30 4
100 19 155 33 55 14 111 27 124 29 45 9 206 66 251 90 25 13 52 24 62 24 9 0
18 3 20 8 2 4 41 30 86 57 46 28 120 80 165 117 l82 67 90 -49 90 -48 -1 -43z
m-36 -526 c-2 -14 -16 -18 -66 -19 -58 -2 -97 -6 -178 -20 -56 -9 -134 -37
-135 -48 -1 -6 -3 -20 -4 -31 -1 -11 -6 -69 -10 -130 -4 -60 -9 -128 -10 -150
-2 -22 -4 -64 -6 -93 -2 -48 -4 -52 -23 -46 -12 4 -24 11 -27 16 -3 5 -9 9
-13 8 -11 -3 -426 203 -426 212 0 4 6 8 14 8 8 0 41 21 73 48 80 65 105 82
200 130 147 76 299 112 496 116 53 2 100 6 104 9 11 11 15 8 11 -10z m636
-209 c70 -51 71 -51 164 -144 97 -96 166 -194 227 -323 46 -96 91 -238 101
-316 3 -25 7 -48 10 -53 7 -11 7 -276 -1 -287 -3 -6 -21 -2 -43 11 -20 11 -71
39 -112 61 -41 22 -77 43 -80 46 -3 3 -25 17 -50 29 -95 50 -211 112 -233 125
-12 8 -53 31 -91 52 -63 34 -68 39 -51 51 9 7 19 28 21 46 2 18 6 58 9 88 12
110 16 146 20 175 3 17 7 59 10 95 3 36 7 83 10 105 2 22 7 75 11 118 3 43 7
86 9 95 2 9 4 27 4 40 1 12 4 22 7 22 4 0 30 -16 58 -36z m-1080 -799 c-3 -7
-12 -11 -20 -8 -17 6 -18 20 -1 26 18 6 27 -1 21 -18z m-688 -188 c44 -24 122
-66 174 -94 125 -65 142 -75 160 -84 119 -61 301 -159 309 -165 2 -2 -2 -11
-9 -19 -8 -9 -14 -26 -16 -38 -1 -12 -5 -56 -9 -97 -14 -154 -16 -176 -21
-220 -2 -25 -6 -65 -9 -90 -2 -25 -7 -72 -10 -105 -4 -33 -7 -68 -7 -77 1 -10
-2 -18 -6 -18 -24 0 -202 108 -202 122 0 5 -6 8 -12 8 -17 1 -110 89 -169 160
-158 191 -249 431 -264 693 -2 37 0 67 4 67 5 0 44 -19 87 -43z m1051 -24 c-3
-3 -11 -2 -17 2 -9 6 -9 10 1 16 14 8 27 -7 16 -18z m63 -52 c0 -5 -7 -11 -15
-15 -9 -3 -15 0 -15 9 0 8 7 15 15 15 8 0 15 -4 15 -9z m1105 -284 c-26 -70
-85 -190 -108 -219 -15 -19 -37 -24 -37 -10 0 5 11 19 24 31 13 13 50 78 82
146 32 68 59 123 61 122 1 -2 -9 -33 -22 -70z m421 -283 c-61 -151 -94 -207
-116 -194 -12 7 -11 12 4 29 21 23 43 60 93 158 20 40 38 71 40 69 2 -1 -8
-29 -21 -62z m-1031 -209 c44 -25 102 -54 128 -66 45 -21 47 -23 30 -38 -16
-14 -147 -84 -162 -87 -4 0 -13 -4 -21 -7 -21 -9 -132 -47 -138 -47 -3 0 7 11
22 25 14 13 27 34 27 47 2 25 6 62 13 123 2 22 5 52 5 68 1 15 4 27 9 27 4 0
43 -20 87 -45z m-605 -315 c0 -5 -5 -10 -11 -10 -5 0 -7 5 -4 10 3 6 8 10 11
10 2 0 4 -4 4 -10z m1246 -19 c5 -5 54 -32 109 -61 55 -28 107 -55 115 -60 14
-9 276 -145 605 -315 86 -44 167 -94 189 -116 37 -35 40 -42 42 -101 5 -126
27 -191 80 -245 48 -48 96 -64 168 -58 110 10 163 39 172 95 5 28 15 46 35 60
15 11 30 34 34 50 9 41 -20 135 -48 155 -22 16 -21 17 13 10 72 -14 208 -89
281 -155 135 -122 144 -142 70 -157 -88 -18 -174 12 -257 89 -24 22 -44 39
-45 37 0 -2 -2 -11 -4 -19 -1 -8 -8 -40 -14 -71 -25 -118 22 -213 142 -292 64
-41 122 -58 210 -62 72 -4 120 7 150 33 16 14 17 12 18 -34 1 -27 3 -67 5 -89
6 -71 5 -288 -1 -340 -11 -92 -55 -239 -98 -325 -31 -64 -61 -104 -119 -164
-70 -71 -80 -78 -105 -71 -63 16 -98 21 -218 30 -78 6 -110 9 -197 21 -62 7
-139 49 -167 89 -16 24 -25 54 -29 100 -2 36 -3 65 0 65 3 0 16 -9 29 -21 13
-11 34 -29 46 -39 100 -86 282 -137 386 -109 23 6 47 12 52 13 34 6 144 78
194 127 99 97 137 208 111 320 -21 88 -56 156 -109 212 -124 131 -257 138
-378 21 -49 -49 -55 -58 -49 -85 4 -22 0 -36 -14 -51 -22 -24 -24 -36 -11 -90
5 -21 5 -38 1 -38 -5 0 -27 21 -49 46 -54 62 -110 181 -156 329 -47 155 -67
210 -117 320 -138 304 -366 554 -614 674 -66 33 -160 71 -184 76 -8 2 -33 8
-55 13 -74 19 -109 24 -208 27 -105 2 -179 -7 -240 -30 -55 -22 -55 -19 4 22
68 46 146 109 179 144 28 31 32 33 46 20z m-395 -276 c-30 -19 -75 -42 -100
-52 -25 -9 -50 -20 -56 -24 -15 -10 -118 -40 -123 -35 -2 3 11 9 30 14 51 14
209 83 248 108 19 13 40 23 45 23 6 0 -14 -15 -44 -34z m-341 -129 c0 -2 -7
-7 -16 -10 -8 -3 -12 -2 -9 4 6 10 25 14 25 6z m-325 -56 c3 -5 1 -10 -4 -10
-6 0 -11 5 -11 10 0 6 2 10 4 10 3 0 8 -4 11 -10z m-70 -11 c-104 -17 -133
-19 -138 -6 -3 9 21 12 92 13 82 1 89 0 46 -7z m1197 -15 c107 -9 285 -65 304
-96 5 -7 3 -8 -5 -4 -20 13 -97 -3 -134 -28 -25 -17 -44 -22 -73 -20 -115 11
-252 10 -293 -1 -25 -7 -53 -14 -61 -16 -8 -2 -17 -7 -20 -10 -3 -3 -18 -12
-35 -21 -16 -8 -61 -31 -100 -51 -68 -34 -189 -84 -230 -93 -53 -13 -73 -16
-115 -18 -54 -3 -72 2 -63 18 4 6 1 6 -9 -2 -26 -21 -138 23 -248 99 -52 36
-160 131 -160 141 0 3 22 -1 48 -7 46 -12 75 -17 192 -32 76 -9 201 -6 232 6
28 11 43 4 29 -13 -35 -43 -6 -129 48 -141 68 -15 118 21 132 94 l6 36 18 -43
c17 -40 20 -42 49 -36 86 18 151 75 197 172 27 57 32 62 62 63 85 3 139 8 144
13 3 3 9 3 14 1 4 -3 36 -8 71 -11z m-1368 -130 c22 -88 127 -258 208 -336 32
-31 58 -58 58 -61 0 -2 -14 -4 -30 -5 -17 0 -43 -7 -59 -15 -27 -14 -31 -13
-49 7 -30 34 -82 118 -82 133 0 8 -6 24 -14 36 -8 12 -17 40 -22 62 -4 22 -8
42 -9 45 -5 17 -15 82 -18 122 -4 50 6 57 17 12z m1796 -43 c137 -109 254
-277 317 -452 37 -108 32 -171 -29 -309 -19 -43 -23 -46 -106 -78 -48 -18 -90
-32 -94 -32 -4 0 6 29 23 64 39 83 41 92 41 217 -1 125 -27 220 -93 331 -43
73 -40 70 -118 150 l-54 56 22 30 c11 17 21 40 21 52 0 24 5 23 70 -29z m848
-16 c1 -20 4 -40 7 -45 4 -6 2 -10 -3 -10 -17 0 -33 50 -22 71 15 26 17 24 18
-16z m-1238 -179 c34 -5 76 -20 100 -34 63 -38 100 -66 100 -75 0 -5 -6 -5
-14 2 -7 6 -47 23 -87 38 -63 22 -91 26 -184 27 -95 0 -122 -4 -193 -28 -46
-15 -104 -40 -130 -54 -123 -68 -285 -212 -351 -312 -20 -30 -39 -57 -42 -60
-6 -5 -48 -121 -54 -150 -2 -8 -8 -35 -14 -60 -14 -64 -7 -186 17 -250 26 -73
81 -165 132 -219 22 -24 39 -46 37 -48 -7 -7 -113 114 -140 160 -83 141 -112
387 -72 600 7 34 -5 34 -45 0 -45 -37 -75 -89 -95 -164 -19 -68 -30 -90 -31
-61 -1 9 -13 66 -28 126 -38 154 -35 219 9 256 10 8 29 32 42 53 13 21 28 35
34 32 29 -18 200 -25 264 -11 38 9 151 54 190 76 120 67 187 102 234 120 96
37 225 52 321 36z m-1427 -714 c32 -81 62 -155 68 -164 14 -26 12 -34 -18 -81
-33 -50 -41 -57 -69 -57 -25 0 -39 39 -58 160 -12 77 -14 215 -3 255 3 11 6
23 6 28 3 27 23 -12 74 -141z m894 65 c-39 -38 -69 -79 -79 -107 -23 -61 -45
-159 -43 -193 4 -58 -16 -8 -21 54 -5 61 -4 67 32 126 21 35 60 84 87 110 27
27 54 53 60 60 7 7 15 12 19 13 4 0 -20 -28 -55 -63z m-1458 -27 l31 -50 -33
0 c-17 0 -42 3 -54 6 l-22 6 22 44 c12 24 23 44 24 44 1 0 15 -22 32 -50z
m3454 -25 c9 -8 13 -24 10 -35 -6 -22 -23 -28 -23 -7 0 6 -3 22 -6 35 -7 26
-1 28 19 7z m-523 -198 c18 -35 43 -77 56 -92 l24 -28 -52 -29 c-86 -46 -133
-104 -164 -206 -26 -86 -30 -182 -10 -237 5 -12 -6 -6 -27 17 -69 76 -71 152
-5 358 11 36 36 99 54 142 25 55 34 89 32 122 0 26 -5 49 -9 52 -5 3 1 20 13
38 l22 34 17 -53 c9 -30 31 -83 49 -118z m-994 51 c13 -6 24 -15 24 -20 0 -4
5 -8 10 -8 6 0 33 -13 61 -29 l50 -28 -93 -46 c-105 -52 -161 -70 -141 -46 21
26 27 134 9 169 l-16 32 36 -7 c20 -3 47 -11 60 -17z m-277 -55 c-4 -21 -8
-39 -9 -40 0 -2 0 -13 0 -25 -1 -18 -2 -20 -9 -8 -21 37 -21 57 0 83 11 15 22
27 24 27 1 0 -1 -17 -6 -37z m1031 -27 c0 -4 -109 -100 -171 -150 -36 -30
-202 -136 -212 -136 -5 0 -21 -8 -35 -19 -49 -34 -219 -96 -322 -117 -14 -2
-32 -7 -42 -10 -9 -3 -19 0 -23 6 -4 6 -3 10 2 9 14 -4 67 13 123 39 118 55
225 135 351 264 48 48 89 88 93 88 3 0 4 -11 2 -25 -4 -23 -3 -24 37 -19 55 7
136 34 167 56 27 19 30 20 30 14z m-1971 -238 c47 -157 86 -298 102 -373 11
-49 22 -99 25 -110 2 -11 7 -33 10 -49 2 -16 7 -33 10 -38 3 -4 1 -8 -3 -8
-12 0 -104 143 -130 200 -53 117 -61 138 -72 186 -11 46 -10 55 10 93 12 23
24 62 27 87 2 24 6 44 8 44 2 0 7 -15 13 -32z m851 -170 c0 -15 -105 29 -108
46 -3 13 6 11 52 -11 31 -16 56 -31 56 -35z m-351 -293 c92 -98 256 -200 362
-223 66 -15 117 -17 187 -7 51 6 54 6 47 -14 -13 -40 -8 -126 8 -157 14 -28
57 -64 82 -71 37 -9 55 -9 90 4 75 26 106 71 109 160 1 29 5 55 8 58 6 6 43
-77 52 -115 10 -46 17 -95 22 -145 3 -27 7 -61 10 -74 l5 -24 18 29 c10 16 21
43 25 59 27 110 154 303 247 375 24 19 55 45 69 57 45 42 43 24 -3 -24 -25
-27 -59 -66 -75 -88 -40 -56 -96 -197 -128 -320 -2 -5 -9 -33 -17 -62 -8 -28
-12 -54 -9 -57 3 -3 1 -7 -4 -7 -5 -1 -20 -3 -34 -5 -61 -9 -292 -10 -365 -2
-105 11 -141 24 -182 64 -37 37 -42 71 -18 118 14 27 14 29 -15 56 -29 27 -51
31 -101 15 -27 -9 -125 -71 -134 -85 -9 -14 -58 13 -96 53 -30 31 -109 141
-109 151 0 3 -14 26 -31 51 -29 42 -41 73 -53 135 -3 14 -14 59 -25 100 -25
92 -25 91 0 60 12 -14 38 -43 58 -65z m2131 -162 c0 -6 -54 -51 -139 -115 -42
-32 -80 -61 -86 -65 -40 -33 -313 -178 -320 -171 -7 7 162 178 224 227 69 55
174 110 225 118 17 3 33 6 34 8 5 5 62 3 62 -2z m-604 -268 c16 -40 19 -101 3
-110 -6 -4 -12 -5 -13 -4 -6 7 -15 149 -10 149 3 0 12 -16 20 -35z m-208 -158
c11 -12 6 -16 -30 -25 -24 -6 -58 -14 -76 -17 -40 -7 -39 -5 33 84 l50 61 5
-44 c3 -24 11 -50 18 -59z m354 -1681 c17 -4 47 -29 78 -67 64 -77 65 -95 0
-30 -27 27 -69 62 -95 76 -47 28 -57 40 -27 32 9 -3 29 -8 44 -11z m-206 -358
c10 -29 13 -242 3 -226 -4 6 -11 39 -14 72 -4 34 -9 70 -11 81 -15 78 -15 95
0 95 8 0 18 -10 22 -22z"/>
<path d="M8115 6091 c-3 -5 -2 -12 3 -15 5 -3 9 1 9 9 0 17 -3 19 -12 6z"/>
<path d="M7865 5840 c-3 -6 1 -7 9 -4 18 7 21 14 7 14 -6 0 -13 -4 -16 -10z"/>
<path d="M8440 5720 c-9 -6 -10 -10 -3 -10 6 0 15 5 18 10 8 12 4 12 -15 0z"/>
<path d="M3979 17788 c-15 -9 -36 -34 -46 -55 -17 -34 -19 -48 -14 -104 2 -29
129 -193 163 -211 110 -60 238 56 192 171 -13 32 -94 151 -121 179 -21 21 -81
42 -114 40 -17 -1 -44 -10 -60 -20z"/>
<path d="M3520 16447 c-50 -23 -78 -72 -76 -132 2 -51 7 -59 87 -142 76 -78
90 -88 141 -92 102 -7 175 107 127 199 -30 58 -142 166 -179 173 -45 9 -71 8
-100 -6z"/>
<path d="M6313 12955 c0 -8 4 -12 9 -9 5 3 6 10 3 15 -9 13 -12 11 -12 -6z"/>
<path d="M10202 974 c-125 -64 -94 -246 44 -262 84 -9 154 51 154 134 0 101
-110 172 -198 128z m117 -18 c113 -59 66 -232 -61 -229 -95 2 -151 108 -99
187 36 54 102 71 160 42z"/>
<path d="M10232 919 c-26 -10 -52 -62 -45 -90 12 -45 95 -71 126 -40 18 18 -8
38 -28 21 -12 -10 -19 -9 -40 4 -30 20 -32 39 -5 66 16 16 25 18 44 10 17 -6
27 -6 32 1 15 25 -43 44 -84 28z"/>
</g>
</svg>
