<?xml version="1.0" standalone="no"?>
<!DOCTYPE svg PUBLIC "-//W3C//DTD SVG 20010904//EN"
 "http://www.w3.org/TR/2001/REC-SVG-20010904/DTD/svg10.dtd">
<svg version="1.0" xmlns="http://www.w3.org/2000/svg"
 width="1504.000000pt" height="1504.000000pt" viewBox="0 0 1504.000000 1504.000000"
 preserveAspectRatio="xMidYMid meet">
<metadata>
Created by potrace 1.14, written by Peter Selinger 2001-2017
</metadata>
<g transform="translate(0.000000,1504.000000) scale(0.100000,-0.100000)"
fill="#000000" stroke="none">
<path d="M768 12270 c-84 -31 -152 -95 -192 -180 l-21 -45 -3 -4472 c-2 -4323
-1 -4474 16 -4521 38 -100 120 -178 217 -207 62 -19 170 -13 227 13 89 39 154
117 187 221 8 24 11 1313 11 4481 l0 4446 -21 62 c-27 80 -91 152 -167 188
-72 35 -182 41 -254 14z"/>
<path d="M11351 12277 c-6 -6 -11 -8 -11 -4 0 13 -95 -45 -132 -81 -21 -19
-50 -60 -65 -91 l-28 -56 -2 -4470 -3 -4470 22 -58 c85 -230 387 -290 550
-109 33 37 45 58 77 135 16 40 16 8887 0 8969 -7 32 -16 58 -20 58 -5 0 -9 6
-9 14 0 27 -91 115 -147 143 -46 22 -72 27 -139 29 -48 1 -87 -3 -93 -9z"/>
<path d="M13983 11835 c-87 -27 -163 -93 -205 -182 l-23 -48 0 -4040 c0 -2222
3 -4049 7 -4060 49 -150 200 -248 356 -231 51 6 143 41 150 59 2 4 9 7 15 7
22 1 92 104 109 160 17 52 18 286 18 4065 l0 4010 -22 58 c-23 62 -79 134
-131 166 -76 47 -190 62 -274 36z"/>
<path d="M6110 11736 c-3 -2 -17 -6 -30 -9 -97 -15 -202 -114 -239 -227 -10
-27 -11 -7860 -2 -7878 5 -9 16 -34 25 -55 43 -101 179 -189 291 -188 47 1
150 27 173 44 63 48 119 117 140 172 l22 60 0 3900 0 3900 -21 62 c-41 124
-154 210 -288 220 -36 3 -68 2 -71 -1z"/>
<path d="M3400 11387 c-78 -30 -159 -113 -188 -192 l-22 -60 0 -3575 c0 -3532
0 -3576 20 -3629 34 -94 133 -188 215 -207 174 -39 324 30 397 184 l23 47 3
3592 c1 2650 -1 3599 -9 3620 -46 113 -98 173 -186 214 -68 32 -179 35 -253 6z"/>
<path d="M8786 10643 c-3 -4 -19 -7 -34 -8 -15 -1 -32 -4 -37 -7 -6 -3 -27
-11 -48 -18 -58 -18 -149 -113 -175 -180 l-21 -55 0 -2808 c-1 -2784 -1 -2808
19 -2864 60 -172 242 -261 415 -203 80 26 155 92 192 168 l28 57 3 2816 c2
2321 0 2823 -11 2860 -38 125 -140 212 -277 235 -14 3 -30 6 -37 9 -6 2 -14 1
-17 -2z"/>
</g>
</svg>
