<svg width="300" height="69" viewBox="0 0 300 69" fill="none" xmlns="http://www.w3.org/2000/svg">
<path d="M74.4572 0.380699C71.1864 1.108 67.9928 3.04748 66.1384 5.45163C62.8161 9.71444 62.5328 16.7652 65.4688 21.1493C65.9581 21.8766 67.0656 23.0079 68.1215 23.8161C71.0061 26.099 73.8649 26.9475 78.5522 26.9475C83.1881 26.9475 86.1757 26.0384 89.1375 23.6948C91.0691 22.1594 92.6144 19.9169 93.387 17.5532C94.0824 15.4723 94.0051 10.8458 93.284 8.70429C91.919 4.76473 88.7512 1.91612 84.3471 0.66354C82.3125 0.0776558 76.5691 -0.0839672 74.4572 0.380699ZM80.6126 1.20902C84.1668 2.03734 86.8711 4.64351 88.2618 8.56287C88.9572 10.6034 88.9057 16.5632 88.133 18.7249C87.3346 20.9877 86.0984 22.8261 84.5531 24.0585C82.8018 25.4727 81.2823 26.0182 78.9386 26.0182C74.8951 26.0586 71.6242 23.8565 69.7956 19.8967C68.7654 17.7148 68.4049 15.4521 68.5851 12.4216C68.8684 7.51232 70.8258 3.8354 74.1224 2.05754C76.2086 0.926178 78.2689 0.66354 80.6126 1.20902Z" fill="white"/>
<path d="M164.29 0.501858C162.436 1.00693 160.864 2.07768 159.989 3.39087C159.396 4.3 159.319 4.66365 159.293 6.34049C159.293 7.99713 159.396 8.42139 159.963 9.37093C160.89 10.9063 162.307 11.9771 165.809 13.755C172.351 17.0884 173.536 17.8157 174.386 19.1087C175.648 21.0482 175.158 23.5534 173.278 24.8261C170.703 26.5434 166.531 26.4828 163.929 24.6847C162.461 23.6746 161.354 21.8765 160.813 19.6138C160.401 17.9976 160.324 17.8561 159.757 17.8561H159.165V21.3715C159.165 23.2907 159.087 25.2908 159.01 25.8161L158.83 26.7454H159.654C160.324 26.7454 160.452 26.6646 160.452 26.2808C160.452 26.0181 160.607 25.6545 160.787 25.4524C161.096 25.109 161.277 25.1494 163.44 25.9575L165.732 26.8464H169.338C172.763 26.8464 173.021 26.8262 174.54 26.2606C176.626 25.513 178.507 23.9776 179.099 22.5432C179.743 21.028 179.588 18.3006 178.79 17.0278C177.657 15.2096 175.261 13.6943 168.359 10.3609C167.097 9.75478 165.603 8.92647 165.037 8.5022C160.555 5.12832 164.135 0.0775967 170.291 1.06754C173.381 1.57261 175.545 3.79493 176.292 7.18902C176.42 7.83551 176.549 7.95673 177.064 7.95673H177.708V5.6738C177.708 4.40102 177.785 2.66357 177.888 1.81505L178.043 0.23922L177.322 0.32003C176.729 0.360437 176.523 0.52206 176.369 1.04733C176.24 1.41099 175.983 1.75444 175.777 1.81505C175.596 1.87565 174.566 1.53221 173.536 1.04733L171.656 0.178612L168.694 0.138205C166.273 0.0977993 165.475 0.158407 164.29 0.501858Z" fill="white"/>
<path d="M195.247 0.380699C191.977 1.108 188.783 3.04748 186.929 5.45163C183.606 9.71444 183.323 16.7652 186.259 21.1493C186.748 21.8766 187.856 23.0079 188.912 23.8161C191.796 26.099 194.655 26.9475 199.342 26.9475C203.978 26.9475 206.966 26.0384 209.928 23.6948C211.859 22.1594 213.405 19.9169 214.177 17.5532C214.873 15.4723 214.795 10.8458 214.074 8.70429C212.709 4.76473 209.541 1.91612 205.137 0.66354C203.103 0.0776558 197.359 -0.0839672 195.247 0.380699ZM201.403 1.20902C204.957 2.03734 207.661 4.64351 209.052 8.56287C209.747 10.6034 209.696 16.5632 208.923 18.7249C208.125 20.9877 206.889 22.8261 205.343 24.0585C203.592 25.4727 202.072 26.0182 199.729 26.0182C195.685 26.0586 192.414 23.8565 190.586 19.8967C189.556 17.7148 189.195 15.4521 189.375 12.4216C189.659 7.51232 191.616 3.8354 194.913 2.05754C196.999 0.926178 199.059 0.66354 201.403 1.20902Z" fill="white"/>
<path d="M0 0.643341C0 0.966587 0.231793 1.0676 1.26199 1.16862C1.95737 1.24943 2.80728 1.47166 3.14209 1.67369L3.73445 2.05754V13.5126V24.9676L3.14209 25.3515C2.80728 25.5535 1.95737 25.7757 1.26199 25.8566C0.180284 25.9778 0 26.0586 0 26.4222V26.8667L7.93248 26.8061C13.7273 26.7455 16.3543 26.6445 17.7708 26.4222C23.3596 25.5131 27.4031 22.6039 29.2832 18.1593C29.9013 16.6844 29.9786 16.24 29.9786 13.3106C30.0044 9.75485 29.7211 8.52247 28.3303 6.17893C27.4804 4.76473 25.4973 3.00708 23.7202 2.11815C23.0763 1.79491 21.6083 1.26963 20.4751 0.946384L18.4147 0.380703L9.22023 0.320095C0.231793 0.259485 0 0.259485 0 0.643341ZM15.5559 1.39085C21.5825 2.23937 24.2353 4.96676 24.9822 11.1488C25.1367 12.5024 25.1367 14.0783 24.9822 15.5935C24.261 22.4019 21.325 25.1495 14.1652 25.7959C12.182 25.9576 11.4866 25.9576 10.5595 25.7151C8.5506 25.2303 8.62786 25.6949 8.62786 13.4116C8.62786 4.78493 8.70513 2.50201 8.96268 2.13836C9.70957 1.10801 11.8472 0.865572 15.5559 1.39085Z" fill="white"/>
<path d="M31.1633 0.64344C31.1633 0.865671 31.4724 1.0879 32.0132 1.24953C32.5026 1.39095 33.1465 1.71419 33.4555 1.97683C33.8161 2.25967 35.7734 5.9366 38.1429 10.7247C46.642 27.7759 46.0754 26.7456 46.6935 26.7456C47.2086 26.7456 47.6979 25.8769 51.0976 19.0079C58.7467 3.61327 59.03 3.08799 59.8284 2.36069C60.2405 1.97683 60.9359 1.53237 61.3222 1.37074C61.76 1.20912 62.0691 0.906076 62.0691 0.683846C62.0691 0.29999 61.8888 0.279787 57.4332 0.279787C53.0549 0.279787 52.7974 0.29999 52.7974 0.663643C52.7974 0.966686 53.0549 1.0879 54.1366 1.18892C55.1153 1.31013 55.6819 1.49196 56.2228 1.93642C57.5105 2.94657 57.2787 3.69408 52.6686 13.048C50.4279 17.5937 48.5221 21.2908 48.4191 21.2908C48.1615 21.2908 39.4049 3.00718 39.4049 2.4415C39.4049 1.7546 40.1003 1.35054 41.5425 1.18892C42.4954 1.0677 42.753 0.966686 42.753 0.663643C42.753 0.29999 42.4697 0.279787 36.9582 0.279787C31.5497 0.279787 31.1633 0.29999 31.1633 0.64344Z" fill="white"/>
<path d="M97.8683 0.66354C97.8683 0.966583 98.1258 1.0676 99.1303 1.16861C99.8257 1.24942 100.676 1.47166 101.01 1.67369L101.603 2.05754V13.5126V24.9676L101.01 25.3515C100.676 25.5535 99.8257 25.7757 99.1303 25.8566C98.0228 25.9778 97.8683 26.0384 97.8683 26.4626V26.9475H104.049H110.231V26.4626C110.231 26.0586 110.05 25.9778 108.891 25.8161C107.913 25.6747 107.449 25.4929 107.037 25.0686C106.522 24.5232 106.496 24.1999 106.419 19.2502L106.316 14.0177H109.329C114.377 14.0177 114.738 14.3611 116.541 20.725C117.545 24.2605 117.957 25.1899 118.807 25.897C119.76 26.7051 120.636 26.9475 122.67 26.9475C124.293 26.9475 124.705 26.8667 125.735 26.3616C126.379 26.0384 127.1 25.5535 127.332 25.3111C127.718 24.8666 127.718 24.806 127.306 24.5636C126.92 24.3413 126.739 24.4019 126.018 25.008C125.014 25.8364 124.344 26.0384 123.623 25.7353C122.85 25.4121 122.464 24.604 121.279 20.725C120.713 18.8664 120.017 16.9875 119.76 16.543C119.039 15.3712 117.751 14.4823 116.128 14.0379C115.021 13.7146 114.841 13.6136 115.253 13.5126C115.536 13.4318 116.592 13.0681 117.622 12.6843C120.816 11.4923 122.593 9.35079 122.593 6.70421C122.593 4.98696 122.155 4.03742 120.842 2.88586C118.163 0.542322 116.747 0.279686 106.058 0.279686C98.2289 0.279686 97.8683 0.299889 97.8683 0.66354ZM113.45 1.51206C114.892 1.83531 116.721 3.35052 117.21 4.64351C117.648 5.85568 117.648 8.34064 117.21 9.57302C116.798 10.7044 114.918 12.1792 113.45 12.563C112.883 12.7247 111.055 12.8863 109.355 12.9469L106.316 13.0681L106.419 7.93658C106.496 4.66371 106.651 2.60302 106.831 2.23937C107.295 1.39084 108.479 1.0474 110.617 1.18882C111.621 1.22922 112.883 1.39084 113.45 1.51206Z" fill="white"/>
<path d="M127.847 1.33018C127.924 1.91606 128.002 3.69392 128.002 5.26974V8.15876H128.62C129.161 8.15876 129.238 8.03754 129.392 7.088C129.804 4.72426 130.345 3.28986 131.169 2.56256C132.303 1.57261 133.359 1.26957 136.295 1.12815L138.819 1.02714V12.6236C138.819 23.715 138.793 24.2403 138.329 24.8666C137.917 25.3716 137.557 25.5332 136.501 25.7151C135.78 25.8363 134.955 25.9373 134.698 25.9373C134.337 25.9373 134.183 26.0787 134.183 26.3818V26.8464H141.265C148.348 26.8464 148.348 26.8464 148.348 26.402C148.348 26.0383 148.168 25.9575 146.777 25.8363C145.721 25.7353 145 25.5535 144.536 25.2302L143.841 24.7655L143.764 12.8862L143.712 1.02714L146.21 1.14835C147.601 1.20896 149.095 1.35038 149.507 1.4918C151.387 2.05748 152.314 3.33027 152.906 6.13847C153.293 8.01734 153.37 8.15876 153.937 8.15876H154.529V5.14853C154.529 3.51209 154.606 1.73424 154.684 1.20896L154.864 0.279627H141.265H127.667L127.847 1.33018Z" fill="white"/>
<path d="M216.083 0.64344C216.083 0.865671 216.392 1.0879 216.933 1.24953C217.422 1.39095 218.066 1.71419 218.375 1.97683C218.736 2.25967 220.693 5.9366 223.063 10.7247C231.562 27.7759 230.995 26.7456 231.613 26.7456C232.128 26.7456 232.618 25.8769 236.017 19.0079C243.666 3.61327 243.95 3.08799 244.748 2.36069C245.16 1.97683 245.856 1.53237 246.242 1.37074C246.68 1.20912 246.989 0.906076 246.989 0.683846C246.989 0.29999 246.809 0.279787 242.353 0.279787C237.975 0.279787 237.717 0.29999 237.717 0.663643C237.717 0.966686 237.975 1.0879 239.056 1.18892C240.035 1.31013 240.602 1.49196 241.142 1.93642C242.43 2.94657 242.198 3.69408 237.588 13.048C235.348 17.5937 233.442 21.2908 233.339 21.2908C233.081 21.2908 224.325 3.00718 224.325 2.4415C224.325 1.7546 225.02 1.35054 226.462 1.18892C227.415 1.0677 227.673 0.966686 227.673 0.663643C227.673 0.29999 227.389 0.279787 221.878 0.279787C216.469 0.279787 216.083 0.29999 216.083 0.64344Z" fill="white"/>
<path d="M255.642 4.66334C254.432 7.08769 251.831 12.3404 249.822 16.3406C247.839 20.3408 245.881 23.9773 245.495 24.4016C245.109 24.846 244.362 25.3713 243.847 25.5935C243.177 25.8562 242.868 26.1188 242.868 26.4017C242.868 26.8461 242.945 26.8461 247.504 26.8663C252.114 26.8865 252.14 26.8865 252.14 26.4421C252.14 26.0784 251.959 25.9572 251.084 25.8562C248.586 25.5329 247.761 24.6844 248.277 22.8662C248.431 22.2803 249.101 20.7044 249.77 19.3711L250.981 16.9467H256.595H262.236L263.884 20.361C265.944 24.6238 266.047 24.9875 265.223 25.4117C264.914 25.5733 264.142 25.7754 263.549 25.8562C262.648 25.9572 262.442 26.0784 262.442 26.4219C262.442 26.8461 262.493 26.8461 268.108 26.8461C273.645 26.8461 273.774 26.8461 273.774 26.4219C273.774 26.139 273.465 25.9168 272.769 25.6542C272.203 25.4723 271.507 25.0279 271.25 24.6642C270.967 24.3006 268.082 18.6842 264.863 12.1586C259.583 1.53189 258.913 0.279314 258.398 0.279314C257.909 0.279314 257.574 0.824791 255.642 4.66334ZM259.377 10.9666C260.665 13.6536 261.669 15.8962 261.618 15.9568C261.54 15.9972 259.222 16.0174 256.492 15.9972L251.47 15.9366L254.046 10.7242C255.642 7.51195 256.698 5.63308 256.827 5.7947C256.93 5.95633 258.063 8.27966 259.377 10.9666Z" fill="white"/>
<path d="M237.614 26.9275C237.537 27.0285 236.713 28.6447 235.76 30.5034C234.833 32.3823 233.931 34.0187 233.777 34.1399C233.596 34.2813 231.278 34.8066 228.6 35.3117C218.942 37.1704 208.357 40.3018 208.357 41.312C208.357 41.6352 209 41.514 212.374 40.5038C214.203 39.9584 216.186 39.4533 216.804 39.3725C218.015 39.2109 218.272 38.8674 217.19 38.8472C216.572 38.8472 216.65 38.7866 217.706 38.4633C221.492 37.2512 233.21 34.847 233.648 35.1905C233.88 35.3925 228.857 47.1708 228.342 47.5951C227.518 48.3022 222.47 47.9587 221.105 47.1304C220.127 46.5243 220.281 45.9182 221.749 44.6656C223.423 43.2312 223.5 42.5443 221.878 43.5545C219.792 44.8475 219.122 46.5445 220.358 47.4536C221.389 48.2011 222.676 48.4436 225.535 48.4638C227.312 48.4638 228.188 48.5446 228.188 48.686C228.188 48.8072 228.007 49.3123 227.776 49.7972C226.127 53.4337 222.007 65.8383 222.007 67.1717C222.007 68.3636 222.393 68.4242 223.088 67.3333C223.629 66.4848 223.681 65.8585 223.191 65.9999C222.805 66.1211 222.754 66.2827 224.737 60.3835C226.179 56.1611 228.96 48.7264 229.192 48.5244C229.295 48.4436 230.583 48.1405 232.051 47.8375C240.164 46.2415 249.178 42.3221 252.062 39.1502C252.758 38.3421 252.912 38.0189 252.912 37.13C252.912 36.2208 252.784 35.938 252.14 35.3723C251.728 34.9884 250.749 34.4632 250.028 34.2005C248.817 33.7965 248.174 33.7157 244.671 33.6551C242.095 33.6147 239.777 33.6955 238.103 33.8773C236.687 34.0389 235.476 34.1399 235.425 34.0995C235.373 34.0591 235.991 32.5439 236.79 30.7458C237.588 28.9276 238.232 27.2911 238.232 27.0891C238.232 26.7255 237.846 26.6245 237.614 26.9275ZM249.075 34.6046C252.655 35.4935 253.221 37.2512 250.646 39.4937C248.251 41.5746 240.344 45.1101 234.884 46.5445C231.948 47.3122 229.476 47.7769 229.476 47.5749C229.476 47.4536 233.364 38.3421 234.498 35.7966C234.987 34.7258 234.833 34.7662 238.902 34.3218C242.353 33.9379 246.86 34.0591 249.075 34.6046Z" fill="white"/>
<path d="M259.325 29.0485C257.625 31.8971 256.08 35.0892 255.617 36.665C255.385 37.4933 254.458 39.9783 253.556 42.2006C249.847 51.2919 247.323 58.5447 247.066 60.767C246.911 62.0398 246.937 62.1408 247.401 62.06C247.736 62.0196 248.663 60.8479 250.414 58.1609C251.805 56.0396 254.02 53.0495 255.359 51.4939C257.806 48.6251 260.768 45.8573 261.154 46.0391C261.463 46.1805 261.283 47.0493 259.995 51.4939C258.218 57.575 258.063 59.1508 259.171 59.0296C259.686 58.969 260.896 57.8376 260.896 57.4336C260.896 57.0699 260.252 57.2719 259.686 57.7972C259.274 58.2013 259.119 58.2619 259.093 58.0396C259.093 57.5952 260.458 52.3828 261.283 49.7161C261.695 48.3827 261.926 47.1503 261.875 46.4836C261.798 45.5543 261.72 45.433 261.205 45.3724C260.768 45.3118 260.227 45.6149 259.016 46.5846C256.492 48.6049 253.402 52.3424 249.693 57.8578C248.431 59.7569 247.787 60.5448 247.89 60.0801C248.792 56.282 255.076 39.6954 255.745 39.3722C255.9 39.3116 256.003 39.0893 256.003 38.8873C256.003 38.6853 257.11 36.2003 258.45 33.3517C259.789 30.5031 260.896 27.9979 260.896 27.7555C260.896 26.9272 260.33 27.3919 259.325 29.0485Z" fill="white"/>
<path d="M282.556 31.4934C281.629 32.6248 279.362 36.1401 278.847 37.2916C278.719 37.5543 278.41 37.6553 277.714 37.6553C276.349 37.6553 269.988 38.1806 265.455 38.6856C263.369 38.9079 261.463 39.0493 261.205 39.0089C260.948 38.9483 261.051 38.9079 261.489 38.8877C262.467 38.8675 262.364 38.4634 261.36 38.4634C260.252 38.4634 258.321 39.0493 258.321 39.3927C258.321 39.7766 259.789 39.7564 263.343 39.3725C266.871 38.9887 277.045 38.0593 277.843 38.0593C278.59 38.0593 278.513 38.2816 277.096 40.6049C276.272 41.9989 275.757 42.5242 273.825 43.9384C271.533 45.6354 268.674 47.1507 267.799 47.1507C267.129 47.1507 266.691 46.3021 267.052 45.7769C267.438 45.2112 267.412 44.3222 267.026 44.3222C266.64 44.3222 264.373 47.0496 264.167 47.7567C264.09 48.0396 263.729 49.0295 263.369 49.9589C262.39 52.464 262.467 54.0196 263.601 54.0196C264.914 54.0196 266.897 51.3933 267.309 49.1507C267.412 48.5042 267.567 47.9386 267.618 47.8982C267.67 47.878 268.494 47.5749 269.421 47.2113C271.198 46.5446 274.675 44.4839 275.551 43.5545L276.092 43.0091L275.551 44.2212C273.207 49.6962 270.117 59.7168 270.065 62.0806C270.065 63.1311 270.142 63.7978 270.323 63.8584C270.503 63.8988 270.606 63.4746 270.632 62.6665C270.683 60.1613 272.563 53.8176 275.242 47.0496C276.967 42.6454 277.482 41.6959 279.337 39.5746L280.779 37.9179L284.642 37.7967C290.617 37.5947 298.704 37.6149 298.885 37.8573C299.168 38.221 300.095 38.0998 299.992 37.6957C299.915 37.3927 299.451 37.332 296.18 37.231C294.12 37.1502 289.948 37.1704 286.909 37.231C283.87 37.3118 281.346 37.3522 281.294 37.332C281.268 37.3118 281.68 36.6249 282.247 35.8168C284.333 32.7864 285.209 30.1802 284.127 30.1802C283.844 30.1802 283.251 30.6853 282.556 31.4934ZM266.82 48.5042C266.82 49.2315 265.79 51.4741 265.12 52.2418C264.502 52.9489 263.781 53.4135 263.369 53.4135C262.879 53.4135 263.42 51.1508 264.425 49.0093C264.811 48.2214 264.888 48.1608 265.815 48.1608C266.614 48.1608 266.82 48.2416 266.82 48.5042Z" fill="white"/>
<path d="M280.599 45.3528C279.646 46.5044 278.1 50.4237 278.049 51.7975C278.023 52.8481 278.049 52.9087 278.641 52.9087C279.568 52.9087 280.83 51.5147 281.552 49.7166C281.861 48.9287 282.247 48.2014 282.401 48.1206C282.53 48.0398 283.56 47.959 284.668 47.959C285.956 47.959 286.625 47.8782 286.522 47.757C286.445 47.6357 285.44 47.5549 284.333 47.5549C283.226 47.5549 282.221 47.4539 282.144 47.3529C282.067 47.2317 281.964 46.565 281.938 45.8377C281.912 45.0296 281.783 44.5245 281.603 44.5245C281.449 44.5245 280.985 44.8881 280.599 45.3528Z" fill="white"/>
</svg>
