<svg width="50" height="50" viewBox="0 0 50 50" fill="none" xmlns="http://www.w3.org/2000/svg">
<g clip-path="url(#clip0_1_224)">
<path fill-rule="evenodd" clip-rule="evenodd" d="M45.3885 14.6371L43.7545 16.2735C40.214 13.1831 35.6745 11.4547 30.9545 11.4547C27.7766 11.4547 24.6004 12.2729 21.877 13.7269L28.7757 6.81826C29.3204 7.18133 29.9553 7.36372 30.5919 7.36372C31.4991 7.36372 32.4081 7.00065 33.1332 6.2728C34.5851 4.8188 34.5851 2.54492 33.1332 1.09092C32.4064 0.363072 31.4991 0 30.5919 0C29.6847 0 28.7757 0.363072 28.0506 1.09092C26.8711 2.36423 26.6889 4.1813 27.506 5.54495L18.7911 14.2723L17.157 12.6359L12.7094 17.09L14.3434 18.7263L5.44638 27.6361C4.9017 27.273 4.26681 27.0906 3.63021 27.0906C2.72298 27.0906 1.81404 27.4537 1.08894 28.1816C-0.362979 29.6356 -0.362979 31.9095 1.08894 33.3634C1.81574 33.9993 2.72298 34.364 3.63021 34.364C4.53745 34.364 5.44638 34.001 6.17149 33.2731C7.35106 32.0918 7.53319 30.2731 6.71617 28.8191L13.6149 21.9105C9.98426 28.9111 10.8013 37.6385 16.1562 43.8192L14.5221 45.546L19.0617 50L23.5094 45.546L19.0617 41.0919L17.5179 42.638C12.2532 36.4555 11.9809 27.5475 16.4285 21.0019L17.1553 21.7298L21.6949 17.2758L20.8779 16.5479C23.7834 14.4564 27.3238 13.3655 30.9545 13.3655C35.2217 13.3655 39.2149 14.9115 42.483 17.6388L40.8489 19.1849L45.3885 23.6389L49.8362 19.1849L45.3885 14.6388V14.6371ZM20.9681 45.546L19.0617 47.4551L17.1553 45.546L19.0617 43.6368L20.9681 45.546V45.546ZM29.3204 2.45469C29.683 2.09162 30.1375 1.90923 30.5919 1.90923C31.0464 1.90923 31.4992 2.09162 31.8634 2.45469C32.5902 3.18254 32.5902 4.27346 31.8634 4.9996C31.5009 5.36268 31.0464 5.54506 30.5919 5.54506C30.1375 5.54506 29.6847 5.36268 29.3204 4.9996C28.5936 4.3638 28.5936 3.18083 29.3204 2.45469V2.45469ZM4.89998 31.9997C4.53742 32.3628 4.08296 32.5452 3.62849 32.5452C3.17402 32.5452 2.72125 32.3628 2.357 31.9997C1.99444 31.727 1.81232 31.2719 1.81232 30.7264C1.81232 30.2713 1.99444 29.8179 2.357 29.4531C2.71955 29.0883 3.17402 28.9077 3.62849 28.9077C4.08296 28.9077 4.53572 29.09 4.89998 29.4531C5.62678 30.181 5.62678 31.3622 4.89998 31.998V31.9997ZM17.0651 19.1815L15.1588 17.2724L17.0651 15.3633L18.9715 17.2724L17.0651 19.1815V19.1815ZM45.3885 21.0905L43.4821 19.1814L45.3885 17.2722L47.2949 19.1814L45.3885 21.0905V21.0905Z" fill="#333333"/>
</g>
<defs>
<clipPath id="clip0_1_224">
<rect width="50" height="50" fill="white"/>
</clipPath>
</defs>
</svg>
