<svg width="40" height="34" viewBox="0 0 40 34" fill="none" xmlns="http://www.w3.org/2000/svg">
<path d="M6.55762 25.979V14.4912H7.26546V25.2705H18.2905V25.979H6.55762Z" fill="white" stroke="white" stroke-width="0.00786369"/>
<path d="M18.3061 12.7712H6.63773L18.3061 5.39856V12.7712Z" fill="white" stroke="white" stroke-width="0.00786369"/>
<path d="M10.6244 8.8721V10.2513L9.01947 11.2695V8.8721H10.6244Z" fill="white" stroke="white" stroke-width="0.00786369"/>
<path d="M8.94382 23.5282V14.4912H18.3061V23.5282H8.94382Z" fill="white" stroke="white" stroke-width="0.00786369"/>
<path d="M18.0301 16.3628H16.4229V17.9759H18.0301V16.3628Z" fill="#504646" stroke="#F4F4F4" stroke-opacity="0.137255" stroke-width="0.00786369"/>
<path d="M18.0301 18.2343H16.4229V19.8519H18.0301V18.2343Z" fill="#504646" stroke="#F4F4F4" stroke-opacity="0.137255" stroke-width="0.00786369"/>
<path d="M23.7752 4.4873V25.979" stroke="white" stroke-width="0.495413"/>
<path d="M28.0846 6.87573V25.979" stroke="white" stroke-width="0.495413"/>
<path d="M18.9427 25.8387H33.3222" stroke="white" stroke-width="0.495413"/>
<path d="M18.9427 23.3878H31.5815" stroke="white" stroke-width="0.495413"/>
<path fill-rule="evenodd" clip-rule="evenodd" d="M19.2766 5.97976L35.0584 14.1124L35.1868 13.8629L19.2766 5.664V5.97976Z" fill="white"/>
<path fill-rule="evenodd" clip-rule="evenodd" d="M19.2766 7.78893L35.0584 15.9216L35.1868 15.672L19.2766 7.47318V7.78893Z" fill="white"/>
</svg>
