<svg width="90" height="92" viewBox="0 0 90 92" fill="none" xmlns="http://www.w3.org/2000/svg">
<rect x="1.5" y="1.5" width="87" height="87" rx="36.5" stroke="#28384E" stroke-width="3"/>
<path d="M45.5 54.657L16.5816 25.7385C17.0157 24.9529 17.6523 24.2979 18.4252 23.8416C19.1981 23.3852 20.0792 23.1442 20.9767 23.1435H70.0226C70.9203 23.1441 71.8015 23.3851 72.5745 23.8414C73.3475 24.2978 73.9842 24.9528 74.4184 25.7385L45.5 54.657ZM16.0249 27.3271C15.9776 27.6048 15.9535 27.886 15.9531 28.1677V62.8323C15.9522 63.763 16.2114 64.6755 16.7016 65.4667L35.4337 46.734L16.0249 27.3271ZM46.0357 56.264C45.9654 56.3345 45.8819 56.3904 45.79 56.4286C45.6981 56.4668 45.5995 56.4864 45.5 56.4864C45.4005 56.4864 45.3019 56.4668 45.21 56.4286C45.1181 56.3904 45.0346 56.3345 44.9643 56.264L36.5057 47.8053L17.6865 66.6238C18.5981 67.4191 19.767 67.8571 20.9767 67.8565H70.0226C71.2326 67.8572 72.4017 67.4192 73.3135 66.6238L54.4943 47.8053L46.0357 56.264ZM74.9751 27.3271L55.5656 46.734L74.2984 65.4667C74.7886 64.6755 75.0479 63.763 75.0469 62.8323V28.1677C75.0465 27.886 75.0225 27.6048 74.9751 27.3271Z" fill="#27374D"/>
</svg>
