<svg width="90" height="90" viewBox="0 0 90 90" fill="none" xmlns="http://www.w3.org/2000/svg">
<rect x="1.5" y="1.5" width="87" height="87" rx="36.5" stroke="#28384E" stroke-width="3"/>
<path d="M68.1796 57.1136L57.3216 51.5201C55.7966 50.7297 53.9056 51.1553 52.8686 52.4929L48.9036 57.6001C44.9996 55.5329 42.0716 53.5264 38.6556 50.1216C34.9956 46.4736 33.0436 43.4945 31.0916 39.7249L36.1546 35.7729C37.4966 34.7393 37.9236 32.8545 37.1306 31.3345L31.5186 20.5729C30.5426 18.6881 28.1026 18.08 26.3336 19.2352L19.4406 23.8561C17.8546 24.9505 16.9396 26.7744 17.0616 28.6592C17.1836 30.6048 17.4276 33.0977 17.9156 34.8001C19.9286 42.5217 24.7476 50.4865 31.5796 57.2353C38.3506 63.9841 46.3416 68.7872 54.0886 70.8544C55.7966 71.28 58.2976 71.5232 60.3106 71.7056C62.2626 71.8272 64.1536 70.9152 65.1906 69.2736L69.7046 62.2816C70.6806 60.4576 70.0096 58.0864 68.1796 57.1136Z" fill="#28384E"/>
<path d="M46.2193 36.5632C47.5613 36.928 48.9033 37.6577 49.9403 38.7521C51.0383 39.8465 51.7703 41.1232 52.1363 42.4608C52.4413 43.5552 53.4783 44.2849 54.6373 44.2241H54.8813C56.4673 44.1633 57.6263 42.6432 57.1993 41.1232C56.5893 38.9344 55.4303 36.8065 53.6613 35.1041C51.8923 33.3409 49.8183 32.1856 47.6223 31.5776C46.0973 31.152 44.5723 32.3073 44.5113 33.8881V34.1312C44.3893 35.2256 45.1213 36.2592 46.2193 36.5632Z" fill="#28384E"/>
<path d="M46.9514 27.8081C50.3064 28.4161 53.5394 29.9969 56.1014 32.5505C58.7244 35.1649 60.3104 38.3265 60.8594 41.6705C61.1034 42.8865 62.2014 43.7984 63.4824 43.7376H63.6654C65.1904 43.6768 66.2884 42.2785 65.9834 40.8193C65.1904 36.4417 63.1164 32.2464 59.7614 28.8416C56.3454 25.4368 52.1974 23.3697 47.7444 22.6401C46.2804 22.3969 44.8774 23.4913 44.8164 24.9505V25.1329C44.8164 26.4705 45.7314 27.5649 46.9514 27.8081Z" fill="#28384E"/>
<path d="M74.89 40.4545C73.975 33.9489 71.047 27.6865 66.045 22.7009C61.043 17.7153 54.76 14.7969 48.233 13.8849C46.769 13.7025 45.427 14.7361 45.366 16.2561V16.4992C45.305 17.8368 46.281 18.9312 47.562 19.1136C52.991 19.8432 58.176 22.3361 62.324 26.4705C66.472 30.6049 68.912 35.8337 69.705 41.1841C69.888 42.4609 70.986 43.4337 72.328 43.3729H72.572C73.975 43.2513 75.073 41.9137 74.89 40.4545Z" fill="#28384E"/>
</svg>
