<svg width="59.000000" height="51.000061" viewBox="0 0 59 51.0001" fill="none" xmlns="http://www.w3.org/2000/svg" xmlns:xlink="http://www.w3.org/1999/xlink">
	<desc>
			Created with Pixso.
	</desc>
	<defs/>
	<path d="M55.77 34.58L59 34.58L54.77 29.95C48.73 23.31 40.38 19.56 31.61 19.56L30.61 19.56L28.46 19.56L27.38 19.56C18.7 19.56 10.34 23.31 4.22 29.95L0 34.58L3.22 34.58C11.91 34.58 20.27 30.82 26.39 24.19L29.54 20.78C27.72 32.48 11.91 51 11.91 51L29.62 51L47.33 51C47.33 51 31.69 32.74 29.7 21.04L32.6 24.27C38.64 30.82 47 34.58 55.77 34.58Z" fill="#FFFFFF" fill-opacity="1.000000" fill-rule="nonzero"/>
	<path d="M26.89 12.75L29.45 9.95L32.02 12.75C36.98 18.25 43.93 21.3 51.13 21.3L53.78 21.3L50.31 17.46C45.34 11.96 38.39 8.9 31.19 8.9L30.36 8.9L28.54 8.9L27.72 8.9C20.52 8.9 13.65 11.96 8.6 17.46L5.13 21.39L7.77 21.39C14.97 21.39 21.92 18.25 26.89 12.75Z" fill="#FFFFFF" fill-opacity="1.000000" fill-rule="nonzero"/>
	<path d="M27.39 3.14L29.45 0.87L31.52 3.14C35.58 7.59 41.2 10.13 47.08 10.13L49.23 10.13L46.42 6.98C42.36 2.53 36.74 0 30.86 0L30.2 0L28.71 0L28.05 0C22.17 0 16.54 2.53 12.49 6.98L9.68 10.13L11.83 10.13C17.7 10.13 23.33 7.59 27.39 3.14Z" fill="#FFFFFF" fill-opacity="1.000000" fill-rule="nonzero"/>
</svg>
