<svg width="82.000000" height="82.000000" viewBox="0 0 82 82" fill="none" xmlns="http://www.w3.org/2000/svg" xmlns:xlink="http://www.w3.org/1999/xlink">
	<desc>
			Created with Pixso.
	</desc>
	<defs>
		<clipPath id="clip10_731">
			<rect id="down-right-arrow_5722570 1" rx="0.000000" width="81.000000" height="81.000000" transform="matrix(1 0 0 -1 0.5 82.5)" fill="white" fill-opacity="0"/>
		</clipPath>
	</defs>
	<rect id="down-right-arrow_5722570 1" rx="0.000000" width="81.000000" height="81.000000" transform="matrix(1 0 0 -1 0.5 82.5)" fill="#FFFFFF" fill-opacity="0"/>
	<g clip-path="url(#clip10_731)">
		<path id="Vector" d="M20.01 82L61.98 82C73 82 82 73 82 61.98L82 20.01C82 8.99 73 0 61.98 0L20.01 0C8.99 0 0 8.99 0 20.01L0 61.98C0 73 8.99 82 20.01 82ZM65.82 16.17L65.82 52.99L58.39 52.99L58.39 28.86L21.43 65.82L16.17 60.56L53.13 23.6L29 23.6L29 16.17L65.82 16.17Z" fill="#FEFFF9" fill-opacity="1.000000" fill-rule="evenodd"/>
	</g>
</svg>
