<svg width="62.000000" height="62.000000" viewBox="0 0 62 62" fill="none" xmlns="http://www.w3.org/2000/svg" xmlns:xlink="http://www.w3.org/1999/xlink">
	<desc>
			Created with Pixso.
	</desc>
	<defs>
		<filter id="filter_10_736_dd" x="0.000000" y="0.000000" width="62.000000" height="62.000000" filterUnits="userSpaceOnUse" color-interpolation-filters="sRGB">
			<feFlood flood-opacity="0" result="BackgroundImageFix"/>
			<feBlend mode="normal" in="SourceGraphic" in2="BackgroundImageFix" result="shape"/>
			<feColorMatrix in="SourceAlpha" type="matrix" values="0 0 0 0 0 0 0 0 0 0 0 0 0 0 0 0 0 0 127 0" result="hardAlpha"/>
			<feOffset dx="1" dy="1"/>
			<feGaussianBlur stdDeviation="0.333333"/>
			<feComposite in2="hardAlpha" operator="arithmetic" k2="-1" k3="1"/>
			<feColorMatrix type="matrix" values="0 0 0 0 0.99608 0 0 0 0 1 0 0 0 0 0.97647 0 0 0 0.3 0"/>
			<feBlend mode="normal" in2="shape" result="effect_innerShadow_1"/>
		</filter>
		<clipPath id="clip10_735">
			<rect id="down-right-arrow_5722570 1" rx="0.000000" width="61.000000" height="61.000000" transform="matrix(1 0 0 -1 0.5 62.5)" fill="white" fill-opacity="0"/>
		</clipPath>
		<linearGradient x1="12.339817" y1="54.174763" x2="42.888355" y2="4.514557" id="paint_linear_10_736_0" gradientUnits="userSpaceOnUse">
			<stop stop-color="#722476"/>
			<stop offset="1.000000" stop-color="#1B3E8A"/>
		</linearGradient>
	</defs>
	<rect id="down-right-arrow_5722570 1" rx="0.000000" width="61.000000" height="61.000000" transform="matrix(1 0 0 -1 0.5 62.5)" fill="#FFFFFF" fill-opacity="0"/>
	<g clip-path="url(#clip10_735)">
		<g filter="url(#filter_10_736_dd)">
			<path id="Vector" d="M15.13 62L46.86 62C55.2 62 62 55.2 62 46.86L62 15.13C62 6.79 55.2 0 46.86 0L15.13 0C6.79 0 0 6.79 0 15.13L0 46.86C0 55.2 6.79 62 15.13 62ZM49.76 12.23L49.76 40.06L44.15 40.06L44.15 21.82L16.2 49.76L12.23 45.79L40.17 17.84L21.92 17.84L21.92 12.23L49.76 12.23Z" fill="url(#paint_linear_10_736_0)" fill-opacity="1.000000" fill-rule="evenodd"/>
		</g>
	</g>
</svg>
