<svg width="92.000000" height="92.000000" viewBox="0 0 92 92" fill="none" xmlns="http://www.w3.org/2000/svg" xmlns:xlink="http://www.w3.org/1999/xlink">
	<desc>
			Created with Pixso.
	</desc>
	<defs>
		<clipPath id="clip10_785">
			<rect id="download_3630425" rx="0.000000" width="91.000000" height="91.000000" transform="translate(0.500000 0.500000)" fill="white" fill-opacity="0"/>
		</clipPath>
	</defs>
	<rect id="download_3630425" rx="0.000000" width="91.000000" height="91.000000" transform="translate(0.500000 0.500000)" fill="#FFFFFF" fill-opacity="0"/>
	<g clip-path="url(#clip10_785)">
		<path id="Vector" d="M46 89.12C37.47 89.12 29.13 86.59 22.04 81.85C14.94 77.11 9.42 70.38 6.15 62.5C2.89 54.62 2.03 45.95 3.7 37.58C5.36 29.22 9.47 21.53 15.5 15.5C21.53 9.47 29.22 5.36 37.58 3.7C45.95 2.03 54.62 2.89 62.5 6.15C70.38 9.42 77.11 14.94 81.85 22.04C86.59 29.13 89.12 37.47 89.12 46C89.11 57.43 84.56 68.39 76.47 76.47C68.39 84.56 57.43 89.11 46 89.12ZM46 5.75C38.03 5.75 30.25 8.11 23.63 12.53C17.01 16.95 11.86 23.24 8.81 30.59C5.76 37.95 4.97 46.04 6.52 53.85C8.07 61.66 11.9 68.83 17.53 74.46C23.16 80.09 30.33 83.92 38.14 85.47C45.95 87.02 54.04 86.23 61.4 83.18C68.75 80.13 75.04 74.98 79.46 68.36C83.88 61.74 86.25 53.96 86.25 46C86.23 35.32 81.99 25.09 74.44 17.55C66.9 10 56.67 5.76 46 5.75Z" fill="#FFFFFF" fill-opacity="1.000000" fill-rule="nonzero"/>
		<path id="Vector" d="M46 57.5C45.61 57.49 45.25 57.34 44.98 57.07L30.6 42.7C30.33 42.43 30.18 42.06 30.18 41.68C30.18 41.3 30.33 40.94 30.6 40.67L34.92 36.35C35.19 36.08 35.55 35.93 35.93 35.93C36.31 35.93 36.68 36.08 36.95 36.35L41.68 41.09L41.68 18.68C41.68 18.3 41.83 17.94 42.1 17.67C42.37 17.4 42.74 17.25 43.12 17.25L48.87 17.25C49.25 17.25 49.62 17.4 49.89 17.67C50.16 17.94 50.31 18.3 50.31 18.68L50.31 41.09L55.04 36.35C55.31 36.08 55.68 35.93 56.06 35.93C56.44 35.93 56.8 36.08 57.07 36.35L61.39 40.67C61.66 40.94 61.81 41.3 61.81 41.68C61.81 42.06 61.66 42.43 61.39 42.7L47.01 57.07C46.74 57.34 46.38 57.49 46 57.5ZM33.65 41.68L46 54.02L58.34 41.68L56.06 39.4L49.89 45.57C49.69 45.77 49.43 45.91 49.15 45.97C48.87 46.02 48.58 45.99 48.32 45.89C48.06 45.78 47.83 45.59 47.68 45.36C47.52 45.12 47.43 44.84 47.43 44.56L47.43 20.12L44.56 20.12L44.56 44.56C44.56 44.84 44.47 45.12 44.32 45.36C44.16 45.59 43.93 45.78 43.67 45.89C43.41 45.99 43.12 46.02 42.84 45.97C42.56 45.91 42.31 45.77 42.1 45.57L35.93 39.4L33.65 41.68Z" fill="#FFFFFF" fill-opacity="1.000000" fill-rule="nonzero"/>
		<path id="Vector" d="M67.56 69L24.43 69C24.05 69 23.69 68.84 23.42 68.57C23.15 68.3 23 67.94 23 67.56L23 56.06C23 55.68 23.15 55.31 23.42 55.04C23.69 54.77 24.05 54.62 24.43 54.62L30.18 54.62C30.56 54.62 30.93 54.77 31.2 55.04C31.47 55.31 31.62 55.68 31.62 56.06L31.62 60.37L60.37 60.37L60.37 56.06C60.37 55.68 60.52 55.31 60.79 55.04C61.06 54.77 61.43 54.62 61.81 54.62L67.56 54.62C67.94 54.62 68.3 54.77 68.57 55.04C68.84 55.31 69 55.68 69 56.06L69 67.56C69 67.94 68.84 68.3 68.57 68.57C68.3 68.84 67.94 69 67.56 69ZM25.87 66.12L66.12 66.12L66.12 57.5L63.25 57.5L63.25 61.81C63.25 62.19 63.09 62.55 62.82 62.82C62.55 63.09 62.19 63.25 61.81 63.25L30.18 63.25C29.8 63.25 29.44 63.09 29.17 62.82C28.9 62.55 28.75 62.19 28.75 61.81L28.75 57.5L25.87 57.5L25.87 66.12Z" fill="#FFFFFF" fill-opacity="1.000000" fill-rule="nonzero"/>
		<path id="Vector" d="M43.12 11.61C42.74 11.62 42.37 11.49 42.09 11.23C41.81 10.97 41.64 10.61 41.63 10.23C41.61 9.85 41.75 9.47 42.01 9.19C42.27 8.91 42.63 8.75 43.01 8.73C44 8.66 45 8.62 46 8.62C46.38 8.62 46.74 8.77 47.01 9.04C47.28 9.31 47.43 9.68 47.43 10.06C47.43 10.44 47.28 10.8 47.01 11.07C46.74 11.34 46.38 11.5 46 11.5C45.08 11.5 44.15 11.53 43.23 11.6L43.12 11.61Z" fill="#FFFFFF" fill-opacity="1.000000" fill-rule="nonzero"/>
		<path id="Vector" d="M10.06 47.43C9.68 47.43 9.31 47.28 9.04 47.01C8.77 46.74 8.62 46.38 8.62 45.99C8.61 37.64 11.4 29.52 16.55 22.94C21.7 16.36 28.91 11.7 37.03 9.71C37.4 9.62 37.79 9.68 38.11 9.87C38.44 10.07 38.68 10.39 38.77 10.76C38.86 11.13 38.8 11.52 38.6 11.85C38.4 12.17 38.09 12.41 37.72 12.5C30.23 14.34 23.57 18.64 18.82 24.72C14.06 30.79 11.48 38.28 11.5 45.99C11.5 46.38 11.34 46.74 11.07 47.01C10.8 47.28 10.44 47.43 10.06 47.43Z" fill="#FFFFFF" fill-opacity="1.000000" fill-rule="nonzero"/>
	</g>
</svg>
