<svg width="92.000000" height="92.000000" viewBox="0 0 92 92" fill="none" xmlns="http://www.w3.org/2000/svg" xmlns:xlink="http://www.w3.org/1999/xlink">
	<desc>
			Created with Pixso.
	</desc>
	<defs>
		<clipPath id="clip10_880">
			<rect id="verified_11472835" rx="0.000000" width="91.000000" height="91.000000" transform="translate(0.500000 0.500000)" fill="white" fill-opacity="0"/>
		</clipPath>
	</defs>
	<rect id="verified_11472835" rx="0.000000" width="91.000000" height="91.000000" transform="translate(0.500000 0.500000)" fill="#FFFFFF" fill-opacity="0"/>
	<g clip-path="url(#clip10_880)">
		<path id="Vector" d="M4.36 25.74L4.36 7.59C4.36 4.14 7.16 1.34 10.61 1.34L71.18 1.34C74.63 1.34 77.43 4.14 77.43 7.59L77.43 48.16" stroke="#FFFFFF" stroke-opacity="1.000000" stroke-width="3.000000" stroke-linejoin="round" stroke-linecap="round"/>
		<path id="Vector" d="M77.43 83.21L77.43 84.4C77.43 87.85 74.63 90.65 71.18 90.65L10.61 90.65C7.16 90.65 4.36 87.85 4.36 84.4L4.36 32.75" stroke="#FFFFFF" stroke-opacity="1.000000" stroke-width="3.000000" stroke-linejoin="round" stroke-linecap="round"/>
		<path id="Vector" d="M73.44 83.21C65.61 83.21 59.26 76.86 59.26 69.03C59.26 61.2 65.61 54.85 73.44 54.85C81.28 54.85 87.63 61.2 87.63 69.03C87.63 76.86 81.28 83.21 73.44 83.21Z" stroke="#FFFFFF" stroke-opacity="1.000000" stroke-width="3.000000" stroke-linejoin="round"/>
		<path id="Vector" d="M79.18 62.53C78.62 61.97 77.73 61.97 77.17 62.53L71.84 67.86C71.57 68.13 71.13 68.13 70.86 67.86L69.72 66.72C69.16 66.17 68.26 66.17 67.71 66.72L65.08 69.35C64.52 69.91 64.52 70.81 65.08 71.36L68.25 74.66C69.04 75.49 70.14 75.95 71.28 75.95C72.4 75.95 73.46 75.51 74.25 74.72L81.81 67.17C82.36 66.61 82.36 65.71 81.81 65.16L79.18 62.53Z" stroke="#FFFFFF" stroke-opacity="1.000000" stroke-width="3.000000" stroke-linejoin="round"/>
		<path id="Vector" d="M52.53 32.5C51.59 32.5 50.82 31.74 50.82 30.8L50.82 27.2C50.82 26.26 51.59 25.49 52.53 25.49L69.44 25.49C70.39 25.49 71.15 26.26 71.15 27.2L71.15 30.8C71.15 31.74 70.39 32.5 69.44 32.5L52.53 32.5Z" stroke="#FFFFFF" stroke-opacity="1.000000" stroke-width="3.000000" stroke-linejoin="round"/>
		<path id="Vector" d="M52.53 46.42C51.59 46.42 50.82 45.66 50.82 44.71L50.82 41.12C50.82 40.18 51.59 39.41 52.53 39.41L69.44 39.41C70.39 39.41 71.15 40.18 71.15 41.12L71.15 44.71C71.15 45.66 70.39 46.42 69.44 46.42L52.53 46.42Z" stroke="#FFFFFF" stroke-opacity="1.000000" stroke-width="3.000000" stroke-linejoin="round"/>
		<path id="Vector" d="M12.66 59.77L50.82 59.77" stroke="#FFFFFF" stroke-opacity="1.000000" stroke-width="3.000000" stroke-linejoin="round" stroke-linecap="round"/>
		<path id="Vector" d="M12.66 67.29L50.82 67.29" stroke="#FFFFFF" stroke-opacity="1.000000" stroke-width="3.000000" stroke-linejoin="round" stroke-linecap="round"/>
		<path id="Vector" d="M12.66 74.82L50.82 74.82" stroke="#FFFFFF" stroke-opacity="1.000000" stroke-width="3.000000" stroke-linejoin="round" stroke-linecap="round"/>
		<path id="Vector" d="M12.66 82.34L50.82 82.34" stroke="#FFFFFF" stroke-opacity="1.000000" stroke-width="3.000000" stroke-linejoin="round" stroke-linecap="round"/>
		<path id="Vector" d="M4.36 14.42L77.43 14.42" stroke="#FFFFFF" stroke-opacity="1.000000" stroke-width="3.000000" stroke-linejoin="round" stroke-linecap="round"/>
		<circle id="Ellipse" cx="58.882324" cy="8.129395" r="1.347656" fill="#FFFFFF" fill-opacity="1.000000"/>
		<circle id="Ellipse" cx="63.882324" cy="8.129395" r="1.347656" fill="#FFFFFF" fill-opacity="1.000000"/>
		<circle id="Ellipse" cx="68.881836" cy="8.129395" r="1.347656" fill="#FFFFFF" fill-opacity="1.000000"/>
		<path id="Vector" d="M22.81 43.44C20.48 44.77 18.65 46.89 17.69 49.43" stroke="#FFFFFF" stroke-opacity="1.000000" stroke-width="3.000000" stroke-linejoin="round" stroke-linecap="round"/>
		<path id="Vector" d="M39.34 49.43C38.35 46.79 36.42 44.61 33.96 43.29" stroke="#FFFFFF" stroke-opacity="1.000000" stroke-width="3.000000" stroke-linejoin="round" stroke-linecap="round"/>
		<path id="Vector" d="M35.43 37.12L35.43 38.75C35.43 42.54 32.36 45.61 28.57 45.61C24.78 45.61 21.71 42.54 21.71 38.75L21.71 37.21" stroke="#FFFFFF" stroke-opacity="1.000000" stroke-width="3.000000" stroke-linejoin="round" stroke-linecap="round"/>
		<path id="Vector" d="M28.52 53.49C19.41 53.49 12.02 46.1 12.02 37C12.02 27.89 19.41 20.5 28.52 20.5C37.63 20.5 45.01 27.89 45.01 37C45.01 46.1 37.63 53.49 28.52 53.49Z" stroke="#FFFFFF" stroke-opacity="1.000000" stroke-width="3.000000" stroke-linejoin="round"/>
		<path id="Vector" d="M35.43 37.12L35.43 34.87C35.43 31.08 32.36 28.01 28.57 28.01C24.78 28.01 21.71 31.08 21.71 34.87L21.71 37.12" stroke="#FFFFFF" stroke-opacity="1.000000" stroke-width="3.000000" stroke-linejoin="round" stroke-linecap="round"/>
		<path id="Vector" d="M21.71 36.63C26.14 36.63 27.78 35.11 28.33 34.35C28.45 34.2 28.7 34.2 28.81 34.35C29.36 35.11 31.01 36.63 35.43 36.63" stroke="#FFFFFF" stroke-opacity="1.000000" stroke-width="3.000000" stroke-linejoin="round" stroke-linecap="round"/>
	</g>
</svg>
