<svg width="92.000000" height="92.000000" viewBox="0 0 92 92" fill="none" xmlns="http://www.w3.org/2000/svg" xmlns:xlink="http://www.w3.org/1999/xlink">
	<desc>
			Created with Pixso.
	</desc>
	<defs>
		<clipPath id="clip10_959">
			<rect id="success_1642120" rx="0.000000" width="91.000000" height="91.000000" transform="translate(0.500000 0.500000)" fill="white" fill-opacity="0"/>
		</clipPath>
	</defs>
	<rect id="success_1642120" rx="0.000000" width="91.000000" height="91.000000" transform="translate(0.500000 0.500000)" fill="#FFFFFF" fill-opacity="0"/>
	<g clip-path="url(#clip10_959)">
		<path id="Vector" d="M1.04 85.88L2.23 88.57L45.03 70.82L52.48 71.72L55.16 79.92L51.59 83.35C50.24 84.54 49.8 86.48 50.54 88.27L52.03 92L76.79 82.3L75.44 78.72C74.85 76.93 73.21 75.89 71.27 75.89L66.35 75.89L63.66 69.48L70.22 66.2C72.31 65.16 73.21 62.77 72.46 60.68L63.96 37.87C63.07 35.48 60.53 34.44 58.15 35.18C58.15 35.18 58 35.18 58 35.33L51.74 38.02L50.84 35.78L54.27 31.75C56.66 29.07 58.15 25.79 58.59 22.21L62.92 16.99C65.75 13.71 65.16 8.79 61.87 5.96C61.28 5.51 60.68 5.06 60.09 4.77C58.45 4.02 56.8 3.87 55.02 4.32L54.57 2.98C53.82 0.59 51.14 -0.6 48.9 0.29L17.44 11.62C15.05 12.52 13.86 15.05 14.76 17.29L14.76 17.44L15.5 19.38C11.62 21.17 9.83 25.64 11.18 29.52C12.22 32.5 14.9 34.59 18.04 35.03L25.04 35.78C27.88 37.87 31.31 39.21 34.74 39.51L39.66 39.96L40.55 42.19C39.51 42.79 38.76 43.83 38.46 45.17L37.42 50.24L1.04 65.01L2.08 67.84L22.96 59.49L28.03 74.7L1.04 85.88ZM72.46 79.62L72.76 80.51L53.67 88.12L53.23 87.22C53.08 86.63 53.23 86.03 53.52 85.58L58.59 80.81L65.01 78.72L70.97 78.72C71.72 78.72 72.16 79.02 72.46 79.62ZM63.07 76.04L57.7 77.83L55.76 72.16C56.66 72.31 57.4 72.16 58.15 71.72L60.68 70.52L63.07 76.04ZM59.04 37.57C59.79 37.27 60.68 37.57 60.98 38.32L62.17 41.45L54.87 43.83L55.76 46.67L63.07 44.28L64.86 49.05L57.85 51.44L58.74 54.27L65.9 51.88L67.69 56.66L60.83 58.89L61.73 61.73L68.73 59.34L69.48 61.28C69.78 62.02 69.48 62.77 68.73 63.07L56.95 68.88C56.66 69.03 56.36 69.03 56.06 69.03L45.92 67.84L40.4 51.29L41.45 45.77C41.6 45.32 41.89 44.88 42.34 44.73L59.04 37.57ZM58.89 7.45C61.28 8.49 62.47 11.33 61.43 13.86C61.28 14.31 60.98 14.61 60.68 15.05L58.89 17.29C58.74 15.8 58.45 14.46 58 12.97L56.06 7.15C57.1 7 58 7.15 58.89 7.45ZM14.16 28.77C13.27 26.24 14.31 23.55 16.69 22.36L18.78 27.43C19.53 29.22 20.57 31.01 21.76 32.5L18.63 32.2C16.54 32.05 14.76 30.71 14.16 28.77ZM35.33 36.67C29.22 36.08 23.85 32.2 21.61 26.39L17.74 16.54C17.44 15.8 17.74 14.9 18.48 14.61L49.95 3.27C50.39 3.13 50.69 3.13 51.14 3.27C51.44 3.42 51.74 3.72 51.88 4.17L55.16 14.01C56.95 19.53 55.76 25.49 52.03 29.82L47.41 35.18L48.75 38.76L43.38 41L41.89 37.27L35.33 36.67ZM25.79 58.3L29.22 56.95L32.95 68.29L35.78 67.39L31.9 55.76L37.87 53.38L42.94 68.44L30.86 73.51L25.79 58.3Z" fill="#FFFFFF" fill-opacity="1.000000" fill-rule="nonzero"/>
		<path id="Vector" d="M74.7 26.09L74.7 27.58L77.68 27.58L77.68 26.09C77.68 21.91 80.96 18.63 85.14 18.63L85.14 15.65C80.96 15.65 77.68 12.37 77.68 8.19L77.68 6.7L74.7 6.7L74.7 8.19C74.7 12.37 71.42 15.65 67.24 15.65L67.24 18.63C71.42 18.63 74.7 21.91 74.7 26.09ZM76.19 13.56C77.08 15.05 78.28 16.25 79.77 17.14C78.28 18.04 77.08 19.23 76.19 20.72C75.29 19.23 74.1 18.04 72.61 17.14C74.1 16.25 75.29 15.05 76.19 13.56Z" fill="#FFFFFF" fill-opacity="1.000000" fill-rule="nonzero"/>
		<path id="Vector" d="M9.09 55.91L9.09 57.4L12.07 57.4L12.07 55.91C12.07 51.74 15.35 48.45 19.53 48.45L19.53 45.47C15.35 45.47 12.07 42.19 12.07 38.02L12.07 36.53L9.09 36.53L9.09 38.02C9.09 42.19 5.81 45.47 1.63 45.47L1.63 48.45C5.81 48.45 9.09 51.74 9.09 55.91ZM10.58 43.38C11.48 44.88 12.67 46.07 14.16 46.96C12.67 47.86 11.48 49.05 10.58 50.54C9.69 49.05 8.49 47.86 7 46.96C8.49 46.07 9.69 44.88 10.58 43.38Z" fill="#FFFFFF" fill-opacity="1.000000" fill-rule="nonzero"/>
		<path id="Vector" d="M83.64 38.02L83.64 36.53L80.66 36.53L80.66 38.02C80.66 42.19 77.38 45.47 73.21 45.47L73.21 48.45C77.38 48.45 80.66 51.74 80.66 55.91L80.66 57.4L83.64 57.4L83.64 55.91C83.64 51.74 86.93 48.45 91.1 48.45L91.1 45.47C86.93 45.47 83.64 42.19 83.64 38.02ZM82.15 50.54C81.26 49.05 80.07 47.86 78.58 46.96C80.07 46.07 81.26 44.88 82.15 43.38C83.05 44.88 84.24 46.07 85.73 46.96C84.24 47.86 83.05 49.05 82.15 50.54Z" fill="#FFFFFF" fill-opacity="1.000000" fill-rule="nonzero"/>
		<path id="Vector" d="M45.32 26.54L47.41 28.62C55.61 20.42 48.01 7.9 47.56 7.45L45.03 9.09C45.17 9.09 51.88 19.98 45.32 26.54Z" fill="#FFFFFF" fill-opacity="1.000000" fill-rule="nonzero"/>
	</g>
</svg>
