<svg width="92.605469" height="92.000000" viewBox="0 0 92.6055 92" fill="none" xmlns="http://www.w3.org/2000/svg" xmlns:xlink="http://www.w3.org/1999/xlink">
	<desc>
			Created with Pixso.
	</desc>
	<defs>
		<clipPath id="clip10_909">
			<rect id="voting_2634151" rx="0.000000" width="91.605293" height="91.000000" transform="translate(0.500000 0.500000)" fill="white" fill-opacity="0"/>
		</clipPath>
	</defs>
	<rect id="voting_2634151" rx="0.000000" width="91.605293" height="91.000000" transform="translate(0.500000 0.500000)" fill="#FFFFFF" fill-opacity="0"/>
	<g clip-path="url(#clip10_909)">
		<mask id="mask10_913" mask-type="alpha" maskUnits="userSpaceOnUse" x="0.000000" y="0.000000" width="92.605469" height="92.000000">
			<path id="path2631" d="M0 0L92.6 0L92.6 92L0 92L0 0Z" fill="#000000" fill-opacity="1.000000" fill-rule="nonzero"/>
		</mask>
		<g mask="url(#mask10_913)">
			<path id="path2637" d="M15.12 25.58L53.08 25.58C54.58 25.58 55.79 26.79 55.79 28.28L55.79 39.06C55.79 40.55 54.58 41.76 53.08 41.76L4.06 41.76C2.57 41.76 1.35 40.55 1.35 39.06L1.35 28.28C1.35 26.79 2.57 25.58 4.06 25.58L9.74 25.58" stroke="#FFFFFF" stroke-opacity="1.000000" stroke-width="3.000000" stroke-linejoin="round" stroke-linecap="round"/>
			<path id="path2641" d="M69.49 41.76L66.65 41.76C65.15 41.76 63.93 40.55 63.93 39.06L63.93 28.28C63.93 26.79 65.15 25.58 66.65 25.58L77.68 25.58C79.18 25.58 80.39 26.79 80.39 28.28L80.39 39.06C80.39 40.55 79.18 41.76 77.68 41.76L74.93 41.76" stroke="#FFFFFF" stroke-opacity="1.000000" stroke-width="3.000000" stroke-linejoin="round" stroke-linecap="round"/>
			<path id="path2645" d="M20.34 33.67L47.65 33.67" stroke="#FFFFFF" stroke-opacity="1.000000" stroke-width="3.000000" stroke-linejoin="round" stroke-linecap="round"/>
			<path id="path2649" d="M9.49 36.37C7.99 36.37 6.78 35.16 6.78 33.67C6.78 32.18 7.99 30.97 9.49 30.97C10.99 30.97 12.2 32.18 12.2 33.67C12.2 35.16 10.99 36.37 9.49 36.37Z" stroke="#FFFFFF" stroke-opacity="1.000000" stroke-width="3.000000" stroke-linejoin="round"/>
			<path id="path2653" d="M4.06 17.51C2.57 17.51 1.35 16.31 1.35 14.82L1.35 4.04C1.35 2.55 2.57 1.34 4.06 1.34L53.08 1.34C54.58 1.34 55.79 2.55 55.79 4.04L55.79 14.82C55.79 16.31 54.58 17.51 53.08 17.51L4.06 17.51Z" stroke="#FFFFFF" stroke-opacity="1.000000" stroke-width="3.000000" stroke-linejoin="round"/>
			<path id="path2657" d="M66.65 17.51C65.15 17.51 63.93 16.31 63.93 14.82L63.93 4.04C63.93 2.55 65.15 1.34 66.65 1.34L77.68 1.34C79.18 1.34 80.39 2.55 80.39 4.04L80.39 14.82C80.39 16.31 79.18 17.51 77.68 17.51L66.65 17.51Z" stroke="#FFFFFF" stroke-opacity="1.000000" stroke-width="3.000000" stroke-linejoin="round"/>
			<path id="path2661" d="M20.34 9.43L47.65 9.43" stroke="#FFFFFF" stroke-opacity="1.000000" stroke-width="3.000000" stroke-linejoin="round" stroke-linecap="round"/>
			<path id="path2665" d="M9.49 12.12C7.99 12.12 6.78 10.92 6.78 9.43C6.78 7.94 7.99 6.73 9.49 6.73C10.99 6.73 12.2 7.94 12.2 9.43C12.2 10.92 10.99 12.12 9.49 12.12Z" stroke="#FFFFFF" stroke-opacity="1.000000" stroke-width="3.000000" stroke-linejoin="round"/>
			<path id="path2669" d="M4.06 90.65C2.57 90.65 1.35 89.44 1.35 87.95L1.35 77.17C1.35 75.68 2.57 74.48 4.06 74.48L53.08 74.48C54.58 74.48 55.79 75.68 55.79 77.17L55.79 87.95C55.79 89.44 54.58 90.65 53.08 90.65L4.06 90.65Z" stroke="#FFFFFF" stroke-opacity="1.000000" stroke-width="3.000000" stroke-linejoin="round"/>
			<path id="path2673" d="M20.34 82.56L47.65 82.56" stroke="#FFFFFF" stroke-opacity="1.000000" stroke-width="3.000000" stroke-linejoin="round" stroke-linecap="round"/>
			<path id="path2677" d="M9.49 85.26C7.99 85.26 6.78 84.05 6.78 82.56C6.78 81.07 7.99 79.87 9.49 79.87C10.99 79.87 12.2 81.07 12.2 82.56C12.2 84.05 10.99 85.26 9.49 85.26Z" stroke="#FFFFFF" stroke-opacity="1.000000" stroke-width="3.000000" stroke-linejoin="round"/>
			<path id="path2681" d="M53.08 66.01L4.06 66.01C2.57 66.01 1.35 64.81 1.35 63.32L1.35 52.54C1.35 51.05 2.57 49.84 4.06 49.84L53.08 49.84C54.58 49.84 55.79 51.05 55.79 52.54" stroke="#FFFFFF" stroke-opacity="1.000000" stroke-width="3.000000" stroke-linejoin="round" stroke-linecap="round"/>
			<path id="path2685" d="M20.34 57.93L47.65 57.93" stroke="#FFFFFF" stroke-opacity="1.000000" stroke-width="3.000000" stroke-linejoin="round" stroke-linecap="round"/>
			<path id="path2689" d="M9.49 60.62C7.99 60.62 6.78 59.42 6.78 57.93C6.78 56.44 7.99 55.23 9.49 55.23C10.99 55.23 12.2 56.44 12.2 57.93C12.2 59.42 10.99 60.62 9.49 60.62Z" stroke="#FFFFFF" stroke-opacity="1.000000" stroke-width="3.000000" stroke-linejoin="round"/>
			<path id="path2693" d="M69.14 84.11L57.77 60.22C57.29 59.23 57.46 58.06 58.18 57.23C59.25 56 61.16 55.95 62.3 57.13L68.24 63.32C68.69 63.79 69.49 63.47 69.49 62.82L69.49 37.66C69.49 36.17 70.71 34.96 72.21 34.96C73.71 34.96 74.93 36.17 74.93 37.66L74.93 54.24" stroke="#FFFFFF" stroke-opacity="1.000000" stroke-width="3.000000" stroke-linejoin="round" stroke-linecap="round"/>
			<path id="path2697" d="M85.8 59.93L85.8 54.93C85.8 53.44 87.02 52.23 88.52 52.23C90.03 52.23 91.24 53.44 91.24 54.93L91.24 71.83L88.51 84.11" stroke="#FFFFFF" stroke-opacity="1.000000" stroke-width="3.000000" stroke-linejoin="round" stroke-linecap="round"/>
			<path id="path2701" d="M80.37 54.93C80.37 53.44 79.15 52.23 77.65 52.23C76.14 52.23 74.93 53.44 74.93 54.93L74.93 59.93" stroke="#FFFFFF" stroke-opacity="1.000000" stroke-width="3.000000" stroke-linejoin="round" stroke-linecap="round"/>
			<path id="path2705" d="M85.81 54.93C85.81 53.44 84.59 52.23 83.09 52.23C81.58 52.23 80.37 53.44 80.37 54.93L80.37 59.93" stroke="#FFFFFF" stroke-opacity="1.000000" stroke-width="3.000000" stroke-linejoin="round" stroke-linecap="round"/>
			<path id="path2709" d="M91.22 90.65L91.22 87.71C91.22 85.72 89.61 84.11 87.61 84.11L70.05 84.11C68.05 84.11 66.43 85.72 66.43 87.71L66.43 90.65" stroke="#FFFFFF" stroke-opacity="1.000000" stroke-width="3.000000" stroke-linejoin="round" stroke-linecap="round"/>
		</g>
	</g>
</svg>
