<?xml version="1.0" standalone="no"?>
<!DOCTYPE svg PUBLIC "-//W3C//DTD SVG 20010904//EN"
 "http://www.w3.org/TR/2001/REC-SVG-20010904/DTD/svg10.dtd">
<svg version="1.0" xmlns="http://www.w3.org/2000/svg"
 width="840.000000pt" height="840.000000pt" viewBox="0 0 840.000000 840.000000"
 preserveAspectRatio="xMidYMid meet">
<metadata>
Created by potrace 1.14, written by Peter Selinger 2001-2017
</metadata>
<g transform="translate(0.000000,840.000000) scale(0.100000,-0.100000)"
fill="#000000" stroke="none">
<path d="M4905 8279 c-61 -62 -188 -184 -284 -273 -360 -333 -421 -443 -408
-746 5 -138 25 -217 82 -330 32 -62 130 -210 140 -210 3 0 -11 32 -30 70 -107
212 -139 454 -82 616 51 142 124 235 341 433 86 78 174 163 196 189 l40 47 0
-105 c0 -166 -18 -420 -35 -482 -45 -175 -126 -316 -280 -493 -120 -138 -142
-188 -116 -258 5 -13 13 -56 16 -94 l7 -70 -88 -58 c-105 -70 -243 -204 -304
-294 -53 -80 -113 -206 -137 -291 -15 -53 -18 -99 -17 -250 1 -173 3 -193 31
-300 17 -63 57 -173 89 -245 63 -142 66 -157 46 -295 -13 -89 -15 -358 -3
-400 5 -20 14 -26 42 -28 l36 -3 7 118 c19 325 83 545 216 737 100 145 232
252 532 434 248 151 330 251 583 712 136 247 197 344 307 482 43 54 78 100 78
102 0 2 -56 -18 -125 -45 -165 -65 -380 -126 -660 -189 -299 -66 -442 -104
-513 -136 -31 -14 -68 -30 -81 -35 l-23 -9 4 98 c5 124 8 129 196 325 123 128
144 155 185 238 62 125 71 190 63 429 -10 257 6 443 57 658 9 34 12 62 9 62
-4 0 -57 -50 -117 -111z m618 -1701 c-147 -268 -280 -459 -414 -596 -113 -115
-194 -179 -419 -332 -111 -75 -224 -160 -262 -198 -106 -104 -190 -230 -253
-377 l-17 -40 -14 33 c-8 17 -28 101 -45 185 -66 319 -30 565 112 783 126 192
329 345 565 423 49 16 179 48 290 70 184 37 415 99 454 121 8 5 23 10 32 10
13 0 7 -17 -29 -82z"/>
<path d="M2805 8043 c14 -38 45 -183 60 -287 23 -155 30 -407 16 -556 -20
-209 -25 -400 -12 -475 24 -137 72 -226 246 -460 189 -253 226 -324 264 -510
22 -103 48 -431 38 -459 -5 -13 -12 -14 -33 -6 -53 21 -172 30 -482 40 -174 5
-357 12 -407 16 l-90 6 100 -74 c125 -93 204 -165 425 -388 96 -97 205 -198
241 -223 93 -66 227 -132 338 -168 116 -37 329 -75 343 -61 14 14 -14 31 -171
102 -305 137 -392 196 -640 434 -97 93 -202 187 -234 210 l-59 41 144 3 c296
6 502 -50 670 -183 116 -91 213 -238 254 -384 14 -50 19 -60 25 -44 12 33 -8
214 -31 275 -25 68 -85 162 -142 225 -42 45 -169 136 -208 148 -19 6 -20 17
-20 175 0 391 -34 516 -229 843 -150 252 -205 386 -236 567 -19 112 -31 566
-18 703 l8 89 51 -64 c29 -34 132 -147 231 -249 198 -205 264 -287 322 -399
157 -303 138 -637 -63 -1074 -20 -43 -35 -80 -33 -82 2 -2 23 26 46 62 243
369 315 797 191 1135 -69 191 -139 285 -431 586 -122 125 -278 290 -347 366
-69 75 -127 137 -130 137 -2 0 -1 -8 3 -17z"/>
<path d="M4944 5190 c-98 -25 -180 -69 -249 -132 -112 -102 -168 -221 -189
-397 -11 -92 -12 -96 -41 -110 l-29 -14 24 -10 c15 -6 123 -11 255 -11 184 -1
243 3 296 16 163 42 216 73 458 267 175 141 237 183 370 254 l101 54 -124 11
c-68 7 -233 30 -367 52 -277 46 -390 50 -505 20z m418 -135 c74 -14 171 -29
214 -33 l79 -7 -63 -50 c-200 -157 -361 -253 -497 -294 -103 -32 -538 -101
-551 -88 -10 9 26 117 63 191 42 83 125 174 202 221 149 90 303 107 553 60z"/>
<path d="M2285 3958 c-10 -505 10 -718 86 -935 72 -202 228 -458 374 -612 47
-48 82 -91 78 -95 -3 -3 -311 -6 -683 -6 -643 0 -678 -1 -693 -18 -24 -26 -21
-59 6 -74 18 -11 540 -13 2718 -13 2907 0 2729 -3 2729 51 0 56 31 54 -736 54
-387 0 -704 2 -704 5 0 3 39 52 86 108 195 231 322 472 404 762 35 125 37 167
45 728 l6 397 -1854 0 -1855 0 -7 -352z"/>
<path d="M1686 2091 c5 -4 70 -34 144 -66 398 -169 961 -303 1510 -360 85 -9
169 -22 185 -30 93 -43 1377 -48 1520 -6 17 5 43 12 59 16 23 5 27 8 15 16 -7
5 -9 9 -4 9 30 0 432 74 567 104 294 65 561 152 818 265 l105 46 -205 6 c-326
10 -4725 10 -4714 0z"/>
<path d="M5861 1353 c-29 -21 9 -46 79 -51 47 -3 63 -9 71 -24 11 -21 13 -671
2 -768 -8 -79 -16 -90 -65 -90 -49 0 -82 -24 -68 -49 8 -16 43 -17 407 -14
219 1 414 2 434 2 20 0 41 6 47 13 6 7 12 65 14 128 4 142 -8 149 -68 40 -23
-41 -53 -88 -66 -104 l-24 -29 -205 1 c-112 0 -216 5 -230 10 -25 10 -26 12
-32 140 -7 146 5 247 32 261 9 5 59 6 111 2 88 -6 95 -8 107 -31 7 -14 13 -50
13 -80 0 -62 23 -108 44 -91 14 12 43 441 32 460 -13 20 -36 11 -47 -16 -6
-16 -18 -57 -27 -93 -20 -76 -22 -77 -168 -79 l-91 -1 3 195 c2 108 6 200 8
204 9 14 115 19 225 10 120 -9 130 -16 207 -131 68 -102 82 -90 65 53 -12 101
-25 126 -75 134 -17 2 -186 6 -375 7 -254 2 -348 0 -360 -9z"/>
<path d="M2090 1320 l-35 -29 -230 0 c-319 -1 -430 6 -451 30 -40 45 -60 18
-100 -134 -13 -54 -15 -73 -5 -93 13 -30 24 -25 55 24 13 21 39 53 57 73 34
35 35 36 134 42 81 5 105 3 124 -10 l24 -15 -5 -379 c-3 -279 -7 -382 -16
-391 -7 -7 -49 -15 -95 -18 -71 -4 -82 -8 -85 -24 -8 -40 22 -47 182 -40 94 4
181 2 231 -5 74 -11 80 -10 99 9 38 37 -2 67 -92 69 -88 2 -82 -26 -77 384 5
373 10 411 47 423 32 10 160 -7 200 -27 37 -19 78 -63 78 -84 0 -15 38 -65 50
-65 17 0 21 56 10 149 -6 53 -13 106 -16 119 -6 31 -41 28 -84 -8z"/>
<path d="M4946 1022 c-110 -3 -137 -14 -111 -42 9 -10 29 -20 45 -23 48 -10
55 -36 53 -198 -1 -239 -27 -306 -127 -328 -101 -23 -169 18 -196 117 -13 50
-12 323 1 368 6 20 21 36 45 47 24 12 34 23 32 35 -3 15 -20 17 -146 20 -136
2 -142 2 -142 -17 0 -13 12 -27 33 -37 17 -9 34 -19 37 -21 3 -3 7 -102 10
-221 5 -214 5 -218 32 -263 55 -93 136 -128 255 -109 80 13 90 18 136 69 75
84 97 160 106 380 6 153 4 146 64 170 29 11 39 51 13 51 -8 0 -20 1 -28 3 -7
1 -58 1 -112 -1z"/>
<path d="M2283 1013 c-49 -9 -18 -53 38 -53 73 0 69 15 69 -264 0 -183 -3
-255 -12 -264 -7 -7 -29 -12 -49 -12 -42 0 -85 -29 -77 -52 6 -13 45 -15 315
-11 249 4 311 8 323 20 11 10 15 34 14 88 0 41 -3 78 -7 82 -9 9 -65 -55 -73
-84 -11 -42 -48 -55 -158 -57 -62 0 -112 4 -129 11 l-28 13 3 112 3 113 45 3
c24 2 59 1 77 -3 29 -5 34 -11 39 -45 8 -51 24 -73 47 -64 13 4 17 18 17 54 0
26 3 89 7 139 6 88 5 93 -13 89 -11 -2 -29 -26 -46 -61 l-28 -57 -63 0 c-36 0
-68 5 -75 12 -15 15 -16 148 -2 200 6 21 20 43 31 48 20 11 119 7 154 -6 29
-11 72 -65 90 -111 30 -78 55 -41 55 84 0 83 1 83 -295 82 -137 -1 -260 -4
-272 -6z"/>
<path d="M3865 1013 c-166 -3 -185 -7 -185 -33 0 -16 9 -21 49 -26 80 -10 76
-1 73 -201 -2 -98 -7 -214 -10 -258 l-7 -80 -57 -9 c-46 -7 -58 -13 -58 -28 0
-10 1 -18 3 -19 17 -7 623 -7 637 1 37 20 35 181 -2 180 -7 -1 -34 -29 -60
-64 l-48 -63 -132 -6 c-73 -3 -136 -3 -141 0 -10 6 -1 477 10 520 4 17 15 24
49 29 50 7 84 28 69 42 -16 15 -42 17 -190 15z"/>
<path d="M5613 1011 c-50 -3 -94 -9 -98 -13 -11 -11 4 -28 24 -28 10 0 25 -7
32 -16 11 -14 9 -24 -15 -69 -15 -30 -40 -62 -54 -71 -25 -16 -26 -16 -45 7
-10 13 -30 46 -44 73 l-25 49 23 17 c14 11 20 23 16 34 -5 14 -25 16 -127 16
-137 0 -145 -6 -80 -59 43 -34 72 -76 128 -181 19 -36 41 -73 50 -83 25 -28
18 -68 -23 -132 -51 -81 -91 -122 -147 -151 -27 -13 -48 -29 -48 -34 0 -6 43
-10 105 -10 108 0 134 11 75 31 -16 6 -30 15 -30 20 0 19 95 169 107 169 19 0
49 -45 73 -110 l23 -61 -22 -23 -22 -24 37 -7 c44 -8 201 -8 215 0 19 12 8 35
-23 48 -41 17 -48 26 -105 129 -111 200 -114 207 -98 238 25 48 148 168 180
175 59 13 77 24 73 48 -4 26 -15 27 -155 18z"/>
<path d="M3276 935 c-26 -24 -45 -48 -42 -54 4 -5 -5 -33 -19 -61 -14 -28 -41
-88 -59 -133 -19 -45 -52 -121 -76 -168 -36 -75 -47 -89 -81 -105 -30 -13 -39
-23 -37 -37 3 -18 13 -20 129 -24 113 -4 127 -3 133 13 8 22 0 30 -49 46 -37
13 -40 16 -38 48 1 19 9 52 18 73 l16 38 87 -3 87 -3 16 -35 c9 -19 19 -50 22
-68 6 -31 5 -34 -38 -52 -80 -34 -61 -47 84 -55 132 -7 171 0 171 30 0 8 -21
25 -47 37 -45 22 -47 26 -75 108 -41 123 -56 172 -88 295 -32 119 -45 155 -57
155 -5 -1 -30 -21 -57 -45z m-9 -127 c18 -22 53 -128 53 -157 0 -20 -6 -30
-19 -34 -25 -6 -110 3 -116 13 -2 4 7 43 21 86 14 44 27 85 30 92 2 6 7 12 12
12 5 0 14 -6 19 -12z"/>
</g>
</svg>
