<svg width="41" height="41" viewBox="0 0 41 41" fill="none" xmlns="http://www.w3.org/2000/svg">
<rect x="0.167969" y="0.78125" width="40" height="40" rx="20" fill="#F0F0F0"/>
<path d="M24.668 14.7812H21.668C21.1157 14.7812 20.668 15.229 20.668 15.7812V18.7812H24.668C24.7817 18.7787 24.8896 18.8317 24.9572 18.9232C25.0248 19.0146 25.0438 19.1333 25.008 19.2413L24.268 21.4412C24.1998 21.6432 24.0111 21.7796 23.798 21.7812H20.668V29.2812C20.668 29.5574 20.4441 29.7812 20.168 29.7812H17.668C17.3918 29.7812 17.168 29.5574 17.168 29.2812V21.7812H15.668C15.3918 21.7812 15.168 21.5574 15.168 21.2812V19.2812C15.168 19.0051 15.3918 18.7812 15.668 18.7812H17.168V15.7812C17.168 13.5721 18.9589 11.7812 21.168 11.7812H24.668C24.9441 11.7812 25.168 12.0051 25.168 12.2812V14.2812C25.168 14.5574 24.9441 14.7812 24.668 14.7812Z" fill="#333333"/>
</svg>
