<svg width="41" height="41" viewBox="0 0 41 41" fill="none" xmlns="http://www.w3.org/2000/svg">
<rect x="0.167969" y="0.78125" width="40" height="40" rx="20" fill="#F0F0F0"/>
<path fill-rule="evenodd" clip-rule="evenodd" d="M24.168 11.7812H16.168C13.4065 11.7812 11.168 14.0198 11.168 16.7812V24.7812C11.168 27.5427 13.4065 29.7812 16.168 29.7812H24.168C26.9294 29.7812 29.168 27.5427 29.168 24.7812V16.7812C29.168 14.0198 26.9294 11.7812 24.168 11.7812ZM27.418 24.7812C27.4125 26.5738 25.9606 28.0257 24.168 28.0312H16.168C14.3753 28.0257 12.9235 26.5738 12.918 24.7812V16.7812C12.9235 14.9886 14.3753 13.5367 16.168 13.5312H24.168C25.9606 13.5367 27.4125 14.9886 27.418 16.7812V24.7812ZM24.918 17.0312C25.4703 17.0312 25.918 16.5835 25.918 16.0312C25.918 15.479 25.4703 15.0312 24.918 15.0312C24.3657 15.0312 23.918 15.479 23.918 16.0312C23.918 16.5835 24.3657 17.0312 24.918 17.0312ZM20.168 16.2812C17.6827 16.2812 15.668 18.296 15.668 20.7812C15.668 23.2666 17.6827 25.2812 20.168 25.2812C22.6533 25.2812 24.668 23.2666 24.668 20.7812C24.6707 19.5869 24.1974 18.4408 23.3529 17.5963C22.5084 16.7518 21.3623 16.2786 20.168 16.2812ZM17.418 20.7812C17.418 22.3 18.6492 23.5312 20.168 23.5312C21.6868 23.5312 22.918 22.3 22.918 20.7812C22.918 19.2625 21.6868 18.0312 20.168 18.0312C18.6492 18.0312 17.418 19.2625 17.418 20.7812Z" fill="#333333"/>
</svg>
