<svg width="41" height="41" viewBox="0 0 41 41" fill="none" xmlns="http://www.w3.org/2000/svg">
<rect x="0.167969" y="0.78125" width="40" height="40" rx="20" fill="#F0F0F0"/>
<path d="M28.168 14.7042C28.1598 15.2568 27.9589 15.8117 27.855 16.3839C27.7465 16.9849 27.5935 17.5789 27.4616 18.1764C27.2433 19.1653 27.0227 20.1542 26.8079 21.1431C26.648 21.8822 26.5021 22.6236 26.341 23.3615C26.1262 24.3516 25.9032 25.3405 25.6849 26.3294C25.5845 26.7899 25.518 27.2504 25.3756 27.7017C25.155 28.3993 24.5234 28.6549 23.9081 28.237C23.0034 27.6234 22.1244 26.9707 21.236 26.3375C20.8356 26.0497 20.4281 25.7711 20.0429 25.4648C19.8211 25.2887 19.6764 25.3416 19.4966 25.5166C18.9374 26.0635 18.363 26.5953 17.8003 27.1387C17.6349 27.2996 17.4357 27.4226 17.2167 27.4991C17.0252 27.5658 16.9097 27.5106 16.9027 27.2999C16.8914 27.1564 16.894 27.0123 16.9108 26.8693C16.9956 26.3488 17.0417 25.8228 17.0486 25.2956C17.0591 24.72 17.1887 24.1536 17.1852 23.578C17.187 23.4965 17.2076 23.4166 17.2454 23.3442C17.2832 23.2718 17.3373 23.2088 17.4035 23.1601C18.3374 22.3358 19.2713 21.5107 20.2052 20.6849C21.4388 19.5889 22.6711 18.4907 23.9023 17.3901C24.1837 17.1403 24.4755 16.9008 24.758 16.651C24.8328 16.5842 24.9553 16.5013 24.8748 16.3908C24.7942 16.2803 24.6565 16.3436 24.5596 16.3989C24.1802 16.6141 23.8031 16.8317 23.4318 17.0608C21.1352 18.4807 18.8393 19.9005 16.5443 21.3204C16.068 21.6151 15.5835 21.896 15.106 22.1942C15.042 22.2365 14.9687 22.2631 14.8921 22.2717C14.8156 22.2803 14.738 22.2707 14.666 22.2437C13.8173 21.9708 12.9662 21.7107 12.1151 21.447C11.6482 21.3031 11.1883 21.165 10.726 21.0211C10.645 20.9917 10.5668 20.9551 10.4926 20.9117C10.0886 20.6918 10.0571 20.2843 10.4237 20.0022C10.8545 19.6707 11.3797 19.5417 11.8759 19.3495C13.432 18.7578 14.994 18.1787 16.5536 17.5927C18.5771 16.8329 20.5982 16.0711 22.617 15.3075C24.0124 14.7802 25.4071 14.251 26.801 13.7199C27.3847 13.4954 27.8434 13.6048 28.0851 14.0158C28.2007 14.223 28.1435 14.4464 28.168 14.7042Z" fill="#333333"/>
</svg>
